<svg width="58" height="72" viewBox="0 0 58 72" fill="none" xmlns="http://www.w3.org/2000/svg">
<path fill-rule="evenodd" clip-rule="evenodd" d="M5.96682 17.2881C6.13518 17.1572 6.33519 17.0533 6.55539 16.9824C6.7756 16.9115 7.01166 16.875 7.25007 16.875C7.48847 16.875 7.72454 16.9115 7.94474 16.9824C8.16494 17.0533 8.36495 17.1572 8.53332 17.2881L29.0001 33.1703L49.4668 17.2881C49.8072 17.0241 50.2688 16.8757 50.7501 16.8757C51.2314 16.8757 51.693 17.0241 52.0333 17.2881C52.3737 17.5522 52.5649 17.9103 52.5649 18.2838C52.5649 18.6572 52.3737 19.0153 52.0333 19.2794L30.2833 36.1544C30.1149 36.2854 29.9149 36.3893 29.6947 36.4601C29.4745 36.531 29.2385 36.5675 29.0001 36.5675C28.7617 36.5675 28.5256 36.531 28.3054 36.4601C28.0852 36.3893 27.8852 36.2854 27.7168 36.1544L5.96682 19.2794C5.79802 19.1488 5.66411 18.9936 5.57273 18.8227C5.48136 18.6519 5.43433 18.4687 5.43433 18.2838C5.43433 18.0988 5.48136 17.9156 5.57273 17.7448C5.66411 17.5739 5.79802 17.4188 5.96682 17.2881V17.2881Z" fill="white"/>
<path fill-rule="evenodd" clip-rule="evenodd" d="M5.96682 7.44164C6.13518 7.31068 6.33519 7.20678 6.55539 7.13589C6.7756 7.065 7.01166 7.0285 7.25007 7.0285C7.48847 7.0285 7.72454 7.065 7.94474 7.13589C8.16494 7.20678 8.36495 7.31068 8.53332 7.44164L29.0001 23.3238L49.4668 7.44164C49.6353 7.31089 49.8354 7.20718 50.0556 7.13642C50.2758 7.06566 50.5117 7.02924 50.7501 7.02924C50.9884 7.02924 51.2244 7.06566 51.4446 7.13642C51.6647 7.20718 51.8648 7.31089 52.0333 7.44164C52.2018 7.57239 52.3355 7.72761 52.4267 7.89844C52.5179 8.06927 52.5649 8.25236 52.5649 8.43727C52.5649 8.62217 52.5179 8.80527 52.4267 8.9761C52.3355 9.14693 52.2018 9.30215 52.0333 9.43289L30.2833 26.3079C30.1149 26.4389 29.9149 26.5428 29.6947 26.6136C29.4745 26.6845 29.2385 26.721 29.0001 26.721C28.7617 26.721 28.5256 26.6845 28.3054 26.6136C28.0852 26.5428 27.8852 26.4389 27.7168 26.3079L5.96682 9.43289C5.79802 9.30226 5.66411 9.14708 5.57273 8.97624C5.48136 8.80539 5.43433 8.62224 5.43433 8.43727C5.43433 8.2523 5.48136 8.06914 5.57273 7.8983C5.66411 7.72745 5.79802 7.57227 5.96682 7.44164V7.44164Z" fill="#9FD8DF"/>
<path fill-rule="evenodd" clip-rule="evenodd" d="M5.96682 44.2881C6.13518 44.1572 6.33519 44.0533 6.55539 43.9824C6.7756 43.9115 7.01166 43.875 7.25007 43.875C7.48847 43.875 7.72454 43.9115 7.94474 43.9824C8.16494 44.0533 8.36495 44.1572 8.53332 44.2881L29.0001 60.1703L49.4668 44.2881C49.8072 44.0241 50.2688 43.8757 50.7501 43.8757C51.2314 43.8757 51.693 44.0241 52.0333 44.2881C52.3737 44.5522 52.5649 44.9103 52.5649 45.2838C52.5649 45.6572 52.3737 46.0153 52.0333 46.2794L30.2833 63.1544C30.1149 63.2854 29.9149 63.3893 29.6947 63.4601C29.4745 63.531 29.2385 63.5675 29.0001 63.5675C28.7617 63.5675 28.5256 63.531 28.3054 63.4601C28.0852 63.3893 27.8852 63.2854 27.7168 63.1544L5.96682 46.2794C5.79802 46.1488 5.66411 45.9936 5.57273 45.8227C5.48136 45.6519 5.43433 45.4687 5.43433 45.2838C5.43433 45.0988 5.48136 44.9156 5.57273 44.7448C5.66411 44.5739 5.79802 44.4188 5.96682 44.2881V44.2881Z" fill="white"/>
<path fill-rule="evenodd" clip-rule="evenodd" d="M5.96682 34.4416C6.13518 34.3107 6.33519 34.2068 6.55539 34.1359C6.7756 34.065 7.01166 34.0285 7.25007 34.0285C7.48847 34.0285 7.72454 34.065 7.94474 34.1359C8.16494 34.2068 8.36495 34.3107 8.53332 34.4416L29.0001 50.3238L49.4668 34.4416C49.6353 34.3109 49.8354 34.2072 50.0556 34.1364C50.2758 34.0657 50.5117 34.0292 50.7501 34.0292C50.9884 34.0292 51.2244 34.0657 51.4446 34.1364C51.6647 34.2072 51.8648 34.3109 52.0333 34.4416C52.2018 34.5724 52.3355 34.7276 52.4267 34.8984C52.5179 35.0693 52.5649 35.2524 52.5649 35.4373C52.5649 35.6222 52.5179 35.8053 52.4267 35.9761C52.3355 36.1469 52.2018 36.3021 52.0333 36.4329L30.2833 53.3079C30.1149 53.4389 29.9149 53.5428 29.6947 53.6136C29.4745 53.6845 29.2385 53.721 29.0001 53.721C28.7617 53.721 28.5256 53.6845 28.3054 53.6136C28.0852 53.5428 27.8852 53.4389 27.7168 53.3079L5.96682 36.4329C5.79802 36.3023 5.66411 36.1471 5.57273 35.9762C5.48136 35.8054 5.43433 35.6222 5.43433 35.4373C5.43433 35.2523 5.48136 35.0691 5.57273 34.8983C5.66411 34.7275 5.79802 34.5723 5.96682 34.4416V34.4416Z" fill="white"/>
</svg>
