<svg width="58" height="72" viewBox="0 0 58 72" fill="none" xmlns="http://www.w3.org/2000/svg">
<path fill-rule="evenodd" clip-rule="evenodd" d="M5.96682 17.2881C6.13518 17.1572 6.33519 17.0533 6.55539 16.9824C6.7756 16.9115 7.01166 16.875 7.25007 16.875C7.48847 16.875 7.72454 16.9115 7.94474 16.9824C8.16494 17.0533 8.36495 17.1572 8.53332 17.2881L29.0001 33.1703L49.4668 17.2881C49.8072 17.0241 50.2687 16.8757 50.7501 16.8757C51.2314 16.8757 51.693 17.0241 52.0333 17.2881C52.3737 17.5522 52.5648 17.9103 52.5648 18.2838C52.5648 18.6572 52.3737 19.0153 52.0333 19.2794L30.2833 36.1544C30.1149 36.2854 29.9149 36.3893 29.6947 36.4601C29.4745 36.531 29.2385 36.5675 29.0001 36.5675C28.7617 36.5675 28.5256 36.531 28.3054 36.4601C28.0852 36.3893 27.8852 36.2854 27.7168 36.1544L5.96682 19.2794C5.79802 19.1488 5.66411 18.9936 5.57273 18.8227C5.48136 18.6519 5.43433 18.4687 5.43433 18.2838C5.43433 18.0988 5.48136 17.9156 5.57273 17.7448C5.66411 17.5739 5.79802 17.4188 5.96682 17.2881Z" fill="white"/>
<path fill-rule="evenodd" clip-rule="evenodd" d="M5.96682 7.44048C6.13518 7.30952 6.33519 7.20562 6.55539 7.13473C6.7756 7.06384 7.01166 7.02734 7.25007 7.02734C7.48847 7.02734 7.72454 7.06384 7.94474 7.13473C8.16494 7.20562 8.36495 7.30952 8.53332 7.44048L29.0001 23.3227L49.4668 7.44048C49.6353 7.30974 49.8354 7.20602 50.0556 7.13526C50.2758 7.0645 50.5117 7.02808 50.7501 7.02808C50.9884 7.02808 51.2244 7.0645 51.4446 7.13526C51.6647 7.20602 51.8648 7.30974 52.0333 7.44048C52.2018 7.57123 52.3355 7.72645 52.4267 7.89728C52.5179 8.06811 52.5648 8.2512 52.5648 8.43611C52.5648 8.62101 52.5179 8.80411 52.4267 8.97494C52.3355 9.14577 52.2018 9.30099 52.0333 9.43173L30.2833 26.3067C30.1149 26.4377 29.9149 26.5416 29.6947 26.6125C29.4745 26.6834 29.2385 26.7199 29.0001 26.7199C28.7617 26.7199 28.5256 26.6834 28.3054 26.6125C28.0852 26.5416 27.8852 26.4377 27.7168 26.3067L5.96682 9.43173C5.79802 9.3011 5.66411 9.14592 5.57273 8.97508C5.48136 8.80423 5.43433 8.62108 5.43433 8.43611C5.43433 8.25114 5.48136 8.06798 5.57273 7.89714C5.66411 7.72629 5.79802 7.57111 5.96682 7.44048Z" fill="#9FD8DF"/>
<path fill-rule="evenodd" clip-rule="evenodd" d="M5.96682 44.2881C6.13518 44.1572 6.33519 44.0533 6.55539 43.9824C6.7756 43.9115 7.01166 43.875 7.25007 43.875C7.48847 43.875 7.72454 43.9115 7.94474 43.9824C8.16494 44.0533 8.36495 44.1572 8.53332 44.2881L29.0001 60.1703L49.4668 44.2881C49.8072 44.0241 50.2687 43.8757 50.7501 43.8757C51.2314 43.8757 51.693 44.0241 52.0333 44.2881C52.3737 44.5522 52.5648 44.9103 52.5648 45.2838C52.5648 45.6572 52.3737 46.0153 52.0333 46.2794L30.2833 63.1544C30.1149 63.2854 29.9149 63.3893 29.6947 63.4601C29.4745 63.531 29.2385 63.5675 29.0001 63.5675C28.7617 63.5675 28.5256 63.531 28.3054 63.4601C28.0852 63.3893 27.8852 63.2854 27.7168 63.1544L5.96682 46.2794C5.79802 46.1488 5.66411 45.9936 5.57273 45.8227C5.48136 45.6519 5.43433 45.4687 5.43433 45.2838C5.43433 45.0988 5.48136 44.9156 5.57273 44.7448C5.66411 44.5739 5.79802 44.4188 5.96682 44.2881Z" fill="white"/>
<path fill-rule="evenodd" clip-rule="evenodd" d="M5.96682 34.4405C6.13518 34.3095 6.33519 34.2056 6.55539 34.1347C6.7756 34.0638 7.01166 34.0273 7.25007 34.0273C7.48847 34.0273 7.72454 34.0638 7.94474 34.1347C8.16494 34.2056 8.36495 34.3095 8.53332 34.4405L29.0001 50.3227L49.4668 34.4405C49.6353 34.3097 49.8354 34.206 50.0556 34.1353C50.2758 34.0645 50.5117 34.0281 50.7501 34.0281C50.9884 34.0281 51.2244 34.0645 51.4446 34.1353C51.6647 34.206 51.8648 34.3097 52.0333 34.4405C52.2018 34.5712 52.3355 34.7264 52.4267 34.8973C52.5179 35.0681 52.5648 35.2512 52.5648 35.4361C52.5648 35.621 52.5179 35.8041 52.4267 35.9749C52.3355 36.1458 52.2018 36.301 52.0333 36.4317L30.2833 53.3067C30.1149 53.4377 29.9149 53.5416 29.6947 53.6125C29.4745 53.6834 29.2385 53.7199 29.0001 53.7199C28.7617 53.7199 28.5256 53.6834 28.3054 53.6125C28.0852 53.5416 27.8852 53.4377 27.7168 53.3067L5.96682 36.4317C5.79802 36.3011 5.66411 36.1459 5.57273 35.9751C5.48136 35.8042 5.43433 35.6211 5.43433 35.4361C5.43433 35.2511 5.48136 35.068 5.57273 34.8971C5.66411 34.7263 5.79802 34.5711 5.96682 34.4405Z" fill="white"/>
</svg>
