<svg width="133" height="133" viewBox="0 0 133 133" fill="none" xmlns="http://www.w3.org/2000/svg">
<path d="M17.6213 127.681L17.2101 132.025H0V79.4439H17.0558L17.6856 81.4103L18.5082 81.3204C18.5987 81.2912 18.682 81.243 18.7524 81.179C28.0579 73.6343 38.8544 72.1819 50.4091 72.7603C58.7507 73.223 67.1179 72.8374 75.498 72.8632C81.3847 72.8632 85.112 76.1535 85.2277 81.3461C85.3434 86.5387 81.5132 90.2789 75.6394 90.3431C68.4161 90.4588 61.1799 90.3431 53.9566 90.4459C52.48 90.4295 51.0569 90.9978 49.9978 92.0269C49.2033 93.3461 48.9587 94.9247 49.3166 96.4226C49.8179 98.4662 51.6816 99.2116 53.7766 99.1988H71.7707C76.4363 99.1988 81.1148 99.4558 85.7418 99.0831C88.0575 98.8864 90.2586 97.9899 92.0526 96.5125C99.8286 89.6748 107.335 82.5286 114.982 75.5366C116.498 74.0956 118.418 73.1514 120.485 72.8299C122.552 72.5084 124.668 72.8249 126.55 73.7372C130.406 75.7422 132.475 79.0197 131.909 83.274C131.562 85.6681 130.51 87.9048 128.889 89.7005C119.982 98.9417 110.895 107.939 101.744 117C96.3455 122.385 89.4049 123.902 82.1944 125.29C63.1335 128.953 43.9184 127.012 24.7676 127.527C22.4412 127.681 20.0891 127.681 17.6213 127.681ZM17.4029 123.632C21.3873 123.632 24.8833 123.632 28.3921 123.632C46.5019 123.414 64.6759 124.66 82.67 121.062C88.4409 119.892 94.0576 118.671 98.3762 114.404C107.57 105.261 116.704 96.0884 125.779 86.8857C126.689 85.9379 127.324 84.7606 127.617 83.4797C127.873 82.3486 127.73 81.1637 127.212 80.1259C126.695 79.0882 125.834 78.2614 124.776 77.7858C122.206 76.3463 119.828 77.0018 117.733 78.9297C110.188 85.896 102.759 92.978 95.0473 99.7515C93.0937 101.487 90.3303 103.235 87.8754 103.312C76.1021 103.684 64.3031 103.62 52.517 103.44C50.2695 103.268 48.1767 102.23 46.6807 100.544C45.1847 98.8575 44.4024 96.6561 44.4992 94.4041C44.5959 92.152 45.5641 90.0258 47.1992 88.4742C48.8344 86.9227 51.0085 86.0673 53.2625 86.0888C58.198 86.0888 63.1464 86.0888 68.0948 86.0888C70.8453 86.0888 73.6087 86.1916 76.3592 86.0888C76.9578 86.0977 77.5521 85.9853 78.1062 85.7584C78.6602 85.5314 79.1626 85.1946 79.583 84.7682C80.0033 84.3419 80.333 83.8348 80.5521 83.2776C80.7712 82.7203 80.8751 82.1245 80.8577 81.526C80.8577 78.9554 79.0968 77.3231 76.2435 77.0918C75.4852 77.0918 74.7269 77.0918 73.9557 77.0918C65.974 77.0918 57.9538 77.5545 50.0107 76.9761C38.6487 76.1407 28.5592 78.7369 19.6393 85.8318C19.5679 85.8976 19.4852 85.9499 19.3951 85.986C17.7499 86.5515 17.4029 87.8368 17.4029 89.5205C17.4928 96.9367 17.4029 104.353 17.4029 111.782V123.632ZM4.40855 83.7881V127.578H12.8915V83.801L4.40855 83.7881Z" fill="#50B5AC"/>
<path d="M44.7282 22.1327C47.5816 22.1327 50.4349 22.0428 53.2754 22.1327C54.0206 22.2536 54.7838 22.0873 55.4111 21.6675C56.0385 21.2476 56.4833 20.6055 56.6558 19.8706C58.8022 14.1896 61.0514 8.53434 63.4421 2.95617C63.9305 1.79941 65.1901 0.976822 66.0898 0C67.0294 0.820448 67.8397 1.77808 68.4933 2.8405C70.8582 8.42723 73.1161 14.0654 75.2668 19.7549C75.4593 20.5259 75.9317 21.1977 76.5922 21.6395C77.2526 22.0814 78.0538 22.2618 78.8399 22.1456C84.4523 22.0342 90.0648 22.0342 95.6772 22.1456C96.7825 22.3846 97.836 22.82 98.7876 23.4309C98.4205 24.5447 97.8447 25.5785 97.091 26.477C92.9267 29.7802 88.7109 33.0577 84.3152 36.0524C82.0274 37.6205 81.6161 39.1371 82.4258 41.7206C84.2124 47.4273 85.6519 53.2882 87.2328 58.9949C87.4546 59.5199 87.5725 60.083 87.5799 60.6529C87.4128 61.5912 87.2842 62.9536 86.6673 63.3006C86.1985 63.4173 85.7089 63.4223 85.2379 63.3151C84.7668 63.208 84.3275 62.9917 83.9553 62.6837C79.264 58.6736 74.6884 54.5221 70.0742 50.422C65.9098 46.7204 65.9099 46.7204 61.4884 50.2421C56.5786 54.0979 51.7331 58.1466 46.7462 61.9511C45.5369 62.597 44.2369 63.0563 42.8903 63.3135C42.8903 61.8354 42.3762 60.2031 42.826 58.8792C44.9082 52.6841 47.1831 46.5404 49.5224 40.4353C49.7077 40.1152 49.8259 39.7608 49.8698 39.3935C49.9137 39.0263 49.8824 38.654 49.7778 38.2993C49.6732 37.9445 49.4974 37.6148 49.2613 37.3302C49.0251 37.0455 48.7335 36.812 48.4042 36.6437C43.8542 33.379 39.3729 30.0073 34.96 26.5284C34.1701 25.6576 33.5354 24.6577 33.0835 23.5723C34.1232 22.9211 35.2599 22.4396 36.451 22.1456C39.2529 21.9913 41.9649 22.1327 44.7282 22.1327ZM42.5304 26.1428L42.2605 26.9397L51.656 34.0345C55.1777 36.6822 55.2034 36.785 53.7381 40.8337L48.9183 54.0337C49.9994 53.8665 51.0086 53.3887 51.8231 52.6584C55.6789 49.5866 59.5348 46.5533 63.3907 43.3786C65.2672 41.7977 66.7581 41.7463 68.5318 43.4557C72.0664 46.7718 75.7423 49.8822 79.3669 53.134C79.881 53.5838 80.4851 53.9308 81.5004 54.6635C81.3076 53.5324 81.2562 52.9797 81.1149 52.4528C79.9838 48.2499 78.8913 44.0212 77.6574 39.844C76.9762 37.5691 77.2461 35.9882 79.4183 34.5101C82.4258 32.5307 85.1892 30.1786 88.1197 28.0836C88.7764 27.7307 89.4827 27.4794 90.2147 27.3382L89.2636 26.0529H81.0634C73.3517 26.0529 73.3517 26.0529 70.4469 18.9323C69.0588 15.4878 67.645 12.056 66.244 8.65001C63.7772 13.2249 61.6631 17.9815 59.9204 22.8782C59.0464 25.3074 57.8125 26.3099 55.152 26.1557C50.9876 25.9115 46.759 26.1428 42.5304 26.1428Z" fill="#50B5AC"/>
<path d="M67.9536 59.5604C67.9536 60.8457 67.9536 62.221 67.9536 63.5448C67.9536 65.0615 67.478 66.1154 65.8842 65.717C65.4309 65.5562 65.0227 65.2891 64.694 64.9379C64.3652 64.5868 64.1255 64.162 63.9949 63.699C63.7634 60.8547 63.7634 57.9962 63.9949 55.1519C63.9949 54.4578 65.2802 53.8666 65.9871 53.1854C66.6426 53.8794 67.6708 54.4707 67.8507 55.2932C68.0462 56.7072 68.0807 58.1387 67.9536 59.5604Z" fill="#50B5AC"/>
<path d="M96.7953 43.5714C95.3779 43.6898 93.952 43.6597 92.541 43.4814C91.834 43.3272 91.2556 42.299 90.7158 41.6563C91.3199 41.1165 91.8983 40.1397 92.5281 40.114C95.5634 39.9469 98.6055 39.9469 101.641 40.114C102.024 40.2368 102.37 40.4562 102.645 40.751C102.919 41.0458 103.114 41.4062 103.209 41.7977C103.114 42.1911 102.918 42.5531 102.641 42.8483C102.364 43.1434 102.015 43.3616 101.628 43.4814C100.022 43.6402 98.406 43.6703 96.7953 43.5714Z" fill="#50B5AC"/>
<path d="M35.2171 40.0368C36.6389 39.9335 38.0672 39.9593 39.4843 40.1139C39.871 40.2335 40.2217 40.4478 40.5045 40.7373C40.7873 41.0269 40.9933 41.3825 41.1038 41.7719C41.0159 42.1657 40.8277 42.53 40.5575 42.8296C40.2872 43.1291 39.9441 43.3536 39.5614 43.4814C36.6249 43.6549 33.6808 43.6549 30.7443 43.4814C30.3566 43.3665 30.005 43.1535 29.7236 42.8631C29.4421 42.5726 29.2404 42.2145 29.1377 41.8234C29.2244 41.4291 29.4122 41.0642 29.6826 40.7645C29.953 40.4647 30.2967 40.2406 30.6801 40.1139C32.1875 39.9594 33.7053 39.9336 35.2171 40.0368Z" fill="#50B5AC"/>
<path d="M41.2324 7.50611C42.2478 5.65529 43.5588 5.46249 45.461 7.50611C47.3633 9.54972 49.6125 11.2849 52.2859 13.6627L49.2012 15.8605L41.2324 7.50611Z" fill="#50B5AC"/>
<path d="M80.8838 14.2025L88.9169 5.84808L90.9219 7.73746L82.8374 16.0662L80.8838 14.2025Z" fill="#50B5AC"/>
</svg>
