<svg width="135" height="115" viewBox="0 0 135 115" fill="none" xmlns="http://www.w3.org/2000/svg">
<path d="M88.1125 37.916L117.333 68.136C123.848 62.4348 128.002 54.508 128.983 45.906C129.981 38.5715 128.666 31.1083 125.223 24.556C124.734 23.7925 124.513 22.8887 124.593 21.986C124.873 20.986 125.663 19.666 126.453 19.496C126.998 19.4782 127.539 19.5958 128.028 19.8384C128.516 20.081 128.937 20.4409 129.253 20.886C138.623 38.736 134.783 59.196 121.473 71.496C119.29 73.5873 117.283 75.8549 115.473 78.276C113.473 80.876 111.123 82.696 107.783 82.566C104.933 90.746 103.933 91.736 97.0325 93.216C96.5425 98.826 93.6025 102.216 87.9225 103.276C87.5537 103.445 87.229 103.698 86.974 104.014C86.719 104.329 86.5405 104.7 86.4525 105.096C85.5925 109.366 83.7025 112.826 79.1725 113.796C74.6425 114.766 70.6925 113.386 68.0325 109.206C66.8547 107.675 65.5787 106.222 64.2125 104.856L61.7725 108.746C59.3825 112.546 55.7725 113.356 51.7725 112.586C47.7725 111.816 45.6025 108.706 44.7025 104.996C44.1825 102.836 43.4225 102.046 41.1725 101.536C36.4025 100.436 34.2325 96.776 33.8525 91.906C27.6825 91.226 24.0725 87.906 23.5325 81.736C18.3325 80.546 14.6325 77.896 13.3325 72.516C12.9595 71.5903 12.3614 70.7723 11.5925 70.136C-0.407486 57.976 -3.18748 39.336 3.70251 23.646C14.2025 -0.174006 45.3325 -7.42401 65.4325 8.766C66.9425 9.986 67.7725 9.616 69.1425 8.606C82.7425 -1.394 97.2325 -2.614 112.413 4.606C113.012 4.93454 113.533 5.38884 113.941 5.93773C114.348 6.48662 114.632 7.11712 114.773 7.786C114.953 9.646 112.773 10.216 110.543 9.42599C106.543 8.03599 102.643 6.316 98.5425 5.706C87.1925 3.996 77.3125 7.58599 69.1625 15.566C63.0025 21.566 57.1625 27.896 51.1625 34.116C48.6025 36.786 48.5125 40.326 50.8525 42.766C53.1925 45.206 57.3725 45.616 59.6225 42.676C64.9625 35.676 71.5325 32.756 80.2925 34.036C83.7825 34.556 86.7925 32.476 89.2925 29.946C90.7025 28.506 92.1525 27.096 93.5725 25.656C94.9925 24.216 96.3125 24.016 97.6625 25.346C99.0125 26.676 98.5225 28.086 97.3425 29.226C94.3325 32.056 91.3325 34.856 88.1125 37.916ZM58.3825 87.806C65.0225 89.036 68.6325 92.396 68.1825 97.806C67.9955 99.1869 68.1901 100.593 68.7454 101.871C69.3008 103.149 70.1955 104.25 71.3325 105.056C72.0425 105.636 72.6125 106.376 73.3325 106.986C75.5925 108.986 78.0725 108.986 79.9925 107.046C81.9125 105.106 81.9325 102.566 79.9425 100.376C77.9525 98.186 75.9425 96.316 73.9425 94.296C71.2825 91.626 68.6425 88.946 65.9425 86.296C64.6825 85.056 63.9425 83.646 65.3625 82.226C66.7825 80.806 68.3625 81.306 69.6825 82.646C70.0625 83.046 70.4525 83.426 70.8525 83.816C75.0225 87.966 79.0925 92.226 83.4425 96.166C84.1059 96.7372 84.8797 97.1659 85.7157 97.4257C86.5517 97.6854 87.4322 97.7706 88.3025 97.676C89.0801 97.3865 89.7762 96.9135 90.3316 96.2971C90.887 95.6808 91.2853 94.9394 91.4925 94.136C91.5081 92.3683 90.8336 90.6642 89.6125 89.386C83.0925 82.386 76.3825 75.646 69.7325 68.796C68.4525 67.476 67.7325 66.046 69.3025 64.516C70.8725 62.986 72.1425 63.816 73.3025 65.076C78.5225 70.486 83.7325 75.916 88.9725 81.306C90.7625 83.146 92.5725 84.996 94.5125 86.666C95.2721 87.2609 96.1995 87.6018 97.1636 87.6406C98.1276 87.6795 99.0795 87.4142 99.8845 86.8823C100.689 86.3504 101.307 85.5789 101.649 84.6769C101.992 83.7749 102.042 82.7881 101.793 81.856C101.35 80.4767 100.601 79.2152 99.6025 78.166C93.3625 71.786 87.0325 65.516 80.7425 59.166C80.1625 58.586 79.3025 58.026 79.1525 57.326C79.0092 56.8361 78.9663 56.3222 79.0264 55.8153C79.0866 55.3083 79.2485 54.8188 79.5025 54.376C79.9195 54.0888 80.393 53.8938 80.8914 53.8041C81.3898 53.7145 81.9015 53.7322 82.3925 53.856C83.1825 54.036 83.8425 54.916 84.4925 55.556C90.9925 62.056 97.4925 68.556 103.983 75.056C106.223 77.286 108.863 77.406 110.833 75.516C112.803 73.626 112.833 70.826 110.533 68.466C101.499 59.1993 92.4358 49.9593 83.3425 40.746C82.3961 39.9684 81.2482 39.476 80.0325 39.326C73.3625 38.146 68.2525 40.326 63.7825 45.686C59.1825 51.256 52.0325 51.256 47.3325 46.486C42.6325 41.716 43.0125 34.976 48.0525 29.806C52.9125 24.806 57.7225 19.806 62.5325 14.736C62.7934 14.4251 63.0244 14.0903 63.2225 13.736C48.6825 0.735994 25.6825 2.606 13.2225 18.116C0.142511 34.386 4.33251 56.136 14.5825 65.256C16.5825 63.356 18.5825 61.446 20.5825 59.566C23.4925 56.846 26.8625 55.826 30.7125 57.076C32.489 57.5977 34.0742 58.6272 35.2734 60.0378C36.4726 61.4484 37.2335 63.1787 37.4625 65.016C37.5825 65.726 38.3225 66.806 38.8925 66.886C44.7425 67.736 47.3725 71.456 48.0725 77.086C54.7825 77.416 57.3325 81.866 58.3825 87.806ZM32.3825 86.436C36.7325 86.436 43.1325 79.716 42.5225 76.436C42.3588 75.661 42.0384 74.9278 41.581 74.2812C41.1236 73.6346 40.5388 73.0883 39.8625 72.676C39.1316 72.4063 38.3501 72.3015 37.5739 72.3689C36.7977 72.4363 36.046 72.6744 35.3725 73.066C33.1568 74.5482 31.2568 76.455 29.7825 78.676C28.9926 80.3504 28.8921 82.2681 29.5025 84.016C29.9625 85.256 31.8225 85.976 32.4125 86.436H32.3825ZM32.8125 65.836C31.8125 64.676 30.9325 62.836 29.5825 62.346C28.7924 62.1043 27.9609 62.0284 27.1401 62.123C26.3193 62.2177 25.5269 62.4808 24.8125 62.896C22.8344 64.3669 21.0649 66.0994 19.5525 68.046C18.787 68.9205 18.394 70.0598 18.4576 71.2203C18.5211 72.3807 19.0361 73.4703 19.8925 74.256C21.7225 75.956 23.8925 76.316 25.8925 74.706C27.9014 72.9872 29.7737 71.1149 31.4925 69.106C32.0625 68.406 32.2325 67.306 32.8425 65.836H32.8125ZM63.6925 97.496C62.6925 96.276 61.9625 94.496 60.6925 94.006C59.8747 93.7372 59.0117 93.6332 58.1535 93.7002C57.2952 93.7671 56.4588 94.0036 55.6925 94.396C53.6848 95.8281 51.9105 97.5619 50.4325 99.536C49.7121 100.422 49.3447 101.543 49.4007 102.684C49.4568 103.824 49.9324 104.904 50.7362 105.715C51.54 106.527 52.6152 107.012 53.7553 107.079C54.8953 107.145 56.0198 106.788 56.9125 106.076C58.7722 104.46 60.5133 102.712 62.1225 100.846C62.7954 99.8015 63.333 98.6758 63.7225 97.496H63.6925ZM53.4325 87.116C52.3025 85.816 51.4325 84.016 50.0925 83.516C49.2985 83.2915 48.4671 83.2307 47.6488 83.3372C46.8306 83.4438 46.0425 83.7156 45.3325 84.136C43.4111 85.5642 41.6922 87.2462 40.2225 89.136C39.8077 89.5726 39.486 90.0891 39.277 90.654C39.0681 91.2189 38.9763 91.8203 39.0071 92.4218C39.038 93.0233 39.1909 93.6123 39.4566 94.1528C39.7223 94.6933 40.0951 95.1741 40.5525 95.566C40.9597 95.9766 41.4442 96.3025 41.9779 96.5249C42.5117 96.7473 43.0843 96.8618 43.6625 96.8618C44.2408 96.8618 44.8133 96.7473 45.3471 96.5249C45.8809 96.3025 46.3653 95.9766 46.7725 95.566C48.4874 94.0362 50.1039 92.3996 51.6125 90.666C52.3562 89.5533 52.9766 88.363 53.4625 87.116H53.4325Z" fill="#50B5AC"/>
</svg>
