<svg width="123" height="149" viewBox="0 0 123 149" fill="none" xmlns="http://www.w3.org/2000/svg">
<path d="M61.5857 120.548C56.2409 120.548 50.882 120.548 45.5373 120.548C42.8293 120.548 41.6178 119.608 41.6605 116.7C41.7874 112.905 41.1415 109.124 39.7621 105.586C38.3827 102.048 36.2986 98.8272 33.6363 96.1195C22.5763 84.1758 20.0821 69.8947 26.5956 54.8725C33.0092 40.0783 45.0242 32.5387 61.0013 31.8403C75.995 31.1847 90.5184 40.8052 96.6328 54.73C102.79 68.897 100.096 85.6296 89.2927 96.262C86.7046 98.7595 84.6706 101.773 83.3225 105.108C81.9745 108.442 81.3427 112.023 81.468 115.617C81.468 120.263 81.1687 120.534 76.3941 120.548H61.5857ZM61.2864 116.159C65.4339 116.159 69.5956 116.059 73.7431 116.159C76.0378 116.159 77.0355 115.56 77.178 113.08C77.5156 105.629 80.6089 98.5685 85.8578 93.269C95.7206 82.9073 98.1151 70.4648 92.6848 57.2384C87.2546 44.012 76.7504 36.6862 62.4978 36.2586C47.9459 35.774 37.1282 42.7293 30.6861 55.7704C27.6671 61.7855 26.61 68.5958 27.6633 75.243C28.7167 81.8903 31.8275 88.04 36.5581 92.8271C42.0811 98.3287 45.3885 105.669 45.8508 113.451C46.0503 115.888 47.0338 116.301 49.1004 116.301C53.2051 116.073 57.2386 116.159 61.2864 116.159Z" fill="#50B5AC"/>
<path d="M61.2292 134.872C56.5401 134.872 51.8368 134.872 47.1477 134.872C42.8719 134.872 40.3064 132.592 40.3492 129.043C40.3919 125.494 42.8719 123.413 46.9624 123.342C56.5686 123.342 66.1749 123.342 75.7811 123.342C80.0569 123.342 82.2518 125.309 82.323 128.943C82.3943 132.578 80.0711 134.715 75.9664 134.801C71.0492 134.943 66.1463 134.872 61.2292 134.872ZM44.853 128.9C47.1904 130.554 74.7834 130.71 77.6339 129.242C76.0661 127.475 48.0883 127.048 44.853 128.9Z" fill="#50B5AC"/>
<path d="M61.4428 148.854C57.9509 148.854 54.459 148.854 50.9671 148.854C47.4753 148.854 45.0238 146.588 44.924 143.338C44.8789 142.544 45.0042 141.75 45.2916 141.008C45.5789 140.267 46.0217 139.595 46.5901 139.039C47.1585 138.483 47.8393 138.055 48.5869 137.783C49.3345 137.512 50.1315 137.404 50.9244 137.466C57.9081 137.39 64.8919 137.39 71.8757 137.466C75.5956 137.466 78.0756 139.96 77.9615 143.281C77.9458 144.05 77.7746 144.808 77.4584 145.509C77.1422 146.209 76.6875 146.839 76.1216 147.36C75.5557 147.88 74.8904 148.281 74.1656 148.538C73.4408 148.795 72.6716 148.902 71.9042 148.854C68.4123 148.854 64.9204 148.854 61.4428 148.854ZM49.3851 142.939C52.2356 145.006 71.3056 144.778 73.1014 142.839C70.8637 141.172 52.0076 141.129 49.3851 142.868V142.939Z" fill="#50B5AC"/>
<path d="M63.5673 9.8913C63.6887 12.1664 63.6601 14.447 63.4817 16.7183C63.3392 17.7302 62.1562 18.5854 61.4579 19.5688C60.8165 18.6281 59.6763 17.716 59.6335 16.7183C59.434 12.1575 59.434 7.60138 59.6335 3.05006C59.6335 2.00962 60.731 1.01193 61.3153 0C62.0707 1.01193 63.3107 1.96686 63.4817 3.06431C63.6815 5.3346 63.7101 7.61671 63.5673 9.8913Z" fill="#50B5AC"/>
<path d="M24.9564 10.6039C25.7033 11.1485 26.3827 11.78 26.9802 12.4853C29.5742 16.3762 32.1397 20.2814 34.5056 24.3149C34.9474 25.0418 34.4201 26.353 34.3345 27.3935C33.3369 27.1227 31.8689 27.1654 31.484 26.5098C28.6335 22.4051 25.9398 18.1863 23.4313 13.882C23.0037 13.1551 23.7164 11.7726 23.9017 10.7037L24.9564 10.6039Z" fill="#50B5AC"/>
<path d="M107.194 47.062C106.78 46.7342 105.868 46.3494 105.768 45.822C105.669 45.2947 105.883 43.8694 106.396 43.5844C111.013 40.9477 115.688 38.4107 120.449 36.0163C121.033 35.7312 122.13 36.4438 123 36.6861C122.729 37.5413 122.715 38.824 122.145 39.1518C117.541 41.8028 112.824 44.2828 108.134 46.7912C107.829 46.9089 107.515 46.9995 107.194 47.062Z" fill="#50B5AC"/>
<path d="M89.5779 29.0183C89.2501 27.593 88.5089 26.1677 88.8938 25.5406C91.6445 21.0938 94.5948 16.761 97.5878 12.5138C97.9869 11.9579 99.2696 12.0434 100.139 11.8296C100.31 12.699 100.894 13.8392 100.552 14.3951C97.7874 18.8277 94.8513 23.1604 91.9153 27.479C91.6017 27.9493 90.9034 28.1631 89.5779 29.0183Z" fill="#50B5AC"/>
<path d="M17.7017 45.7366C16.4475 46.1214 15.2075 46.9623 14.5519 46.6345C9.97681 44.3541 5.5015 41.8741 1.0832 39.3087C0.456086 38.9381 0.342062 37.6981 0 36.8715C0.82665 36.5437 1.90985 35.717 2.43719 35.9878C7.16905 38.3965 11.8296 40.9905 16.476 43.5844C16.8893 43.8125 17.0033 44.4824 17.7017 45.7366Z" fill="#50B5AC"/>
<path d="M91.2457 71.1347L89.1078 73.3866C88.3524 72.4459 87.0411 71.5623 86.9271 70.5361C85.5019 58.6494 79.587 50.4969 67.9284 46.9623C65.9758 46.3779 63.8094 46.4492 61.8426 45.8933C60.9161 45.6368 60.2035 44.6106 59.3911 43.9407C60.2463 43.1569 61.2154 41.6318 61.9281 41.7316C65.8209 42.0821 69.6528 42.93 73.3302 44.2543C84.5469 49.0859 90.2052 58.1363 91.2457 71.1347Z" fill="#50B5AC"/>
</svg>
