<svg width="145" height="130" viewBox="0 0 145 130" fill="none" xmlns="http://www.w3.org/2000/svg">
<path d="M67.1312 0C71.2687 0.407315 72.4906 1.41488 74.2378 3.21565C85.5247 15.0064 96.5865 26.9364 107.734 38.8129C111.282 42.5859 114.776 46.4125 118.453 50.0248C119.472 50.8677 120.779 51.2792 122.097 51.1717C124.841 50.8608 127.532 50.0998 130.244 49.4995C133.459 48.835 134.135 49.253 134.831 52.3615C136.775 61.1295 138.715 69.901 140.652 78.6762C141.927 84.3571 143.246 90.0381 144.532 95.7191C145.4 99.5564 145.057 100.103 141.123 100.982C98.8911 110.393 56.6625 119.822 14.4375 129.269C11.7685 129.869 10.6537 128.958 10.15 126.6C6.82712 111.858 3.53286 97.1125 0.267194 82.3634C-0.429529 79.2228 0.127854 78.0223 3.23631 77.7972C10.0856 77.3042 14.1052 73.7026 17.7174 67.9788C30.58 47.613 43.9571 27.6653 57.1627 7.55677C58.024 6.06613 59.0564 4.68116 60.239 3.43002C61.9647 1.80076 62.8973 0.310846 67.1312 0ZM140.201 96.2979C139.976 94.8294 139.912 94.1542 139.762 93.511C137.382 82.878 134.992 72.252 132.591 61.6332C132.023 59.1358 132.023 55.62 130.447 54.5159C128.872 53.4119 125.624 54.8268 123.159 55.3734C84.6243 63.9485 46.1116 72.5236 7.57743 81.0986C4.99419 81.6667 4.52257 82.6314 5.05851 84.9574C7.556 95.8692 9.95701 106.792 12.3902 117.703C14.0623 125.207 14.0516 125.207 21.5655 123.481C49.7274 117.192 77.9001 110.926 106.083 104.68C116.524 102.354 126.974 100.049 137.404 97.6592C138.387 97.3173 139.326 96.8603 140.201 96.2979ZM19.0144 73.3489L19.6576 74.0885L115.248 52.7902L76.6603 12.0587C74.5165 15.7888 72.0726 18.2434 67.9673 18.5543C63.862 18.8651 61.0751 16.4105 58.3847 13.2592C45.0719 33.5714 32.0378 53.4226 19.0144 73.3489ZM62.3721 9.36825C62.3284 10.037 62.4273 10.7074 62.6624 11.3349C62.8976 11.9625 63.2634 12.5329 63.7358 13.0083C64.2081 13.4837 64.7762 13.8532 65.4022 14.0924C66.0283 14.3315 66.698 14.4348 67.367 14.3954C68.7102 14.3628 69.9922 13.827 70.959 12.8939C71.9258 11.9609 72.5069 10.6987 72.5871 9.35753C72.5508 7.96042 71.9701 6.63276 70.9689 5.65762C69.9678 4.68248 68.6253 4.13699 67.2277 4.13747C66.5581 4.13865 65.896 4.27767 65.2825 4.54589C64.6691 4.81411 64.1174 5.20577 63.6619 5.69648C63.2064 6.18719 62.8568 6.76644 62.6349 7.39814C62.413 8.02984 62.3235 8.70047 62.3721 9.36825Z" fill="#50B5AC"/>
<path d="M99.116 82.1598C98.4514 79.2979 97.8405 76.4359 97.1116 73.5847C96.6828 71.9233 96.6185 70.3691 98.6015 69.9082C100.584 69.4473 101.303 70.7657 101.699 72.4057C103.039 78.0759 104.475 83.7355 105.73 89.4379C105.955 90.5098 105.204 91.7853 104.904 92.9751C103.714 92.6428 102.214 92.675 101.378 91.9032C98.2692 89.1485 95.3751 86.1472 91.9237 83.5425C92.6311 86.4045 93.36 89.2664 94.0674 92.1176C94.4426 93.7683 94.6998 95.5583 92.4596 96.03C90.4445 96.4587 89.8335 94.9581 89.4476 93.3503C88.0756 87.7872 86.6286 82.2241 85.4173 76.6182C85.1815 75.5463 85.9104 74.2064 86.1891 72.9952C87.4646 73.3704 89.0403 73.3811 89.9514 74.1743C92.9527 76.7789 95.7181 79.673 98.5265 82.4492L99.116 82.1598Z" fill="#50B5AC"/>
<path d="M33.4634 89.5129C33.7313 87.144 34.8032 85.5791 36.947 84.8931C39.5051 84.1141 42.1072 83.4877 44.7396 83.0173C45.3055 82.8739 45.8948 82.8476 46.4713 82.94C47.0478 83.0325 47.5993 83.2417 48.0921 83.5548C48.5848 83.8679 49.0085 84.2784 49.337 84.761C49.6655 85.2437 49.892 85.7883 50.0025 86.3616C51.2995 91.2601 52.575 96.1693 53.5933 101.121C53.8636 102.217 53.691 103.375 53.1131 104.344C52.5352 105.313 51.5986 106.015 50.5063 106.299C47.8153 107.287 45.0094 107.928 42.1563 108.207C40.6879 108.282 38.2011 107.017 37.7938 105.806C36.0573 100.478 34.8675 94.9581 33.4634 89.5129ZM48.995 101.807L45.5221 87.6264L38.3833 89.4486L41.9098 103.608L48.995 101.807Z" fill="#50B5AC"/>
<path d="M60.1532 96.598C60.539 98.2273 61.2251 99.6207 61.1071 100.971C61.0428 102.043 60.0996 103.115 59.5422 104.187C58.5882 103.619 56.9911 103.222 56.7767 102.45C55.2011 96.7588 53.9041 90.9921 52.4892 85.3004C52.4678 85.1116 52.4678 84.921 52.4892 84.7323C52.6393 81.5166 55.2654 79.7695 61.2465 79.0191C62.4389 78.8189 63.6625 79.0876 64.6613 79.7688C65.6602 80.45 66.357 81.4911 66.6059 82.6743C67.2276 84.818 67.7743 86.9618 68.2137 89.1056C68.9855 92.8357 67.6135 94.8937 63.9262 95.837C62.7257 95.9763 61.5359 96.2979 60.1532 96.598ZM57.2055 84.8823L59.1027 91.9568L63.7654 90.5633L61.9325 83.6175L57.2055 84.8823Z" fill="#50B5AC"/>
<path d="M76.2201 90.4776L77.1955 94.9045C79.3203 94.2709 81.4925 93.8085 83.6911 93.5218C84.8273 93.4575 86.0171 94.4543 87.1855 94.9688C86.4137 95.9764 85.8563 97.477 84.8488 97.9165C82.784 98.6637 80.6517 99.2093 78.4818 99.5458C77.8584 99.7262 77.2044 99.7757 76.561 99.6912C75.9176 99.6068 75.2985 99.3901 74.7429 99.0549C74.1872 98.7197 73.7069 98.2731 73.3321 97.7434C72.9573 97.2136 72.6961 96.612 72.565 95.9764C71.3359 91.3673 70.1961 86.7225 69.1457 82.0419C68.962 81.4164 68.9107 80.7594 68.9949 80.1129C69.0791 79.4664 69.2971 78.8445 69.6349 78.2869C69.9727 77.7293 70.4229 77.2481 70.9569 76.8741C71.4909 76.5 72.097 76.2413 72.7365 76.1144C74.9095 75.3892 77.1505 74.8864 79.425 74.6138C80.4326 74.528 81.5688 75.6213 82.6407 76.1894C82.0481 77.2127 81.3278 78.1564 80.4969 78.9978C79.6397 79.4119 78.7127 79.6628 77.7636 79.7374C73.3903 80.8093 73.3582 80.8843 75.2661 85.2361C77.0562 85.3004 79.7359 83.8427 80.0682 86.8761C80.1861 88.0123 78.2674 89.3736 77.2813 90.6384L76.2201 90.4776Z" fill="#50B5AC"/>
<path d="M127.778 61.1724C127.682 63.4555 126.653 64.8168 124.466 64.849C124.008 64.8853 123.547 64.8287 123.112 64.6825C122.676 64.5363 122.274 64.3035 121.931 63.9981C121.588 63.6927 121.31 63.3211 121.113 62.9055C120.917 62.4899 120.807 62.039 120.79 61.5798C120.773 61.1206 120.848 60.6627 121.012 60.2335C121.177 59.8043 121.426 59.4127 121.745 59.0823C122.065 58.7518 122.447 58.4894 122.871 58.3107C123.294 58.132 123.749 58.0408 124.209 58.0425C126.406 57.9353 127.467 59.2752 127.778 61.1724Z" fill="#50B5AC"/>
<path d="M12.7652 89.1056C10.6215 88.9877 9.29234 87.8837 9.29234 85.7292C9.25771 85.2708 9.32179 84.8102 9.48024 84.3787C9.6387 83.9471 9.88785 83.5546 10.2109 83.2275C10.5339 82.9004 10.9233 82.6463 11.3529 82.4825C11.7824 82.3187 12.2421 82.2488 12.7009 82.2777C13.5742 82.3177 14.399 82.6907 15.0058 83.32C15.6126 83.9493 15.9554 84.7871 15.9636 85.6612C15.9718 86.5354 15.6449 87.3795 15.0501 88.0201C14.4552 88.6607 13.6376 89.0492 12.7652 89.1056Z" fill="#50B5AC"/>
</svg>
