<svg width="131" height="133" viewBox="0 0 131 133" fill="none" xmlns="http://www.w3.org/2000/svg">
<g clip-path="url(#clip0_3_885)">
<path d="M58.9918 31.0037C52.1392 37.9268 45.9256 44.175 39.5741 50.4233C38.2425 51.8729 36.4601 52.8326 34.5145 53.1478C32.5689 53.4629 30.5737 53.1151 28.8506 52.1603C27.1157 51.3796 25.7103 50.0164 24.8793 48.3084C24.0483 46.6003 23.8444 44.6555 24.3031 42.8129C24.6814 40.8656 25.6018 39.064 26.959 37.6144C34.7761 29.5833 42.7102 21.6689 50.7612 13.8711C55.6594 9.07243 61.9608 9.07243 66.9217 13.8711C73.1854 19.9694 79.4491 26.1801 85.55 32.4408C89.7593 36.7396 89.7718 42.0756 85.8256 45.7996C81.8795 49.5235 76.8685 49.2111 72.772 45.1498C68.2496 40.6635 63.9151 36.0648 58.9918 31.0037ZM31.5941 44.9873L32.7717 45.8871C34.127 45.0713 35.417 44.1522 36.6302 43.1378C42.7812 37.102 48.9196 31.0537 54.9328 24.8805C57.6012 22.1313 59.806 22.0188 62.4493 24.8805C67.143 29.7624 71.9661 34.5278 76.9186 39.1764C77.808 40.0137 79.5869 39.8887 80.965 40.2137C80.4889 38.964 80.3135 37.5144 79.4867 36.6522C73.7867 30.7788 67.9113 25.0804 62.1863 19.2446C59.9063 16.9202 57.8267 16.8078 55.5342 19.0946C48.1054 26.455 40.5889 33.8155 33.2853 41.3008C32.3959 42.2131 32.1453 43.7377 31.5941 44.9873Z" fill="#50B5AC"/>
<path d="M70.655 95.4106C64.1282 88.9249 58.2027 83.0641 52.3148 77.1783C47.6671 72.5171 47.1033 66.9062 50.8866 63.1572C54.6699 59.4083 60.395 59.7582 65.0177 64.3319C72.484 71.7048 79.917 79.1194 87.3166 86.5756C92.9289 92.2365 92.8913 98.2348 87.254 103.921C81.6166 109.607 75.6911 115.542 69.8533 121.291C65.3684 125.702 59.8313 125.977 56.073 122.091C52.3148 118.204 52.7532 112.756 57.1754 108.344C61.5976 103.933 65.857 99.9718 70.655 95.4106ZM60.9963 116.805L62.0987 117.554C62.9916 117.265 63.8361 116.843 64.6042 116.305C70.6676 110.356 76.6807 104.346 82.6689 98.3348C85.0491 95.948 84.3476 93.8111 82.1553 91.6492C74.8768 84.4762 67.7236 77.1658 60.37 70.0678C59.3928 69.1305 57.5638 69.068 56.1357 68.5932C56.6743 69.9428 56.8873 71.6048 57.8143 72.5671C63.8275 78.8153 70.0036 84.8136 76.1045 90.9244C79.775 94.5983 79.7876 95.923 76.2172 99.447C71.8451 103.833 67.448 108.132 63.126 112.618C62.2067 113.89 61.4767 115.287 60.9587 116.767L60.9963 116.805Z" fill="#50B5AC"/>
<path d="M9.67139 133C5.28677 132.238 2.51819 130.501 0.902143 127.027C0.0606202 125.401 -0.227073 123.545 0.0825877 121.742C0.392248 119.938 1.28242 118.284 2.61841 117.03C7.19095 112.243 11.9389 107.645 16.6242 102.971C24.7587 94.8483 32.9015 86.7297 41.0528 78.6154C44.5855 75.1163 45.6879 75.1788 49.1205 78.8528C49.609 79.3776 50.035 79.965 50.5611 80.4523C59.0422 88.3251 57.0003 88.2127 50.5611 94.7108C39.2864 105.958 28.0116 117.317 16.6116 128.451C14.6448 130.401 11.989 131.525 9.67139 133ZM46.3143 85.7633L44.7859 85.6009C34.3255 93.961 8.45623 121.066 7.85491 124.99C9.54612 124.24 11.112 123.965 12.0391 123.053C23.3305 111.948 34.5176 100.759 45.6002 89.4873C46.3895 88.7375 46.1139 87.0255 46.3143 85.7633Z" fill="#50B5AC"/>
<path d="M101.811 61.6701C108.801 61.6701 115.115 61.5452 121.429 61.6701C125.826 61.7826 129.158 63.7445 130.536 68.2183C131.173 69.9215 131.212 71.79 130.645 73.5177C130.078 75.2455 128.94 76.73 127.417 77.7281C125.382 79.0386 123.023 79.761 120.602 79.815C112.409 80.0649 104.191 80.0649 95.9981 79.815C87.5922 79.6151 84.5104 75.4912 83.6836 67.0936C82.8568 58.696 85.2621 52.9851 93.1043 49.6985C94.0188 49.3111 94.7704 48.5488 95.6098 48.0865C99.1425 46.262 101.573 47.5866 101.736 51.548C101.974 54.7596 101.811 57.9212 101.811 61.6701ZM93.9562 58.496C89.9599 60.5205 89.1581 69.7429 92.7034 71.9672C93.4374 72.4072 94.2773 72.6405 95.1337 72.642C103.602 72.642 112.083 72.742 120.552 72.642C121.579 72.642 122.581 71.3174 123.596 70.6051C122.569 70.0678 121.554 69.1055 120.514 69.068C115.503 68.9056 110.492 69.068 105.481 68.9806C96.374 68.8056 94.3695 71.2424 94.4322 59.1958C94.3821 58.9959 94.2318 58.8834 93.9562 58.4835V58.496Z" fill="#50B5AC"/>
<path d="M123.546 18.0824C123.546 22.8616 121.643 27.445 118.255 30.8244C114.867 34.2038 110.273 36.1023 105.482 36.1023C100.691 36.1023 96.0958 34.2038 92.708 30.8244C89.3202 27.445 87.417 22.8616 87.417 18.0824C87.417 13.3032 89.3202 8.7198 92.708 5.34041C96.0958 1.96102 100.691 0.0625 105.482 0.0625C110.273 0.0625 114.867 1.96102 118.255 5.34041C121.643 8.7198 123.546 13.3032 123.546 18.0824ZM105.732 28.8419C107.175 28.8304 108.601 28.5356 109.93 27.9743C111.259 27.4129 112.463 26.596 113.475 25.5702C114.487 24.5444 115.287 23.3298 115.828 21.9957C116.37 20.6616 116.643 19.2342 116.631 17.795C116.703 16.2806 116.463 14.7675 115.925 13.3494C115.387 11.9313 114.564 10.6384 113.505 9.55043C112.447 8.4625 111.176 7.60277 109.771 7.02439C108.366 6.44602 106.857 6.1613 105.337 6.18785C103.817 6.2144 102.319 6.55165 100.936 7.17875C99.5518 7.80584 98.3117 8.70945 97.292 9.83369C96.2722 10.9579 95.4945 12.2789 95.007 13.7149C94.5194 15.1509 94.3324 16.6714 94.4574 18.1824C94.5588 21.0795 95.7978 23.8207 97.907 25.8148C100.016 27.8089 102.827 28.8961 105.732 28.8419Z" fill="#50B5AC"/>
</g>
<defs>
<clipPath id="clip0_3_885">
<rect width="131" height="133" fill="white"/>
</clipPath>
</defs>
</svg>
