<svg width="213" height="213" viewBox="0 0 213 213" fill="none" xmlns="http://www.w3.org/2000/svg">
<circle cx="106.5" cy="106.5" r="105" fill="white" stroke="url(#paint0_linear_50_1569)" stroke-width="3"/>
<path d="M128.113 91.916L157.333 122.136C163.848 116.435 168.002 108.508 168.983 99.906C169.981 92.5715 168.666 85.1083 165.223 78.556C164.734 77.7925 164.513 76.8887 164.593 75.986C164.873 74.986 165.663 73.666 166.453 73.496C166.998 73.4782 167.539 73.5958 168.028 73.8384C168.516 74.081 168.937 74.4409 169.253 74.886C178.623 92.736 174.783 113.196 161.473 125.496C159.29 127.587 157.283 129.855 155.473 132.276C153.473 134.876 151.123 136.696 147.783 136.566C144.933 144.746 143.933 145.736 137.033 147.216C136.543 152.826 133.603 156.216 127.923 157.276C127.554 157.445 127.229 157.698 126.974 158.014C126.719 158.329 126.54 158.7 126.453 159.096C125.593 163.366 123.703 166.826 119.173 167.796C114.643 168.766 110.693 167.386 108.033 163.206C106.855 161.675 105.579 160.222 104.213 158.856L101.773 162.746C99.3825 166.546 95.7725 167.356 91.7725 166.586C87.7725 165.816 85.6025 162.706 84.7025 158.996C84.1825 156.836 83.4225 156.046 81.1725 155.536C76.4025 154.436 74.2325 150.776 73.8525 145.906C67.6825 145.226 64.0725 141.906 63.5325 135.736C58.3325 134.546 54.6325 131.896 53.3325 126.516C52.9595 125.59 52.3614 124.772 51.5925 124.136C39.5925 111.976 36.8125 93.336 43.7025 77.646C54.2025 53.826 85.3325 46.576 105.433 62.766C106.943 63.986 107.773 63.616 109.143 62.606C122.743 52.606 137.233 51.386 152.413 58.606C153.012 58.9345 153.533 59.3888 153.941 59.9377C154.348 60.4866 154.632 61.1171 154.773 61.786C154.953 63.646 152.773 64.216 150.543 63.426C146.543 62.036 142.643 60.316 138.543 59.706C127.193 57.996 117.313 61.586 109.163 69.566C103.003 75.566 97.1625 81.896 91.1625 88.116C88.6025 90.786 88.5125 94.326 90.8525 96.766C93.1925 99.206 97.3725 99.616 99.6225 96.676C104.963 89.676 111.533 86.756 120.293 88.036C123.783 88.556 126.793 86.476 129.293 83.946C130.703 82.506 132.153 81.096 133.573 79.656C134.993 78.216 136.313 78.016 137.663 79.346C139.013 80.676 138.523 82.086 137.343 83.226C134.333 86.056 131.333 88.856 128.113 91.916ZM98.3825 141.806C105.023 143.036 108.633 146.396 108.183 151.806C107.995 153.187 108.19 154.593 108.745 155.871C109.301 157.149 110.195 158.25 111.333 159.056C112.043 159.636 112.613 160.376 113.333 160.986C115.593 162.986 118.073 162.986 119.993 161.046C121.913 159.106 121.933 156.566 119.943 154.376C117.953 152.186 115.943 150.316 113.943 148.296C111.283 145.626 108.643 142.946 105.943 140.296C104.683 139.056 103.943 137.646 105.363 136.226C106.783 134.806 108.363 135.306 109.683 136.646C110.063 137.046 110.453 137.426 110.853 137.816C115.023 141.966 119.093 146.226 123.443 150.166C124.106 150.737 124.88 151.166 125.716 151.426C126.552 151.685 127.432 151.771 128.303 151.676C129.08 151.387 129.776 150.913 130.332 150.297C130.887 149.681 131.285 148.939 131.493 148.136C131.508 146.368 130.834 144.664 129.613 143.386C123.093 136.386 116.383 129.646 109.733 122.796C108.453 121.476 107.733 120.046 109.303 118.516C110.873 116.986 112.143 117.816 113.303 119.076C118.523 124.486 123.733 129.916 128.973 135.306C130.763 137.146 132.573 138.996 134.513 140.666C135.272 141.261 136.2 141.602 137.164 141.641C138.128 141.679 139.079 141.414 139.884 140.882C140.689 140.35 141.307 139.579 141.649 138.677C141.992 137.775 142.042 136.788 141.793 135.856C141.35 134.477 140.601 133.215 139.603 132.166C133.363 125.786 127.033 119.516 120.743 113.166C120.163 112.586 119.303 112.026 119.153 111.326C119.009 110.836 118.966 110.322 119.026 109.815C119.087 109.308 119.249 108.819 119.503 108.376C119.92 108.089 120.393 107.894 120.891 107.804C121.39 107.714 121.902 107.732 122.393 107.856C123.183 108.036 123.843 108.916 124.493 109.556C130.993 116.056 137.493 122.556 143.983 129.056C146.223 131.286 148.863 131.406 150.833 129.516C152.803 127.626 152.833 124.826 150.533 122.466C141.499 113.199 132.436 103.959 123.343 94.746C122.396 93.9684 121.248 93.476 120.033 93.326C113.363 92.146 108.253 94.326 103.783 99.686C99.1825 105.256 92.0325 105.256 87.3325 100.486C82.6325 95.716 83.0125 88.976 88.0525 83.806C92.9125 78.806 97.7225 73.806 102.533 68.736C102.793 68.4251 103.024 68.0903 103.223 67.736C88.6825 54.736 65.6825 56.606 53.2225 72.116C40.1425 88.386 44.3325 110.136 54.5825 119.256C56.5825 117.356 58.5825 115.446 60.5825 113.566C63.4925 110.846 66.8625 109.826 70.7125 111.076C72.489 111.598 74.0742 112.627 75.2734 114.038C76.4726 115.448 77.2335 117.179 77.4625 119.016C77.5825 119.726 78.3225 120.806 78.8925 120.886C84.7425 121.736 87.3725 125.456 88.0725 131.086C94.7825 131.416 97.3325 135.866 98.3825 141.806ZM72.3825 140.436C76.7325 140.436 83.1325 133.716 82.5225 130.436C82.3588 129.661 82.0384 128.928 81.581 128.281C81.1236 127.635 80.5388 127.088 79.8625 126.676C79.1316 126.406 78.3501 126.301 77.5739 126.369C76.7977 126.436 76.046 126.674 75.3725 127.066C73.1568 128.548 71.2568 130.455 69.7825 132.676C68.9926 134.35 68.8921 136.268 69.5025 138.016C69.9625 139.256 71.8225 139.976 72.4125 140.436H72.3825ZM72.8125 119.836C71.8125 118.676 70.9325 116.836 69.5825 116.346C68.7924 116.104 67.9609 116.028 67.1401 116.123C66.3193 116.218 65.5269 116.481 64.8125 116.896C62.8344 118.367 61.0649 120.099 59.5525 122.046C58.787 122.921 58.394 124.06 58.4576 125.22C58.5211 126.381 59.0361 127.47 59.8925 128.256C61.7225 129.956 63.8925 130.316 65.8925 128.706C67.9014 126.987 69.7737 125.115 71.4925 123.106C72.0625 122.406 72.2325 121.306 72.8425 119.836H72.8125ZM103.693 151.496C102.693 150.276 101.963 148.496 100.693 148.006C99.8747 147.737 99.0117 147.633 98.1535 147.7C97.2952 147.767 96.4588 148.004 95.6925 148.396C93.6848 149.828 91.9105 151.562 90.4325 153.536C89.7121 154.422 89.3447 155.543 89.4007 156.684C89.4568 157.824 89.9324 158.904 90.7362 159.715C91.54 160.527 92.6152 161.012 93.7553 161.079C94.8953 161.145 96.0198 160.788 96.9125 160.076C98.7722 158.46 100.513 156.712 102.123 154.846C102.795 153.801 103.333 152.676 103.723 151.496H103.693ZM93.4325 141.116C92.3025 139.816 91.4325 138.016 90.0925 137.516C89.2985 137.291 88.4671 137.231 87.6488 137.337C86.8306 137.444 86.0425 137.716 85.3325 138.136C83.4111 139.564 81.6922 141.246 80.2225 143.136C79.8077 143.573 79.486 144.089 79.277 144.654C79.0681 145.219 78.9763 145.82 79.0071 146.422C79.038 147.023 79.1909 147.612 79.4566 148.153C79.7223 148.693 80.0951 149.174 80.5525 149.566C80.9597 149.977 81.4442 150.302 81.9779 150.525C82.5117 150.747 83.0843 150.862 83.6625 150.862C84.2408 150.862 84.8133 150.747 85.3471 150.525C85.8809 150.302 86.3653 149.977 86.7725 149.566C88.4874 148.036 90.1039 146.4 91.6125 144.666C92.3562 143.553 92.9766 142.363 93.4625 141.116H93.4325Z" fill="#50B5AC"/>
<defs>
<linearGradient id="paint0_linear_50_1569" x1="99.4" y1="-5.28991e-08" x2="104.133" y2="213" gradientUnits="userSpaceOnUse">
<stop stop-color="#52B9B5"/>
<stop offset="1" stop-color="white"/>
</linearGradient>
</defs>
</svg>
