<svg width="213" height="213" viewBox="0 0 213 213" fill="none" xmlns="http://www.w3.org/2000/svg">
<circle cx="106.5" cy="106.5" r="105" fill="white" stroke="url(#paint0_linear_50_1568)" stroke-width="3"/>
<path d="M102.131 36C106.269 36.4073 107.491 37.4149 109.238 39.2156C120.525 51.0064 131.587 62.9364 142.734 74.8129C146.282 78.5859 149.776 82.4125 153.453 86.0248C154.472 86.8677 155.779 87.2792 157.097 87.1717C159.841 86.8608 162.532 86.0998 165.244 85.4995C168.459 84.835 169.135 85.253 169.831 88.3615C171.775 97.1295 173.715 105.901 175.652 114.676C176.927 120.357 178.246 126.038 179.532 131.719C180.4 135.556 180.057 136.103 176.123 136.982C133.891 146.393 91.6625 155.822 49.4375 165.269C46.7685 165.869 45.6537 164.958 45.15 162.6C41.8271 147.858 38.5329 133.113 35.2672 118.363C34.5705 115.223 35.1279 114.022 38.2363 113.797C45.0856 113.304 49.1052 109.703 52.7174 103.979C65.58 83.613 78.9571 63.6653 92.1627 43.5568C93.024 42.0661 94.0564 40.6812 95.239 39.43C96.9647 37.8008 97.8973 36.3108 102.131 36ZM175.201 132.298C174.976 130.829 174.912 130.154 174.762 129.511C172.382 118.878 169.992 108.252 167.591 97.6332C167.023 95.1358 167.023 91.62 165.447 90.5159C163.872 89.4119 160.624 90.8268 158.159 91.3734C119.624 99.9485 81.1116 108.524 42.5774 117.099C39.9942 117.667 39.5226 118.631 40.0585 120.957C42.556 131.869 44.957 142.792 47.3902 153.703C49.0623 161.207 49.0516 161.207 56.5655 159.481C84.7274 153.192 112.9 146.926 141.083 140.68C151.524 138.354 161.974 136.049 172.404 133.659C173.387 133.317 174.326 132.86 175.201 132.298ZM54.0144 109.349L54.6576 110.089L150.248 88.7902L111.66 48.0587C109.516 51.7888 107.073 54.2434 102.967 54.5543C98.862 54.8651 96.0751 52.4105 93.3847 49.2592C80.0719 69.5714 67.0378 89.4226 54.0144 109.349ZM97.3721 45.3683C97.3284 46.037 97.4273 46.7074 97.6624 47.3349C97.8976 47.9625 98.2634 48.5329 98.7358 49.0083C99.2081 49.4837 99.7762 49.8532 100.402 50.0924C101.028 50.3315 101.698 50.4348 102.367 50.3954C103.71 50.3628 104.992 49.827 105.959 48.8939C106.926 47.9609 107.507 46.6987 107.587 45.3575C107.551 43.9604 106.97 42.6328 105.969 41.6576C104.968 40.6825 103.625 40.137 102.228 40.1375C101.558 40.1386 100.896 40.2777 100.283 40.5459C99.6691 40.8141 99.1174 41.2058 98.6619 41.6965C98.2064 42.1872 97.8568 42.7664 97.6349 43.3981C97.413 44.0298 97.3235 44.7005 97.3721 45.3683Z" fill="#50B5AC"/>
<path d="M134.116 118.16C133.451 115.298 132.84 112.436 132.112 109.585C131.683 107.923 131.619 106.369 133.601 105.908C135.584 105.447 136.303 106.766 136.699 108.406C138.039 114.076 139.475 119.735 140.73 125.438C140.955 126.51 140.204 127.785 139.904 128.975C138.714 128.643 137.214 128.675 136.378 127.903C133.269 125.148 130.375 122.147 126.924 119.543C127.631 122.404 128.36 125.266 129.067 128.118C129.443 129.768 129.7 131.558 127.46 132.03C125.444 132.459 124.833 130.958 124.448 129.35C123.076 123.787 121.629 118.224 120.417 112.618C120.182 111.546 120.91 110.206 121.189 108.995C122.465 109.37 124.04 109.381 124.951 110.174C127.953 112.779 130.718 115.673 133.526 118.449L134.116 118.16Z" fill="#50B5AC"/>
<path d="M68.4634 125.513C68.7313 123.144 69.8032 121.579 71.947 120.893C74.5051 120.114 77.1072 119.488 79.7396 119.017C80.3055 118.874 80.8948 118.848 81.4713 118.94C82.0478 119.032 82.5993 119.242 83.0921 119.555C83.5848 119.868 84.0085 120.278 84.337 120.761C84.6655 121.244 84.892 121.788 85.0025 122.362C86.2995 127.26 87.575 132.169 88.5933 137.121C88.8636 138.217 88.691 139.375 88.1131 140.344C87.5352 141.313 86.5986 142.015 85.5063 142.299C82.8153 143.287 80.0094 143.928 77.1563 144.207C75.6879 144.282 73.2011 143.017 72.7938 141.806C71.0573 136.478 69.8675 130.958 68.4634 125.513ZM83.995 137.807L80.5221 123.626L73.3833 125.449L76.9098 139.608L83.995 137.807Z" fill="#50B5AC"/>
<path d="M95.1532 132.598C95.539 134.227 96.2251 135.621 96.1071 136.971C96.0428 138.043 95.0996 139.115 94.5422 140.187C93.5882 139.619 91.9911 139.222 91.7767 138.45C90.2011 132.759 88.9041 126.992 87.4892 121.3C87.4678 121.112 87.4678 120.921 87.4892 120.732C87.6393 117.517 90.2654 115.769 96.2465 115.019C97.4389 114.819 98.6625 115.088 99.6613 115.769C100.66 116.45 101.357 117.491 101.606 118.674C102.228 120.818 102.774 122.962 103.214 125.106C103.985 128.836 102.613 130.894 98.9262 131.837C97.7257 131.976 96.5359 132.298 95.1532 132.598ZM92.2055 120.882L94.1027 127.957L98.7654 126.563L96.9325 119.618L92.2055 120.882Z" fill="#50B5AC"/>
<path d="M111.22 126.478L112.196 130.905C114.32 130.271 116.492 129.808 118.691 129.522C119.827 129.457 121.017 130.454 122.185 130.969C121.414 131.976 120.856 133.477 119.849 133.917C117.784 134.664 115.652 135.209 113.482 135.546C112.858 135.726 112.204 135.776 111.561 135.691C110.918 135.607 110.299 135.39 109.743 135.055C109.187 134.72 108.707 134.273 108.332 133.743C107.957 133.214 107.696 132.612 107.565 131.976C106.336 127.367 105.196 122.722 104.146 118.042C103.962 117.416 103.911 116.759 103.995 116.113C104.079 115.466 104.297 114.845 104.635 114.287C104.973 113.729 105.423 113.248 105.957 112.874C106.491 112.5 107.097 112.241 107.736 112.114C109.909 111.389 112.15 110.886 114.425 110.614C115.433 110.528 116.569 111.621 117.641 112.189C117.048 113.213 116.328 114.156 115.497 114.998C114.64 115.412 113.713 115.663 112.764 115.737C108.39 116.809 108.358 116.884 110.266 121.236C112.056 121.3 114.736 119.843 115.068 122.876C115.186 124.012 113.267 125.374 112.281 126.638L111.22 126.478Z" fill="#50B5AC"/>
<path d="M162.778 97.1724C162.682 99.4555 161.653 100.817 159.466 100.849C159.008 100.885 158.547 100.829 158.112 100.682C157.676 100.536 157.274 100.303 156.931 99.9981C156.588 99.6927 156.31 99.3211 156.113 98.9055C155.917 98.4899 155.807 98.039 155.79 97.5798C155.773 97.1206 155.848 96.6627 156.012 96.2335C156.177 95.8043 156.426 95.4127 156.745 95.0823C157.065 94.7518 157.447 94.4894 157.871 94.3107C158.294 94.132 158.749 94.0408 159.209 94.0425C161.406 93.9353 162.467 95.2752 162.778 97.1724Z" fill="#50B5AC"/>
<path d="M47.7652 125.106C45.6215 124.988 44.2923 123.884 44.2923 121.729C44.2577 121.271 44.3218 120.81 44.4802 120.379C44.6387 119.947 44.8878 119.555 45.2109 119.227C45.5339 118.9 45.9233 118.646 46.3529 118.482C46.7824 118.319 47.2421 118.249 47.7009 118.278C48.5742 118.318 49.399 118.691 50.0058 119.32C50.6126 119.949 50.9554 120.787 50.9636 121.661C50.9718 122.535 50.6449 123.38 50.0501 124.02C49.4552 124.661 48.6376 125.049 47.7652 125.106Z" fill="#50B5AC"/>
<defs>
<linearGradient id="paint0_linear_50_1568" x1="99.4" y1="-5.28991e-08" x2="104.133" y2="213" gradientUnits="userSpaceOnUse">
<stop stop-color="#52B9B5"/>
<stop offset="1" stop-color="white"/>
</linearGradient>
</defs>
</svg>
