<svg width="213" height="213" viewBox="0 0 213 213" fill="none" xmlns="http://www.w3.org/2000/svg">
<circle cx="106.5" cy="106.5" r="105" fill="white" stroke="url(#paint0_linear_50_1566)" stroke-width="3"/>
<path d="M106.586 146.548C101.241 146.548 95.882 146.548 90.5373 146.548C87.8293 146.548 86.6178 145.608 86.6605 142.7C86.7874 138.905 86.1415 135.124 84.7621 131.586C83.3827 128.048 81.2986 124.827 78.6363 122.119C67.5763 110.176 65.0821 95.8947 71.5956 80.8725C78.0092 66.0783 90.0242 58.5387 106.001 57.8403C120.995 57.1847 135.518 66.8052 141.633 80.73C147.79 94.897 145.096 111.63 134.293 122.262C131.705 124.759 129.671 127.773 128.323 131.108C126.975 134.442 126.343 138.023 126.468 141.617C126.468 146.263 126.169 146.534 121.394 146.548H106.586ZM106.286 142.159C110.434 142.159 114.596 142.059 118.743 142.159C121.038 142.159 122.035 141.56 122.178 139.08C122.516 131.629 125.609 124.568 130.858 119.269C140.721 108.907 143.115 96.4648 137.685 83.2384C132.255 70.012 121.75 62.6862 107.498 62.2586C92.9459 61.774 82.1282 68.7293 75.6861 81.7704C72.6671 87.7855 71.61 94.5958 72.6633 101.243C73.7167 107.89 76.8275 114.04 81.5581 118.827C87.0811 124.329 90.3885 131.669 90.8508 139.451C91.0503 141.888 92.0338 142.301 94.1004 142.301C98.2051 142.073 102.239 142.159 106.286 142.159Z" fill="#50B5AC"/>
<path d="M106.229 160.872C101.54 160.872 96.8368 160.872 92.1477 160.872C87.8719 160.872 85.3064 158.592 85.3492 155.043C85.3919 151.494 87.8719 149.413 91.9624 149.342C101.569 149.342 111.175 149.342 120.781 149.342C125.057 149.342 127.252 151.309 127.323 154.943C127.394 158.578 125.071 160.715 120.966 160.801C116.049 160.943 111.146 160.872 106.229 160.872ZM89.853 154.9C92.1904 156.554 119.783 156.71 122.634 155.242C121.066 153.475 93.0883 153.048 89.853 154.9Z" fill="#50B5AC"/>
<path d="M106.443 174.854C102.951 174.854 99.459 174.854 95.9671 174.854C92.4753 174.854 90.0238 172.588 89.924 169.338C89.8789 168.544 90.0042 167.75 90.2916 167.008C90.5789 166.267 91.0217 165.595 91.5901 165.039C92.1585 164.483 92.8393 164.055 93.5869 163.783C94.3345 163.512 95.1315 163.404 95.9244 163.466C102.908 163.39 109.892 163.39 116.876 163.466C120.596 163.466 123.076 165.96 122.962 169.281C122.946 170.05 122.775 170.808 122.458 171.509C122.142 172.209 121.687 172.839 121.122 173.36C120.556 173.88 119.89 174.281 119.166 174.538C118.441 174.795 117.672 174.902 116.904 174.854C113.412 174.854 109.92 174.854 106.443 174.854ZM94.3851 168.939C97.2356 171.006 116.306 170.778 118.101 168.839C115.864 167.172 97.0076 167.129 94.3851 168.868V168.939Z" fill="#50B5AC"/>
<path d="M108.567 35.8913C108.689 38.1664 108.66 40.447 108.482 42.7183C108.339 43.7302 107.156 44.5854 106.458 45.5688C105.817 44.6281 104.676 43.716 104.634 42.7183C104.434 38.1575 104.434 33.6014 104.634 29.0501C104.634 28.0096 105.731 27.0119 106.315 26C107.071 27.0119 108.311 27.9669 108.482 29.0643C108.682 31.3346 108.71 33.6167 108.567 35.8913Z" fill="#50B5AC"/>
<path d="M69.9564 36.6039C70.7033 37.1485 71.3827 37.78 71.9802 38.4853C74.5742 42.3762 77.1397 46.2814 79.5056 50.3149C79.9474 51.0418 79.4201 52.353 79.3345 53.3935C78.3369 53.1227 76.8689 53.1654 76.484 52.5098C73.6335 48.4051 70.9398 44.1863 68.4313 39.882C68.0037 39.1551 68.7164 37.7726 68.9017 36.7037L69.9564 36.6039Z" fill="#50B5AC"/>
<path d="M152.194 73.062C151.78 72.7342 150.868 72.3494 150.768 71.822C150.669 71.2947 150.883 69.8694 151.396 69.5844C156.013 66.9477 160.688 64.4107 165.449 62.0163C166.033 61.7312 167.13 62.4438 168 62.6861C167.729 63.5413 167.715 64.824 167.145 65.1518C162.541 67.8028 157.824 70.2828 153.134 72.7912C152.829 72.9089 152.515 72.9995 152.194 73.062Z" fill="#50B5AC"/>
<path d="M134.578 55.0183C134.25 53.593 133.509 52.1677 133.894 51.5406C136.645 47.0938 139.595 42.761 142.588 38.5138C142.987 37.9579 144.27 38.0434 145.139 37.8296C145.31 38.699 145.894 39.8392 145.552 40.3951C142.787 44.8277 139.851 49.1604 136.915 53.479C136.602 53.9493 135.903 54.1631 134.578 55.0183Z" fill="#50B5AC"/>
<path d="M62.7017 71.7366C61.4475 72.1214 60.2075 72.9623 59.5519 72.6345C54.9768 70.3541 50.5015 67.8741 46.0832 65.3087C45.4561 64.9381 45.3421 63.6981 45 62.8715C45.8267 62.5437 46.9098 61.717 47.4372 61.9878C52.1691 64.3965 56.8296 66.9905 61.476 69.5844C61.8893 69.8125 62.0033 70.4824 62.7017 71.7366Z" fill="#50B5AC"/>
<path d="M136.246 97.1347L134.108 99.3866C133.352 98.4459 132.041 97.5623 131.927 96.5361C130.502 84.6494 124.587 76.4969 112.928 72.9623C110.976 72.3779 108.809 72.4492 106.843 71.8933C105.916 71.6368 105.204 70.6106 104.391 69.9407C105.246 69.1569 106.215 67.6318 106.928 67.7316C110.821 68.0821 114.653 68.93 118.33 70.2543C129.547 75.0859 135.205 84.1363 136.246 97.1347Z" fill="#50B5AC"/>
<defs>
<linearGradient id="paint0_linear_50_1566" x1="99.4" y1="-5.28991e-08" x2="104.133" y2="213" gradientUnits="userSpaceOnUse">
<stop stop-color="#52B9B5"/>
<stop offset="1" stop-color="white"/>
</linearGradient>
</defs>
</svg>
