<svg width="213" height="213" viewBox="0 0 213 213" fill="none" xmlns="http://www.w3.org/2000/svg">
<circle cx="106.5" cy="106.5" r="105" fill="white" stroke="url(#paint0_linear_50_1567)" stroke-width="3"/>
<path d="M58.6213 168.681L58.2101 173.025H41V120.444H58.0558L58.6856 122.41L59.5082 122.32C59.5987 122.291 59.682 122.243 59.7524 122.179C69.0579 114.634 79.8544 113.182 91.4091 113.76C99.7507 114.223 108.118 113.837 116.498 113.863C122.385 113.863 126.112 117.154 126.228 122.346C126.343 127.539 122.513 131.279 116.639 131.343C109.416 131.459 102.18 131.343 94.9566 131.446C93.48 131.429 92.0569 131.998 90.9978 133.027C90.2033 134.346 89.9587 135.925 90.3166 137.423C90.8179 139.466 92.6816 140.212 94.7766 140.199H112.771C117.436 140.199 122.115 140.456 126.742 140.083C129.058 139.886 131.259 138.99 133.053 137.513C140.829 130.675 148.335 123.529 155.982 116.537C157.498 115.096 159.418 114.151 161.485 113.83C163.552 113.508 165.668 113.825 167.55 114.737C171.406 116.742 173.475 120.02 172.909 124.274C172.562 126.668 171.51 128.905 169.889 130.7C160.982 139.942 151.895 148.939 142.744 158C137.345 163.385 130.405 164.902 123.194 166.29C104.134 169.953 84.9184 168.012 65.7676 168.527C63.4412 168.681 61.0891 168.681 58.6213 168.681ZM58.4029 164.632C62.3873 164.632 65.8833 164.632 69.3921 164.632C87.5019 164.414 105.676 165.66 123.67 162.062C129.441 160.892 135.058 159.671 139.376 155.404C148.57 146.261 157.704 137.088 166.779 127.886C167.689 126.938 168.324 125.761 168.617 124.48C168.873 123.349 168.73 122.164 168.212 121.126C167.695 120.088 166.834 119.261 165.776 118.786C163.206 117.346 160.828 118.002 158.733 119.93C151.188 126.896 143.759 133.978 136.047 140.751C134.094 142.487 131.33 144.235 128.875 144.312C117.102 144.684 105.303 144.62 93.517 144.44C91.2695 144.268 89.1767 143.23 87.6807 141.544C86.1847 139.858 85.4024 137.656 85.4992 135.404C85.5959 133.152 86.5641 131.026 88.1992 129.474C89.8344 127.923 92.0085 127.067 94.2625 127.089C99.198 127.089 104.146 127.089 109.095 127.089C111.845 127.089 114.609 127.192 117.359 127.089C117.958 127.098 118.552 126.985 119.106 126.758C119.66 126.531 120.163 126.195 120.583 125.768C121.003 125.342 121.333 124.835 121.552 124.278C121.771 123.72 121.875 123.125 121.858 122.526C121.858 119.955 120.097 118.323 117.243 118.092C116.485 118.092 115.727 118.092 114.956 118.092C106.974 118.092 98.9538 118.554 91.0107 117.976C79.6487 117.141 69.5592 119.737 60.6393 126.832C60.5679 126.898 60.4852 126.95 60.3951 126.986C58.7499 127.552 58.4029 128.837 58.4029 130.521C58.4928 137.937 58.4029 145.353 58.4029 152.782V164.632ZM45.4086 124.788V168.578H53.8915V124.801L45.4086 124.788Z" fill="#50B5AC"/>
<path d="M85.7282 63.1327C88.5816 63.1327 91.4349 63.0428 94.2754 63.1327C95.0206 63.2536 95.7838 63.0873 96.4111 62.6675C97.0385 62.2476 97.4833 61.6055 97.6558 60.8706C99.8022 55.1896 102.051 49.5343 104.442 43.9562C104.931 42.7994 106.19 41.9768 107.09 41C108.029 41.8204 108.84 42.7781 109.493 43.8405C111.858 49.4272 114.116 55.0654 116.267 60.7549C116.459 61.5259 116.932 62.1977 117.592 62.6395C118.253 63.0814 119.054 63.2618 119.84 63.1456C125.452 63.0342 131.065 63.0342 136.677 63.1456C137.782 63.3846 138.836 63.82 139.788 64.4309C139.421 65.5447 138.845 66.5785 138.091 67.477C133.927 70.7802 129.711 74.0577 125.315 77.0524C123.027 78.6205 122.616 80.1371 123.426 82.7206C125.212 88.4273 126.652 94.2882 128.233 99.9949C128.455 100.52 128.572 101.083 128.58 101.653C128.413 102.591 128.284 103.954 127.667 104.301C127.199 104.417 126.709 104.422 126.238 104.315C125.767 104.208 125.328 103.992 124.955 103.684C120.264 99.6736 115.688 95.5221 111.074 91.422C106.91 87.7204 106.91 87.7204 102.488 91.2421C97.5786 95.0979 92.7331 99.1466 87.7462 102.951C86.5369 103.597 85.2369 104.056 83.8903 104.313C83.8903 102.835 83.3762 101.203 83.826 99.8792C85.9082 93.6841 88.1831 87.5404 90.5224 81.4353C90.7077 81.1152 90.8259 80.7608 90.8698 80.3935C90.9137 80.0263 90.8824 79.654 90.7778 79.2993C90.6732 78.9445 90.4974 78.6148 90.2613 78.3302C90.0251 78.0455 89.7335 77.812 89.4042 77.6437C84.8542 74.379 80.3729 71.0073 75.96 67.5284C75.1701 66.6576 74.5354 65.6577 74.0835 64.5723C75.1232 63.9211 76.2599 63.4396 77.451 63.1456C80.2529 62.9913 82.9649 63.1327 85.7282 63.1327ZM83.5304 67.1428L83.2605 67.9397L92.656 75.0345C96.1777 77.6822 96.2034 77.785 94.7381 81.8337L89.9183 95.0337C90.9994 94.8665 92.0086 94.3887 92.8231 93.6584C96.6789 90.5866 100.535 87.5533 104.391 84.3786C106.267 82.7977 107.758 82.7463 109.532 84.4557C113.066 87.7718 116.742 90.8822 120.367 94.134C120.881 94.5838 121.485 94.9308 122.5 95.6635C122.308 94.5324 122.256 93.9797 122.115 93.4528C120.984 89.2499 119.891 85.0212 118.657 80.844C117.976 78.5691 118.246 76.9882 120.418 75.5101C123.426 73.5307 126.189 71.1786 129.12 69.0836C129.776 68.7307 130.483 68.4794 131.215 68.3382L130.264 67.0529H122.063C114.352 67.0529 114.352 67.0529 111.447 59.9323C110.059 56.4878 108.645 53.056 107.244 49.65C104.777 54.2249 102.663 58.9815 100.92 63.8782C100.046 66.3074 98.8125 67.3099 96.152 67.1557C91.9876 66.9115 87.759 67.1428 83.5304 67.1428Z" fill="#50B5AC"/>
<path d="M108.954 100.56C108.954 101.846 108.954 103.221 108.954 104.545C108.954 106.061 108.478 107.115 106.884 106.717C106.431 106.556 106.023 106.289 105.694 105.938C105.365 105.587 105.125 105.162 104.995 104.699C104.763 101.855 104.763 98.9962 104.995 96.1519C104.995 95.4578 106.28 94.8666 106.987 94.1854C107.643 94.8794 108.671 95.4707 108.851 96.2932C109.046 97.7072 109.081 99.1387 108.954 100.56Z" fill="#50B5AC"/>
<path d="M137.795 84.5714C136.378 84.6898 134.952 84.6597 133.541 84.4814C132.834 84.3272 132.256 83.299 131.716 82.6563C132.32 82.1165 132.898 81.1397 133.528 81.114C136.563 80.9469 139.606 80.9469 142.641 81.114C143.024 81.2368 143.37 81.4562 143.645 81.751C143.919 82.0458 144.114 82.4062 144.209 82.7977C144.114 83.1911 143.918 83.5531 143.641 83.8483C143.364 84.1434 143.015 84.3616 142.628 84.4814C141.022 84.6402 139.406 84.6703 137.795 84.5714Z" fill="#50B5AC"/>
<path d="M76.2171 81.0368C77.6389 80.9335 79.0672 80.9593 80.4843 81.1139C80.871 81.2335 81.2217 81.4478 81.5045 81.7373C81.7873 82.0269 81.9933 82.3825 82.1038 82.7719C82.0159 83.1657 81.8277 83.53 81.5575 83.8296C81.2872 84.1291 80.9441 84.3536 80.5614 84.4814C77.6249 84.6549 74.6808 84.6549 71.7443 84.4814C71.3566 84.3665 71.005 84.1535 70.7236 83.8631C70.4421 83.5726 70.2404 83.2145 70.1377 82.8234C70.2244 82.4291 70.4122 82.0642 70.6826 81.7645C70.953 81.4647 71.2967 81.2406 71.6801 81.1139C73.1875 80.9594 74.7053 80.9336 76.2171 81.0368Z" fill="#50B5AC"/>
<path d="M82.2324 48.5061C83.2478 46.6553 84.5588 46.4625 86.461 48.5061C88.3633 50.5497 90.6125 52.2849 93.2859 54.6627L90.2012 56.8605L82.2324 48.5061Z" fill="#50B5AC"/>
<path d="M121.884 55.2025L129.917 46.8481L131.922 48.7375L123.837 57.0662L121.884 55.2025Z" fill="#50B5AC"/>
<defs>
<linearGradient id="paint0_linear_50_1567" x1="99.4" y1="-5.28991e-08" x2="104.133" y2="213" gradientUnits="userSpaceOnUse">
<stop stop-color="#52B9B5"/>
<stop offset="1" stop-color="white"/>
</linearGradient>
</defs>
</svg>
