<svg width="324" height="150" viewBox="0 0 324 150" fill="none" xmlns="http://www.w3.org/2000/svg">
<path d="M57.8959 37.4999L97.5973 -4.97569e-05L115.796 4.39793e-06V70.1087H85.9693L85.9693 52.1739H97.5973V26.0869L57.8987 63.5869L18.1945 26.0869V52.1739H29.8273L29.8273 70.1087H0.000488281V0H18.1945L57.8959 37.4999Z" fill="#F9FBFA"/>
<path d="M97.5992 79.8906H115.796V149.999H97.5992L97.5992 79.8906Z" fill="#F9FBFA"/>
<path fill-rule="evenodd" clip-rule="evenodd" d="M2.23105e-06 79.8906L18.1965 79.8906L18.1965 97.8254L61.2063 97.8254C75.8239 97.8254 87.6738 109.505 87.6738 123.912C87.6738 138.32 75.8239 149.999 61.2063 149.999H0L2.23105e-06 79.8906ZM18.1965 133.695H61.2063C66.6879 133.695 71.1316 129.315 71.1316 123.912C71.1316 118.51 66.6879 114.13 61.2063 114.13H18.1965L18.1965 133.695Z" fill="#F9FBFA"/>
<path d="M151.252 19.3074L152.807 20.7298C152.081 21.657 151.314 22.4262 150.506 23.0373C148.474 24.5545 146.236 25.3131 143.789 25.3131C140.68 25.3131 138.037 24.2068 135.86 21.9942C133.684 19.7815 132.595 17.0948 132.595 13.9339C132.595 10.773 133.684 8.08625 135.86 5.87362C138.037 3.661 140.68 2.55469 143.789 2.55469C146.215 2.55469 148.433 3.32384 150.444 4.86214C151.314 5.53646 152.05 6.29508 152.652 7.13798L151.097 8.56038C150.579 7.82284 149.977 7.19066 149.293 6.66385C147.739 5.39949 145.904 4.76731 143.789 4.76731C141.302 4.76731 139.198 5.65236 137.477 7.42246C135.777 9.17149 134.927 11.342 134.927 13.9339C134.927 16.5258 135.777 18.7068 137.477 20.4769C139.198 22.226 141.302 23.1005 143.789 23.1005C145.925 23.1005 147.79 22.4683 149.387 21.2039C150.091 20.6561 150.713 20.0239 151.252 19.3074Z" fill="#EEEFF7"/>
<path d="M159.655 24.997V11.8793H154.369V9.82474H167.118V11.8793H161.832V24.997H159.655Z" fill="#EEEFF7"/>
<path d="M178.948 24.997V22.9424C178.637 23.385 178.243 23.7853 177.766 24.1436C176.667 24.9233 175.455 25.3131 174.128 25.3131C172.614 25.3131 171.35 24.8706 170.334 23.9855C169.339 23.0794 168.842 22.0469 168.842 20.8879C168.842 18.317 170.293 16.7892 173.195 16.3046L178.948 15.3563C178.948 14.2394 178.595 13.3333 177.89 12.6379C177.206 11.9215 176.315 11.5632 175.216 11.5632C174.138 11.5632 173.112 11.932 172.138 12.6695C171.682 13.0699 171.308 13.4387 171.018 13.7759L169.619 12.3535C170.013 11.8266 170.5 11.3525 171.08 10.931C172.345 9.98278 173.724 9.50865 175.216 9.50865C176.916 9.50865 178.326 10.0671 179.445 11.1839C180.564 12.3008 181.124 13.6916 181.124 15.3563V24.997H178.948ZM178.948 18.2011V17.2528L173.817 18.2011C171.951 18.5383 171.018 19.4338 171.018 20.8879C171.018 21.5622 171.288 22.1311 171.827 22.5947C172.386 23.0373 173.153 23.2585 174.128 23.2585C175.558 23.2585 176.719 22.7949 177.61 21.8677C178.502 20.9405 178.948 19.7183 178.948 18.2011Z" fill="#EEEFF7"/>
<path d="M186.085 24.997V9.82474H188.261V16.3046H196.813V9.82474H198.989V24.997H196.813V18.3591H188.261V24.997H186.085Z" fill="#EEEFF7"/>
<path d="M203.971 24.997V9.82474H206.147V14.8822H210.034C211.734 14.8822 213.061 15.3458 214.014 16.273C214.989 17.1791 215.476 18.4013 215.476 19.9396C215.476 21.4779 214.989 22.7106 214.014 23.6378C213.061 24.544 211.744 24.997 210.065 24.997H203.971ZM206.147 22.9424H210.065C211.06 22.9424 211.848 22.6685 212.428 22.1206C213.009 21.5516 213.299 20.8246 213.299 19.9396C213.299 19.0335 212.998 18.3065 212.397 17.7586C211.817 17.2107 211.029 16.9367 210.034 16.9367H206.147V22.9424Z" fill="#EEEFF7"/>
<path d="M234.927 24.997V18.8333C234.554 19.0651 234.16 19.2758 233.746 19.4655C232.833 19.8869 231.828 20.0976 230.729 20.0976C229.029 20.0976 227.641 19.5603 226.563 18.4856C225.505 17.3898 224.977 15.9779 224.977 14.25V9.82474H227.153V14.25C227.153 15.3668 227.495 16.2835 228.18 17C228.884 17.6954 229.786 18.0431 230.885 18.0431C231.901 18.0431 232.885 17.8113 233.839 17.3477C234.253 17.1159 234.616 16.8735 234.927 16.6207V9.82474H237.104V24.997H234.927Z" fill="#EEEFF7"/>
<path d="M251.098 24.997V22.9424C250.787 23.385 250.393 23.7853 249.916 24.1436C248.817 24.9233 247.605 25.3131 246.278 25.3131C244.765 25.3131 243.5 24.8706 242.484 23.9855C241.489 23.0794 240.992 22.0469 240.992 20.8879C240.992 18.317 242.443 16.7892 245.345 16.3046L251.098 15.3563C251.098 14.2394 250.745 13.3333 250.041 12.6379C249.356 11.9215 248.465 11.5632 247.366 11.5632C246.288 11.5632 245.262 11.932 244.288 12.6695C243.832 13.0699 243.459 13.4387 243.169 13.7759L241.769 12.3535C242.163 11.8266 242.65 11.3525 243.231 10.931C244.495 9.98278 245.874 9.50865 247.366 9.50865C249.066 9.50865 250.476 10.0671 251.595 11.1839C252.715 12.3008 253.274 13.6916 253.274 15.3563V24.997H251.098ZM251.098 18.2011V17.2528L245.967 18.2011C244.101 18.5383 243.169 19.4338 243.169 20.8879C243.169 21.5622 243.438 22.1311 243.977 22.5947C244.537 23.0373 245.304 23.2585 246.278 23.2585C247.708 23.2585 248.869 22.7949 249.761 21.8677C250.652 20.9405 251.098 19.7183 251.098 18.2011Z" fill="#EEEFF7"/>
<path d="M269.274 20.7298L270.829 22.1522C270.414 22.679 269.865 23.2058 269.181 23.7327C267.729 24.7863 266.206 25.3131 264.61 25.3131C262.557 25.3131 260.795 24.544 259.323 23.0057C257.872 21.4674 257.147 19.6024 257.147 17.4109C257.147 15.2193 257.872 13.3544 259.323 11.8161C260.795 10.2778 262.557 9.50865 264.61 9.50865C266.227 9.50865 267.719 10.0144 269.087 11.0259C269.647 11.4473 270.176 11.9425 270.673 12.5115L269.118 14.0919C268.787 13.6283 268.403 13.2069 267.968 12.8276C266.973 11.9847 265.853 11.5632 264.61 11.5632C263.179 11.5632 261.935 12.1322 260.878 13.2701C259.842 14.387 259.323 15.7672 259.323 17.4109C259.323 19.0545 259.842 20.4453 260.878 21.5833C261.935 22.7001 263.179 23.2585 264.61 23.2585C265.791 23.2585 266.942 22.8371 268.061 21.9942C268.538 21.5938 268.942 21.1723 269.274 20.7298Z" fill="#EEEFF7"/>
<path d="M277.659 24.997V11.8793H272.372V9.82474H285.121V11.8793H279.835V24.997H277.659Z" fill="#EEEFF7"/>
<path d="M288.237 24.997V9.82474H290.414V14.8822H294.301C296 14.8822 297.327 15.3458 298.281 16.273C299.255 17.1791 299.742 18.4013 299.742 19.9396C299.742 21.4779 299.255 22.7106 298.281 23.6378C297.327 24.544 296.011 24.997 294.332 24.997H288.237ZM290.414 22.9424H294.332C295.327 22.9424 296.114 22.6685 296.695 22.1206C297.275 21.5516 297.565 20.8246 297.565 19.9396C297.565 19.0335 297.265 18.3065 296.664 17.7586C296.083 17.2107 295.296 16.9367 294.301 16.9367H290.414V22.9424Z" fill="#EEEFF7"/>
<path d="M303.633 24.997V9.82474H305.809V16.3046H309.074C309.323 14.4291 310.152 12.8276 311.562 11.5C312.972 10.1724 314.63 9.50865 316.537 9.50865C318.589 9.50865 320.341 10.2778 321.792 11.8161C323.264 13.3544 324 15.2193 324 17.4109C324 19.6024 323.264 21.4674 321.792 23.0057C320.341 24.544 318.589 25.3131 316.537 25.3131C314.63 25.3131 312.972 24.6388 311.562 23.2901C310.152 21.9415 309.323 20.2978 309.074 18.3591H305.809V24.997H303.633ZM312.806 21.5833C313.863 22.7001 315.107 23.2585 316.537 23.2585C317.967 23.2585 319.201 22.7001 320.237 21.5833C321.295 20.4453 321.823 19.0545 321.823 17.4109C321.823 15.7672 321.295 14.387 320.237 13.2701C319.201 12.1322 317.967 11.5632 316.537 11.5632C315.107 11.5632 313.863 12.1322 312.806 13.2701C311.769 14.387 311.251 15.7672 311.251 17.4109C311.251 19.0545 311.769 20.4453 312.806 21.5833Z" fill="#EEEFF7"/>
<path d="M133.919 62.7238V39.741H140.148V49.1217L148.223 39.741H155.606L147.3 49.3563L156.067 62.7238H148.915L143.147 53.8121L140.148 57.3299V62.7238H133.919Z" fill="#EEEFF7"/>
<path d="M164.892 55.5944C166 56.7514 167.369 57.3299 168.999 57.3299C170.629 57.3299 171.998 56.7514 173.106 55.5944C174.213 54.4375 174.767 52.9835 174.767 51.2324C174.767 49.4813 174.213 48.0273 173.106 46.8704C171.998 45.7134 170.629 45.1349 168.999 45.1349C167.369 45.1349 166 45.7134 164.892 46.8704C163.785 48.0273 163.231 49.4813 163.231 51.2324C163.231 52.9835 163.785 54.4375 164.892 55.5944ZM160.509 59.675C158.171 57.3299 157.002 54.5157 157.002 51.2324C157.002 47.9492 158.171 45.1349 160.509 42.7898C162.847 40.4446 165.677 39.272 168.999 39.272C172.321 39.272 175.151 40.4446 177.489 42.7898C179.827 45.1349 180.996 47.9492 180.996 51.2324C180.996 54.5157 179.827 57.3299 177.489 59.675C175.151 62.0202 172.321 63.1928 168.999 63.1928C165.677 63.1928 162.847 62.0202 160.509 59.675Z" fill="#EEEFF7"/>
<path d="M185.603 62.7238V39.741H191.14L197.83 48.4182L204.52 39.741H210.057V62.7238H203.828V49.3563L197.83 57.0954L191.832 49.3563V62.7238H185.603Z" fill="#EEEFF7"/>
<path d="M228.752 62.7238V59.9096H228.521C227.967 60.5975 227.398 61.1447 226.814 61.5512C225.46 62.6456 223.799 63.1928 221.831 63.1928C219.77 63.1928 218.093 62.5831 216.801 61.3636C215.54 60.1128 214.909 58.5337 214.909 56.6263C214.909 54.7502 215.494 53.1555 216.663 51.8422C217.862 50.4976 219.508 49.6377 221.6 49.2625L228.752 47.9492C228.629 47.0736 228.229 46.3544 227.552 45.7916C226.875 45.1975 225.968 44.9004 224.83 44.9004C223.415 44.9004 222.169 45.3382 221.092 46.2137C220.539 46.6202 220.093 47.0424 219.754 47.4801L216.063 43.7278C216.74 42.8836 217.524 42.1488 218.416 41.5234C220.569 40.0225 222.861 39.272 225.291 39.272C228.121 39.272 230.444 40.1475 232.258 41.8986C234.073 43.6497 234.981 45.8229 234.981 48.4182V62.7238H228.752ZM228.752 52.874V52.405L223.676 53.3431C221.984 53.687 221.138 54.4688 221.138 55.6882C221.138 57.2517 222.061 58.0334 223.907 58.0334C225.291 58.0334 226.445 57.5488 227.367 56.5794C228.29 55.6101 228.752 54.3749 228.752 52.874Z" fill="#EEEFF7"/>
<path d="M240.981 62.7238V39.741H247.21V48.1837H255.746V39.741H261.975V62.7238H255.746V54.0466H247.21V62.7238H240.981Z" fill="#EEEFF7"/>
<path d="M264.972 67.8832V56.8608H266.357C266.972 56.298 267.587 55.485 268.202 54.4219C269.433 52.1705 270.048 49.4657 270.048 46.3075V39.741H287.351V56.8608H290.35V67.8832H284.121V62.7238H271.202V67.8832H264.972ZM273.047 56.8608H281.122V45.604H276.277V46.3075C276.277 49.4032 275.739 52.1079 274.662 54.4219C274.078 55.5475 273.539 56.3605 273.047 56.8608Z" fill="#EEEFF7"/>
<path d="M315.973 62.7238V39.741H322.202V62.7238H315.973ZM300.516 57.0954H304.207C305.007 57.0954 305.622 56.8921 306.052 56.4856C306.514 56.0478 306.745 55.4694 306.745 54.7502C306.745 54.031 306.514 53.4681 306.052 53.0616C305.622 52.6239 305.007 52.405 304.207 52.405H300.516V57.0954ZM294.286 62.7238V39.741H300.516V46.7766H304.668C307.16 46.7766 309.205 47.5427 310.805 49.0748C312.405 50.5758 313.204 52.4675 313.204 54.7502C313.204 57.0328 312.405 58.9402 310.805 60.4724C309.205 61.9733 307.16 62.7238 304.668 62.7238H294.286Z" fill="#EEEFF7"/>
</svg>
