<svg width="21" height="35" viewBox="0 0 21 35" fill="none" xmlns="http://www.w3.org/2000/svg">
<path d="M8.67008 24.1972C8.18614 24.1222 7.74346 24.0622 7.30078 23.9872C5.70307 23.7691 4.16063 23.2524 2.75395 22.464C1.98426 22.0196 1.26805 21.4885 0.619343 20.8809C0.314776 20.6101 0.108392 20.2461 0.0323857 19.8458C-0.0436203 19.4454 0.0150252 19.0311 0.199173 18.6675C0.765651 17.317 2.07493 16.9606 3.34669 17.7034C3.80062 17.9697 4.20579 18.3149 4.66347 18.5812C5.77479 19.2116 6.99561 19.6253 8.26117 19.8005C8.75643 19.8949 9.258 19.9526 9.76177 19.973C10.5221 19.987 11.2823 19.9406 12.0352 19.8342C12.8607 19.6982 13.6756 19.5039 14.4737 19.2528C15.3542 18.9633 16.1752 18.5172 16.8971 17.936C17.3711 17.5461 17.9642 17.3303 18.5778 17.3245C18.9038 17.3211 19.2247 17.4057 19.5067 17.5695C19.7886 17.7332 20.0211 17.97 20.1797 18.2548C20.3523 18.5716 20.4786 18.9115 20.5549 19.264C20.6222 19.5337 20.6134 19.8168 20.5293 20.0818C20.4451 20.3468 20.2891 20.5832 20.0784 20.7646C19.6369 21.179 19.1695 21.5649 18.6791 21.9201C17.5267 22.7605 16.2141 23.3555 14.8226 23.6683C13.9897 23.8596 13.1419 23.9797 12.3053 24.1335L11.9752 24.1972C12.0034 24.2543 12.0373 24.3084 12.0765 24.3586C13.8997 26.1843 15.7254 28.0088 17.5537 29.832C17.88 30.1621 18.2177 30.4848 18.5328 30.8299C18.8624 31.184 19.0457 31.6498 19.0457 32.1336C19.0457 32.6173 18.8624 33.0831 18.5328 33.4372C18.2176 33.8582 17.765 34.1555 17.2535 34.2776C16.9417 34.3497 16.6167 34.3422 16.3085 34.2556C16.0004 34.1691 15.719 34.0063 15.4903 33.7824C14.8526 33.1521 14.2261 32.5181 13.5921 31.8841C12.5491 30.8412 11.5025 29.7982 10.4633 28.7516C10.3395 28.624 10.2532 28.639 10.1332 28.7516C8.63257 30.2522 7.13196 31.7528 5.63136 33.2534C5.45879 33.4297 5.28622 33.6285 5.09865 33.7749C4.7345 34.1289 4.24662 34.327 3.73872 34.327C3.23082 34.327 2.74294 34.1289 2.3788 33.7749C1.59473 33.0771 1.34714 32.248 1.75605 31.3064C1.86117 31.0822 2.00752 30.8799 2.18747 30.7099C4.11575 28.7741 6.04653 26.8446 7.97981 24.9213C8.15613 24.745 8.33245 24.5686 8.50502 24.3886C8.56509 24.3293 8.62029 24.2653 8.67008 24.1972Z" fill="black"/>
<path d="M10.3095 17.3245C8.59309 17.3252 6.91516 16.8159 5.48867 15.8614C4.06217 14.9068 2.95141 13.55 2.29736 11.9631C1.64331 10.3762 1.47544 8.63071 1.81507 6.94823C2.1547 5.26576 2.98651 3.72211 4.20494 2.51318C5.42337 1.30426 6.97348 0.48456 8.65856 0.158115C10.3436 -0.168331 12.0877 0.013194 13.6695 0.679652C15.2512 1.34611 16.5993 2.46746 17.5427 3.90138C18.486 5.33531 18.9821 7.01717 18.968 8.73352C18.9492 11.0179 18.0288 13.2023 16.4071 14.8113C14.7855 16.4203 12.5939 17.3236 10.3095 17.3245ZM14.6162 8.66224C14.611 7.80867 14.3527 6.97583 13.874 6.26912C13.3953 5.5624 12.7177 5.01358 11.927 4.69209C11.1362 4.3706 10.2679 4.2909 9.43186 4.46307C8.59582 4.63525 7.82964 5.05156 7.23028 5.65932C6.63092 6.26708 6.22532 7.03898 6.06481 7.87734C5.90429 8.7157 5.99607 9.58283 6.32854 10.369C6.66101 11.1552 7.21922 11.8251 7.93253 12.2939C8.64584 12.7627 9.4822 13.0094 10.3358 13.0027C10.9021 12.9998 11.4623 12.8851 11.9842 12.6652C12.5061 12.4453 12.9795 12.1245 13.3772 11.7212C13.7749 11.318 14.089 10.8402 14.3016 10.3152C14.5143 9.79032 14.6212 9.22858 14.6162 8.66224Z" fill="black"/>
</svg>
