<svg width="50" height="50" viewBox="0 0 50 50" fill="none" xmlns="http://www.w3.org/2000/svg">
<path d="M0 24C0 12.6862 0 7.02944 3.51472 3.51472C7.02944 0 12.6862 0 24 0H26C37.3137 0 42.9705 0 46.4853 3.51472C50 7.02944 50 12.6862 50 24V26C50 37.3137 50 42.9705 46.4853 46.4853C42.9705 50 37.3137 50 26 50H24C12.6862 50 7.02944 50 3.51472 46.4853C0 42.9705 0 37.3137 0 26V24Z" fill="#4CAB98"/>
<path d="M23.6701 32.1972C23.1861 32.1222 22.7435 32.0622 22.3008 31.9872C20.7031 31.7691 19.1606 31.2524 17.754 30.464C16.9843 30.0196 16.268 29.4885 15.6193 28.8809C15.3148 28.6101 15.1084 28.2461 15.0324 27.8458C14.9564 27.4454 15.015 27.0311 15.1992 26.6675C15.7657 25.317 17.0749 24.9606 18.3467 25.7034C18.8006 25.9697 19.2058 26.3149 19.6635 26.5812C20.7748 27.2116 21.9956 27.6253 23.2612 27.8005C23.7564 27.8949 24.258 27.9526 24.7618 27.973C25.5221 27.987 26.2823 27.9406 27.0352 27.8342C27.8607 27.6982 28.6756 27.5039 29.4737 27.2528C30.3542 26.9633 31.1752 26.5172 31.8971 25.936C32.3711 25.5461 32.9642 25.3303 33.5778 25.3245C33.9038 25.3211 34.2247 25.4057 34.5067 25.5695C34.7886 25.7332 35.0211 25.97 35.1797 26.2548C35.3523 26.5716 35.4786 26.9115 35.5549 27.264C35.6222 27.5337 35.6134 27.8168 35.5293 28.0818C35.4451 28.3468 35.2891 28.5832 35.0784 28.7646C34.6369 29.179 34.1695 29.5649 33.6791 29.9201C32.5267 30.7605 31.2141 31.3555 29.8226 31.6683C28.9897 31.8596 28.1419 31.9797 27.3053 32.1335L26.9752 32.1972C27.0034 32.2543 27.0373 32.3084 27.0765 32.3586C28.8997 34.1843 30.7254 36.0088 32.5537 37.832C32.88 38.1621 33.2177 38.4848 33.5328 38.8299C33.8624 39.184 34.0457 39.6498 34.0457 40.1336C34.0457 40.6173 33.8624 41.0831 33.5328 41.4372C33.2176 41.8582 32.765 42.1555 32.2535 42.2776C31.9417 42.3497 31.6167 42.3422 31.3085 42.2556C31.0004 42.1691 30.719 42.0063 30.4903 41.7824C29.8526 41.1521 29.2261 40.5181 28.5921 39.8841C27.5491 38.8412 26.5025 37.7982 25.4633 36.7516C25.3395 36.624 25.2532 36.639 25.1332 36.7516C23.6326 38.2522 22.132 39.7528 20.6314 41.2534C20.4588 41.4297 20.2862 41.6285 20.0986 41.7749C19.7345 42.1289 19.2466 42.327 18.7387 42.327C18.2308 42.327 17.7429 42.1289 17.3788 41.7749C16.5947 41.0771 16.3471 40.248 16.7561 39.3064C16.8612 39.0822 17.0075 38.8799 17.1875 38.7099C19.1158 36.7741 21.0465 34.8446 22.9798 32.9213C23.1561 32.745 23.3324 32.5686 23.505 32.3886C23.5651 32.3293 23.6203 32.2653 23.6701 32.1972Z" fill="white"/>
<path d="M25.3095 25.3245C23.5931 25.3252 21.9152 24.8159 20.4887 23.8614C19.0622 22.9068 17.9514 21.55 17.2974 19.9631C16.6433 18.3762 16.4754 16.6307 16.8151 14.9482C17.1547 13.2658 17.9865 11.7221 19.2049 10.5132C20.4234 9.30426 21.9735 8.48456 23.6586 8.15811C25.3436 7.83167 27.0877 8.01319 28.6695 8.67965C30.2512 9.34611 31.5993 10.4675 32.5427 11.9014C33.486 13.3353 33.9821 15.0172 33.968 16.7335C33.9492 19.0179 33.0288 21.2023 31.4071 22.8113C29.7855 24.4203 27.5939 25.3236 25.3095 25.3245ZM29.6162 16.6622C29.611 15.8087 29.3527 14.9758 28.874 14.2691C28.3953 13.5624 27.7177 13.0136 26.927 12.6921C26.1362 12.3706 25.2679 12.2909 24.4319 12.4631C23.5958 12.6352 22.8296 13.0516 22.2303 13.6593C21.6309 14.2671 21.2253 15.039 21.0648 15.8773C20.9043 16.7157 20.9961 17.5828 21.3285 18.369C21.661 19.1552 22.2192 19.8251 22.9325 20.2939C23.6458 20.7627 24.4822 21.0094 25.3358 21.0027C25.9021 20.9998 26.4623 20.8851 26.9842 20.6652C27.5061 20.4453 27.9795 20.1245 28.3772 19.7212C28.7749 19.318 29.089 18.8402 29.3016 18.3152C29.5143 17.7903 29.6212 17.2286 29.6162 16.6622Z" fill="white"/>
</svg>
