<svg width="16" height="16" viewBox="0 0 16 16" fill="none" xmlns="http://www.w3.org/2000/svg">
<g clip-path="url(#clip0_63_2256)">
<circle cx="8" cy="8" r="8" fill="#1C9AE6"/>
<path d="M7.56794 3.74179C7.76081 3.41066 8.23919 3.41066 8.43206 3.74179L9.50552 5.58481C9.57617 5.70611 9.69455 5.79213 9.83175 5.82183L11.9163 6.27323C12.2908 6.35433 12.4386 6.8093 12.1833 7.09505L10.7622 8.6855C10.6687 8.79017 10.6235 8.92935 10.6376 9.06901L10.8525 11.191C10.8911 11.5723 10.504 11.8534 10.1534 11.6989L8.20162 10.8388C8.07317 10.7822 7.92683 10.7822 7.79838 10.8388L5.84663 11.6989C5.49596 11.8534 5.10895 11.5723 5.14755 11.191L5.3624 9.06901C5.37654 8.92935 5.33132 8.79017 5.23779 8.6855L3.81669 7.09505C3.56137 6.8093 3.70919 6.35433 4.08372 6.27323L6.16825 5.82183C6.30544 5.79213 6.42383 5.70611 6.49448 5.58481L7.56794 3.74179Z" fill="white"/>
</g>
<defs>
<clipPath id="clip0_63_2256">
<rect width="16" height="16" fill="white"/>
</clipPath>
</defs>
</svg>
