<svg width="94" height="88" viewBox="0 0 94 88" fill="none" xmlns="http://www.w3.org/2000/svg">
<path d="M20.2469 14.7845C20.2469 7.59507 26.0751 1.76688 33.2645 1.76688C40.454 1.76688 46.2822 7.59507 46.2822 14.7845C46.2822 7.59507 52.1104 1.76688 59.2998 1.76688C66.4893 1.76688 72.3175 7.59507 72.3175 14.7845L72.3175 14.8135C72.3176 15.1773 72.3181 16.2199 72.1205 17.388H82.7316C85.6073 17.388 87.9386 19.7193 87.9386 22.5951V33.0092C87.9386 35.885 85.6073 38.2163 82.7316 38.2163V77.2692C82.7316 81.5828 79.2346 85.0798 74.921 85.0798H17.6434C13.3297 85.0798 9.83279 81.5828 9.83279 77.2692L9.83279 38.2163C6.95702 38.2163 4.62573 35.885 4.62573 33.0092V22.5951C4.62573 19.7193 6.95701 17.388 9.83279 17.388H20.4439C20.2462 16.2199 20.2467 15.1773 20.2469 14.8135C20.2469 14.8033 20.2469 14.7936 20.2469 14.7845ZM25.808 17.388H41.0751V14.7845C41.0751 10.4708 37.5782 6.97393 33.2645 6.97393C28.9509 6.97393 25.454 10.4708 25.454 14.7845C25.454 15.2258 25.4641 16.2087 25.6877 17.0285C25.7274 17.1743 25.7687 17.2936 25.808 17.388ZM51.4892 17.388H66.7564C66.7957 17.2936 66.8369 17.1743 66.8767 17.0285C67.1003 16.2087 67.1104 15.2258 67.1104 14.7845C67.1104 10.4708 63.6135 6.97393 59.2998 6.97393C54.9861 6.97393 51.4892 10.4708 51.4892 14.7845V17.388ZM9.83279 22.5951V33.0092H41.0751V22.5951H9.83279ZM51.4892 22.5951V33.0092H82.7316V22.5951H51.4892ZM77.5245 38.2163H51.4892V79.8727H74.921C76.3589 79.8727 77.5245 78.7071 77.5245 77.2692V38.2163ZM41.0751 79.8727V38.2163H15.0398V77.2692C15.0398 78.7071 16.2055 79.8727 17.6434 79.8727H41.0751Z" fill="#D6FFF7"/>
</svg>
