<svg width="213" height="213" viewBox="0 0 213 213" fill="none" xmlns="http://www.w3.org/2000/svg">
<circle cx="106.5" cy="106.5" r="105" fill="white" stroke="url(#paint0_linear_168_9258)" stroke-width="3"/>
<g clip-path="url(#clip0_168_9258)">
<path d="M99.992 71.0037C93.1395 77.9268 86.9258 84.175 80.5744 90.4233C79.2427 91.8729 77.4603 92.8326 75.5147 93.1478C73.5692 93.4629 71.5739 93.1151 69.8508 92.1603C68.1159 91.3796 66.7105 90.0164 65.8796 88.3084C65.0486 86.6003 64.8447 84.6555 65.3034 82.8129C65.6816 80.8656 66.602 79.064 67.9592 77.6144C75.7764 69.5833 83.7104 61.6689 91.7614 53.8711C96.6597 49.0724 102.961 49.0724 107.922 53.8711C114.186 59.9694 120.449 66.1801 126.55 72.4408C130.76 76.7396 130.772 82.0756 126.826 85.7996C122.88 89.5235 117.869 89.2111 113.772 85.1498C109.25 80.6635 104.915 76.0648 99.992 71.0037ZM72.5944 84.9873L73.772 85.8871C75.1273 85.0713 76.4173 84.1522 77.6304 83.1378C83.7814 77.102 89.9199 71.0537 95.9331 64.8805C98.6014 62.1313 100.806 62.0188 103.45 64.8805C108.143 69.7624 112.966 74.5278 117.919 79.1764C118.808 80.0137 120.587 79.8887 121.965 80.2137C121.489 78.964 121.314 77.5144 120.487 76.6522C114.787 70.7788 108.912 65.0804 103.187 59.2446C100.907 56.9202 98.8269 56.8078 96.5344 59.0946C89.1056 66.455 81.5891 73.8155 74.2856 81.3008C73.3961 82.2131 73.1456 83.7377 72.5944 84.9873Z" fill="#50B5AC"/>
<path d="M111.655 135.411C105.128 128.925 99.2027 123.064 93.3148 117.178C88.6671 112.517 88.1033 106.906 91.8866 103.157C95.6699 99.4083 101.395 99.7582 106.018 104.332C113.484 111.705 120.917 119.119 128.317 126.576C133.929 132.237 133.891 138.235 128.254 143.921C122.617 149.607 116.691 155.542 110.853 161.291C106.368 165.702 100.831 165.977 97.073 162.091C93.3148 158.204 93.7532 152.756 98.1754 148.344C102.598 143.933 106.857 139.972 111.655 135.411ZM101.996 156.805L103.099 157.554C103.992 157.265 104.836 156.843 105.604 156.305C111.668 150.356 117.681 144.346 123.669 138.335C126.049 135.948 125.348 133.811 123.155 131.649C115.877 124.476 108.724 117.166 101.37 110.068C100.393 109.131 98.5638 109.068 97.1357 108.593C97.6743 109.943 97.8873 111.605 98.8143 112.567C104.828 118.815 111.004 124.814 117.104 130.924C120.775 134.598 120.788 135.923 117.217 139.447C112.845 143.833 108.448 148.132 104.126 152.618C103.207 153.89 102.477 155.287 101.959 156.767L101.996 156.805Z" fill="#50B5AC"/>
<path d="M50.6711 173C46.2865 172.238 43.5179 170.501 41.9019 167.027C41.0604 165.401 40.7727 163.545 41.0823 161.741C41.392 159.938 42.2822 158.284 43.6182 157.029C48.1907 152.243 52.9386 147.645 57.6239 142.971C65.7584 134.848 73.9013 126.73 82.0525 118.615C85.5853 115.116 86.6877 115.179 90.1202 118.853C90.6088 119.378 91.0347 119.965 91.5609 120.452C100.042 128.325 98 128.213 91.5609 134.711C80.2861 145.958 69.0114 157.317 57.6114 168.451C55.6446 170.401 52.9887 171.525 50.6711 173ZM87.3141 125.763L85.7857 125.601C75.3252 133.961 49.456 161.066 48.8547 164.99C50.5459 164.24 52.1118 163.965 53.0388 163.053C64.3303 151.948 75.5173 140.759 86.6 129.487C87.3892 128.737 87.1136 127.025 87.3141 125.763Z" fill="#50B5AC"/>
<path d="M142.811 101.67C149.801 101.67 156.115 101.545 162.429 101.67C166.826 101.783 170.158 103.745 171.536 108.218C172.173 109.921 172.212 111.79 171.645 113.518C171.078 115.245 169.94 116.73 168.417 117.728C166.382 119.039 164.023 119.761 161.602 119.815C153.409 120.065 145.191 120.065 136.998 119.815C128.592 119.615 125.51 115.491 124.684 107.094C123.857 98.6959 126.262 92.985 134.104 89.6985C135.019 89.3111 135.77 88.5488 136.61 88.0864C140.143 86.2619 142.573 87.5866 142.736 91.548C142.974 94.7596 142.811 97.9212 142.811 101.67ZM134.956 98.496C130.96 100.52 130.158 109.743 133.703 111.967C134.437 112.407 135.277 112.64 136.134 112.642C144.602 112.642 153.083 112.742 161.552 112.642C162.579 112.642 163.581 111.317 164.596 110.605C163.569 110.068 162.554 109.106 161.514 109.068C156.503 108.906 151.492 109.068 146.481 108.981C137.374 108.806 135.37 111.242 135.432 99.1958C135.382 98.9958 135.232 98.8834 134.956 98.4835V98.496Z" fill="#50B5AC"/>
<path d="M164.546 58.0824C164.546 62.8616 162.643 67.445 159.255 70.8244C155.867 74.2038 151.272 76.1023 146.481 76.1023C141.69 76.1023 137.096 74.2038 133.708 70.8244C130.32 67.445 128.417 62.8616 128.417 58.0824C128.417 53.3032 130.32 48.7198 133.708 45.3404C137.096 41.961 141.69 40.0625 146.481 40.0625C151.272 40.0625 155.867 41.961 159.255 45.3404C162.643 48.7198 164.546 53.3032 164.546 58.0824ZM146.732 68.8419C148.175 68.8304 149.601 68.5356 150.93 67.9742C152.258 67.4129 153.463 66.596 154.475 65.5702C155.487 64.5444 156.287 63.3297 156.828 61.9957C157.37 60.6616 157.642 59.2342 157.631 57.795C157.703 56.2805 157.462 54.7675 156.925 53.3494C156.387 51.9313 155.564 50.6383 154.505 49.5504C153.446 48.4625 152.175 47.6027 150.77 47.0244C149.365 46.446 147.856 46.1613 146.337 46.1878C144.817 46.2144 143.319 46.5516 141.935 47.1787C140.552 47.8058 139.311 48.7094 138.292 49.8337C137.272 50.9579 136.494 52.2789 136.007 53.7149C135.519 55.1509 135.332 56.6714 135.457 58.1824C135.559 61.0794 136.798 63.8207 138.907 65.8148C141.016 67.8089 143.826 68.8961 146.732 68.8419Z" fill="#50B5AC"/>
</g>
<defs>
<linearGradient id="paint0_linear_168_9258" x1="99.4" y1="-5.28991e-08" x2="104.133" y2="213" gradientUnits="userSpaceOnUse">
<stop stop-color="#52B9B5"/>
<stop offset="1" stop-color="white"/>
</linearGradient>
<clipPath id="clip0_168_9258">
<rect width="131" height="133" fill="white" transform="translate(41 40)"/>
</clipPath>
</defs>
</svg>
