<svg width="102" height="102" viewBox="0 0 102 102" fill="none" xmlns="http://www.w3.org/2000/svg">
<path fill-rule="evenodd" clip-rule="evenodd" d="M51 95.1058C75.2811 95.1058 94.9648 75.4221 94.9648 51.1411C94.9648 26.86 75.2811 7.17637 51 7.17637C26.719 7.17637 7.03531 26.86 7.03531 51.1411C7.03531 75.4221 26.719 95.1058 51 95.1058ZM51 101.386C78.7498 101.386 101.245 78.8909 101.245 51.1411C101.245 23.3913 78.7498 0.895691 51 0.895691C23.2503 0.895691 0.754639 23.3913 0.754639 51.1411C0.754639 78.8909 23.2503 101.386 51 101.386Z" fill="#D6FFF7"/>
<path fill-rule="evenodd" clip-rule="evenodd" d="M51 85.6848C70.078 85.6848 85.5437 70.2191 85.5437 51.1411C85.5437 32.0631 70.078 16.5974 51 16.5974C31.9221 16.5974 16.4563 32.0631 16.4563 51.1411C16.4563 70.2191 31.9221 85.6848 51 85.6848ZM51 88.8251C71.8124 88.8251 88.6841 71.9534 88.6841 51.1411C88.6841 30.3288 71.8124 13.457 51 13.457C30.1877 13.457 13.316 30.3288 13.316 51.1411C13.316 71.9534 30.1877 88.8251 51 88.8251Z" fill="#D6FFF7"/>
<path d="M37.1309 54.9693C35.1164 54.9693 33.3869 54.4509 31.9425 53.4141C30.5171 52.3573 29.4243 50.9217 28.6641 49.1073C27.9229 47.273 27.5522 45.1794 27.5522 42.8267C27.5522 39.2576 28.436 36.4064 30.2035 34.273C31.971 32.1196 34.2801 31.0429 37.1309 31.0429C40.0198 31.0429 42.3384 32.1196 44.0869 34.273C45.8354 36.4064 46.7096 39.2576 46.7096 42.8267C46.7096 45.1794 46.3295 47.273 45.5693 49.1073C44.8281 50.9217 43.7353 52.3573 42.2909 53.4141C40.8655 54.4509 39.1455 54.9693 37.1309 54.9693ZM37.1309 50.2737C38.5563 50.2737 39.6492 49.6357 40.4094 48.3596C41.1696 47.0636 41.5497 45.2193 41.5497 42.8267C41.5497 40.434 41.1506 38.6595 40.3524 37.503C39.5541 36.3267 38.4803 35.7385 37.1309 35.7385C35.8386 35.7385 34.7743 36.3267 33.938 37.503C33.1208 38.6595 32.7122 40.434 32.7122 42.8267C32.7122 45.2193 33.0828 47.0636 33.824 48.3596C34.5842 49.6357 35.6865 50.2737 37.1309 50.2737ZM36.8744 73.7515L60.0799 31.8803H65.2399L42.0913 73.7515H36.8744ZM64.8693 74.5889C62.8547 74.5889 61.1252 74.0705 59.6808 73.0337C58.2554 71.977 57.1626 70.5414 56.4024 68.727C55.6612 66.8926 55.2906 64.799 55.2906 62.4463C55.2906 58.8773 56.1743 56.026 57.9418 53.8926C59.7093 51.7392 62.0184 50.6625 64.8693 50.6625C67.7581 50.6625 70.0767 51.7392 71.8252 53.8926C73.5737 56.026 74.4479 58.8773 74.4479 62.4463C74.4479 64.799 74.0678 66.8926 73.3076 68.727C72.5664 70.5414 71.4736 71.977 70.0292 73.0337C68.6038 74.0705 66.8838 74.5889 64.8693 74.5889ZM64.8693 69.8934C66.2947 69.8934 67.3875 69.2553 68.1477 67.9793C68.9079 66.6832 69.288 64.8389 69.288 62.4463C69.288 60.0536 68.8889 58.2791 68.0907 57.1227C67.2924 55.9463 66.2186 55.3581 64.8693 55.3581C63.5769 55.3581 62.5126 55.9463 61.6764 57.1227C60.8591 58.2791 60.4505 60.0536 60.4505 62.4463C60.4505 64.8389 60.8211 66.6832 61.5623 67.9793C62.3225 69.2553 63.4248 69.8934 64.8693 69.8934Z" fill="#D6FFF7"/>
</svg>
