<svg width="115" height="115" viewBox="0 0 115 115" fill="none" xmlns="http://www.w3.org/2000/svg">
<circle cx="57.5" cy="57.5" r="56" stroke="url(#paint0_linear_67_2063)" stroke-width="3"/>
<path d="M29.75 27.375C27.3338 27.375 25.375 29.3338 25.375 31.75V66.75C25.375 69.1662 27.3338 71.125 29.75 71.125H71.6878C74.0085 71.125 76.2341 72.0469 77.875 73.6878L86.625 82.4378V31.75C86.625 29.3338 84.6662 27.375 82.25 27.375H29.75ZM82.25 23C87.0825 23 91 26.9175 91 31.75V87.7189C91 89.6678 88.6438 90.6438 87.2657 89.2657L74.7814 76.7814C73.9609 75.9609 72.8481 75.5 71.6878 75.5H29.75C24.9175 75.5 21 71.5825 21 66.75V31.75C21 26.9175 24.9175 23 29.75 23H82.25Z" fill="#55AE9E"/>
<path d="M34.125 38.3125C34.125 37.1044 35.1044 36.125 36.3125 36.125H75.6875C76.8956 36.125 77.875 37.1044 77.875 38.3125C77.875 39.5206 76.8956 40.5 75.6875 40.5H36.3125C35.1044 40.5 34.125 39.5206 34.125 38.3125ZM34.125 49.25C34.125 48.0419 35.1044 47.0625 36.3125 47.0625H75.6875C76.8956 47.0625 77.875 48.0419 77.875 49.25C77.875 50.4581 76.8956 51.4375 75.6875 51.4375H36.3125C35.1044 51.4375 34.125 50.4581 34.125 49.25ZM34.125 60.1875C34.125 58.9794 35.1044 58 36.3125 58H58.1875C59.3956 58 60.375 58.9794 60.375 60.1875C60.375 61.3956 59.3956 62.375 58.1875 62.375H36.3125C35.1044 62.375 34.125 61.3956 34.125 60.1875Z" fill="#55AE9E"/>
<defs>
<linearGradient id="paint0_linear_67_2063" x1="53.6667" y1="-2.85606e-08" x2="56.2222" y2="115" gradientUnits="userSpaceOnUse">
<stop stop-color="#52B9B5"/>
<stop offset="1" stop-color="white"/>
</linearGradient>
</defs>
</svg>
