<svg width="115" height="115" viewBox="0 0 115 115" fill="none" xmlns="http://www.w3.org/2000/svg">
<circle cx="57.5" cy="57.5" r="56" stroke="url(#paint0_linear_67_2058)" stroke-width="3"/>
<path d="M49.25 58C56.4987 58 62.375 52.1237 62.375 44.875C62.375 37.6263 56.4987 31.75 49.25 31.75C42.0013 31.75 36.125 37.6263 36.125 44.875C36.125 52.1237 42.0013 58 49.25 58ZM58 44.875C58 49.7075 54.0825 53.625 49.25 53.625C44.4175 53.625 40.5 49.7075 40.5 44.875C40.5 40.0425 44.4175 36.125 49.25 36.125C54.0825 36.125 58 40.0425 58 44.875Z" fill="#55AE9E"/>
<path d="M75.5 79.875C75.5 84.25 71.125 84.25 71.125 84.25H27.375C27.375 84.25 23 84.25 23 79.875C23 75.5 27.375 62.375 49.25 62.375C71.125 62.375 75.5 75.5 75.5 79.875ZM71.1249 79.8598C71.1187 78.7801 70.4522 75.5457 67.4845 72.578C64.6309 69.7243 59.2648 66.75 49.25 66.75C39.2351 66.75 33.869 69.7243 31.0154 72.578C28.0477 75.5457 27.3812 78.7801 27.375 79.8598H71.1249Z" fill="#55AE9E"/>
<path fill-rule="evenodd" clip-rule="evenodd" d="M82.0625 44.875C83.2706 44.875 84.25 45.8544 84.25 47.0625V53.625H90.8125C92.0206 53.625 93 54.6044 93 55.8125C93 57.0206 92.0206 58 90.8125 58H84.25V64.5625C84.25 65.7706 83.2706 66.75 82.0625 66.75C80.8544 66.75 79.875 65.7706 79.875 64.5625V58H73.3125C72.1044 58 71.125 57.0206 71.125 55.8125C71.125 54.6044 72.1044 53.625 73.3125 53.625H79.875V47.0625C79.875 45.8544 80.8544 44.875 82.0625 44.875Z" fill="#55AE9E"/>
<defs>
<linearGradient id="paint0_linear_67_2058" x1="53.6667" y1="-2.85606e-08" x2="56.2222" y2="115" gradientUnits="userSpaceOnUse">
<stop stop-color="#52B9B5"/>
<stop offset="1" stop-color="white"/>
</linearGradient>
</defs>
</svg>
