<svg width="115" height="115" viewBox="0 0 115 115" fill="none" xmlns="http://www.w3.org/2000/svg">
<circle cx="57.5" cy="57.5" r="56" stroke="url(#paint0_linear_67_2059)" stroke-width="3"/>
<path d="M49.25 57C56.4987 57 62.375 51.1237 62.375 43.875C62.375 36.6263 56.4987 30.75 49.25 30.75C42.0013 30.75 36.125 36.6263 36.125 43.875C36.125 51.1237 42.0013 57 49.25 57ZM58 43.875C58 48.7075 54.0825 52.625 49.25 52.625C44.4175 52.625 40.5 48.7075 40.5 43.875C40.5 39.0425 44.4175 35.125 49.25 35.125C54.0825 35.125 58 39.0425 58 43.875Z" fill="#55AE9E"/>
<path d="M75.5 78.875C75.5 83.25 71.125 83.25 71.125 83.25H27.375C27.375 83.25 23 83.25 23 78.875C23 74.5 27.375 61.375 49.25 61.375C71.125 61.375 75.5 74.5 75.5 78.875ZM71.1249 78.8598C71.1187 77.7801 70.4522 74.5457 67.4845 71.578C64.6309 68.7243 59.2648 65.75 49.25 65.75C39.2351 65.75 33.869 68.7243 31.0154 71.578C28.0477 74.5457 27.3812 77.7801 27.375 78.8598H71.1249Z" fill="#55AE9E"/>
<path fill-rule="evenodd" clip-rule="evenodd" d="M92.3593 44.5157C93.2136 45.37 93.2136 46.755 92.3593 47.6093L79.2343 60.7343C78.8241 61.1445 78.2677 61.375 77.6875 61.375C77.1073 61.375 76.5509 61.1445 76.1407 60.7343L69.5782 54.1718C68.7239 53.3175 68.7239 51.9325 69.5782 51.0782C70.4325 50.2239 71.8175 50.2239 72.6718 51.0782L77.6875 56.0939L89.2657 44.5157C90.12 43.6614 91.505 43.6614 92.3593 44.5157Z" fill="#55AE9E"/>
<defs>
<linearGradient id="paint0_linear_67_2059" x1="53.6667" y1="-2.85606e-08" x2="56.2222" y2="115" gradientUnits="userSpaceOnUse">
<stop stop-color="#52B9B5"/>
<stop offset="1" stop-color="white"/>
</linearGradient>
</defs>
</svg>
