<svg width="363" height="331" viewBox="0 0 363 331" fill="none" xmlns="http://www.w3.org/2000/svg">
<path d="M40.7111 189.61H28.7419L10.7186 164.566V189.61H0.210815V140.214H10.7186V164.151L28.5332 140.214H39.7369L21.6439 163.944L40.7111 189.61Z" fill="white"/>
<path d="M90.6992 164.843C90.6992 168.671 90.2121 172.153 89.2379 175.289C88.3101 178.38 86.8719 181.055 84.9234 183.315C83.0214 185.575 80.5626 187.304 77.5471 188.503C74.578 189.702 71.0754 190.302 67.0393 190.302C63.0032 190.302 59.4774 189.702 56.4619 188.503C53.4928 187.258 51.034 185.528 49.0856 183.315C47.1835 181.055 45.7453 178.357 44.7711 175.22C43.8433 172.084 43.3794 168.602 43.3794 164.774C43.3794 159.654 44.2144 155.204 45.8845 151.422C47.601 147.64 50.199 144.711 53.6784 142.636C57.2042 140.514 61.681 139.453 67.1089 139.453C72.4904 139.453 76.9208 140.514 80.4002 142.636C83.8796 144.711 86.4544 147.663 88.1245 151.491C89.841 155.273 90.6992 159.723 90.6992 164.843ZM54.4439 164.843C54.4439 168.302 54.8846 171.277 55.766 173.767C56.6475 176.258 58.016 178.172 59.8717 179.51C61.7274 180.847 64.1166 181.516 67.0393 181.516C70.0548 181.516 72.4672 180.847 74.2765 179.51C76.1321 178.172 77.4775 176.258 78.3126 173.767C79.194 171.277 79.6348 168.302 79.6348 164.843C79.6348 159.631 78.6605 155.549 76.7121 152.598C74.7636 149.646 71.5625 148.17 67.1089 148.17C64.1398 148.17 61.7274 148.839 59.8717 150.176C58.016 151.514 56.6475 153.428 55.766 155.918C54.8846 158.409 54.4439 161.384 54.4439 164.843Z" fill="white"/>
<path d="M122.007 189.61L110.038 150.868H109.759C109.806 151.791 109.875 153.174 109.968 155.019C110.061 156.864 110.154 158.847 110.246 160.969C110.339 163.044 110.386 164.935 110.386 166.642V189.61H100.991V140.214H115.326L127.087 177.988H127.296L139.752 140.214H154.087V189.61H144.275V166.227C144.275 164.658 144.298 162.86 144.345 160.83C144.437 158.801 144.507 156.887 144.553 155.088C144.646 153.243 144.716 151.86 144.762 150.937H144.484L131.68 189.61H122.007Z" fill="white"/>
<path d="M197.048 189.61L193.429 177.849H175.336L171.718 189.61H160.375L177.911 140.007H190.785L208.391 189.61H197.048ZM187.305 157.579C187.074 156.795 186.772 155.803 186.401 154.604C186.03 153.405 185.659 152.183 185.287 150.937C184.916 149.692 184.615 148.608 184.383 147.686C184.151 148.608 183.826 149.761 183.409 151.145C183.037 152.482 182.666 153.774 182.295 155.019C181.97 156.218 181.715 157.072 181.53 157.579L177.981 169.063H190.924L187.305 157.579Z" fill="white"/>
<path d="M255.393 189.61H244.885V168.302H225.191V189.61H214.683V140.214H225.191V159.585H244.885V140.214H255.393V189.61Z" fill="white"/>
<path d="M306.794 140.214V180.893H313.405V204H303.245V189.61H272.139V204H261.979V180.893H265.806C267.105 178.31 268.358 175.589 269.564 172.73C270.77 169.87 271.884 166.803 272.904 163.529C273.971 160.254 274.922 156.703 275.757 152.874C276.592 149 277.288 144.78 277.845 140.214H306.794ZM286.196 148.931C285.871 151.329 285.407 153.889 284.804 156.61C284.201 159.285 283.482 162.03 282.647 164.843C281.858 167.656 280.976 170.424 280.002 173.145C279.028 175.866 277.984 178.449 276.871 180.893H296.286V148.931H286.196Z" fill="white"/>
<path d="M351.446 189.61L347.828 177.849H329.735L326.116 189.61H314.773L332.31 140.007H345.183L362.789 189.61H351.446ZM341.704 157.579C341.472 156.795 341.171 155.803 340.799 154.604C340.428 153.405 340.057 152.183 339.686 150.937C339.315 149.692 339.013 148.608 338.781 147.686C338.549 148.608 338.225 149.761 337.807 151.145C337.436 152.482 337.065 153.774 336.694 155.019C336.369 156.218 336.114 157.072 335.928 157.579L332.379 169.063H345.323L341.704 157.579Z" fill="white"/>
<path d="M84.2781 54.4981L141.926 -7.2311e-05L168.352 6.39145e-06V101.888H125.042L125.042 75.8236H141.926V37.9117L84.2822 92.41L26.63 37.9117V75.8236H43.5213L43.5213 101.888H0.211548V0H26.63L84.2781 54.4981Z" fill="#F9FBFA"/>
<path d="M336.366 1.59786e-06H362.788V101.888H336.366L336.366 1.59786e-06Z" fill="#F9FBFA"/>
<path fill-rule="evenodd" clip-rule="evenodd" d="M194.648 1.59786e-06L221.07 0L221.07 26.0644L283.522 26.0644C304.748 26.0644 321.954 43.038 321.954 63.9761C321.954 84.9142 304.748 101.888 283.522 101.888H194.648L194.648 1.59786e-06ZM221.07 78.1931H283.522C291.482 78.1931 297.934 71.8279 297.934 63.9761C297.934 56.1244 291.482 49.7592 283.522 49.7592H221.07L221.07 78.1931Z" fill="#F9FBFA"/>
<path fill-rule="evenodd" clip-rule="evenodd" d="M157.967 276.288C158.135 276.157 158.335 276.053 158.555 275.982C158.776 275.911 159.012 275.875 159.25 275.875C159.488 275.875 159.725 275.911 159.945 275.982C160.165 276.053 160.365 276.157 160.533 276.288L181 292.17L201.467 276.288C201.807 276.024 202.269 275.876 202.75 275.876C203.231 275.876 203.693 276.024 204.033 276.288C204.374 276.552 204.565 276.91 204.565 277.284C204.565 277.657 204.374 278.015 204.033 278.279L182.283 295.154C182.115 295.285 181.915 295.389 181.695 295.46C181.475 295.531 181.238 295.568 181 295.568C180.762 295.568 180.526 295.531 180.305 295.46C180.085 295.389 179.885 295.285 179.717 295.154L157.967 278.279C157.798 278.149 157.664 277.994 157.573 277.823C157.481 277.652 157.434 277.469 157.434 277.284C157.434 277.099 157.481 276.916 157.573 276.745C157.664 276.574 157.798 276.419 157.967 276.288Z" fill="white"/>
<path fill-rule="evenodd" clip-rule="evenodd" d="M157.967 266.442C158.135 266.311 158.335 266.208 158.555 266.137C158.776 266.066 159.012 266.029 159.25 266.029C159.488 266.029 159.725 266.066 159.945 266.137C160.165 266.208 160.365 266.311 160.533 266.442L181 282.325L201.467 266.442C201.635 266.312 201.835 266.208 202.056 266.137C202.276 266.066 202.512 266.03 202.75 266.03C202.988 266.03 203.224 266.066 203.445 266.137C203.665 266.208 203.865 266.312 204.033 266.442C204.202 266.573 204.336 266.728 204.427 266.899C204.518 267.07 204.565 267.253 204.565 267.438C204.565 267.623 204.518 267.806 204.427 267.977C204.336 268.148 204.202 268.303 204.033 268.434L182.283 285.309C182.115 285.44 181.915 285.544 181.695 285.614C181.475 285.685 181.238 285.722 181 285.722C180.762 285.722 180.526 285.685 180.305 285.614C180.085 285.544 179.885 285.44 179.717 285.309L157.967 268.434C157.798 268.303 157.664 268.148 157.573 267.977C157.481 267.806 157.434 267.623 157.434 267.438C157.434 267.253 157.481 267.07 157.573 266.899C157.664 266.728 157.798 266.573 157.967 266.442Z" fill="#9FD8DF"/>
<path fill-rule="evenodd" clip-rule="evenodd" d="M157.967 303.288C158.135 303.157 158.335 303.053 158.555 302.982C158.776 302.911 159.012 302.875 159.25 302.875C159.488 302.875 159.725 302.911 159.945 302.982C160.165 303.053 160.365 303.157 160.533 303.288L181 319.17L201.467 303.288C201.807 303.024 202.269 302.876 202.75 302.876C203.231 302.876 203.693 303.024 204.033 303.288C204.374 303.552 204.565 303.91 204.565 304.284C204.565 304.657 204.374 305.015 204.033 305.279L182.283 322.154C182.115 322.285 181.915 322.389 181.695 322.46C181.475 322.531 181.238 322.568 181 322.568C180.762 322.568 180.526 322.531 180.305 322.46C180.085 322.389 179.885 322.285 179.717 322.154L157.967 305.279C157.798 305.149 157.664 304.994 157.573 304.823C157.481 304.652 157.434 304.469 157.434 304.284C157.434 304.099 157.481 303.916 157.573 303.745C157.664 303.574 157.798 303.419 157.967 303.288Z" fill="white"/>
<path fill-rule="evenodd" clip-rule="evenodd" d="M157.967 293.442C158.135 293.311 158.335 293.208 158.555 293.137C158.776 293.066 159.012 293.029 159.25 293.029C159.488 293.029 159.725 293.066 159.945 293.137C160.165 293.208 160.365 293.311 160.533 293.442L181 309.325L201.467 293.442C201.635 293.312 201.835 293.208 202.056 293.137C202.276 293.066 202.512 293.03 202.75 293.03C202.988 293.03 203.224 293.066 203.445 293.137C203.665 293.208 203.865 293.312 204.033 293.442C204.202 293.573 204.336 293.728 204.427 293.899C204.518 294.07 204.565 294.253 204.565 294.438C204.565 294.623 204.518 294.806 204.427 294.977C204.336 295.148 204.202 295.303 204.033 295.434L182.283 312.309C182.115 312.44 181.915 312.544 181.695 312.614C181.475 312.685 181.238 312.722 181 312.722C180.762 312.722 180.526 312.685 180.305 312.614C180.085 312.544 179.885 312.44 179.717 312.309L157.967 295.434C157.798 295.303 157.664 295.148 157.573 294.977C157.481 294.806 157.434 294.623 157.434 294.438C157.434 294.253 157.481 294.07 157.573 293.899C157.664 293.728 157.798 293.573 157.967 293.442Z" fill="white"/>
</svg>
