<svg width="648" height="318" viewBox="0 0 648 318" fill="none" xmlns="http://www.w3.org/2000/svg">
<path d="M106.496 68.465L178.839 -9.0843e-05L212 8.02946e-06V128H157.651L157.651 95.2558H178.839V47.6278L106.501 116.093L34.1536 47.6278V95.2558H55.3504L55.3504 128H1.00098V0H34.1536L106.496 68.465Z" fill="#F9FBFA"/>
<path d="M422.842 2.00737e-06H455.999V128H422.842L422.842 2.00737e-06Z" fill="#F9FBFA"/>
<path fill-rule="evenodd" clip-rule="evenodd" d="M245 2.00737e-06L278.157 0L278.157 32.7442H356.528C383.164 32.7442 404.756 54.0679 404.756 80.3721C404.756 106.676 383.164 128 356.528 128H245L245 2.00737e-06ZM278.157 98.2326H356.528C366.517 98.2326 374.614 90.2362 374.614 80.3721C374.614 70.508 366.517 62.5116 356.528 62.5116H278.157L278.157 98.2326Z" fill="#F9FBFA"/>
<path fill-rule="evenodd" clip-rule="evenodd" d="M595.967 201.288C596.135 201.157 596.335 201.053 596.555 200.982C596.775 200.911 597.011 200.875 597.25 200.875C597.488 200.875 597.724 200.911 597.944 200.982C598.165 201.053 598.365 201.157 598.533 201.288L619 217.17L639.467 201.288C639.807 201.024 640.269 200.876 640.75 200.876C641.231 200.876 641.693 201.024 642.033 201.288C642.373 201.552 642.565 201.91 642.565 202.284C642.565 202.657 642.373 203.015 642.033 203.279L620.283 220.154C620.115 220.285 619.915 220.389 619.694 220.46C619.474 220.531 619.238 220.568 619 220.568C618.761 220.568 618.525 220.531 618.305 220.46C618.085 220.389 617.885 220.285 617.717 220.154L595.967 203.279C595.798 203.149 595.664 202.994 595.572 202.823C595.481 202.652 595.434 202.469 595.434 202.284C595.434 202.099 595.481 201.916 595.572 201.745C595.664 201.574 595.798 201.419 595.967 201.288V201.288Z" fill="white"/>
<path fill-rule="evenodd" clip-rule="evenodd" d="M595.967 191.442C596.135 191.311 596.335 191.207 596.555 191.136C596.775 191.065 597.011 191.029 597.25 191.029C597.488 191.029 597.724 191.065 597.944 191.136C598.165 191.207 598.365 191.311 598.533 191.442L619 207.324L639.467 191.442C639.635 191.311 639.835 191.207 640.055 191.136C640.276 191.066 640.511 191.029 640.75 191.029C640.988 191.029 641.224 191.066 641.444 191.136C641.664 191.207 641.865 191.311 642.033 191.442C642.202 191.572 642.335 191.728 642.426 191.898C642.518 192.069 642.565 192.252 642.565 192.437C642.565 192.622 642.518 192.805 642.426 192.976C642.335 193.147 642.202 193.302 642.033 193.433L620.283 210.308C620.115 210.439 619.915 210.543 619.694 210.614C619.474 210.685 619.238 210.721 619 210.721C618.761 210.721 618.525 210.685 618.305 210.614C618.085 210.543 617.885 210.439 617.717 210.308L595.967 193.433C595.798 193.302 595.664 193.147 595.572 192.976C595.481 192.805 595.434 192.622 595.434 192.437C595.434 192.252 595.481 192.069 595.572 191.898C595.664 191.727 595.798 191.572 595.967 191.442V191.442Z" fill="#9FD8DF"/>
<path fill-rule="evenodd" clip-rule="evenodd" d="M595.967 228.288C596.135 228.157 596.335 228.053 596.555 227.982C596.775 227.911 597.011 227.875 597.25 227.875C597.488 227.875 597.724 227.911 597.944 227.982C598.165 228.053 598.365 228.157 598.533 228.288L619 244.17L639.467 228.288C639.807 228.024 640.269 227.876 640.75 227.876C641.231 227.876 641.693 228.024 642.033 228.288C642.373 228.552 642.565 228.91 642.565 229.284C642.565 229.657 642.373 230.015 642.033 230.279L620.283 247.154C620.115 247.285 619.915 247.389 619.694 247.46C619.474 247.531 619.238 247.568 619 247.568C618.761 247.568 618.525 247.531 618.305 247.46C618.085 247.389 617.885 247.285 617.717 247.154L595.967 230.279C595.798 230.149 595.664 229.994 595.572 229.823C595.481 229.652 595.434 229.469 595.434 229.284C595.434 229.099 595.481 228.916 595.572 228.745C595.664 228.574 595.798 228.419 595.967 228.288V228.288Z" fill="white"/>
<path fill-rule="evenodd" clip-rule="evenodd" d="M595.967 218.442C596.135 218.311 596.335 218.207 596.555 218.136C596.775 218.065 597.011 218.029 597.25 218.029C597.488 218.029 597.724 218.065 597.944 218.136C598.165 218.207 598.365 218.311 598.533 218.442L619 234.324L639.467 218.442C639.635 218.311 639.835 218.207 640.055 218.136C640.276 218.066 640.511 218.029 640.75 218.029C640.988 218.029 641.224 218.066 641.444 218.136C641.664 218.207 641.865 218.311 642.033 218.442C642.202 218.572 642.335 218.728 642.426 218.898C642.518 219.069 642.565 219.252 642.565 219.437C642.565 219.622 642.518 219.805 642.426 219.976C642.335 220.147 642.202 220.302 642.033 220.433L620.283 237.308C620.115 237.439 619.915 237.543 619.694 237.614C619.474 237.685 619.238 237.721 619 237.721C618.761 237.721 618.525 237.685 618.305 237.614C618.085 237.543 617.885 237.439 617.717 237.308L595.967 220.433C595.798 220.302 595.664 220.147 595.572 219.976C595.481 219.805 595.434 219.622 595.434 219.437C595.434 219.252 595.481 219.069 595.572 218.898C595.664 218.727 595.798 218.572 595.967 218.442V218.442Z" fill="white"/>
<path d="M10.075 175.875C9.125 175.875 8.26667 176.042 7.5 176.375C6.73333 176.692 6.08333 177.167 5.55 177.8C5.01667 178.417 4.60833 179.175 4.325 180.075C4.04167 180.958 3.9 181.958 3.9 183.075C3.9 184.542 4.125 185.817 4.575 186.9C5.04167 187.983 5.725 188.817 6.625 189.4C7.54167 189.983 8.68333 190.275 10.05 190.275C10.8333 190.275 11.575 190.208 12.275 190.075C12.975 189.942 13.6583 189.775 14.325 189.575V191.525C13.6583 191.775 12.9667 191.958 12.25 192.075C11.55 192.192 10.7083 192.25 9.725 192.25C7.90833 192.25 6.39167 191.875 5.175 191.125C3.95833 190.375 3.04167 189.308 2.425 187.925C1.825 186.542 1.525 184.917 1.525 183.05C1.525 181.7 1.70833 180.467 2.075 179.35C2.45833 178.233 3.00833 177.267 3.725 176.45C4.45833 175.633 5.35833 175.008 6.425 174.575C7.49167 174.125 8.71667 173.9 10.1 173.9C11.0167 173.9 11.9 173.992 12.75 174.175C13.6 174.358 14.3583 174.617 15.025 174.95L14.125 176.85C13.575 176.6 12.9583 176.375 12.275 176.175C11.6083 175.975 10.875 175.875 10.075 175.875ZM29.5709 185.275C29.5709 186.392 29.4209 187.383 29.1209 188.25C28.8376 189.1 28.4209 189.825 27.8709 190.425C27.3376 191.025 26.6792 191.483 25.8959 191.8C25.1292 192.1 24.2709 192.25 23.3209 192.25C22.4376 192.25 21.6209 192.1 20.8709 191.8C20.1209 191.483 19.4709 191.025 18.9209 190.425C18.3709 189.825 17.9376 189.1 17.6209 188.25C17.3209 187.383 17.1709 186.392 17.1709 185.275C17.1709 183.792 17.4209 182.542 17.9209 181.525C18.4209 180.492 19.1376 179.708 20.0709 179.175C21.0042 178.625 22.1126 178.35 23.3959 178.35C24.6126 178.35 25.6792 178.625 26.5959 179.175C27.5292 179.708 28.2542 180.492 28.7709 181.525C29.3042 182.542 29.5709 183.792 29.5709 185.275ZM19.4459 185.275C19.4459 186.325 19.5792 187.242 19.8459 188.025C20.1292 188.792 20.5626 189.383 21.1459 189.8C21.7292 190.217 22.4709 190.425 23.3709 190.425C24.2709 190.425 25.0126 190.217 25.5959 189.8C26.1792 189.383 26.6042 188.792 26.8709 188.025C27.1542 187.242 27.2959 186.325 27.2959 185.275C27.2959 184.208 27.1542 183.3 26.8709 182.55C26.5876 181.8 26.1542 181.225 25.5709 180.825C25.0042 180.408 24.2626 180.2 23.3459 180.2C21.9792 180.2 20.9876 180.65 20.3709 181.55C19.7542 182.45 19.4459 183.692 19.4459 185.275ZM36.5826 178.35C37.5993 178.35 38.4826 178.492 39.2326 178.775C39.9826 179.042 40.566 179.442 40.9826 179.975C41.3993 180.492 41.6076 181.125 41.6076 181.875C41.6076 182.692 41.3826 183.342 40.9326 183.825C40.4826 184.292 39.866 184.633 39.0826 184.85V184.95C39.616 185.1 40.1076 185.308 40.5576 185.575C41.0076 185.842 41.366 186.192 41.6326 186.625C41.916 187.058 42.0576 187.617 42.0576 188.3C42.0576 189.033 41.8493 189.7 41.4326 190.3C41.0326 190.9 40.4076 191.375 39.5576 191.725C38.7243 192.075 37.6493 192.25 36.3326 192.25C35.6993 192.25 35.091 192.217 34.5076 192.15C33.941 192.083 33.4243 191.983 32.9576 191.85C32.5076 191.717 32.1076 191.558 31.7576 191.375V189.4C32.3243 189.667 32.991 189.908 33.7576 190.125C34.541 190.342 35.391 190.45 36.3076 190.45C36.9743 190.45 37.5743 190.375 38.1076 190.225C38.6576 190.075 39.091 189.842 39.4076 189.525C39.7243 189.192 39.8826 188.742 39.8826 188.175C39.8826 187.658 39.741 187.242 39.4576 186.925C39.1743 186.592 38.7493 186.342 38.1826 186.175C37.6326 186.008 36.9243 185.925 36.0576 185.925H34.2576V184.125H35.7076C36.8576 184.125 37.7743 183.975 38.4576 183.675C39.1576 183.358 39.5076 182.825 39.5076 182.075C39.5076 181.442 39.241 180.967 38.7076 180.65C38.191 180.333 37.441 180.175 36.4576 180.175C35.7243 180.175 35.0743 180.25 34.5076 180.4C33.9576 180.533 33.3493 180.742 32.6826 181.025L31.9076 179.275C32.6243 178.958 33.3743 178.725 34.1576 178.575C34.941 178.425 35.7493 178.35 36.5826 178.35ZM55.2635 178.6V190.15H57.2135V196.65H55.0885V192H45.7635V196.65H43.6635V190.15H44.7385C45.5051 189.083 46.1385 187.925 46.6385 186.675C47.1551 185.408 47.5385 184.092 47.7885 182.725C48.0551 181.342 48.1968 179.967 48.2135 178.6H55.2635ZM50.1635 180.325C50.0968 181.458 49.9218 182.633 49.6385 183.85C49.3551 185.05 48.9885 186.2 48.5385 187.3C48.1051 188.4 47.5968 189.35 47.0135 190.15H53.1385V180.325H50.1635ZM64.9148 178.375C66.5482 178.375 67.7565 178.733 68.5398 179.45C69.3232 180.167 69.7148 181.308 69.7148 182.875V192H68.1148L67.6898 190.1H67.5898C67.2065 190.583 66.8065 190.992 66.3898 191.325C65.9898 191.642 65.5232 191.875 64.9898 192.025C64.4732 192.175 63.8398 192.25 63.0898 192.25C62.2898 192.25 61.5648 192.108 60.9148 191.825C60.2815 191.542 59.7815 191.108 59.4148 190.525C59.0482 189.925 58.8648 189.175 58.8648 188.275C58.8648 186.942 59.3898 185.917 60.4398 185.2C61.4898 184.467 63.1065 184.067 65.2898 184L67.5648 183.925V183.125C67.5648 182.008 67.3232 181.233 66.8398 180.8C66.3565 180.367 65.6732 180.15 64.7898 180.15C64.0898 180.15 63.4232 180.258 62.7898 180.475C62.1565 180.675 61.5648 180.908 61.0148 181.175L60.3398 179.525C60.9232 179.208 61.6148 178.942 62.4148 178.725C63.2148 178.492 64.0482 178.375 64.9148 178.375ZM65.5648 185.525C63.8982 185.592 62.7398 185.858 62.0898 186.325C61.4565 186.792 61.1398 187.45 61.1398 188.3C61.1398 189.05 61.3648 189.6 61.8148 189.95C62.2815 190.3 62.8732 190.475 63.5898 190.475C64.7232 190.475 65.6648 190.167 66.4148 189.55C67.1648 188.917 67.5398 187.95 67.5398 186.65V185.45L65.5648 185.525ZM84.6285 181.975C84.6285 182.808 84.3785 183.458 83.8785 183.925C83.3785 184.392 82.7368 184.708 81.9535 184.875V184.975C82.7868 185.092 83.5118 185.392 84.1285 185.875C84.7452 186.342 85.0535 187.075 85.0535 188.075C85.0535 188.642 84.9452 189.167 84.7285 189.65C84.5285 190.133 84.2118 190.55 83.7785 190.9C83.3452 191.25 82.7868 191.525 82.1035 191.725C81.4202 191.908 80.5952 192 79.6285 192H73.8535V178.6H79.6035C80.5535 178.6 81.4035 178.708 82.1535 178.925C82.9202 179.125 83.5202 179.475 83.9535 179.975C84.4035 180.458 84.6285 181.125 84.6285 181.975ZM82.7785 188.075C82.7785 187.308 82.4868 186.758 81.9035 186.425C81.3202 186.092 80.4618 185.925 79.3285 185.925H76.0535V190.225H79.3785C80.4785 190.225 81.3202 190.067 81.9035 189.75C82.4868 189.417 82.7785 188.858 82.7785 188.075ZM82.4035 182.25C82.4035 181.617 82.1702 181.158 81.7035 180.875C81.2535 180.575 80.5118 180.425 79.4785 180.425H76.0535V184.1H79.0785C80.1618 184.1 80.9868 183.95 81.5535 183.65C82.1202 183.35 82.4035 182.883 82.4035 182.25ZM93.3328 178.375C94.9661 178.375 96.1745 178.733 96.9578 179.45C97.7411 180.167 98.1328 181.308 98.1328 182.875V192H96.5328L96.1078 190.1H96.0078C95.6245 190.583 95.2245 190.992 94.8078 191.325C94.4078 191.642 93.9411 191.875 93.4078 192.025C92.8911 192.175 92.2578 192.25 91.5078 192.25C90.7078 192.25 89.9828 192.108 89.3328 191.825C88.6995 191.542 88.1995 191.108 87.8328 190.525C87.4661 189.925 87.2828 189.175 87.2828 188.275C87.2828 186.942 87.8078 185.917 88.8578 185.2C89.9078 184.467 91.5245 184.067 93.7078 184L95.9828 183.925V183.125C95.9828 182.008 95.7411 181.233 95.2578 180.8C94.7745 180.367 94.0911 180.15 93.2078 180.15C92.5078 180.15 91.8411 180.258 91.2078 180.475C90.5745 180.675 89.9828 180.908 89.4328 181.175L88.7578 179.525C89.3411 179.208 90.0328 178.942 90.8328 178.725C91.6328 178.492 92.4661 178.375 93.3328 178.375ZM93.9828 185.525C92.3161 185.592 91.1578 185.858 90.5078 186.325C89.8745 186.792 89.5578 187.45 89.5578 188.3C89.5578 189.05 89.7828 189.6 90.2328 189.95C90.6995 190.3 91.2911 190.475 92.0078 190.475C93.1411 190.475 94.0828 190.167 94.8328 189.55C95.5828 188.917 95.9578 187.95 95.9578 186.65V185.45L93.9828 185.525ZM113.121 173.05C113.055 173.883 112.846 174.583 112.496 175.15C112.163 175.717 111.663 176.142 110.996 176.425C110.33 176.708 109.463 176.85 108.396 176.85C107.313 176.85 106.438 176.708 105.771 176.425C105.121 176.142 104.646 175.725 104.346 175.175C104.046 174.608 103.863 173.9 103.796 173.05H105.846C105.93 173.95 106.163 174.558 106.546 174.875C106.946 175.175 107.58 175.325 108.446 175.325C109.213 175.325 109.813 175.167 110.246 174.85C110.696 174.517 110.963 173.917 111.046 173.05H113.121ZM104.346 186.775C104.346 186.925 104.338 187.142 104.321 187.425C104.321 187.692 104.313 187.983 104.296 188.3C104.28 188.6 104.263 188.892 104.246 189.175C104.23 189.442 104.213 189.658 104.196 189.825L111.371 178.6H114.071V192H112.021V184.1C112.021 183.833 112.021 183.483 112.021 183.05C112.038 182.617 112.055 182.192 112.071 181.775C112.088 181.342 112.105 181.017 112.121 180.8L104.996 192H102.271V178.6H104.346V186.775ZM129.326 192.25C128.143 192.25 127.085 192.008 126.151 191.525C125.235 191.042 124.51 190.292 123.976 189.275C123.46 188.258 123.201 186.958 123.201 185.375C123.201 183.725 123.476 182.383 124.026 181.35C124.576 180.317 125.318 179.558 126.251 179.075C127.201 178.592 128.276 178.35 129.476 178.35C130.16 178.35 130.818 178.425 131.451 178.575C132.085 178.708 132.601 178.875 133.001 179.075L132.326 180.9C131.926 180.75 131.46 180.608 130.926 180.475C130.393 180.342 129.893 180.275 129.426 180.275C128.526 180.275 127.785 180.467 127.201 180.85C126.618 181.233 126.185 181.8 125.901 182.55C125.618 183.3 125.476 184.233 125.476 185.35C125.476 186.417 125.618 187.325 125.901 188.075C126.185 188.825 126.61 189.392 127.176 189.775C127.743 190.158 128.451 190.35 129.301 190.35C130.035 190.35 130.676 190.275 131.226 190.125C131.793 189.975 132.31 189.792 132.776 189.575V191.525C132.326 191.758 131.826 191.933 131.276 192.05C130.743 192.183 130.093 192.25 129.326 192.25ZM147.613 185.275C147.613 186.392 147.463 187.383 147.163 188.25C146.88 189.1 146.463 189.825 145.913 190.425C145.38 191.025 144.721 191.483 143.938 191.8C143.171 192.1 142.313 192.25 141.363 192.25C140.48 192.25 139.663 192.1 138.913 191.8C138.163 191.483 137.513 191.025 136.963 190.425C136.413 189.825 135.98 189.1 135.663 188.25C135.363 187.383 135.213 186.392 135.213 185.275C135.213 183.792 135.463 182.542 135.963 181.525C136.463 180.492 137.18 179.708 138.113 179.175C139.046 178.625 140.155 178.35 141.438 178.35C142.655 178.35 143.721 178.625 144.638 179.175C145.571 179.708 146.296 180.492 146.813 181.525C147.346 182.542 147.613 183.792 147.613 185.275ZM137.488 185.275C137.488 186.325 137.621 187.242 137.888 188.025C138.171 188.792 138.605 189.383 139.188 189.8C139.771 190.217 140.513 190.425 141.413 190.425C142.313 190.425 143.055 190.217 143.638 189.8C144.221 189.383 144.646 188.792 144.913 188.025C145.196 187.242 145.338 186.325 145.338 185.275C145.338 184.208 145.196 183.3 144.913 182.55C144.63 181.8 144.196 181.225 143.613 180.825C143.046 180.408 142.305 180.2 141.388 180.2C140.021 180.2 139.03 180.65 138.413 181.55C137.796 182.45 137.488 183.692 137.488 185.275ZM150.4 183.95C150.4 182 150.591 180.342 150.975 178.975C151.375 177.592 151.983 176.492 152.8 175.675C153.633 174.842 154.7 174.283 156 174C157.083 173.767 158.141 173.558 159.175 173.375C160.208 173.192 161.175 173.025 162.075 172.875L162.45 174.8C162.016 174.867 161.533 174.95 161 175.05C160.466 175.133 159.925 175.225 159.375 175.325C158.825 175.408 158.291 175.5 157.775 175.6C157.275 175.683 156.833 175.767 156.45 175.85C155.9 175.967 155.408 176.167 154.975 176.45C154.541 176.717 154.166 177.083 153.85 177.55C153.55 178.017 153.308 178.592 153.125 179.275C152.941 179.958 152.833 180.767 152.8 181.7H152.95C153.183 181.383 153.5 181.058 153.9 180.725C154.316 180.392 154.808 180.108 155.375 179.875C155.958 179.642 156.616 179.525 157.35 179.525C158.516 179.525 159.483 179.783 160.25 180.3C161.033 180.8 161.616 181.5 162 182.4C162.4 183.3 162.6 184.35 162.6 185.55C162.6 187.033 162.341 188.275 161.825 189.275C161.308 190.275 160.591 191.025 159.675 191.525C158.758 192.008 157.691 192.25 156.475 192.25C155.558 192.25 154.725 192.075 153.975 191.725C153.225 191.358 152.583 190.825 152.05 190.125C151.516 189.425 151.108 188.558 150.825 187.525C150.541 186.492 150.4 185.3 150.4 183.95ZM156.65 190.425C157.383 190.425 158.016 190.275 158.55 189.975C159.1 189.675 159.525 189.183 159.825 188.5C160.125 187.817 160.275 186.908 160.275 185.775C160.275 184.408 160.016 183.333 159.5 182.55C159 181.75 158.166 181.35 157 181.35C156.266 181.35 155.6 181.517 155 181.85C154.4 182.167 153.9 182.533 153.5 182.95C153.1 183.367 152.816 183.717 152.65 184C152.65 184.817 152.708 185.608 152.825 186.375C152.941 187.142 153.141 187.833 153.425 188.45C153.725 189.05 154.133 189.533 154.65 189.9C155.183 190.25 155.85 190.425 156.65 190.425ZM166.065 192V178.6H168.265V184.1H171.74C172.907 184.1 173.865 184.242 174.615 184.525C175.365 184.808 175.924 185.233 176.29 185.8C176.657 186.35 176.84 187.05 176.84 187.9C176.84 188.733 176.657 189.458 176.29 190.075C175.94 190.692 175.382 191.167 174.615 191.5C173.865 191.833 172.874 192 171.64 192H166.065ZM171.44 190.225C172.39 190.225 173.165 190.067 173.765 189.75C174.365 189.417 174.665 188.842 174.665 188.025C174.665 187.208 174.39 186.658 173.84 186.375C173.29 186.075 172.499 185.925 171.465 185.925H168.265V190.225H171.44ZM179.065 192V178.6H181.265V192H179.065ZM194.773 180.45H190.398V192H188.223V180.45H183.898V178.6H194.773V180.45ZM199.488 186.775C199.488 186.925 199.48 187.142 199.463 187.425C199.463 187.692 199.455 187.983 199.438 188.3C199.421 188.6 199.405 188.892 199.388 189.175C199.371 189.442 199.355 189.658 199.338 189.825L206.513 178.6H209.213V192H207.163V184.1C207.163 183.833 207.163 183.483 207.163 183.05C207.18 182.617 207.196 182.192 207.213 181.775C207.23 181.342 207.246 181.017 207.263 180.8L200.138 192H197.413V178.6H199.488V186.775ZM214.303 192H211.753L215.578 186.375C215.061 186.242 214.561 186.033 214.078 185.75C213.594 185.45 213.203 185.042 212.903 184.525C212.603 183.992 212.453 183.333 212.453 182.55C212.453 181.267 212.886 180.292 213.753 179.625C214.619 178.942 215.769 178.6 217.203 178.6H223.203V192H221.003V186.675H217.753L214.303 192ZM214.578 182.575C214.578 183.342 214.861 183.917 215.428 184.3C216.011 184.667 216.819 184.85 217.853 184.85H221.003V180.425H217.428C216.411 180.425 215.678 180.625 215.228 181.025C214.794 181.425 214.578 181.942 214.578 182.575ZM243.833 181.975C243.833 182.808 243.583 183.458 243.083 183.925C242.583 184.392 241.941 184.708 241.158 184.875V184.975C241.991 185.092 242.716 185.392 243.333 185.875C243.949 186.342 244.258 187.075 244.258 188.075C244.258 188.642 244.149 189.167 243.933 189.65C243.733 190.133 243.416 190.55 242.983 190.9C242.549 191.25 241.991 191.525 241.308 191.725C240.624 191.908 239.799 192 238.833 192H233.058V178.6H238.808C239.758 178.6 240.608 178.708 241.358 178.925C242.124 179.125 242.724 179.475 243.158 179.975C243.608 180.458 243.833 181.125 243.833 181.975ZM241.983 188.075C241.983 187.308 241.691 186.758 241.108 186.425C240.524 186.092 239.666 185.925 238.533 185.925H235.258V190.225H238.583C239.683 190.225 240.524 190.067 241.108 189.75C241.691 189.417 241.983 188.858 241.983 188.075ZM241.608 182.25C241.608 181.617 241.374 181.158 240.908 180.875C240.458 180.575 239.716 180.425 238.683 180.425H235.258V184.1H238.283C239.366 184.1 240.191 183.95 240.758 183.65C241.324 183.35 241.608 182.883 241.608 182.25ZM264.402 178.6V192H262.202V180.475H255.277V192H253.077V178.6H264.402ZM275.053 178.35C276.703 178.35 278.028 178.925 279.028 180.075C280.044 181.225 280.553 182.958 280.553 185.275C280.553 186.792 280.319 188.075 279.853 189.125C279.403 190.158 278.761 190.942 277.928 191.475C277.111 191.992 276.144 192.25 275.028 192.25C274.344 192.25 273.736 192.158 273.203 191.975C272.669 191.792 272.211 191.558 271.828 191.275C271.461 190.975 271.144 190.65 270.878 190.3H270.728C270.761 190.583 270.794 190.942 270.828 191.375C270.861 191.808 270.878 192.183 270.878 192.5V198H268.678V178.6H270.478L270.778 180.425H270.878C271.144 180.042 271.461 179.692 271.828 179.375C272.211 179.058 272.661 178.808 273.178 178.625C273.711 178.442 274.336 178.35 275.053 178.35ZM274.653 180.2C273.753 180.2 273.028 180.375 272.478 180.725C271.928 181.058 271.528 181.567 271.278 182.25C271.028 182.933 270.894 183.8 270.878 184.85V185.275C270.878 186.375 270.994 187.308 271.228 188.075C271.461 188.842 271.853 189.425 272.403 189.825C272.969 190.225 273.736 190.425 274.703 190.425C275.519 190.425 276.186 190.2 276.703 189.75C277.236 189.3 277.628 188.692 277.878 187.925C278.144 187.142 278.278 186.25 278.278 185.25C278.278 183.717 277.978 182.492 277.378 181.575C276.794 180.658 275.886 180.2 274.653 180.2ZM286.134 186.775C286.134 186.925 286.125 187.142 286.109 187.425C286.109 187.692 286.1 187.983 286.084 188.3C286.067 188.6 286.05 188.892 286.034 189.175C286.017 189.442 286 189.658 285.984 189.825L293.159 178.6H295.859V192H293.809V184.1C293.809 183.833 293.809 183.483 293.809 183.05C293.825 182.617 293.842 182.192 293.859 181.775C293.875 181.342 293.892 181.017 293.909 180.8L286.784 192H284.059V178.6H286.134V186.775ZM310.323 192H308.098V180.425H304.148C303.981 182.542 303.773 184.35 303.523 185.85C303.273 187.333 302.956 188.542 302.573 189.475C302.19 190.408 301.731 191.092 301.198 191.525C300.665 191.958 300.04 192.175 299.323 192.175C299.106 192.175 298.89 192.158 298.673 192.125C298.473 192.108 298.306 192.067 298.173 192V190.35C298.273 190.383 298.381 190.408 298.498 190.425C298.615 190.442 298.731 190.45 298.848 190.45C299.215 190.45 299.548 190.3 299.848 190C300.148 189.7 300.415 189.242 300.648 188.625C300.898 188.008 301.123 187.233 301.323 186.3C301.523 185.35 301.698 184.233 301.848 182.95C301.998 181.667 302.131 180.217 302.248 178.6H310.323V192ZM326.226 185.275C326.226 186.392 326.076 187.383 325.776 188.25C325.493 189.1 325.076 189.825 324.526 190.425C323.993 191.025 323.335 191.483 322.551 191.8C321.785 192.1 320.926 192.25 319.976 192.25C319.093 192.25 318.276 192.1 317.526 191.8C316.776 191.483 316.126 191.025 315.576 190.425C315.026 189.825 314.593 189.1 314.276 188.25C313.976 187.383 313.826 186.392 313.826 185.275C313.826 183.792 314.076 182.542 314.576 181.525C315.076 180.492 315.793 179.708 316.726 179.175C317.66 178.625 318.768 178.35 320.051 178.35C321.268 178.35 322.335 178.625 323.251 179.175C324.185 179.708 324.91 180.492 325.426 181.525C325.96 182.542 326.226 183.792 326.226 185.275ZM316.101 185.275C316.101 186.325 316.235 187.242 316.501 188.025C316.785 188.792 317.218 189.383 317.801 189.8C318.385 190.217 319.126 190.425 320.026 190.425C320.926 190.425 321.668 190.217 322.251 189.8C322.835 189.383 323.26 188.792 323.526 188.025C323.81 187.242 323.951 186.325 323.951 185.275C323.951 184.208 323.81 183.3 323.526 182.55C323.243 181.8 322.81 181.225 322.226 180.825C321.66 180.408 320.918 180.2 320.001 180.2C318.635 180.2 317.643 180.65 317.026 181.55C316.41 182.45 316.101 183.692 316.101 185.275ZM345.3 178.6L339.775 185.1L345.775 192H343.275L337.475 185.2V192H335.425V185.2L329.625 192H327.125L333.125 185.1L327.6 178.6H330L335.425 185.1V178.6H337.475V185.1L342.925 178.6H345.3ZM352.661 178.35C353.811 178.35 354.795 178.6 355.611 179.1C356.445 179.6 357.078 180.308 357.511 181.225C357.961 182.125 358.186 183.183 358.186 184.4V185.725H349.011C349.045 187.242 349.428 188.4 350.161 189.2C350.911 189.983 351.953 190.375 353.286 190.375C354.136 190.375 354.886 190.3 355.536 190.15C356.203 189.983 356.886 189.75 357.586 189.45V191.375C356.903 191.675 356.228 191.892 355.561 192.025C354.895 192.175 354.103 192.25 353.186 192.25C351.92 192.25 350.795 191.992 349.811 191.475C348.845 190.958 348.086 190.192 347.536 189.175C347.003 188.142 346.736 186.883 346.736 185.4C346.736 183.933 346.978 182.675 347.461 181.625C347.961 180.575 348.653 179.767 349.536 179.2C350.436 178.633 351.478 178.35 352.661 178.35ZM352.636 180.15C351.586 180.15 350.753 180.492 350.136 181.175C349.536 181.842 349.178 182.775 349.061 183.975H355.886C355.886 183.208 355.77 182.542 355.536 181.975C355.303 181.408 354.945 180.967 354.461 180.65C353.995 180.317 353.386 180.15 352.636 180.15ZM363.798 178.6V184.175H371.073V178.6H373.273V192H371.073V186.025H363.798V192H361.598V178.6H363.798ZM379.591 186.775C379.591 186.925 379.582 187.142 379.566 187.425C379.566 187.692 379.557 187.983 379.541 188.3C379.524 188.6 379.507 188.892 379.491 189.175C379.474 189.442 379.457 189.658 379.441 189.825L386.616 178.6H389.316V192H387.266V184.1C387.266 183.833 387.266 183.483 387.266 183.05C387.282 182.617 387.299 182.192 387.316 181.775C387.332 181.342 387.349 181.017 387.366 180.8L380.241 192H377.516V178.6H379.591V186.775ZM395.655 186.775C395.655 186.925 395.647 187.142 395.63 187.425C395.63 187.692 395.622 187.983 395.605 188.3C395.588 188.6 395.572 188.892 395.555 189.175C395.538 189.442 395.522 189.658 395.505 189.825L402.68 178.6H405.38V192H403.33V184.1C403.33 183.833 403.33 183.483 403.33 183.05C403.347 182.617 403.363 182.192 403.38 181.775C403.397 181.342 403.413 181.017 403.43 180.8L396.305 192H393.58V178.6H395.655V186.775ZM417.46 190.05L413.485 184.9L417.46 179.75H420.185L416.21 184.9L420.185 190.05H417.46ZM423.96 190.05L419.985 184.9L423.96 179.75H426.685L422.71 184.9L426.685 190.05H423.96ZM437.986 192L432.111 176.35H432.011C432.044 176.683 432.069 177.108 432.086 177.625C432.119 178.142 432.144 178.708 432.161 179.325C432.177 179.925 432.186 180.542 432.186 181.175V192H430.111V174.15H433.436L438.936 188.775H439.036L444.636 174.15H447.936V192H445.711V181.025C445.711 180.442 445.719 179.867 445.736 179.3C445.752 178.717 445.777 178.175 445.811 177.675C445.844 177.158 445.869 176.725 445.886 176.375H445.786L439.836 192H437.986ZM452.791 192V174.15H455.041V181.7H457.791C459.458 181.7 460.766 181.925 461.716 182.375C462.683 182.825 463.366 183.433 463.766 184.2C464.183 184.967 464.391 185.825 464.391 186.775C464.391 187.825 464.166 188.742 463.716 189.525C463.283 190.308 462.6 190.917 461.666 191.35C460.733 191.783 459.533 192 458.066 192H452.791ZM457.866 190.1C459.3 190.1 460.358 189.825 461.041 189.275C461.725 188.725 462.066 187.892 462.066 186.775C462.066 186.008 461.9 185.4 461.566 184.95C461.25 184.5 460.758 184.175 460.091 183.975C459.425 183.775 458.575 183.675 457.541 183.675H455.041V190.1H457.866ZM467.141 192V174.15H469.391V192H467.141ZM479.351 190.05L483.326 184.9L479.351 179.75H482.076L486.051 184.9L482.076 190.05H479.351ZM472.851 190.05L476.826 184.9L472.851 179.75H475.576L479.551 184.9L475.576 190.05H472.851ZM12.9 211.975C12.9 212.808 12.65 213.458 12.15 213.925C11.65 214.392 11.0083 214.708 10.225 214.875V214.975C11.0583 215.092 11.7833 215.392 12.4 215.875C13.0167 216.342 13.325 217.075 13.325 218.075C13.325 218.642 13.2167 219.167 13 219.65C12.8 220.133 12.4833 220.55 12.05 220.9C11.6167 221.25 11.0583 221.525 10.375 221.725C9.69167 221.908 8.86667 222 7.9 222H2.125V208.6H7.875C8.825 208.6 9.675 208.708 10.425 208.925C11.1917 209.125 11.7917 209.475 12.225 209.975C12.675 210.458 12.9 211.125 12.9 211.975ZM11.05 218.075C11.05 217.308 10.7583 216.758 10.175 216.425C9.59167 216.092 8.73333 215.925 7.6 215.925H4.325V220.225H7.65C8.75 220.225 9.59167 220.067 10.175 219.75C10.7583 219.417 11.05 218.858 11.05 218.075ZM10.675 212.25C10.675 211.617 10.4417 211.158 9.975 210.875C9.525 210.575 8.78333 210.425 7.75 210.425H4.325V214.1H7.35C8.43333 214.1 9.25833 213.95 9.825 213.65C10.3917 213.35 10.675 212.883 10.675 212.25ZM30.0695 208.6H32.4695L26.7445 215.05L32.9445 222H30.3945L24.3445 215.2V222H22.1445V208.6H24.3445V215.1L30.0695 208.6ZM40.452 208.375C42.0853 208.375 43.2936 208.733 44.077 209.45C44.8603 210.167 45.252 211.308 45.252 212.875V222H43.652L43.227 220.1H43.127C42.7436 220.583 42.3436 220.992 41.927 221.325C41.527 221.642 41.0603 221.875 40.527 222.025C40.0103 222.175 39.377 222.25 38.627 222.25C37.827 222.25 37.102 222.108 36.452 221.825C35.8186 221.542 35.3186 221.108 34.952 220.525C34.5853 219.925 34.402 219.175 34.402 218.275C34.402 216.942 34.927 215.917 35.977 215.2C37.027 214.467 38.6436 214.067 40.827 214L43.102 213.925V213.125C43.102 212.008 42.8603 211.233 42.377 210.8C41.8936 210.367 41.2103 210.15 40.327 210.15C39.627 210.15 38.9603 210.258 38.327 210.475C37.6936 210.675 37.102 210.908 36.552 211.175L35.877 209.525C36.4603 209.208 37.152 208.942 37.952 208.725C38.752 208.492 39.5853 208.375 40.452 208.375ZM41.102 215.525C39.4353 215.592 38.277 215.858 37.627 216.325C36.9936 216.792 36.677 217.45 36.677 218.3C36.677 219.05 36.902 219.6 37.352 219.95C37.8186 220.3 38.4103 220.475 39.127 220.475C40.2603 220.475 41.202 220.167 41.952 219.55C42.702 218.917 43.077 217.95 43.077 216.65V215.45L41.102 215.525ZM58.6406 210.45H54.2656V222H52.0906V210.45H47.7656V208.6H58.6406V210.45ZM66.2111 208.35C67.3611 208.35 68.3445 208.6 69.1611 209.1C69.9945 209.6 70.6278 210.308 71.0611 211.225C71.5111 212.125 71.7361 213.183 71.7361 214.4V215.725H62.5611C62.5945 217.242 62.9778 218.4 63.7111 219.2C64.4611 219.983 65.5028 220.375 66.8361 220.375C67.6861 220.375 68.4361 220.3 69.0861 220.15C69.7528 219.983 70.4361 219.75 71.1361 219.45V221.375C70.4528 221.675 69.7778 221.892 69.1111 222.025C68.4445 222.175 67.6528 222.25 66.7361 222.25C65.4695 222.25 64.3445 221.992 63.3611 221.475C62.3945 220.958 61.6361 220.192 61.0861 219.175C60.5528 218.142 60.2861 216.883 60.2861 215.4C60.2861 213.933 60.5278 212.675 61.0111 211.625C61.5111 210.575 62.2028 209.767 63.0861 209.2C63.9861 208.633 65.0278 208.35 66.2111 208.35ZM66.1861 210.15C65.1361 210.15 64.3028 210.492 63.6861 211.175C63.0861 211.842 62.7278 212.775 62.6111 213.975H69.4361C69.4361 213.208 69.3195 212.542 69.0861 211.975C68.8528 211.408 68.4945 210.967 68.0111 210.65C67.5445 210.317 66.9361 210.15 66.1861 210.15ZM83.3225 208.6V210.45H77.3475V222H75.1475V208.6H83.3225ZM97.3687 215.275C97.3687 216.392 97.2188 217.383 96.9188 218.25C96.6354 219.1 96.2188 219.825 95.6688 220.425C95.1354 221.025 94.4771 221.483 93.6938 221.8C92.9271 222.1 92.0688 222.25 91.1188 222.25C90.2354 222.25 89.4188 222.1 88.6688 221.8C87.9188 221.483 87.2688 221.025 86.7188 220.425C86.1688 219.825 85.7354 219.1 85.4188 218.25C85.1188 217.383 84.9688 216.392 84.9688 215.275C84.9688 213.792 85.2188 212.542 85.7188 211.525C86.2188 210.492 86.9354 209.708 87.8688 209.175C88.8021 208.625 89.9104 208.35 91.1938 208.35C92.4104 208.35 93.4771 208.625 94.3938 209.175C95.3271 209.708 96.0521 210.492 96.5688 211.525C97.1021 212.542 97.3687 213.792 97.3687 215.275ZM87.2438 215.275C87.2438 216.325 87.3771 217.242 87.6438 218.025C87.9271 218.792 88.3604 219.383 88.9438 219.8C89.5271 220.217 90.2688 220.425 91.1688 220.425C92.0688 220.425 92.8104 220.217 93.3938 219.8C93.9771 219.383 94.4021 218.792 94.6688 218.025C94.9521 217.242 95.0938 216.325 95.0938 215.275C95.0938 214.208 94.9521 213.3 94.6688 212.55C94.3854 211.8 93.9521 211.225 93.3688 210.825C92.8021 210.408 92.0604 210.2 91.1438 210.2C89.7771 210.2 88.7854 210.65 88.1688 211.55C87.5521 212.45 87.2438 213.692 87.2438 215.275ZM107.23 208.35C108.88 208.35 110.205 208.925 111.205 210.075C112.222 211.225 112.73 212.958 112.73 215.275C112.73 216.792 112.497 218.075 112.03 219.125C111.58 220.158 110.939 220.942 110.105 221.475C109.289 221.992 108.322 222.25 107.205 222.25C106.522 222.25 105.914 222.158 105.38 221.975C104.847 221.792 104.389 221.558 104.005 221.275C103.639 220.975 103.322 220.65 103.055 220.3H102.905C102.939 220.583 102.972 220.942 103.005 221.375C103.039 221.808 103.055 222.183 103.055 222.5V228H100.855V208.6H102.655L102.955 210.425H103.055C103.322 210.042 103.639 209.692 104.005 209.375C104.389 209.058 104.839 208.808 105.355 208.625C105.889 208.442 106.514 208.35 107.23 208.35ZM106.83 210.2C105.93 210.2 105.205 210.375 104.655 210.725C104.105 211.058 103.705 211.567 103.455 212.25C103.205 212.933 103.072 213.8 103.055 214.85V215.275C103.055 216.375 103.172 217.308 103.405 218.075C103.639 218.842 104.03 219.425 104.58 219.825C105.147 220.225 105.914 220.425 106.88 220.425C107.697 220.425 108.364 220.2 108.88 219.75C109.414 219.3 109.805 218.692 110.055 217.925C110.322 217.142 110.455 216.25 110.455 215.25C110.455 213.717 110.155 212.492 109.555 211.575C108.972 210.658 108.064 210.2 106.83 210.2ZM118.311 216.775C118.311 216.925 118.303 217.142 118.286 217.425C118.286 217.692 118.278 217.983 118.261 218.3C118.245 218.6 118.228 218.892 118.211 219.175C118.195 219.442 118.178 219.658 118.161 219.825L125.336 208.6H128.036V222H125.986V214.1C125.986 213.833 125.986 213.483 125.986 213.05C126.003 212.617 126.02 212.192 126.036 211.775C126.053 211.342 126.07 211.017 126.086 210.8L118.961 222H116.236V208.6H118.311V216.775ZM133.126 222H130.576L134.401 216.375C133.884 216.242 133.384 216.033 132.901 215.75C132.417 215.45 132.026 215.042 131.726 214.525C131.426 213.992 131.276 213.333 131.276 212.55C131.276 211.267 131.709 210.292 132.576 209.625C133.442 208.942 134.592 208.6 136.026 208.6H142.026V222H139.826V216.675H136.576L133.126 222ZM133.401 212.575C133.401 213.342 133.684 213.917 134.251 214.3C134.834 214.667 135.642 214.85 136.676 214.85H139.826V210.425H136.251C135.234 210.425 134.501 210.625 134.051 211.025C133.617 211.425 133.401 211.942 133.401 212.575ZM149.441 215.15L144.816 208.6H147.316L150.766 213.65L154.191 208.6H156.666L152.041 215.15L156.916 222H154.416L150.766 216.65L147.066 222H144.591L149.441 215.15ZM167.313 220.05L163.338 214.9L167.313 209.75H170.038L166.063 214.9L170.038 220.05H167.313ZM173.813 220.05L169.838 214.9L173.813 209.75H176.538L172.563 214.9L176.538 220.05H173.813ZM187.614 205.875C186.664 205.875 185.806 206.042 185.039 206.375C184.272 206.692 183.622 207.167 183.089 207.8C182.556 208.417 182.147 209.175 181.864 210.075C181.581 210.958 181.439 211.958 181.439 213.075C181.439 214.542 181.664 215.817 182.114 216.9C182.581 217.983 183.264 218.817 184.164 219.4C185.081 219.983 186.222 220.275 187.589 220.275C188.372 220.275 189.114 220.208 189.814 220.075C190.514 219.942 191.197 219.775 191.864 219.575V221.525C191.197 221.775 190.506 221.958 189.789 222.075C189.089 222.192 188.247 222.25 187.264 222.25C185.447 222.25 183.931 221.875 182.714 221.125C181.497 220.375 180.581 219.308 179.964 217.925C179.364 216.542 179.064 214.917 179.064 213.05C179.064 211.7 179.247 210.467 179.614 209.35C179.997 208.233 180.547 207.267 181.264 206.45C181.997 205.633 182.897 205.008 183.964 204.575C185.031 204.125 186.256 203.9 187.639 203.9C188.556 203.9 189.439 203.992 190.289 204.175C191.139 204.358 191.897 204.617 192.564 204.95L191.664 206.85C191.114 206.6 190.497 206.375 189.814 206.175C189.147 205.975 188.414 205.875 187.614 205.875ZM205.41 208.6V220.15H207.36V226.65H205.235V222H195.91V226.65H193.81V220.15H194.885C195.652 219.083 196.285 217.925 196.785 216.675C197.302 215.408 197.685 214.092 197.935 212.725C198.202 211.342 198.343 209.967 198.36 208.6H205.41ZM200.31 210.325C200.243 211.458 200.068 212.633 199.785 213.85C199.502 215.05 199.135 216.2 198.685 217.3C198.252 218.4 197.743 219.35 197.16 220.15H203.285V210.325H200.31ZM215.161 208.35C216.311 208.35 217.295 208.6 218.111 209.1C218.945 209.6 219.578 210.308 220.011 211.225C220.461 212.125 220.686 213.183 220.686 214.4V215.725H211.511C211.545 217.242 211.928 218.4 212.661 219.2C213.411 219.983 214.453 220.375 215.786 220.375C216.636 220.375 217.386 220.3 218.036 220.15C218.703 219.983 219.386 219.75 220.086 219.45V221.375C219.403 221.675 218.728 221.892 218.061 222.025C217.395 222.175 216.603 222.25 215.686 222.25C214.42 222.25 213.295 221.992 212.311 221.475C211.345 220.958 210.586 220.192 210.036 219.175C209.503 218.142 209.236 216.883 209.236 215.4C209.236 213.933 209.478 212.675 209.961 211.625C210.461 210.575 211.153 209.767 212.036 209.2C212.936 208.633 213.978 208.35 215.161 208.35ZM215.136 210.15C214.086 210.15 213.253 210.492 212.636 211.175C212.036 211.842 211.678 212.775 211.561 213.975H218.386C218.386 213.208 218.27 212.542 218.036 211.975C217.803 211.408 217.445 210.967 216.961 210.65C216.495 210.317 215.886 210.15 215.136 210.15ZM234.298 222H232.073V210.425H228.123C227.956 212.542 227.748 214.35 227.498 215.85C227.248 217.333 226.931 218.542 226.548 219.475C226.164 220.408 225.706 221.092 225.173 221.525C224.639 221.958 224.014 222.175 223.298 222.175C223.081 222.175 222.864 222.158 222.648 222.125C222.448 222.108 222.281 222.067 222.148 222V220.35C222.248 220.383 222.356 220.408 222.473 220.425C222.589 220.442 222.706 220.45 222.823 220.45C223.189 220.45 223.523 220.3 223.823 220C224.123 219.7 224.389 219.242 224.623 218.625C224.873 218.008 225.098 217.233 225.298 216.3C225.498 215.35 225.673 214.233 225.823 212.95C225.973 211.667 226.106 210.217 226.223 208.6H234.298V222ZM243.626 208.375C245.259 208.375 246.467 208.733 247.251 209.45C248.034 210.167 248.426 211.308 248.426 212.875V222H246.826L246.401 220.1H246.301C245.917 220.583 245.517 220.992 245.101 221.325C244.701 221.642 244.234 221.875 243.701 222.025C243.184 222.175 242.551 222.25 241.801 222.25C241.001 222.25 240.276 222.108 239.626 221.825C238.992 221.542 238.492 221.108 238.126 220.525C237.759 219.925 237.576 219.175 237.576 218.275C237.576 216.942 238.101 215.917 239.151 215.2C240.201 214.467 241.817 214.067 244.001 214L246.276 213.925V213.125C246.276 212.008 246.034 211.233 245.551 210.8C245.067 210.367 244.384 210.15 243.501 210.15C242.801 210.15 242.134 210.258 241.501 210.475C240.867 210.675 240.276 210.908 239.726 211.175L239.051 209.525C239.634 209.208 240.326 208.942 241.126 208.725C241.926 208.492 242.759 208.375 243.626 208.375ZM244.276 215.525C242.609 215.592 241.451 215.858 240.801 216.325C240.167 216.792 239.851 217.45 239.851 218.3C239.851 219.05 240.076 219.6 240.526 219.95C240.992 220.3 241.584 220.475 242.301 220.475C243.434 220.475 244.376 220.167 245.126 219.55C245.876 218.917 246.251 217.95 246.251 216.65V215.45L244.276 215.525ZM263.414 203.05C263.348 203.883 263.139 204.583 262.789 205.15C262.456 205.717 261.956 206.142 261.289 206.425C260.623 206.708 259.756 206.85 258.689 206.85C257.606 206.85 256.731 206.708 256.064 206.425C255.414 206.142 254.939 205.725 254.639 205.175C254.339 204.608 254.156 203.9 254.089 203.05H256.139C256.223 203.95 256.456 204.558 256.839 204.875C257.239 205.175 257.873 205.325 258.739 205.325C259.506 205.325 260.106 205.167 260.539 204.85C260.989 204.517 261.256 203.917 261.339 203.05H263.414ZM254.639 216.775C254.639 216.925 254.631 217.142 254.614 217.425C254.614 217.692 254.606 217.983 254.589 218.3C254.573 218.6 254.556 218.892 254.539 219.175C254.523 219.442 254.506 219.658 254.489 219.825L261.664 208.6H264.364V222H262.314V214.1C262.314 213.833 262.314 213.483 262.314 213.05C262.331 212.617 262.348 212.192 262.364 211.775C262.381 211.342 262.398 211.017 262.414 210.8L255.289 222H252.564V208.6H254.639V216.775ZM274.029 220.05L278.004 214.9L274.029 209.75H276.754L280.729 214.9L276.754 220.05H274.029ZM267.529 220.05L271.504 214.9L267.529 209.75H270.254L274.229 214.9L270.254 220.05H267.529ZM283.929 224.675H282.504L283.404 222H282.529V219.35H285.229V221.75L283.929 224.675ZM296.415 220.05L292.44 214.9L296.415 209.75H299.14L295.165 214.9L299.14 220.05H296.415ZM302.915 220.05L298.94 214.9L302.915 209.75H305.64L301.665 214.9L305.64 220.05H302.915ZM313.791 204.15C316.124 204.15 317.824 204.608 318.891 205.525C319.957 206.442 320.491 207.733 320.491 209.4C320.491 210.133 320.366 210.842 320.116 211.525C319.882 212.192 319.491 212.792 318.941 213.325C318.391 213.858 317.657 214.283 316.741 214.6C315.824 214.9 314.699 215.05 313.366 215.05H311.316V222H309.066V204.15H313.791ZM313.591 206.075H311.316V213.125H313.116C314.249 213.125 315.191 213.008 315.941 212.775C316.691 212.525 317.249 212.133 317.616 211.6C317.982 211.067 318.166 210.367 318.166 209.5C318.166 208.35 317.799 207.492 317.066 206.925C316.332 206.358 315.174 206.075 313.591 206.075ZM328.977 208.375C330.611 208.375 331.819 208.733 332.602 209.45C333.386 210.167 333.777 211.308 333.777 212.875V222H332.177L331.752 220.1H331.652C331.269 220.583 330.869 220.992 330.452 221.325C330.052 221.642 329.586 221.875 329.052 222.025C328.536 222.175 327.902 222.25 327.152 222.25C326.352 222.25 325.627 222.108 324.977 221.825C324.344 221.542 323.844 221.108 323.477 220.525C323.111 219.925 322.927 219.175 322.927 218.275C322.927 216.942 323.452 215.917 324.502 215.2C325.552 214.467 327.169 214.067 329.352 214L331.627 213.925V213.125C331.627 212.008 331.386 211.233 330.902 210.8C330.419 210.367 329.736 210.15 328.852 210.15C328.152 210.15 327.486 210.258 326.852 210.475C326.219 210.675 325.627 210.908 325.077 211.175L324.402 209.525C324.986 209.208 325.677 208.942 326.477 208.725C327.277 208.492 328.111 208.375 328.977 208.375ZM329.627 215.525C327.961 215.592 326.802 215.858 326.152 216.325C325.519 216.792 325.202 217.45 325.202 218.3C325.202 219.05 325.427 219.6 325.877 219.95C326.344 220.3 326.936 220.475 327.652 220.475C328.786 220.475 329.727 220.167 330.477 219.55C331.227 218.917 331.602 217.95 331.602 216.65V215.45L329.627 215.525ZM343.291 222.25C342.108 222.25 341.049 222.008 340.116 221.525C339.199 221.042 338.474 220.292 337.941 219.275C337.424 218.258 337.166 216.958 337.166 215.375C337.166 213.725 337.441 212.383 337.991 211.35C338.541 210.317 339.283 209.558 340.216 209.075C341.166 208.592 342.241 208.35 343.441 208.35C344.124 208.35 344.783 208.425 345.416 208.575C346.049 208.708 346.566 208.875 346.966 209.075L346.291 210.9C345.891 210.75 345.424 210.608 344.891 210.475C344.358 210.342 343.858 210.275 343.391 210.275C342.491 210.275 341.749 210.467 341.166 210.85C340.583 211.233 340.149 211.8 339.866 212.55C339.583 213.3 339.441 214.233 339.441 215.35C339.441 216.417 339.583 217.325 339.866 218.075C340.149 218.825 340.574 219.392 341.141 219.775C341.708 220.158 342.416 220.35 343.266 220.35C343.999 220.35 344.641 220.275 345.191 220.125C345.758 219.975 346.274 219.792 346.741 219.575V221.525C346.291 221.758 345.791 221.933 345.241 222.05C344.708 222.183 344.058 222.25 343.291 222.25ZM355.303 222.25C354.119 222.25 353.061 222.008 352.128 221.525C351.211 221.042 350.486 220.292 349.953 219.275C349.436 218.258 349.178 216.958 349.178 215.375C349.178 213.725 349.453 212.383 350.003 211.35C350.553 210.317 351.294 209.558 352.228 209.075C353.178 208.592 354.253 208.35 355.453 208.35C356.136 208.35 356.794 208.425 357.428 208.575C358.061 208.708 358.578 208.875 358.978 209.075L358.303 210.9C357.903 210.75 357.436 210.608 356.903 210.475C356.369 210.342 355.869 210.275 355.403 210.275C354.503 210.275 353.761 210.467 353.178 210.85C352.594 211.233 352.161 211.8 351.878 212.55C351.594 213.3 351.453 214.233 351.453 215.35C351.453 216.417 351.594 217.325 351.878 218.075C352.161 218.825 352.586 219.392 353.153 219.775C353.719 220.158 354.428 220.35 355.278 220.35C356.011 220.35 356.653 220.275 357.203 220.125C357.769 219.975 358.286 219.792 358.753 219.575V221.525C358.303 221.758 357.803 221.933 357.253 222.05C356.719 222.183 356.069 222.25 355.303 222.25ZM369.864 208.6H372.264L366.539 215.05L372.739 222H370.189L364.139 215.2V222H361.939V208.6H364.139V215.1L369.864 208.6ZM380.247 208.375C381.88 208.375 383.089 208.733 383.872 209.45C384.655 210.167 385.047 211.308 385.047 212.875V222H383.447L383.022 220.1H382.922C382.539 220.583 382.139 220.992 381.722 221.325C381.322 221.642 380.855 221.875 380.322 222.025C379.805 222.175 379.172 222.25 378.422 222.25C377.622 222.25 376.897 222.108 376.247 221.825C375.614 221.542 375.114 221.108 374.747 220.525C374.38 219.925 374.197 219.175 374.197 218.275C374.197 216.942 374.722 215.917 375.772 215.2C376.822 214.467 378.439 214.067 380.622 214L382.897 213.925V213.125C382.897 212.008 382.655 211.233 382.172 210.8C381.689 210.367 381.005 210.15 380.122 210.15C379.422 210.15 378.755 210.258 378.122 210.475C377.489 210.675 376.897 210.908 376.347 211.175L375.672 209.525C376.255 209.208 376.947 208.942 377.747 208.725C378.547 208.492 379.38 208.375 380.247 208.375ZM380.897 215.525C379.23 215.592 378.072 215.858 377.422 216.325C376.789 216.792 376.472 217.45 376.472 218.3C376.472 219.05 376.697 219.6 377.147 219.95C377.614 220.3 378.205 220.475 378.922 220.475C380.055 220.475 380.997 220.167 381.747 219.55C382.497 218.917 382.872 217.95 382.872 216.65V215.45L380.897 215.525ZM405.261 208.6L399.736 215.1L405.736 222H403.236L397.436 215.2V222H395.386V215.2L389.586 222H387.086L393.086 215.1L387.561 208.6H389.961L395.386 215.1V208.6H397.436V215.1L402.886 208.6H405.261ZM410.011 216.775C410.011 216.925 410.002 217.142 409.986 217.425C409.986 217.692 409.977 217.983 409.961 218.3C409.944 218.6 409.927 218.892 409.911 219.175C409.894 219.442 409.877 219.658 409.861 219.825L417.036 208.6H419.736V222H417.686V214.1C417.686 213.833 417.686 213.483 417.686 213.05C417.702 212.617 417.719 212.192 417.736 211.775C417.752 211.342 417.769 211.017 417.786 210.8L410.661 222H407.936V208.6H410.011V216.775ZM429.4 220.05L433.375 214.9L429.4 209.75H432.125L436.1 214.9L432.125 220.05H429.4ZM422.9 220.05L426.875 214.9L422.9 209.75H425.625L429.6 214.9L425.625 220.05H422.9ZM439.3 224.675H437.875L438.775 222H437.9V219.35H440.6V221.75L439.3 224.675ZM4.325 250.05L0.35 244.9L4.325 239.75H7.05L3.075 244.9L7.05 250.05H4.325ZM10.825 250.05L6.85 244.9L10.825 239.75H13.55L9.575 244.9L13.55 250.05H10.825ZM24.4508 246.925C23.9174 248.108 23.3758 249.1 22.8258 249.9C22.2924 250.683 21.6591 251.275 20.9258 251.675C20.1924 252.058 19.2591 252.25 18.1258 252.25C17.6591 252.25 17.2174 252.217 16.8008 252.15C16.4008 252.083 16.0341 251.992 15.7008 251.875V249.65C16.0341 249.8 16.3924 249.925 16.7758 250.025C17.1591 250.108 17.5591 250.15 17.9758 250.15C18.5924 250.15 19.1174 250.067 19.5508 249.9C20.0008 249.717 20.3924 249.425 20.7258 249.025C21.0758 248.625 21.4008 248.092 21.7008 247.425L14.8258 234.15H17.3008L22.2758 243.975C22.3424 244.092 22.4091 244.233 22.4758 244.4C22.5424 244.55 22.6091 244.708 22.6758 244.875C22.7591 245.042 22.8258 245.2 22.8758 245.35H22.9758C23.0258 245.233 23.0758 245.1 23.1258 244.95C23.1924 244.783 23.2508 244.625 23.3008 244.475C23.3674 244.308 23.4258 244.167 23.4758 244.05L27.7758 234.15H30.1508L24.4508 246.925ZM33.7131 243.475C33.7131 244.258 33.9298 244.842 34.3631 245.225C34.8131 245.592 35.4548 245.775 36.2881 245.775C37.1214 245.775 37.8798 245.65 38.5631 245.4C39.2464 245.133 39.9464 244.783 40.6631 244.35V238.6H42.8631V252H40.6631V246.025C39.9131 246.508 39.1714 246.892 38.4381 247.175C37.7214 247.442 36.8548 247.575 35.8381 247.575C34.4714 247.575 33.4048 247.217 32.6381 246.5C31.8881 245.783 31.5131 244.825 31.5131 243.625V238.6H33.7131V243.475ZM52.1951 238.375C53.8285 238.375 55.0368 238.733 55.8201 239.45C56.6035 240.167 56.9951 241.308 56.9951 242.875V252H55.3951L54.9701 250.1H54.8701C54.4868 250.583 54.0868 250.992 53.6701 251.325C53.2701 251.642 52.8035 251.875 52.2701 252.025C51.7535 252.175 51.1201 252.25 50.3701 252.25C49.5701 252.25 48.8451 252.108 48.1951 251.825C47.5618 251.542 47.0618 251.108 46.6951 250.525C46.3285 249.925 46.1451 249.175 46.1451 248.275C46.1451 246.942 46.6701 245.917 47.7201 245.2C48.7701 244.467 50.3868 244.067 52.5701 244L54.8451 243.925V243.125C54.8451 242.008 54.6035 241.233 54.1201 240.8C53.6368 240.367 52.9535 240.15 52.0701 240.15C51.3701 240.15 50.7035 240.258 50.0701 240.475C49.4368 240.675 48.8451 240.908 48.2951 241.175L47.6201 239.525C48.2035 239.208 48.8951 238.942 49.6951 238.725C50.4951 238.492 51.3285 238.375 52.1951 238.375ZM52.8451 245.525C51.1785 245.592 50.0201 245.858 49.3701 246.325C48.7368 246.792 48.4201 247.45 48.4201 248.3C48.4201 249.05 48.6451 249.6 49.0951 249.95C49.5618 250.3 50.1535 250.475 50.8701 250.475C52.0035 250.475 52.9451 250.167 53.6951 249.55C54.4451 248.917 54.8201 247.95 54.8201 246.65V245.45L52.8451 245.525ZM66.5088 252.25C65.3255 252.25 64.2671 252.008 63.3338 251.525C62.4171 251.042 61.6921 250.292 61.1588 249.275C60.6421 248.258 60.3838 246.958 60.3838 245.375C60.3838 243.725 60.6588 242.383 61.2088 241.35C61.7588 240.317 62.5005 239.558 63.4338 239.075C64.3838 238.592 65.4588 238.35 66.6588 238.35C67.3421 238.35 68.0005 238.425 68.6338 238.575C69.2671 238.708 69.7838 238.875 70.1838 239.075L69.5088 240.9C69.1088 240.75 68.6421 240.608 68.1088 240.475C67.5755 240.342 67.0755 240.275 66.6088 240.275C65.7088 240.275 64.9671 240.467 64.3838 240.85C63.8005 241.233 63.3671 241.8 63.0838 242.55C62.8005 243.3 62.6588 244.233 62.6588 245.35C62.6588 246.417 62.8005 247.325 63.0838 248.075C63.3671 248.825 63.7921 249.392 64.3588 249.775C64.9255 250.158 65.6338 250.35 66.4838 250.35C67.2171 250.35 67.8588 250.275 68.4088 250.125C68.9755 249.975 69.4921 249.792 69.9588 249.575V251.525C69.5088 251.758 69.0088 251.933 68.4588 252.05C67.9255 252.183 67.2755 252.25 66.5088 252.25ZM82.3955 240.45H78.0205V252H75.8455V240.45H71.5205V238.6H82.3955V240.45ZM95.8102 241.975C95.8102 242.808 95.5602 243.458 95.0602 243.925C94.5602 244.392 93.9185 244.708 93.1352 244.875V244.975C93.9685 245.092 94.6935 245.392 95.3102 245.875C95.9268 246.342 96.2352 247.075 96.2352 248.075C96.2352 248.642 96.1268 249.167 95.9102 249.65C95.7102 250.133 95.3935 250.55 94.9602 250.9C94.5268 251.25 93.9685 251.525 93.2852 251.725C92.6018 251.908 91.7768 252 90.8102 252H85.0352V238.6H90.7852C91.7352 238.6 92.5852 238.708 93.3352 238.925C94.1018 239.125 94.7018 239.475 95.1352 239.975C95.5852 240.458 95.8102 241.125 95.8102 241.975ZM93.9602 248.075C93.9602 247.308 93.6685 246.758 93.0852 246.425C92.5018 246.092 91.6435 245.925 90.5102 245.925H87.2352V250.225H90.5602C91.6602 250.225 92.5018 250.067 93.0852 249.75C93.6685 249.417 93.9602 248.858 93.9602 248.075ZM93.5852 242.25C93.5852 241.617 93.3518 241.158 92.8852 240.875C92.4352 240.575 91.6935 240.425 90.6602 240.425H87.2352V244.1H90.2602C91.3435 244.1 92.1685 243.95 92.7352 243.65C93.3018 243.35 93.5852 242.883 93.5852 242.25ZM97.3395 238.6H99.6895L102.589 246.225C102.756 246.675 102.906 247.108 103.039 247.525C103.189 247.942 103.323 248.35 103.439 248.75C103.556 249.133 103.648 249.508 103.714 249.875H103.814C103.914 249.458 104.073 248.917 104.289 248.25C104.506 247.567 104.731 246.883 104.964 246.2L107.689 238.6H110.064L104.289 253.85C103.973 254.683 103.598 255.408 103.164 256.025C102.748 256.658 102.231 257.142 101.614 257.475C101.014 257.825 100.281 258 99.4145 258C99.0145 258 98.6645 257.975 98.3645 257.925C98.0645 257.892 97.8061 257.85 97.5895 257.8V256.05C97.7728 256.083 97.9895 256.117 98.2395 256.15C98.5061 256.183 98.7811 256.2 99.0645 256.2C99.5811 256.2 100.023 256.1 100.389 255.9C100.773 255.717 101.098 255.442 101.364 255.075C101.631 254.725 101.856 254.308 102.039 253.825L102.739 252.05L97.3395 238.6ZM123.034 233.05C122.967 233.883 122.759 234.583 122.409 235.15C122.075 235.717 121.575 236.142 120.909 236.425C120.242 236.708 119.375 236.85 118.309 236.85C117.225 236.85 116.35 236.708 115.684 236.425C115.034 236.142 114.559 235.725 114.259 235.175C113.959 234.608 113.775 233.9 113.709 233.05H115.759C115.842 233.95 116.075 234.558 116.459 234.875C116.859 235.175 117.492 235.325 118.359 235.325C119.125 235.325 119.725 235.167 120.159 234.85C120.609 234.517 120.875 233.917 120.959 233.05H123.034ZM114.259 246.775C114.259 246.925 114.25 247.142 114.234 247.425C114.234 247.692 114.225 247.983 114.209 248.3C114.192 248.6 114.175 248.892 114.159 249.175C114.142 249.442 114.125 249.658 114.109 249.825L121.284 238.6H123.984V252H121.934V244.1C121.934 243.833 121.934 243.483 121.934 243.05C121.95 242.617 121.967 242.192 121.984 241.775C122 241.342 122.017 241.017 122.034 240.8L114.909 252H112.184V238.6H114.259V246.775ZM133.648 250.05L137.623 244.9L133.648 239.75H136.373L140.348 244.9L136.373 250.05H133.648ZM127.148 250.05L131.123 244.9L127.148 239.75H129.873L133.848 244.9L129.873 250.05H127.148ZM149.163 254.675H147.738L148.638 252H147.763V249.35H150.463V251.75L149.163 254.675ZM161.524 246.775C161.524 246.925 161.516 247.142 161.499 247.425C161.499 247.692 161.491 247.983 161.474 248.3C161.458 248.6 161.441 248.892 161.424 249.175C161.408 249.442 161.391 249.658 161.374 249.825L168.549 238.6H171.249V252H169.199V244.1C169.199 243.833 169.199 243.483 169.199 243.05C169.216 242.617 169.233 242.192 169.249 241.775C169.266 241.342 169.283 241.017 169.299 240.8L162.174 252H159.449V238.6H161.524V246.775ZM185.714 252H183.489V240.425H179.539C179.372 242.542 179.164 244.35 178.914 245.85C178.664 247.333 178.347 248.542 177.964 249.475C177.58 250.408 177.122 251.092 176.589 251.525C176.055 251.958 175.43 252.175 174.714 252.175C174.497 252.175 174.28 252.158 174.064 252.125C173.864 252.108 173.697 252.067 173.564 252V250.35C173.664 250.383 173.772 250.408 173.889 250.425C174.005 250.442 174.122 250.45 174.239 250.45C174.605 250.45 174.939 250.3 175.239 250C175.539 249.7 175.805 249.242 176.039 248.625C176.289 248.008 176.514 247.233 176.714 246.3C176.914 245.35 177.089 244.233 177.239 242.95C177.389 241.667 177.522 240.217 177.639 238.6H185.714V252ZM192.042 246.775C192.042 246.925 192.033 247.142 192.017 247.425C192.017 247.692 192.008 247.983 191.992 248.3C191.975 248.6 191.958 248.892 191.942 249.175C191.925 249.442 191.908 249.658 191.892 249.825L199.067 238.6H201.767V252H199.717V244.1C199.717 243.833 199.717 243.483 199.717 243.05C199.733 242.617 199.75 242.192 199.767 241.775C199.783 241.342 199.8 241.017 199.817 240.8L192.692 252H189.967V238.6H192.042V246.775ZM217.021 252.25C215.838 252.25 214.78 252.008 213.846 251.525C212.93 251.042 212.205 250.292 211.671 249.275C211.155 248.258 210.896 246.958 210.896 245.375C210.896 243.725 211.171 242.383 211.721 241.35C212.271 240.317 213.013 239.558 213.946 239.075C214.896 238.592 215.971 238.35 217.171 238.35C217.855 238.35 218.513 238.425 219.146 238.575C219.78 238.708 220.296 238.875 220.696 239.075L220.021 240.9C219.621 240.75 219.155 240.608 218.621 240.475C218.088 240.342 217.588 240.275 217.121 240.275C216.221 240.275 215.48 240.467 214.896 240.85C214.313 241.233 213.88 241.8 213.596 242.55C213.313 243.3 213.171 244.233 213.171 245.35C213.171 246.417 213.313 247.325 213.596 248.075C213.88 248.825 214.305 249.392 214.871 249.775C215.438 250.158 216.146 250.35 216.996 250.35C217.73 250.35 218.371 250.275 218.921 250.125C219.488 249.975 220.005 249.792 220.471 249.575V251.525C220.021 251.758 219.521 251.933 218.971 252.05C218.438 252.183 217.788 252.25 217.021 252.25ZM228.733 238.375C230.367 238.375 231.575 238.733 232.358 239.45C233.142 240.167 233.533 241.308 233.533 242.875V252H231.933L231.508 250.1H231.408C231.025 250.583 230.625 250.992 230.208 251.325C229.808 251.642 229.342 251.875 228.808 252.025C228.292 252.175 227.658 252.25 226.908 252.25C226.108 252.25 225.383 252.108 224.733 251.825C224.1 251.542 223.6 251.108 223.233 250.525C222.867 249.925 222.683 249.175 222.683 248.275C222.683 246.942 223.208 245.917 224.258 245.2C225.308 244.467 226.925 244.067 229.108 244L231.383 243.925V243.125C231.383 242.008 231.142 241.233 230.658 240.8C230.175 240.367 229.492 240.15 228.608 240.15C227.908 240.15 227.242 240.258 226.608 240.475C225.975 240.675 225.383 240.908 224.833 241.175L224.158 239.525C224.742 239.208 225.433 238.942 226.233 238.725C227.033 238.492 227.867 238.375 228.733 238.375ZM229.383 245.525C227.717 245.592 226.558 245.858 225.908 246.325C225.275 246.792 224.958 247.45 224.958 248.3C224.958 249.05 225.183 249.6 225.633 249.95C226.1 250.3 226.692 250.475 227.408 250.475C228.542 250.475 229.483 250.167 230.233 249.55C230.983 248.917 231.358 247.95 231.358 246.65V245.45L229.383 245.525ZM252.047 238.6V252H250.072V243.45C250.072 243.1 250.08 242.733 250.097 242.35C250.13 241.967 250.164 241.592 250.197 241.225H250.122L245.747 252H243.897L239.647 241.225H239.572C239.605 241.592 239.622 241.967 239.622 242.35C239.639 242.733 239.647 243.125 239.647 243.525V252H237.672V238.6H240.597L244.822 249.375L249.122 238.6H252.047ZM273.264 238.6V252H271.064V240.475H264.139V252H261.939V238.6H273.264ZM283.915 238.35C285.565 238.35 286.89 238.925 287.89 240.075C288.907 241.225 289.415 242.958 289.415 245.275C289.415 246.792 289.182 248.075 288.715 249.125C288.265 250.158 287.623 250.942 286.79 251.475C285.973 251.992 285.007 252.25 283.89 252.25C283.207 252.25 282.598 252.158 282.065 251.975C281.532 251.792 281.073 251.558 280.69 251.275C280.323 250.975 280.007 250.65 279.74 250.3H279.59C279.623 250.583 279.657 250.942 279.69 251.375C279.723 251.808 279.74 252.183 279.74 252.5V258H277.54V238.6H279.34L279.64 240.425H279.74C280.007 240.042 280.323 239.692 280.69 239.375C281.073 239.058 281.523 238.808 282.04 238.625C282.573 238.442 283.198 238.35 283.915 238.35ZM283.515 240.2C282.615 240.2 281.89 240.375 281.34 240.725C280.79 241.058 280.39 241.567 280.14 242.25C279.89 242.933 279.757 243.8 279.74 244.85V245.275C279.74 246.375 279.857 247.308 280.09 248.075C280.323 248.842 280.715 249.425 281.265 249.825C281.832 250.225 282.598 250.425 283.565 250.425C284.382 250.425 285.048 250.2 285.565 249.75C286.098 249.3 286.49 248.692 286.74 247.925C287.007 247.142 287.14 246.25 287.14 245.25C287.14 243.717 286.84 242.492 286.24 241.575C285.657 240.658 284.748 240.2 283.515 240.2ZM294.996 246.775C294.996 246.925 294.988 247.142 294.971 247.425C294.971 247.692 294.963 247.983 294.946 248.3C294.929 248.6 294.913 248.892 294.896 249.175C294.879 249.442 294.863 249.658 294.846 249.825L302.021 238.6H304.721V252H302.671V244.1C302.671 243.833 302.671 243.483 302.671 243.05C302.688 242.617 302.704 242.192 302.721 241.775C302.738 241.342 302.754 241.017 302.771 240.8L295.646 252H292.921V238.6H294.996V246.775ZM311.185 238.6V244.175H318.46V238.6H320.66V252H318.46V246.025H311.185V252H308.985V238.6H311.185ZM326.978 246.775C326.978 246.925 326.97 247.142 326.953 247.425C326.953 247.692 326.945 247.983 326.928 248.3C326.912 248.6 326.895 248.892 326.878 249.175C326.862 249.442 326.845 249.658 326.828 249.825L334.003 238.6H336.703V252H334.653V244.1C334.653 243.833 334.653 243.483 334.653 243.05C334.67 242.617 334.687 242.192 334.703 241.775C334.72 241.342 334.737 241.017 334.753 240.8L327.628 252H324.903V238.6H326.978V246.775ZM355.343 238.6V252H353.368V243.45C353.368 243.1 353.376 242.733 353.393 242.35C353.426 241.967 353.459 241.592 353.493 241.225H353.418L349.043 252H347.193L342.943 241.225H342.868C342.901 241.592 342.918 241.967 342.918 242.35C342.934 242.733 342.943 243.125 342.943 243.525V252H340.968V238.6H343.893L348.118 249.375L352.418 238.6H355.343ZM364.695 238.375C366.328 238.375 367.537 238.733 368.32 239.45C369.103 240.167 369.495 241.308 369.495 242.875V252H367.895L367.47 250.1H367.37C366.987 250.583 366.587 250.992 366.17 251.325C365.77 251.642 365.303 251.875 364.77 252.025C364.253 252.175 363.62 252.25 362.87 252.25C362.07 252.25 361.345 252.108 360.695 251.825C360.062 251.542 359.562 251.108 359.195 250.525C358.828 249.925 358.645 249.175 358.645 248.275C358.645 246.942 359.17 245.917 360.22 245.2C361.27 244.467 362.887 244.067 365.07 244L367.345 243.925V243.125C367.345 242.008 367.103 241.233 366.62 240.8C366.137 240.367 365.453 240.15 364.57 240.15C363.87 240.15 363.203 240.258 362.57 240.475C361.937 240.675 361.345 240.908 360.795 241.175L360.12 239.525C360.703 239.208 361.395 238.942 362.195 238.725C362.995 238.492 363.828 238.375 364.695 238.375ZM365.345 245.525C363.678 245.592 362.52 245.858 361.87 246.325C361.237 246.792 360.92 247.45 360.92 248.3C360.92 249.05 361.145 249.6 361.595 249.95C362.062 250.3 362.653 250.475 363.37 250.475C364.503 250.475 365.445 250.167 366.195 249.55C366.945 248.917 367.32 247.95 367.32 246.65V245.45L365.345 245.525ZM384.484 233.05C384.417 233.883 384.209 234.583 383.859 235.15C383.525 235.717 383.025 236.142 382.359 236.425C381.692 236.708 380.825 236.85 379.759 236.85C378.675 236.85 377.8 236.708 377.134 236.425C376.484 236.142 376.009 235.725 375.709 235.175C375.409 234.608 375.225 233.9 375.159 233.05H377.209C377.292 233.95 377.525 234.558 377.909 234.875C378.309 235.175 378.942 235.325 379.809 235.325C380.575 235.325 381.175 235.167 381.609 234.85C382.059 234.517 382.325 233.917 382.409 233.05H384.484ZM375.709 246.775C375.709 246.925 375.7 247.142 375.684 247.425C375.684 247.692 375.675 247.983 375.659 248.3C375.642 248.6 375.625 248.892 375.609 249.175C375.592 249.442 375.575 249.658 375.559 249.825L382.734 238.6H385.434V252H383.384V244.1C383.384 243.833 383.384 243.483 383.384 243.05C383.4 242.617 383.417 242.192 383.434 241.775C383.45 241.342 383.467 241.017 383.484 240.8L376.359 252H373.634V238.6H375.709V246.775ZM393.213 238.6H395.563L398.463 246.225C398.63 246.675 398.78 247.108 398.913 247.525C399.063 247.942 399.197 248.35 399.313 248.75C399.43 249.133 399.522 249.508 399.588 249.875H399.688C399.788 249.458 399.947 248.917 400.163 248.25C400.38 247.567 400.605 246.883 400.838 246.2L403.563 238.6H405.938L400.163 253.85C399.847 254.683 399.472 255.408 399.038 256.025C398.622 256.658 398.105 257.142 397.488 257.475C396.888 257.825 396.155 258 395.288 258C394.888 258 394.538 257.975 394.238 257.925C393.938 257.892 393.68 257.85 393.463 257.8V256.05C393.647 256.083 393.863 256.117 394.113 256.15C394.38 256.183 394.655 256.2 394.938 256.2C395.455 256.2 395.897 256.1 396.263 255.9C396.647 255.717 396.972 255.442 397.238 255.075C397.505 254.725 397.73 254.308 397.913 253.825L398.613 252.05L393.213 238.6ZM409.983 243.475C409.983 244.258 410.199 244.842 410.633 245.225C411.083 245.592 411.724 245.775 412.558 245.775C413.391 245.775 414.149 245.65 414.833 245.4C415.516 245.133 416.216 244.783 416.933 244.35V238.6H419.133V252H416.933V246.025C416.183 246.508 415.441 246.892 414.708 247.175C413.991 247.442 413.124 247.575 412.108 247.575C410.741 247.575 409.674 247.217 408.908 246.5C408.158 245.783 407.783 244.825 407.783 243.625V238.6H409.983V243.475ZM428.465 238.375C430.098 238.375 431.306 238.733 432.09 239.45C432.873 240.167 433.265 241.308 433.265 242.875V252H431.665L431.24 250.1H431.14C430.756 250.583 430.356 250.992 429.94 251.325C429.54 251.642 429.073 251.875 428.54 252.025C428.023 252.175 427.39 252.25 426.64 252.25C425.84 252.25 425.115 252.108 424.465 251.825C423.831 251.542 423.331 251.108 422.965 250.525C422.598 249.925 422.415 249.175 422.415 248.275C422.415 246.942 422.94 245.917 423.99 245.2C425.04 244.467 426.656 244.067 428.84 244L431.115 243.925V243.125C431.115 242.008 430.873 241.233 430.39 240.8C429.906 240.367 429.223 240.15 428.34 240.15C427.64 240.15 426.973 240.258 426.34 240.475C425.706 240.675 425.115 240.908 424.565 241.175L423.89 239.525C424.473 239.208 425.165 238.942 425.965 238.725C426.765 238.492 427.598 238.375 428.465 238.375ZM429.115 245.525C427.448 245.592 426.29 245.858 425.64 246.325C425.006 246.792 424.69 247.45 424.69 248.3C424.69 249.05 424.915 249.6 425.365 249.95C425.831 250.3 426.423 250.475 427.14 250.475C428.273 250.475 429.215 250.167 429.965 249.55C430.715 248.917 431.09 247.95 431.09 246.65V245.45L429.115 245.525ZM442.778 252.25C441.595 252.25 440.537 252.008 439.603 251.525C438.687 251.042 437.962 250.292 437.428 249.275C436.912 248.258 436.653 246.958 436.653 245.375C436.653 243.725 436.928 242.383 437.478 241.35C438.028 240.317 438.77 239.558 439.703 239.075C440.653 238.592 441.728 238.35 442.928 238.35C443.612 238.35 444.27 238.425 444.903 238.575C445.537 238.708 446.053 238.875 446.453 239.075L445.778 240.9C445.378 240.75 444.912 240.608 444.378 240.475C443.845 240.342 443.345 240.275 442.878 240.275C441.978 240.275 441.237 240.467 440.653 240.85C440.07 241.233 439.637 241.8 439.353 242.55C439.07 243.3 438.928 244.233 438.928 245.35C438.928 246.417 439.07 247.325 439.353 248.075C439.637 248.825 440.062 249.392 440.628 249.775C441.195 250.158 441.903 250.35 442.753 250.35C443.487 250.35 444.128 250.275 444.678 250.125C445.245 249.975 445.762 249.792 446.228 249.575V251.525C445.778 251.758 445.278 251.933 444.728 252.05C444.195 252.183 443.545 252.25 442.778 252.25ZM458.665 240.45H454.29V252H452.115V240.45H447.79V238.6H458.665V240.45ZM463.38 246.775C463.38 246.925 463.371 247.142 463.355 247.425C463.355 247.692 463.346 247.983 463.33 248.3C463.313 248.6 463.296 248.892 463.28 249.175C463.263 249.442 463.246 249.658 463.23 249.825L470.405 238.6H473.105V252H471.055V244.1C471.055 243.833 471.055 243.483 471.055 243.05C471.071 242.617 471.088 242.192 471.105 241.775C471.121 241.342 471.138 241.017 471.155 240.8L464.03 252H461.305V238.6H463.38V246.775ZM482.544 238.35C483.694 238.35 484.677 238.6 485.494 239.1C486.327 239.6 486.961 240.308 487.394 241.225C487.844 242.125 488.069 243.183 488.069 244.4V245.725H478.894C478.927 247.242 479.311 248.4 480.044 249.2C480.794 249.983 481.836 250.375 483.169 250.375C484.019 250.375 484.769 250.3 485.419 250.15C486.086 249.983 486.769 249.75 487.469 249.45V251.375C486.786 251.675 486.111 251.892 485.444 252.025C484.777 252.175 483.986 252.25 483.069 252.25C481.802 252.25 480.677 251.992 479.694 251.475C478.727 250.958 477.969 250.192 477.419 249.175C476.886 248.142 476.619 246.883 476.619 245.4C476.619 243.933 476.861 242.675 477.344 241.625C477.844 240.575 478.536 239.767 479.419 239.2C480.319 238.633 481.361 238.35 482.544 238.35ZM482.519 240.15C481.469 240.15 480.636 240.492 480.019 241.175C479.419 241.842 479.061 242.775 478.944 243.975H485.769C485.769 243.208 485.652 242.542 485.419 241.975C485.186 241.408 484.827 240.967 484.344 240.65C483.877 240.317 483.269 240.15 482.519 240.15ZM12.9 271.975C12.9 272.808 12.65 273.458 12.15 273.925C11.65 274.392 11.0083 274.708 10.225 274.875V274.975C11.0583 275.092 11.7833 275.392 12.4 275.875C13.0167 276.342 13.325 277.075 13.325 278.075C13.325 278.642 13.2167 279.167 13 279.65C12.8 280.133 12.4833 280.55 12.05 280.9C11.6167 281.25 11.0583 281.525 10.375 281.725C9.69167 281.908 8.86667 282 7.9 282H2.125V268.6H7.875C8.825 268.6 9.675 268.708 10.425 268.925C11.1917 269.125 11.7917 269.475 12.225 269.975C12.675 270.458 12.9 271.125 12.9 271.975ZM11.05 278.075C11.05 277.308 10.7583 276.758 10.175 276.425C9.59167 276.092 8.73333 275.925 7.6 275.925H4.325V280.225H7.65C8.75 280.225 9.59167 280.067 10.175 279.75C10.7583 279.417 11.05 278.858 11.05 278.075ZM10.675 272.25C10.675 271.617 10.4417 271.158 9.975 270.875C9.525 270.575 8.78333 270.425 7.75 270.425H4.325V274.1H7.35C8.43333 274.1 9.25833 273.95 9.825 273.65C10.3917 273.35 10.675 272.883 10.675 272.25ZM33.4695 268.6V282H31.2695V270.475H24.3445V282H22.1445V268.6H33.4695ZM44.1201 268.35C45.7701 268.35 47.0951 268.925 48.0951 270.075C49.1118 271.225 49.6201 272.958 49.6201 275.275C49.6201 276.792 49.3868 278.075 48.9201 279.125C48.4701 280.158 47.8285 280.942 46.9951 281.475C46.1785 281.992 45.2118 282.25 44.0951 282.25C43.4118 282.25 42.8035 282.158 42.2701 281.975C41.7368 281.792 41.2785 281.558 40.8951 281.275C40.5285 280.975 40.2118 280.65 39.9451 280.3H39.7951C39.8285 280.583 39.8618 280.942 39.8951 281.375C39.9285 281.808 39.9451 282.183 39.9451 282.5V288H37.7451V268.6H39.5451L39.8451 270.425H39.9451C40.2118 270.042 40.5285 269.692 40.8951 269.375C41.2785 269.058 41.7285 268.808 42.2451 268.625C42.7785 268.442 43.4035 268.35 44.1201 268.35ZM43.7201 270.2C42.8201 270.2 42.0951 270.375 41.5451 270.725C40.9951 271.058 40.5951 271.567 40.3451 272.25C40.0951 272.933 39.9618 273.8 39.9451 274.85V275.275C39.9451 276.375 40.0618 277.308 40.2951 278.075C40.5285 278.842 40.9201 279.425 41.4701 279.825C42.0368 280.225 42.8035 280.425 43.7701 280.425C44.5868 280.425 45.2535 280.2 45.7701 279.75C46.3035 279.3 46.6951 278.692 46.9451 277.925C47.2118 277.142 47.3451 276.25 47.3451 275.25C47.3451 273.717 47.0451 272.492 46.4451 271.575C45.8618 270.658 44.9535 270.2 43.7201 270.2ZM64.776 275.275C64.776 276.392 64.626 277.383 64.326 278.25C64.0426 279.1 63.626 279.825 63.076 280.425C62.5426 281.025 61.8843 281.483 61.101 281.8C60.3343 282.1 59.476 282.25 58.526 282.25C57.6426 282.25 56.826 282.1 56.076 281.8C55.326 281.483 54.676 281.025 54.126 280.425C53.576 279.825 53.1426 279.1 52.826 278.25C52.526 277.383 52.376 276.392 52.376 275.275C52.376 273.792 52.626 272.542 53.126 271.525C53.626 270.492 54.3426 269.708 55.276 269.175C56.2093 268.625 57.3176 268.35 58.601 268.35C59.8176 268.35 60.8843 268.625 61.801 269.175C62.7343 269.708 63.4593 270.492 63.976 271.525C64.5093 272.542 64.776 273.792 64.776 275.275ZM54.651 275.275C54.651 276.325 54.7843 277.242 55.051 278.025C55.3343 278.792 55.7676 279.383 56.351 279.8C56.9343 280.217 57.676 280.425 58.576 280.425C59.476 280.425 60.2176 280.217 60.801 279.8C61.3843 279.383 61.8093 278.792 62.076 278.025C62.3593 277.242 62.501 276.325 62.501 275.275C62.501 274.208 62.3593 273.3 62.076 272.55C61.7926 271.8 61.3593 271.225 60.776 270.825C60.2093 270.408 59.4676 270.2 58.551 270.2C57.1843 270.2 56.1926 270.65 55.576 271.55C54.9593 272.45 54.651 273.692 54.651 275.275ZM73.4377 268.35C74.5877 268.35 75.571 268.6 76.3877 269.1C77.221 269.6 77.8544 270.308 78.2877 271.225C78.7377 272.125 78.9627 273.183 78.9627 274.4V275.725H69.7877C69.821 277.242 70.2044 278.4 70.9377 279.2C71.6877 279.983 72.7294 280.375 74.0627 280.375C74.9127 280.375 75.6627 280.3 76.3127 280.15C76.9794 279.983 77.6627 279.75 78.3627 279.45V281.375C77.6794 281.675 77.0044 281.892 76.3377 282.025C75.671 282.175 74.8794 282.25 73.9627 282.25C72.696 282.25 71.571 281.992 70.5877 281.475C69.621 280.958 68.8627 280.192 68.3127 279.175C67.7794 278.142 67.5127 276.883 67.5127 275.4C67.5127 273.933 67.7544 272.675 68.2377 271.625C68.7377 270.575 69.4294 269.767 70.3127 269.2C71.2127 268.633 72.2544 268.35 73.4377 268.35ZM73.4127 270.15C72.3627 270.15 71.5294 270.492 70.9127 271.175C70.3127 271.842 69.9544 272.775 69.8377 273.975H76.6627C76.6627 273.208 76.546 272.542 76.3127 271.975C76.0794 271.408 75.721 270.967 75.2377 270.65C74.771 270.317 74.1627 270.15 73.4127 270.15ZM90.299 268.6H92.699L86.974 275.05L93.174 282H90.624L84.574 275.2V282H82.374V268.6H84.574V275.1L90.299 268.6ZM104.856 270.45H100.481V282H98.3064V270.45H93.9814V268.6H104.856V270.45ZM112.571 268.375C114.204 268.375 115.413 268.733 116.196 269.45C116.979 270.167 117.371 271.308 117.371 272.875V282H115.771L115.346 280.1H115.246C114.863 280.583 114.463 280.992 114.046 281.325C113.646 281.642 113.179 281.875 112.646 282.025C112.129 282.175 111.496 282.25 110.746 282.25C109.946 282.25 109.221 282.108 108.571 281.825C107.938 281.542 107.438 281.108 107.071 280.525C106.704 279.925 106.521 279.175 106.521 278.275C106.521 276.942 107.046 275.917 108.096 275.2C109.146 274.467 110.763 274.067 112.946 274L115.221 273.925V273.125C115.221 272.008 114.979 271.233 114.496 270.8C114.013 270.367 113.329 270.15 112.446 270.15C111.746 270.15 111.079 270.258 110.446 270.475C109.813 270.675 109.221 270.908 108.671 271.175L107.996 269.525C108.579 269.208 109.271 268.942 110.071 268.725C110.871 268.492 111.704 268.375 112.571 268.375ZM113.221 275.525C111.554 275.592 110.396 275.858 109.746 276.325C109.113 276.792 108.796 277.45 108.796 278.3C108.796 279.05 109.021 279.6 109.471 279.95C109.938 280.3 110.529 280.475 111.246 280.475C112.379 280.475 113.321 280.167 114.071 279.55C114.821 278.917 115.196 277.95 115.196 276.65V275.45L113.221 275.525ZM124.685 275.15L120.06 268.6H122.56L126.01 273.65L129.435 268.6H131.91L127.285 275.15L132.16 282H129.66L126.01 276.65L122.31 282H119.835L124.685 275.15ZM135.467 284.675H134.042L134.942 282H134.067V279.35H136.767V281.75L135.467 284.675ZM157.078 268.6V282H154.878V270.475H147.953V282H145.753V268.6H157.078ZM167.729 268.35C169.379 268.35 170.704 268.925 171.704 270.075C172.72 271.225 173.229 272.958 173.229 275.275C173.229 276.792 172.995 278.075 172.529 279.125C172.079 280.158 171.437 280.942 170.604 281.475C169.787 281.992 168.82 282.25 167.704 282.25C167.02 282.25 166.412 282.158 165.879 281.975C165.345 281.792 164.887 281.558 164.504 281.275C164.137 280.975 163.82 280.65 163.554 280.3H163.404C163.437 280.583 163.47 280.942 163.504 281.375C163.537 281.808 163.554 282.183 163.554 282.5V288H161.354V268.6H163.154L163.454 270.425H163.554C163.82 270.042 164.137 269.692 164.504 269.375C164.887 269.058 165.337 268.808 165.854 268.625C166.387 268.442 167.012 268.35 167.729 268.35ZM167.329 270.2C166.429 270.2 165.704 270.375 165.154 270.725C164.604 271.058 164.204 271.567 163.954 272.25C163.704 272.933 163.57 273.8 163.554 274.85V275.275C163.554 276.375 163.67 277.308 163.904 278.075C164.137 278.842 164.529 279.425 165.079 279.825C165.645 280.225 166.412 280.425 167.379 280.425C168.195 280.425 168.862 280.2 169.379 279.75C169.912 279.3 170.304 278.692 170.554 277.925C170.82 277.142 170.954 276.25 170.954 275.25C170.954 273.717 170.654 272.492 170.054 271.575C169.47 270.658 168.562 270.2 167.329 270.2ZM178.809 276.775C178.809 276.925 178.801 277.142 178.784 277.425C178.784 277.692 178.776 277.983 178.759 278.3C178.743 278.6 178.726 278.892 178.709 279.175C178.693 279.442 178.676 279.658 178.659 279.825L185.834 268.6H188.534V282H186.484V274.1C186.484 273.833 186.484 273.483 186.484 273.05C186.501 272.617 186.518 272.192 186.534 271.775C186.551 271.342 186.568 271.017 186.584 270.8L179.459 282H176.734V268.6H178.809V276.775ZM200.974 268.6V270.45H194.999V282H192.799V268.6H200.974ZM213.057 282H210.832V270.425H206.882C206.716 272.542 206.507 274.35 206.257 275.85C206.007 277.333 205.691 278.542 205.307 279.475C204.924 280.408 204.466 281.092 203.932 281.525C203.399 281.958 202.774 282.175 202.057 282.175C201.841 282.175 201.624 282.158 201.407 282.125C201.207 282.108 201.041 282.067 200.907 282V280.35C201.007 280.383 201.116 280.408 201.232 280.425C201.349 280.442 201.466 280.45 201.582 280.45C201.949 280.45 202.282 280.3 202.582 280C202.882 279.7 203.149 279.242 203.382 278.625C203.632 278.008 203.857 277.233 204.057 276.3C204.257 275.35 204.432 274.233 204.582 272.95C204.732 271.667 204.866 270.217 204.982 268.6H213.057V282ZM222.386 268.375C224.019 268.375 225.227 268.733 226.011 269.45C226.794 270.167 227.186 271.308 227.186 272.875V282H225.586L225.161 280.1H225.061C224.677 280.583 224.277 280.992 223.861 281.325C223.461 281.642 222.994 281.875 222.461 282.025C221.944 282.175 221.311 282.25 220.561 282.25C219.761 282.25 219.036 282.108 218.386 281.825C217.752 281.542 217.252 281.108 216.886 280.525C216.519 279.925 216.336 279.175 216.336 278.275C216.336 276.942 216.861 275.917 217.911 275.2C218.961 274.467 220.577 274.067 222.761 274L225.036 273.925V273.125C225.036 272.008 224.794 271.233 224.311 270.8C223.827 270.367 223.144 270.15 222.261 270.15C221.561 270.15 220.894 270.258 220.261 270.475C219.627 270.675 219.036 270.908 218.486 271.175L217.811 269.525C218.394 269.208 219.086 268.942 219.886 268.725C220.686 268.492 221.519 268.375 222.386 268.375ZM223.036 275.525C221.369 275.592 220.211 275.858 219.561 276.325C218.927 276.792 218.611 277.45 218.611 278.3C218.611 279.05 218.836 279.6 219.286 279.95C219.752 280.3 220.344 280.475 221.061 280.475C222.194 280.475 223.136 280.167 223.886 279.55C224.636 278.917 225.011 277.95 225.011 276.65V275.45L223.036 275.525ZM249.499 268.6V282H231.324V268.6H233.524V280.15H239.299V268.6H241.499V280.15H247.299V268.6H249.499ZM258.86 268.375C260.493 268.375 261.702 268.733 262.485 269.45C263.268 270.167 263.66 271.308 263.66 272.875V282H262.06L261.635 280.1H261.535C261.152 280.583 260.752 280.992 260.335 281.325C259.935 281.642 259.468 281.875 258.935 282.025C258.418 282.175 257.785 282.25 257.035 282.25C256.235 282.25 255.51 282.108 254.86 281.825C254.227 281.542 253.727 281.108 253.36 280.525C252.993 279.925 252.81 279.175 252.81 278.275C252.81 276.942 253.335 275.917 254.385 275.2C255.435 274.467 257.052 274.067 259.235 274L261.51 273.925V273.125C261.51 272.008 261.268 271.233 260.785 270.8C260.302 270.367 259.618 270.15 258.735 270.15C258.035 270.15 257.368 270.258 256.735 270.475C256.102 270.675 255.51 270.908 254.96 271.175L254.285 269.525C254.868 269.208 255.56 268.942 256.36 268.725C257.16 268.492 257.993 268.375 258.86 268.375ZM259.51 275.525C257.843 275.592 256.685 275.858 256.035 276.325C255.402 276.792 255.085 277.45 255.085 278.3C255.085 279.05 255.31 279.6 255.76 279.95C256.227 280.3 256.818 280.475 257.535 280.475C258.668 280.475 259.61 280.167 260.36 279.55C261.11 278.917 261.485 277.95 261.485 276.65V275.45L259.51 275.525ZM278.649 263.05C278.582 263.883 278.374 264.583 278.024 265.15C277.69 265.717 277.19 266.142 276.524 266.425C275.857 266.708 274.99 266.85 273.924 266.85C272.84 266.85 271.965 266.708 271.299 266.425C270.649 266.142 270.174 265.725 269.874 265.175C269.574 264.608 269.39 263.9 269.324 263.05H271.374C271.457 263.95 271.69 264.558 272.074 264.875C272.474 265.175 273.107 265.325 273.974 265.325C274.74 265.325 275.34 265.167 275.774 264.85C276.224 264.517 276.49 263.917 276.574 263.05H278.649ZM269.874 276.775C269.874 276.925 269.865 277.142 269.849 277.425C269.849 277.692 269.84 277.983 269.824 278.3C269.807 278.6 269.79 278.892 269.774 279.175C269.757 279.442 269.74 279.658 269.724 279.825L276.899 268.6H279.599V282H277.549V274.1C277.549 273.833 277.549 273.483 277.549 273.05C277.565 272.617 277.582 272.192 277.599 271.775C277.615 271.342 277.632 271.017 277.649 270.8L270.524 282H267.799V268.6H269.874V276.775ZM299.429 268.6V280.15H301.379V286.65H299.254V282H289.929V286.65H287.829V280.15H288.904C289.67 279.083 290.304 277.925 290.804 276.675C291.32 275.408 291.704 274.092 291.954 272.725C292.22 271.342 292.362 269.967 292.379 268.6H299.429ZM294.329 270.325C294.262 271.458 294.087 272.633 293.804 273.85C293.52 275.05 293.154 276.2 292.704 277.3C292.27 278.4 291.762 279.35 291.179 280.15H297.304V270.325H294.329ZM310.38 268.35C312.03 268.35 313.355 268.925 314.355 270.075C315.372 271.225 315.88 272.958 315.88 275.275C315.88 276.792 315.647 278.075 315.18 279.125C314.73 280.158 314.088 280.942 313.255 281.475C312.438 281.992 311.472 282.25 310.355 282.25C309.672 282.25 309.063 282.158 308.53 281.975C307.997 281.792 307.538 281.558 307.155 281.275C306.788 280.975 306.472 280.65 306.205 280.3H306.055C306.088 280.583 306.122 280.942 306.155 281.375C306.188 281.808 306.205 282.183 306.205 282.5V288H304.005V268.6H305.805L306.105 270.425H306.205C306.472 270.042 306.788 269.692 307.155 269.375C307.538 269.058 307.988 268.808 308.505 268.625C309.038 268.442 309.663 268.35 310.38 268.35ZM309.98 270.2C309.08 270.2 308.355 270.375 307.805 270.725C307.255 271.058 306.855 271.567 306.605 272.25C306.355 272.933 306.222 273.8 306.205 274.85V275.275C306.205 276.375 306.322 277.308 306.555 278.075C306.788 278.842 307.18 279.425 307.73 279.825C308.297 280.225 309.063 280.425 310.03 280.425C310.847 280.425 311.513 280.2 312.03 279.75C312.563 279.3 312.955 278.692 313.205 277.925C313.472 277.142 313.605 276.25 313.605 275.25C313.605 273.717 313.305 272.492 312.705 271.575C312.122 270.658 311.213 270.2 309.98 270.2ZM317.042 268.6H319.392L322.292 276.225C322.458 276.675 322.608 277.108 322.742 277.525C322.892 277.942 323.025 278.35 323.142 278.75C323.258 279.133 323.35 279.508 323.417 279.875H323.517C323.617 279.458 323.775 278.917 323.992 278.25C324.208 277.567 324.433 276.883 324.667 276.2L327.392 268.6H329.767L323.992 283.85C323.675 284.683 323.3 285.408 322.867 286.025C322.45 286.658 321.933 287.142 321.317 287.475C320.717 287.825 319.983 288 319.117 288C318.717 288 318.367 287.975 318.067 287.925C317.767 287.892 317.508 287.85 317.292 287.8V286.05C317.475 286.083 317.692 286.117 317.942 286.15C318.208 286.183 318.483 286.2 318.767 286.2C319.283 286.2 319.725 286.1 320.092 285.9C320.475 285.717 320.8 285.442 321.067 285.075C321.333 284.725 321.558 284.308 321.742 283.825L322.442 282.05L317.042 268.6ZM335.411 268.35C336.427 268.35 337.311 268.492 338.061 268.775C338.811 269.042 339.394 269.442 339.811 269.975C340.227 270.492 340.436 271.125 340.436 271.875C340.436 272.692 340.211 273.342 339.761 273.825C339.311 274.292 338.694 274.633 337.911 274.85V274.95C338.444 275.1 338.936 275.308 339.386 275.575C339.836 275.842 340.194 276.192 340.461 276.625C340.744 277.058 340.886 277.617 340.886 278.3C340.886 279.033 340.677 279.7 340.261 280.3C339.861 280.9 339.236 281.375 338.386 281.725C337.552 282.075 336.477 282.25 335.161 282.25C334.527 282.25 333.919 282.217 333.336 282.15C332.769 282.083 332.252 281.983 331.786 281.85C331.336 281.717 330.936 281.558 330.586 281.375V279.4C331.152 279.667 331.819 279.908 332.586 280.125C333.369 280.342 334.219 280.45 335.136 280.45C335.802 280.45 336.402 280.375 336.936 280.225C337.486 280.075 337.919 279.842 338.236 279.525C338.552 279.192 338.711 278.742 338.711 278.175C338.711 277.658 338.569 277.242 338.286 276.925C338.002 276.592 337.577 276.342 337.011 276.175C336.461 276.008 335.752 275.925 334.886 275.925H333.086V274.125H334.536C335.686 274.125 336.602 273.975 337.286 273.675C337.986 273.358 338.336 272.825 338.336 272.075C338.336 271.442 338.069 270.967 337.536 270.65C337.019 270.333 336.269 270.175 335.286 270.175C334.552 270.175 333.902 270.25 333.336 270.4C332.786 270.533 332.177 270.742 331.511 271.025L330.736 269.275C331.452 268.958 332.202 268.725 332.986 268.575C333.769 268.425 334.577 268.35 335.411 268.35ZM349.317 268.35C350.467 268.35 351.45 268.6 352.267 269.1C353.1 269.6 353.733 270.308 354.167 271.225C354.617 272.125 354.842 273.183 354.842 274.4V275.725H345.667C345.7 277.242 346.083 278.4 346.817 279.2C347.567 279.983 348.608 280.375 349.942 280.375C350.792 280.375 351.542 280.3 352.192 280.15C352.858 279.983 353.542 279.75 354.242 279.45V281.375C353.558 281.675 352.883 281.892 352.217 282.025C351.55 282.175 350.758 282.25 349.842 282.25C348.575 282.25 347.45 281.992 346.467 281.475C345.5 280.958 344.742 280.192 344.192 279.175C343.658 278.142 343.392 276.883 343.392 275.4C343.392 273.933 343.633 272.675 344.117 271.625C344.617 270.575 345.308 269.767 346.192 269.2C347.092 268.633 348.133 268.35 349.317 268.35ZM349.292 270.15C348.242 270.15 347.408 270.492 346.792 271.175C346.192 271.842 345.833 272.775 345.717 273.975H352.542C352.542 273.208 352.425 272.542 352.192 271.975C351.958 271.408 351.6 270.967 351.117 270.65C350.65 270.317 350.042 270.15 349.292 270.15ZM369.103 263.05C369.036 263.883 368.828 264.583 368.478 265.15C368.145 265.717 367.645 266.142 366.978 266.425C366.311 266.708 365.445 266.85 364.378 266.85C363.295 266.85 362.42 266.708 361.753 266.425C361.103 266.142 360.628 265.725 360.328 265.175C360.028 264.608 359.845 263.9 359.778 263.05H361.828C361.911 263.95 362.145 264.558 362.528 264.875C362.928 265.175 363.561 265.325 364.428 265.325C365.195 265.325 365.795 265.167 366.228 264.85C366.678 264.517 366.945 263.917 367.028 263.05H369.103ZM360.328 276.775C360.328 276.925 360.32 277.142 360.303 277.425C360.303 277.692 360.295 277.983 360.278 278.3C360.261 278.6 360.245 278.892 360.228 279.175C360.211 279.442 360.195 279.658 360.178 279.825L367.353 268.6H370.053V282H368.003V274.1C368.003 273.833 368.003 273.483 368.003 273.05C368.02 272.617 368.036 272.192 368.053 271.775C368.07 271.342 368.086 271.017 368.103 270.8L360.978 282H358.253V268.6H360.328V276.775ZM382.008 276.775C382.008 276.925 381.999 277.142 381.983 277.425C381.983 277.692 381.974 277.983 381.958 278.3C381.941 278.6 381.924 278.892 381.908 279.175C381.891 279.442 381.874 279.658 381.858 279.825L389.033 268.6H391.733V282H389.683V274.1C389.683 273.833 389.683 273.483 389.683 273.05C389.699 272.617 389.716 272.192 389.733 271.775C389.749 271.342 389.766 271.017 389.783 270.8L382.658 282H379.933V268.6H382.008V276.775ZM5.65 298.35C6.66667 298.35 7.55 298.492 8.3 298.775C9.05 299.042 9.63333 299.442 10.05 299.975C10.4667 300.492 10.675 301.125 10.675 301.875C10.675 302.692 10.45 303.342 10 303.825C9.55 304.292 8.93333 304.633 8.15 304.85V304.95C8.68333 305.1 9.175 305.308 9.625 305.575C10.075 305.842 10.4333 306.192 10.7 306.625C10.9833 307.058 11.125 307.617 11.125 308.3C11.125 309.033 10.9167 309.7 10.5 310.3C10.1 310.9 9.475 311.375 8.625 311.725C7.79167 312.075 6.71667 312.25 5.4 312.25C4.76667 312.25 4.15833 312.217 3.575 312.15C3.00833 312.083 2.49167 311.983 2.025 311.85C1.575 311.717 1.175 311.558 0.825 311.375V309.4C1.39167 309.667 2.05833 309.908 2.825 310.125C3.60833 310.342 4.45833 310.45 5.375 310.45C6.04167 310.45 6.64167 310.375 7.175 310.225C7.725 310.075 8.15833 309.842 8.475 309.525C8.79167 309.192 8.95 308.742 8.95 308.175C8.95 307.658 8.80833 307.242 8.525 306.925C8.24167 306.592 7.81667 306.342 7.25 306.175C6.7 306.008 5.99167 305.925 5.125 305.925H3.325V304.125H4.775C5.925 304.125 6.84167 303.975 7.525 303.675C8.225 303.358 8.575 302.825 8.575 302.075C8.575 301.442 8.30833 300.967 7.775 300.65C7.25833 300.333 6.50833 300.175 5.525 300.175C4.79167 300.175 4.14167 300.25 3.575 300.4C3.025 300.533 2.41667 300.742 1.75 301.025L0.975 299.275C1.69167 298.958 2.44167 298.725 3.225 298.575C4.00833 298.425 4.81667 298.35 5.65 298.35ZM16.5809 298.6V304.175H23.8559V298.6H26.0559V312H23.8559V306.025H16.5809V312H14.3809V298.6H16.5809ZM35.3738 298.375C37.0072 298.375 38.2155 298.733 38.9988 299.45C39.7822 300.167 40.1738 301.308 40.1738 302.875V312H38.5738L38.1488 310.1H38.0488C37.6655 310.583 37.2655 310.992 36.8488 311.325C36.4488 311.642 35.9822 311.875 35.4488 312.025C34.9322 312.175 34.2988 312.25 33.5488 312.25C32.7488 312.25 32.0238 312.108 31.3738 311.825C30.7405 311.542 30.2405 311.108 29.8738 310.525C29.5072 309.925 29.3238 309.175 29.3238 308.275C29.3238 306.942 29.8488 305.917 30.8988 305.2C31.9488 304.467 33.5655 304.067 35.7488 304L38.0238 303.925V303.125C38.0238 302.008 37.7822 301.233 37.2988 300.8C36.8155 300.367 36.1322 300.15 35.2488 300.15C34.5488 300.15 33.8822 300.258 33.2488 300.475C32.6155 300.675 32.0238 300.908 31.4738 301.175L30.7988 299.525C31.3822 299.208 32.0738 298.942 32.8738 298.725C33.6738 298.492 34.5072 298.375 35.3738 298.375ZM36.0238 305.525C34.3572 305.592 33.1988 305.858 32.5488 306.325C31.9155 306.792 31.5988 307.45 31.5988 308.3C31.5988 309.05 31.8238 309.6 32.2738 309.95C32.7405 310.3 33.3322 310.475 34.0488 310.475C35.1822 310.475 36.1238 310.167 36.8738 309.55C37.6238 308.917 37.9988 307.95 37.9988 306.65V305.45L36.0238 305.525ZM52.2375 298.6H54.6375L48.9125 305.05L55.1125 312H52.5625L46.5125 305.2V312H44.3125V298.6H46.5125V305.1L52.2375 298.6ZM68.7066 305.275C68.7066 306.392 68.5566 307.383 68.2566 308.25C67.9733 309.1 67.5566 309.825 67.0066 310.425C66.4733 311.025 65.815 311.483 65.0316 311.8C64.265 312.1 63.4066 312.25 62.4566 312.25C61.5733 312.25 60.7566 312.1 60.0066 311.8C59.2566 311.483 58.6066 311.025 58.0566 310.425C57.5066 309.825 57.0733 309.1 56.7566 308.25C56.4566 307.383 56.3066 306.392 56.3066 305.275C56.3066 303.792 56.5566 302.542 57.0566 301.525C57.5566 300.492 58.2733 299.708 59.2066 299.175C60.14 298.625 61.2483 298.35 62.5316 298.35C63.7483 298.35 64.815 298.625 65.7316 299.175C66.665 299.708 67.39 300.492 67.9066 301.525C68.44 302.542 68.7066 303.792 68.7066 305.275ZM58.5816 305.275C58.5816 306.325 58.715 307.242 58.9816 308.025C59.265 308.792 59.6983 309.383 60.2816 309.8C60.865 310.217 61.6066 310.425 62.5066 310.425C63.4066 310.425 64.1483 310.217 64.7316 309.8C65.315 309.383 65.74 308.792 66.0066 308.025C66.29 307.242 66.4316 306.325 66.4316 305.275C66.4316 304.208 66.29 303.3 66.0066 302.55C65.7233 301.8 65.29 301.225 64.7066 300.825C64.14 300.408 63.3983 300.2 62.4816 300.2C61.115 300.2 60.1233 300.65 59.5066 301.55C58.89 302.45 58.5816 303.692 58.5816 305.275ZM86.5684 298.6V312H84.5934V303.45C84.5934 303.1 84.6017 302.733 84.6184 302.35C84.6517 301.967 84.685 301.592 84.7184 301.225H84.6434L80.2684 312H78.4184L74.1684 301.225H74.0934C74.1267 301.592 74.1434 301.967 74.1434 302.35C74.16 302.733 74.1684 303.125 74.1684 303.525V312H72.1934V298.6H75.1184L79.3434 309.375L83.6434 298.6H86.5684ZM90.8457 312V298.6H93.0457V304.1H96.5207C97.6874 304.1 98.6457 304.242 99.3957 304.525C100.146 304.808 100.704 305.233 101.071 305.8C101.437 306.35 101.621 307.05 101.621 307.9C101.621 308.733 101.437 309.458 101.071 310.075C100.721 310.692 100.162 311.167 99.3957 311.5C98.6457 311.833 97.654 312 96.4207 312H90.8457ZM96.2207 310.225C97.1707 310.225 97.9457 310.067 98.5457 309.75C99.1457 309.417 99.4457 308.842 99.4457 308.025C99.4457 307.208 99.1707 306.658 98.6207 306.375C98.0707 306.075 97.279 305.925 96.2457 305.925H93.0457V310.225H96.2207ZM103.846 312V298.6H106.046V312H103.846ZM113.479 305.15L108.854 298.6H111.354L114.804 303.65L118.229 298.6H120.704L116.079 305.15L120.954 312H118.454L114.804 306.65L111.104 312H108.629L113.479 305.15ZM122.661 312V309.35H125.361V312H122.661Z" fill="white"/>
</svg>
