<svg width="324" height="182" viewBox="0 0 324 182" fill="none" xmlns="http://www.w3.org/2000/svg">
<path d="M36.1329 169.162H25.4545L9.37469 146.819V169.162H0V125.093H9.37469V146.449L25.2682 125.093H35.2638L19.1219 146.264L36.1329 169.162Z" fill="white"/>
<path d="M80.7306 147.066C80.7306 150.481 80.2961 153.588 79.4269 156.386C78.5991 159.143 77.316 161.529 75.5777 163.546C73.8807 165.562 71.6871 167.105 68.9967 168.175C66.3478 169.245 63.2229 169.78 59.6221 169.78C56.0212 169.78 52.8756 169.245 50.1853 168.175C47.5364 167.064 45.3427 165.521 43.6044 163.546C41.9074 161.529 40.6243 159.122 39.7551 156.324C38.9274 153.526 38.5135 150.42 38.5135 147.004C38.5135 142.437 39.2585 138.466 40.7485 135.092C42.2799 131.718 44.5977 129.105 47.7019 127.253C50.8475 125.36 54.8416 124.414 59.6841 124.414C64.4853 124.414 68.438 125.36 71.5422 127.253C74.6464 129.105 76.9435 131.738 78.4335 135.154C79.9649 138.528 80.7306 142.499 80.7306 147.066ZM48.3848 147.066C48.3848 150.152 48.778 152.806 49.5644 155.028C50.3508 157.25 51.5718 158.958 53.2274 160.151C54.883 161.344 57.0145 161.941 59.6221 161.941C62.3124 161.941 64.4646 161.344 66.0788 160.151C67.7344 158.958 68.9347 157.25 69.6797 155.028C70.4661 152.806 70.8593 150.152 70.8593 147.066C70.8593 142.416 69.9901 138.775 68.2517 136.141C66.5134 133.508 63.6575 132.191 59.6841 132.191C57.0352 132.191 54.883 132.788 53.2274 133.981C51.5718 135.174 50.3508 136.882 49.5644 139.104C48.778 141.326 48.3848 143.98 48.3848 147.066Z" fill="white"/>
<path d="M108.662 169.162L97.9837 134.598H97.7354C97.7767 135.421 97.8388 136.656 97.9216 138.301C98.0044 139.947 98.0872 141.717 98.17 143.61C98.2527 145.461 98.2941 147.148 98.2941 148.671V169.162H89.9128V125.093H102.702L113.194 158.793H113.381L124.494 125.093H137.283V169.162H128.529V148.3C128.529 146.901 128.55 145.297 128.591 143.486C128.674 141.676 128.736 139.968 128.777 138.363C128.86 136.717 128.922 135.483 128.964 134.66H128.715L117.292 169.162H108.662Z" fill="white"/>
<path d="M175.611 169.162L172.383 158.67H156.241L153.012 169.162H142.893L158.538 124.908H170.024L185.731 169.162H175.611ZM166.919 140.585C166.712 139.886 166.443 139.001 166.112 137.931C165.781 136.861 165.45 135.771 165.119 134.66C164.788 133.549 164.519 132.582 164.312 131.759C164.105 132.582 163.815 133.611 163.443 134.845C163.112 136.038 162.78 137.19 162.449 138.301C162.16 139.371 161.932 140.133 161.766 140.585L158.6 150.831H170.148L166.919 140.585Z" fill="white"/>
<path d="M227.664 169.162H218.29V150.152H200.72V169.162H191.345V125.093H200.72V142.375H218.29V125.093H227.664V169.162Z" fill="white"/>
<path d="M273.523 125.093V161.385H279.421V182.001H270.356V169.162H242.605V182.001H233.54V161.385H236.955C238.114 159.081 239.231 156.653 240.308 154.102C241.384 151.551 242.377 148.815 243.288 145.893C244.24 142.972 245.088 139.803 245.833 136.388C246.578 132.932 247.199 129.167 247.696 125.093H273.523ZM255.146 132.87C254.856 135.01 254.442 137.293 253.904 139.721C253.366 142.108 252.724 144.556 251.979 147.066C251.276 149.576 250.489 152.045 249.62 154.473C248.751 156.9 247.82 159.205 246.826 161.385H264.148V132.87H255.146Z" fill="white"/>
<path d="M313.36 169.162L310.132 158.67H293.99L290.762 169.162H280.642L296.287 124.908H307.773L323.48 169.162H313.36ZM304.668 140.585C304.461 139.886 304.192 139.001 303.861 137.931C303.53 136.861 303.199 135.771 302.868 134.66C302.537 133.549 302.268 132.582 302.061 131.759C301.854 132.582 301.564 133.611 301.192 134.845C300.861 136.038 300.529 137.19 300.198 138.301C299.909 139.371 299.681 140.133 299.515 140.585L296.349 150.831H307.897L304.668 140.585Z" fill="white"/>
<path d="M75.002 48.6213L126.434 -6.45134e-05L150.009 5.70223e-06V90.9009H111.37L111.37 67.6472H126.434V33.8235L75.0056 82.4449L23.5704 33.8235V67.6472H38.6402L38.6402 90.9009H0.000732422V0H23.5704L75.002 48.6213Z" fill="#F9FBFA"/>
<path d="M299.906 1.42556e-06H323.479V90.9009H299.906L299.906 1.42556e-06Z" fill="#F9FBFA"/>
<path fill-rule="evenodd" clip-rule="evenodd" d="M173.47 1.42556e-06L197.043 0L197.043 23.2537L252.761 23.2537C271.697 23.2537 287.048 38.3971 287.048 57.0773C287.048 75.7575 271.697 90.9009 252.761 90.9009H173.47L173.47 1.42556e-06ZM197.043 69.7611H252.761C259.862 69.7611 265.619 64.0824 265.619 57.0773C265.619 50.0722 259.862 44.3935 252.761 44.3935H197.043L197.043 69.7611Z" fill="#F9FBFA"/>
</svg>
