<svg width="648" height="318" fill="none" xmlns="http://www.w3.org/2000/svg"><path d="M106.496 68.465 178.839 0H212v128h-54.349V95.256h21.188V47.628l-72.338 68.465-72.347-68.465v47.628H55.35V128H1.001V0h33.153l72.342 68.465ZM422.842 0h33.157v128h-33.157V0Z" fill="#F9FBFA"/><path fill-rule="evenodd" clip-rule="evenodd" d="M245 0h33.157v32.744h78.371c26.636 0 48.228 21.324 48.228 47.628S383.164 128 356.528 128H245V0Zm33.157 98.233h78.371c9.989 0 18.086-7.997 18.086-17.86 0-9.865-8.097-17.861-18.086-17.861h-78.371v35.72Z" fill="#F9FBFA"/><path fill-rule="evenodd" clip-rule="evenodd" d="M595.967 201.288a1.91 1.91 0 0 1 .588-.306 2.27 2.27 0 0 1 .695-.107c.238 0 .474.036.694.107.221.071.421.175.589.306L619 217.17l20.467-15.882c.34-.264.802-.412 1.283-.412.481 0 .943.148 1.283.412.34.264.532.622.532.996 0 .373-.192.731-.532.995l-21.75 16.875a1.904 1.904 0 0 1-.589.306 2.268 2.268 0 0 1-1.389 0 1.91 1.91 0 0 1-.588-.306l-21.75-16.875a1.442 1.442 0 0 1-.395-.456 1.143 1.143 0 0 1-.138-.539c0-.185.047-.368.138-.539.092-.171.226-.326.395-.457Z" fill="#fff"/><path fill-rule="evenodd" clip-rule="evenodd" d="M595.967 191.442a1.91 1.91 0 0 1 .588-.306 2.27 2.27 0 0 1 .695-.107c.238 0 .474.036.694.107.221.071.421.175.589.306L619 207.324l20.467-15.882a1.91 1.91 0 0 1 .588-.306 2.305 2.305 0 0 1 1.389 0c.22.071.421.175.589.306.169.13.302.286.393.456.092.171.139.354.139.539 0 .185-.047.368-.139.539a1.436 1.436 0 0 1-.393.457l-21.75 16.875a1.904 1.904 0 0 1-.589.306c-.22.071-.456.107-.694.107a2.27 2.27 0 0 1-.695-.107 1.91 1.91 0 0 1-.588-.306l-21.75-16.875a1.456 1.456 0 0 1-.395-.457 1.143 1.143 0 0 1-.138-.539c0-.185.047-.368.138-.539.092-.171.226-.326.395-.456Z" fill="#9FD8DF"/><path fill-rule="evenodd" clip-rule="evenodd" d="M595.967 228.288a1.91 1.91 0 0 1 .588-.306 2.27 2.27 0 0 1 .695-.107c.238 0 .474.036.694.107.221.071.421.175.589.306L619 244.17l20.467-15.882c.34-.264.802-.412 1.283-.412.481 0 .943.148 1.283.412.34.264.532.622.532.996 0 .373-.192.731-.532.995l-21.75 16.875a1.904 1.904 0 0 1-.589.306 2.268 2.268 0 0 1-1.389 0 1.91 1.91 0 0 1-.588-.306l-21.75-16.875a1.442 1.442 0 0 1-.395-.456 1.143 1.143 0 0 1-.138-.539c0-.185.047-.368.138-.539.092-.171.226-.326.395-.457Z" fill="#fff"/><path fill-rule="evenodd" clip-rule="evenodd" d="M595.967 218.442a1.91 1.91 0 0 1 .588-.306 2.27 2.27 0 0 1 .695-.107c.238 0 .474.036.694.107.221.071.421.175.589.306L619 234.324l20.467-15.882a1.91 1.91 0 0 1 .588-.306 2.305 2.305 0 0 1 1.389 0c.22.071.421.175.589.306.169.13.302.286.393.456.092.171.139.354.139.539 0 .185-.047.368-.139.539a1.436 1.436 0 0 1-.393.457l-21.75 16.875a1.904 1.904 0 0 1-.589.306c-.22.071-.456.107-.694.107a2.27 2.27 0 0 1-.695-.107 1.91 1.91 0 0 1-.588-.306l-21.75-16.875a1.456 1.456 0 0 1-.395-.457 1.143 1.143 0 0 1-.138-.539c0-.185.047-.368.138-.539.092-.171.226-.326.395-.456Z" fill="#fff"/><path d="M10.075 175.875c-.95 0-1.808.167-2.575.5a5.024 5.024 0 0 0-1.95 1.425c-.533.617-.942 1.375-1.225 2.275-.283.883-.425 1.883-.425 3 0 1.467.225 2.742.675 3.825.467 1.083 1.15 1.917 2.05 2.5.917.583 2.058.875 3.425.875.783 0 1.525-.067 2.225-.2.7-.133 1.383-.3 2.05-.5v1.95c-.667.25-1.358.433-2.075.55-.7.117-1.542.175-2.525.175-1.817 0-3.333-.375-4.55-1.125-1.217-.75-2.133-1.817-2.75-3.2-.6-1.383-.9-3.008-.9-4.875 0-1.35.183-2.583.55-3.7.383-1.117.933-2.083 1.65-2.9a7.218 7.218 0 0 1 2.7-1.875c1.067-.45 2.292-.675 3.675-.675.917 0 1.8.092 2.65.275.85.183 1.608.442 2.275.775l-.9 1.9c-.55-.25-1.167-.475-1.85-.675-.667-.2-1.4-.3-2.2-.3Zm19.496 9.4c0 1.117-.15 2.108-.45 2.975-.283.85-.7 1.575-1.25 2.175a5.216 5.216 0 0 1-1.975 1.375c-.767.3-1.625.45-2.575.45-.883 0-1.7-.15-2.45-.45a5.541 5.541 0 0 1-1.95-1.375c-.55-.6-.983-1.325-1.3-2.175-.3-.867-.45-1.858-.45-2.975 0-1.483.25-2.733.75-3.75.5-1.033 1.217-1.817 2.15-2.35.933-.55 2.042-.825 3.325-.825 1.217 0 2.283.275 3.2.825.933.533 1.658 1.317 2.175 2.35.533 1.017.8 2.267.8 3.75Zm-10.125 0c0 1.05.133 1.967.4 2.75.283.767.717 1.358 1.3 1.775.583.417 1.325.625 2.225.625.9 0 1.642-.208 2.225-.625.583-.417 1.008-1.008 1.275-1.775.283-.783.425-1.7.425-2.75 0-1.067-.142-1.975-.425-2.725-.283-.75-.717-1.325-1.3-1.725-.567-.417-1.308-.625-2.225-.625-1.367 0-2.358.45-2.975 1.35-.617.9-.925 2.142-.925 3.725Zm17.137-6.925c1.016 0 1.9.142 2.65.425.75.267 1.333.667 1.75 1.2.416.517.625 1.15.625 1.9 0 .817-.225 1.467-.675 1.95-.45.467-1.067.808-1.85 1.025v.1c.533.15 1.025.358 1.475.625.45.267.808.617 1.075 1.05.283.433.425.992.425 1.675 0 .733-.209 1.4-.625 2-.4.6-1.025 1.075-1.875 1.425-.834.35-1.909.525-3.225.525a16 16 0 0 1-1.825-.1 9.916 9.916 0 0 1-1.55-.3 6.669 6.669 0 0 1-1.2-.475V189.4c.566.267 1.233.508 2 .725a9.525 9.525 0 0 0 2.55.325c.666 0 1.266-.075 1.8-.225.55-.15.983-.383 1.3-.7.316-.333.475-.783.475-1.35 0-.517-.142-.933-.425-1.25-.284-.333-.709-.583-1.275-.75-.55-.167-1.259-.25-2.125-.25h-1.8v-1.8h1.45c1.15 0 2.066-.15 2.75-.45.7-.317 1.05-.85 1.05-1.6 0-.633-.267-1.108-.8-1.425-.517-.317-1.267-.475-2.25-.475-.734 0-1.384.075-1.95.225a11.89 11.89 0 0 0-1.825.625l-.775-1.75a10.36 10.36 0 0 1 2.25-.7c.783-.15 1.591-.225 2.425-.225Zm18.68.25v11.55h1.95v6.5H55.09V192h-9.325v4.65h-2.1v-6.5h1.075a16.312 16.312 0 0 0 1.9-3.475c.516-1.267.9-2.583 1.15-3.95.266-1.383.408-2.758.425-4.125h7.05Zm-5.1 1.725a20.999 20.999 0 0 1-.524 3.525c-.284 1.2-.65 2.35-1.1 3.45-.434 1.1-.942 2.05-1.526 2.85h6.126v-9.825h-2.976Zm14.752-1.95c1.633 0 2.841.358 3.625 1.075.783.717 1.175 1.858 1.175 3.425V192h-1.6l-.425-1.9h-.1a7.623 7.623 0 0 1-1.2 1.225c-.4.317-.867.55-1.4.7-.517.15-1.15.225-1.9.225-.8 0-1.525-.142-2.175-.425a3.348 3.348 0 0 1-1.5-1.3c-.367-.6-.55-1.35-.55-2.25 0-1.333.525-2.358 1.575-3.075 1.05-.733 2.666-1.133 4.85-1.2l2.275-.075v-.8c0-1.117-.242-1.892-.725-2.325-.484-.433-1.167-.65-2.05-.65-.7 0-1.367.108-2 .325-.633.2-1.225.433-1.775.7l-.675-1.65c.583-.317 1.275-.583 2.075-.8.8-.233 1.633-.35 2.5-.35Zm.65 7.15c-1.667.067-2.825.333-3.475.8-.634.467-.95 1.125-.95 1.975 0 .75.225 1.3.675 1.65.467.35 1.058.525 1.775.525 1.133 0 2.075-.308 2.825-.925.75-.633 1.125-1.6 1.125-2.9v-1.2l-1.975.075Zm19.064-3.55c0 .833-.25 1.483-.75 1.95-.5.467-1.142.783-1.925.95v.1c.833.117 1.558.417 2.175.9.616.467.924 1.2.924 2.2 0 .567-.108 1.092-.325 1.575-.2.483-.516.9-.95 1.25-.433.35-.991.625-1.675.825-.683.183-1.508.275-2.474.275h-5.776v-13.4h5.75c.95 0 1.8.108 2.55.325.767.2 1.367.55 1.8 1.05.45.483.675 1.15.675 2Zm-1.85 6.1c0-.767-.292-1.317-.876-1.65-.583-.333-1.441-.5-2.575-.5h-3.275v4.3h3.326c1.1 0 1.941-.158 2.524-.475.584-.333.875-.892.875-1.675Zm-.376-5.825c0-.633-.233-1.092-.7-1.375-.45-.3-1.191-.45-2.225-.45h-3.424v3.675h3.025c1.083 0 1.908-.15 2.475-.45.566-.3.85-.767.85-1.4Zm10.93-3.875c1.633 0 2.841.358 3.625 1.075.783.717 1.175 1.858 1.175 3.425V192h-1.6l-.425-1.9h-.1a7.623 7.623 0 0 1-1.2 1.225c-.4.317-.867.55-1.4.7-.517.15-1.15.225-1.9.225-.8 0-1.525-.142-2.175-.425a3.348 3.348 0 0 1-1.5-1.3c-.367-.6-.55-1.35-.55-2.25 0-1.333.525-2.358 1.575-3.075 1.05-.733 2.666-1.133 4.85-1.2l2.275-.075v-.8c0-1.117-.242-1.892-.725-2.325-.483-.433-1.167-.65-2.05-.65-.7 0-1.367.108-2 .325-.633.2-1.225.433-1.775.7l-.675-1.65c.583-.317 1.275-.583 2.075-.8.8-.233 1.633-.35 2.5-.35Zm.65 7.15c-1.667.067-2.825.333-3.475.8-.633.467-.95 1.125-.95 1.975 0 .75.225 1.3.675 1.65.466.35 1.058.525 1.775.525 1.133 0 2.075-.308 2.825-.925.75-.633 1.125-1.6 1.125-2.9v-1.2l-1.975.075Zm19.138-12.475c-.066.833-.275 1.533-.625 2.1-.333.567-.833.992-1.5 1.275-.666.283-1.533.425-2.6.425-1.083 0-1.958-.142-2.625-.425-.65-.283-1.125-.7-1.425-1.25-.3-.567-.483-1.275-.55-2.125h2.05c.084.9.317 1.508.7 1.825.4.3 1.034.45 1.9.45.767 0 1.367-.158 1.8-.475.45-.333.717-.933.8-1.8h2.075Zm-8.775 13.725c0 .15-.008.367-.025.65 0 .267-.008.558-.025.875-.016.3-.033.592-.05.875-.016.267-.033.483-.05.65l7.175-11.225h2.7V192h-2.05V183.05l.05-1.275c.017-.433.034-.758.05-.975l-7.125 11.2h-2.725v-13.4h2.075v8.175Zm24.98 5.475c-1.183 0-2.241-.242-3.175-.725-.916-.483-1.641-1.233-2.175-2.25-.516-1.017-.775-2.317-.775-3.9 0-1.65.275-2.992.825-4.025.55-1.033 1.292-1.792 2.225-2.275.95-.483 2.025-.725 3.225-.725.684 0 1.342.075 1.975.225.634.133 1.15.3 1.55.5l-.675 1.825c-.4-.15-.866-.292-1.4-.425a6.213 6.213 0 0 0-1.5-.2c-.9 0-1.641.192-2.225.575-.583.383-1.016.95-1.3 1.7-.283.75-.425 1.683-.425 2.8 0 1.067.142 1.975.425 2.725.284.75.709 1.317 1.275 1.7.567.383 1.275.575 2.125.575.734 0 1.375-.075 1.925-.225a9.311 9.311 0 0 0 1.55-.55v1.95a5.93 5.93 0 0 1-1.5.525c-.533.133-1.183.2-1.95.2Zm18.287-6.975c0 1.117-.15 2.108-.45 2.975-.283.85-.7 1.575-1.25 2.175a5.216 5.216 0 0 1-1.975 1.375c-.767.3-1.625.45-2.575.45-.883 0-1.7-.15-2.45-.45a5.541 5.541 0 0 1-1.95-1.375c-.55-.6-.983-1.325-1.3-2.175-.3-.867-.45-1.858-.45-2.975 0-1.483.25-2.733.75-3.75.5-1.033 1.217-1.817 2.15-2.35.933-.55 2.042-.825 3.325-.825 1.217 0 2.283.275 3.2.825.933.533 1.658 1.317 2.175 2.35.533 1.017.8 2.267.8 3.75Zm-10.125 0c0 1.05.133 1.967.4 2.75.283.767.717 1.358 1.3 1.775.583.417 1.325.625 2.225.625.9 0 1.642-.208 2.225-.625.583-.417 1.008-1.008 1.275-1.775.283-.783.425-1.7.425-2.75 0-1.067-.142-1.975-.425-2.725-.283-.75-.717-1.325-1.3-1.725-.567-.417-1.308-.625-2.225-.625-1.367 0-2.358.45-2.975 1.35-.617.9-.925 2.142-.925 3.725Zm12.912-1.325c0-1.95.191-3.608.575-4.975.4-1.383 1.008-2.483 1.825-3.3.833-.833 1.9-1.392 3.2-1.675a88.146 88.146 0 0 1 3.175-.625c1.033-.183 2-.35 2.9-.5l.375 1.925c-.434.067-.917.15-1.45.25-.534.083-1.075.175-1.625.275a39.02 39.02 0 0 0-1.6.275c-.5.083-.942.167-1.325.25a4.307 4.307 0 0 0-1.475.6 3.7 3.7 0 0 0-1.125 1.1c-.3.467-.542 1.042-.725 1.725-.184.683-.292 1.492-.325 2.425h.15c.233-.317.55-.642.95-.975a5.985 5.985 0 0 1 1.475-.85c.583-.233 1.241-.35 1.975-.35 1.166 0 2.133.258 2.9.775.783.5 1.366 1.2 1.75 2.1.4.9.6 1.95.6 3.15 0 1.483-.259 2.725-.775 3.725-.517 1-1.234 1.75-2.15 2.25-.917.483-1.984.725-3.2.725-.917 0-1.75-.175-2.5-.525a5.363 5.363 0 0 1-1.925-1.6c-.534-.7-.942-1.567-1.225-2.6-.284-1.033-.425-2.225-.425-3.575Zm6.25 6.475c.733 0 1.366-.15 1.9-.45.55-.3.975-.792 1.275-1.475.3-.683.45-1.592.45-2.725 0-1.367-.259-2.442-.775-3.225-.5-.8-1.334-1.2-2.5-1.2-.734 0-1.4.167-2 .5-.6.317-1.1.683-1.5 1.1-.4.417-.684.767-.85 1.05 0 .817.058 1.608.175 2.375.116.767.316 1.458.6 2.075.3.6.708 1.083 1.225 1.45.533.35 1.2.525 2 .525Zm9.415 1.575v-13.4h2.2v5.5h3.475c1.167 0 2.125.142 2.875.425.75.283 1.309.708 1.675 1.275.367.55.55 1.25.55 2.1 0 .833-.183 1.558-.55 2.175-.35.617-.908 1.092-1.675 1.425-.75.333-1.741.5-2.975.5h-5.575Zm5.375-1.775c.95 0 1.725-.158 2.325-.475.6-.333.9-.908.9-1.725 0-.817-.275-1.367-.825-1.65-.55-.3-1.341-.45-2.375-.45h-3.2v4.3h3.175Zm7.625 1.775v-13.4h2.2V192h-2.2Zm15.708-11.55h-4.375V192h-2.175v-11.55h-4.325v-1.85h10.875v1.85Zm4.715 6.325c0 .15-.008.367-.025.65 0 .267-.008.558-.025.875l-.05.875a18.23 18.23 0 0 1-.05.65l7.175-11.225h2.7V192h-2.05V183.05l.05-1.275c.017-.433.033-.758.05-.975l-7.125 11.2h-2.725v-13.4h2.075v8.175ZM214.303 192h-2.55l3.825-5.625a5.836 5.836 0 0 1-1.5-.625 3.446 3.446 0 0 1-1.175-1.225c-.3-.533-.45-1.192-.45-1.975 0-1.283.433-2.258 1.3-2.925.866-.683 2.016-1.025 3.45-1.025h6V192h-2.2v-5.325h-3.25l-3.45 5.325Zm.275-9.425c0 .767.283 1.342.85 1.725.583.367 1.391.55 2.425.55h3.15v-4.425h-3.575c-1.017 0-1.75.2-2.2.6-.434.4-.65.917-.65 1.55Zm29.255-.6c0 .833-.25 1.483-.75 1.95-.5.467-1.142.783-1.925.95v.1c.833.117 1.558.417 2.175.9.616.467.925 1.2.925 2.2 0 .567-.109 1.092-.325 1.575-.2.483-.517.9-.95 1.25-.434.35-.992.625-1.675.825-.684.183-1.509.275-2.475.275h-5.775v-13.4h5.75c.95 0 1.8.108 2.55.325.766.2 1.366.55 1.8 1.05.45.483.675 1.15.675 2Zm-1.85 6.1c0-.767-.292-1.317-.875-1.65-.584-.333-1.442-.5-2.575-.5h-3.275v4.3h3.325c1.1 0 1.941-.158 2.525-.475.583-.333.875-.892.875-1.675Zm-.375-5.825c0-.633-.234-1.092-.7-1.375-.45-.3-1.192-.45-2.225-.45h-3.425v3.675h3.025c1.083 0 1.908-.15 2.475-.45.566-.3.85-.767.85-1.4Zm22.794-3.65V192h-2.2v-11.525h-6.925V192h-2.2v-13.4h11.325Zm10.651-.25c1.65 0 2.975.575 3.975 1.725 1.016 1.15 1.525 2.883 1.525 5.2 0 1.517-.234 2.8-.7 3.85-.45 1.033-1.092 1.817-1.925 2.35-.817.517-1.784.775-2.9.775-.684 0-1.292-.092-1.825-.275a5.055 5.055 0 0 1-1.375-.7 5.778 5.778 0 0 1-.95-.975h-.15c.033.283.066.642.1 1.075.033.433.05.808.05 1.125v5.5h-2.2v-19.4h1.8l.3 1.825h.1a5.63 5.63 0 0 1 .95-1.05 4.394 4.394 0 0 1 1.35-.75c.533-.183 1.158-.275 1.875-.275Zm-.4 1.85c-.9 0-1.625.175-2.175.525-.55.333-.95.842-1.2 1.525-.25.683-.384 1.55-.4 2.6v.425c0 1.1.116 2.033.35 2.8.233.767.625 1.35 1.175 1.75.566.4 1.333.6 2.3.6.816 0 1.483-.225 2-.675.533-.45.925-1.058 1.175-1.825.266-.783.4-1.675.4-2.675 0-1.533-.3-2.758-.9-3.675-.584-.917-1.492-1.375-2.725-1.375Zm11.481 6.575c0 .15-.009.367-.025.65 0 .267-.009.558-.025.875l-.05.875c-.017.267-.034.483-.05.65l7.175-11.225h2.7V192h-2.05V183.05l.05-1.275c.016-.433.033-.758.05-.975l-7.125 11.2h-2.725v-13.4h2.075v8.175ZM310.323 192h-2.225v-11.575h-3.95c-.167 2.117-.375 3.925-.625 5.425-.25 1.483-.567 2.692-.95 3.625-.383.933-.842 1.617-1.375 2.05-.533.433-1.158.65-1.875.65-.217 0-.433-.017-.65-.05a1.371 1.371 0 0 1-.5-.125v-1.65c.1.033.208.058.325.075.117.017.233.025.35.025.367 0 .7-.15 1-.45.3-.3.567-.758.8-1.375.25-.617.475-1.392.675-2.325.2-.95.375-2.067.525-3.35.15-1.283.283-2.733.4-4.35h8.075V192Zm15.903-6.725c0 1.117-.15 2.108-.45 2.975-.283.85-.7 1.575-1.25 2.175a5.208 5.208 0 0 1-1.975 1.375c-.766.3-1.625.45-2.575.45-.883 0-1.7-.15-2.45-.45a5.541 5.541 0 0 1-1.95-1.375c-.55-.6-.983-1.325-1.3-2.175-.3-.867-.45-1.858-.45-2.975 0-1.483.25-2.733.75-3.75.5-1.033 1.217-1.817 2.15-2.35.934-.55 2.042-.825 3.325-.825 1.217 0 2.284.275 3.2.825.934.533 1.659 1.317 2.175 2.35.534 1.017.8 2.267.8 3.75Zm-10.125 0c0 1.05.134 1.967.4 2.75.284.767.717 1.358 1.3 1.775.584.417 1.325.625 2.225.625.9 0 1.642-.208 2.225-.625.584-.417 1.009-1.008 1.275-1.775.284-.783.425-1.7.425-2.75 0-1.067-.141-1.975-.425-2.725-.283-.75-.716-1.325-1.3-1.725-.566-.417-1.308-.625-2.225-.625-1.366 0-2.358.45-2.975 1.35-.616.9-.925 2.142-.925 3.725ZM345.3 178.6l-5.525 6.5 6 6.9h-2.5l-5.8-6.8v6.8h-2.05v-6.8l-5.8 6.8h-2.5l6-6.9-5.525-6.5h2.4l5.425 6.5v-6.5h2.05v6.5l5.45-6.5h2.375Zm7.361-.25c1.15 0 2.134.25 2.95.75.834.5 1.467 1.208 1.9 2.125.45.9.675 1.958.675 3.175v1.325h-9.175c.034 1.517.417 2.675 1.15 3.475.75.783 1.792 1.175 3.125 1.175.85 0 1.6-.075 2.25-.225.667-.167 1.35-.4 2.05-.7v1.925c-.683.3-1.358.517-2.025.65-.666.15-1.458.225-2.375.225-1.266 0-2.391-.258-3.375-.775-.966-.517-1.725-1.283-2.275-2.3-.533-1.033-.8-2.292-.8-3.775 0-1.467.242-2.725.725-3.775.5-1.05 1.192-1.858 2.075-2.425.9-.567 1.942-.85 3.125-.85Zm-.025 1.8c-1.05 0-1.883.342-2.5 1.025-.6.667-.958 1.6-1.075 2.8h6.825c0-.767-.116-1.433-.35-2a2.819 2.819 0 0 0-1.075-1.325c-.466-.333-1.075-.5-1.825-.5Zm11.162-1.55v5.575h7.275V178.6h2.2V192h-2.2v-5.975h-7.275V192h-2.2v-13.4h2.2Zm15.793 8.175c0 .15-.009.367-.025.65 0 .267-.009.558-.025.875l-.05.875c-.017.267-.034.483-.05.65l7.175-11.225h2.7V192h-2.05V183.05l.05-1.275c.016-.433.033-.758.05-.975l-7.125 11.2h-2.725v-13.4h2.075v8.175Zm16.064 0c0 .15-.008.367-.025.65 0 .267-.008.558-.025.875l-.05.875a18.23 18.23 0 0 1-.05.65l7.175-11.225h2.7V192h-2.05V183.05l.05-1.275c.017-.433.033-.758.05-.975l-7.125 11.2h-2.725v-13.4h2.075v8.175Zm21.805 3.275-3.975-5.15 3.975-5.15h2.725l-3.975 5.15 3.975 5.15h-2.725Zm6.5 0-3.975-5.15 3.975-5.15h2.725l-3.975 5.15 3.975 5.15h-2.725Zm14.026 1.95-5.875-15.65h-.1c.033.333.058.758.075 1.275.033.517.058 1.083.075 1.7.016.6.025 1.217.025 1.85V192h-2.075v-17.85h3.325l5.5 14.625h.1l5.6-14.625h3.3V192h-2.225v-10.975c0-.583.008-1.158.025-1.725.016-.583.041-1.125.075-1.625.033-.517.058-.95.075-1.3h-.1L439.836 192h-1.85Zm14.805 0v-17.85h2.25v7.55h2.75c1.667 0 2.975.225 3.925.675.967.45 1.65 1.058 2.05 1.825.417.767.625 1.625.625 2.575 0 1.05-.225 1.967-.675 2.75-.433.783-1.116 1.392-2.05 1.825-.933.433-2.133.65-3.6.65h-5.275Zm5.075-1.9c1.434 0 2.492-.275 3.175-.825.684-.55 1.025-1.383 1.025-2.5 0-.767-.166-1.375-.5-1.825-.316-.45-.808-.775-1.475-.975-.666-.2-1.516-.3-2.55-.3h-2.5v6.425h2.825Zm9.275 1.9v-17.85h2.25V192h-2.25Zm12.21-1.95 3.975-5.15-3.975-5.15h2.725l3.975 5.15-3.975 5.15h-2.725Zm-6.5 0 3.975-5.15-3.975-5.15h2.725l3.975 5.15-3.975 5.15h-2.725ZM12.9 211.975c0 .833-.25 1.483-.75 1.95-.5.467-1.142.783-1.925.95v.1c.833.117 1.558.417 2.175.9.617.467.925 1.2.925 2.2 0 .567-.108 1.092-.325 1.575-.2.483-.517.9-.95 1.25-.433.35-.992.625-1.675.825-.683.183-1.508.275-2.475.275H2.125v-13.4h5.75c.95 0 1.8.108 2.55.325.767.2 1.367.55 1.8 1.05.45.483.675 1.15.675 2Zm-1.85 6.1c0-.767-.292-1.317-.875-1.65-.583-.333-1.442-.5-2.575-.5H4.325v4.3H7.65c1.1 0 1.942-.158 2.525-.475.583-.333.875-.892.875-1.675Zm-.375-5.825c0-.633-.233-1.092-.7-1.375-.45-.3-1.192-.45-2.225-.45H4.325v3.675H7.35c1.083 0 1.908-.15 2.475-.45.567-.3.85-.767.85-1.4Zm19.395-3.65h2.4l-5.726 6.45 6.2 6.95h-2.55l-6.05-6.8v6.8h-2.2v-13.4h2.2v6.5l5.726-6.5Zm10.382-.225c1.633 0 2.842.358 3.625 1.075.783.717 1.175 1.858 1.175 3.425V222h-1.6l-.425-1.9h-.1a7.631 7.631 0 0 1-1.2 1.225c-.4.317-.867.55-1.4.7-.517.15-1.15.225-1.9.225-.8 0-1.525-.142-2.175-.425a3.347 3.347 0 0 1-1.5-1.3c-.367-.6-.55-1.35-.55-2.25 0-1.333.525-2.358 1.575-3.075 1.05-.733 2.667-1.133 4.85-1.2l2.275-.075v-.8c0-1.117-.242-1.892-.725-2.325-.483-.433-1.167-.65-2.05-.65-.7 0-1.367.108-2 .325-.633.2-1.225.433-1.775.7l-.675-1.65c.583-.317 1.275-.583 2.075-.8.8-.233 1.633-.35 2.5-.35Zm.65 7.15c-1.667.067-2.825.333-3.475.8-.633.467-.95 1.125-.95 1.975 0 .75.225 1.3.675 1.65.467.35 1.058.525 1.775.525 1.133 0 2.075-.308 2.825-.925.75-.633 1.125-1.6 1.125-2.9v-1.2l-1.975.075Zm17.539-5.075h-4.375V222H52.09v-11.55h-4.325v-1.85H58.64v1.85Zm7.57-2.1c1.15 0 2.133.25 2.95.75.834.5 1.467 1.208 1.9 2.125.45.9.675 1.958.675 3.175v1.325h-9.175c.033 1.517.417 2.675 1.15 3.475.75.783 1.792 1.175 3.125 1.175.85 0 1.6-.075 2.25-.225.667-.167 1.35-.4 2.05-.7v1.925c-.683.3-1.358.517-2.025.65-.666.15-1.458.225-2.375.225-1.267 0-2.392-.258-3.375-.775-.966-.517-1.725-1.283-2.275-2.3-.533-1.033-.8-2.292-.8-3.775 0-1.467.242-2.725.725-3.775.5-1.05 1.192-1.858 2.075-2.425.9-.567 1.942-.85 3.125-.85Zm-.025 1.8c-1.05 0-1.883.342-2.5 1.025-.6.667-.958 1.6-1.075 2.8h6.825c0-.767-.117-1.433-.35-2a2.824 2.824 0 0 0-1.075-1.325c-.466-.333-1.075-.5-1.825-.5Zm17.136-1.55v1.85h-5.975V222h-2.2v-13.4h8.175Zm14.047 6.675c0 1.117-.15 2.108-.45 2.975-.284.85-.7 1.575-1.25 2.175a5.217 5.217 0 0 1-1.975 1.375c-.767.3-1.625.45-2.575.45-.884 0-1.7-.15-2.45-.45a5.541 5.541 0 0 1-1.95-1.375c-.55-.6-.984-1.325-1.3-2.175-.3-.867-.45-1.858-.45-2.975 0-1.483.25-2.733.75-3.75.5-1.033 1.216-1.817 2.15-2.35.933-.55 2.041-.825 3.325-.825 1.216 0 2.283.275 3.2.825.933.533 1.658 1.317 2.175 2.35.533 1.017.8 2.267.8 3.75Zm-10.125 0c0 1.05.133 1.967.4 2.75.283.767.716 1.358 1.3 1.775.583.417 1.325.625 2.225.625.9 0 1.641-.208 2.225-.625.583-.417 1.008-1.008 1.275-1.775.283-.783.425-1.7.425-2.75 0-1.067-.142-1.975-.425-2.725-.284-.75-.717-1.325-1.3-1.725-.567-.417-1.309-.625-2.225-.625-1.367 0-2.359.45-2.975 1.35-.617.9-.925 2.142-.925 3.725Zm19.986-6.925c1.65 0 2.975.575 3.975 1.725 1.017 1.15 1.525 2.883 1.525 5.2 0 1.517-.233 2.8-.7 3.85-.45 1.033-1.091 1.817-1.925 2.35-.816.517-1.783.775-2.9.775-.683 0-1.291-.092-1.825-.275a5.084 5.084 0 0 1-1.375-.7 5.856 5.856 0 0 1-.95-.975h-.15c.034.283.067.642.1 1.075.034.433.05.808.05 1.125v5.5h-2.2v-19.4h1.8l.3 1.825h.1a5.7 5.7 0 0 1 .95-1.05 4.418 4.418 0 0 1 1.35-.75c.534-.183 1.159-.275 1.875-.275Zm-.4 1.85c-.9 0-1.625.175-2.175.525-.55.333-.95.842-1.2 1.525-.25.683-.383 1.55-.4 2.6v.425c0 1.1.117 2.033.35 2.8.234.767.625 1.35 1.175 1.75.567.4 1.334.6 2.3.6.817 0 1.484-.225 2-.675.534-.45.925-1.058 1.175-1.825.267-.783.4-1.675.4-2.675 0-1.533-.3-2.758-.9-3.675-.583-.917-1.491-1.375-2.725-1.375Zm11.481 6.575c0 .15-.008.367-.025.65 0 .267-.008.558-.025.875-.016.3-.033.592-.05.875-.016.267-.033.483-.05.65l7.175-11.225h2.7V222h-2.05V213.05l.05-1.275c.017-.433.034-.758.05-.975l-7.125 11.2h-2.725v-13.4h2.075v8.175ZM133.126 222h-2.55l3.825-5.625a5.836 5.836 0 0 1-1.5-.625 3.446 3.446 0 0 1-1.175-1.225c-.3-.533-.45-1.192-.45-1.975 0-1.283.433-2.258 1.3-2.925.866-.683 2.016-1.025 3.45-1.025h6V222h-2.2v-5.325h-3.25l-3.45 5.325Zm.275-9.425c0 .767.283 1.342.85 1.725.583.367 1.391.55 2.425.55h3.15v-4.425h-3.575c-1.017 0-1.75.2-2.2.6-.434.4-.65.917-.65 1.55Zm16.04 2.575-4.625-6.55h2.5l3.45 5.05 3.425-5.05h2.475l-4.625 6.55 4.875 6.85h-2.5l-3.65-5.35-3.7 5.35h-2.475l4.85-6.85Zm17.872 4.9-3.975-5.15 3.975-5.15h2.725l-3.975 5.15 3.975 5.15h-2.725Zm6.5 0-3.975-5.15 3.975-5.15h2.725l-3.975 5.15 3.975 5.15h-2.725Zm13.801-14.175c-.95 0-1.808.167-2.575.5a5.019 5.019 0 0 0-1.95 1.425c-.533.617-.942 1.375-1.225 2.275-.283.883-.425 1.883-.425 3 0 1.467.225 2.742.675 3.825.467 1.083 1.15 1.917 2.05 2.5.917.583 2.058.875 3.425.875.783 0 1.525-.067 2.225-.2.7-.133 1.383-.3 2.05-.5v1.95c-.667.25-1.358.433-2.075.55-.7.117-1.542.175-2.525.175-1.817 0-3.333-.375-4.55-1.125-1.217-.75-2.133-1.817-2.75-3.2-.6-1.383-.9-3.008-.9-4.875 0-1.35.183-2.583.55-3.7.383-1.117.933-2.083 1.65-2.9a7.213 7.213 0 0 1 2.7-1.875c1.067-.45 2.292-.675 3.675-.675.917 0 1.8.092 2.65.275.85.183 1.608.442 2.275.775l-.9 1.9a13.96 13.96 0 0 0-1.85-.675c-.667-.2-1.4-.3-2.2-.3Zm17.796 2.725v11.55h1.95v6.5h-2.125V222h-9.325v4.65h-2.1v-6.5h1.075a16.294 16.294 0 0 0 1.9-3.475c.517-1.267.9-2.583 1.15-3.95.267-1.383.408-2.758.425-4.125h7.05Zm-5.1 1.725a21.06 21.06 0 0 1-.525 3.525 23.1 23.1 0 0 1-1.1 3.45c-.433 1.1-.942 2.05-1.525 2.85h6.125v-9.825h-2.975Zm14.851-1.975c1.15 0 2.134.25 2.95.75.834.5 1.467 1.208 1.9 2.125.45.9.675 1.958.675 3.175v1.325h-9.175c.034 1.517.417 2.675 1.15 3.475.75.783 1.792 1.175 3.125 1.175.85 0 1.6-.075 2.25-.225.667-.167 1.35-.4 2.05-.7v1.925c-.683.3-1.358.517-2.025.65-.666.15-1.458.225-2.375.225-1.266 0-2.391-.258-3.375-.775-.966-.517-1.725-1.283-2.275-2.3-.533-1.033-.8-2.292-.8-3.775 0-1.467.242-2.725.725-3.775.5-1.05 1.192-1.858 2.075-2.425.9-.567 1.942-.85 3.125-.85Zm-.025 1.8c-1.05 0-1.883.342-2.5 1.025-.6.667-.958 1.6-1.075 2.8h6.825c0-.767-.116-1.433-.35-2a2.819 2.819 0 0 0-1.075-1.325c-.466-.333-1.075-.5-1.825-.5ZM234.298 222h-2.225v-11.575h-3.95c-.167 2.117-.375 3.925-.625 5.425-.25 1.483-.567 2.692-.95 3.625-.384.933-.842 1.617-1.375 2.05a2.888 2.888 0 0 1-1.875.65c-.217 0-.434-.017-.65-.05a1.371 1.371 0 0 1-.5-.125v-1.65c.1.033.208.058.325.075.116.017.233.025.35.025.366 0 .7-.15 1-.45.3-.3.566-.758.8-1.375.25-.617.475-1.392.675-2.325.2-.95.375-2.067.525-3.35.15-1.283.283-2.733.4-4.35h8.075V222Zm9.328-13.625c1.633 0 2.841.358 3.625 1.075.783.717 1.175 1.858 1.175 3.425V222h-1.6l-.425-1.9h-.1a7.682 7.682 0 0 1-1.2 1.225c-.4.317-.867.55-1.4.7-.517.15-1.15.225-1.9.225-.8 0-1.525-.142-2.175-.425a3.34 3.34 0 0 1-1.5-1.3c-.367-.6-.55-1.35-.55-2.25 0-1.333.525-2.358 1.575-3.075 1.05-.733 2.666-1.133 4.85-1.2l2.275-.075v-.8c0-1.117-.242-1.892-.725-2.325-.484-.433-1.167-.65-2.05-.65-.7 0-1.367.108-2 .325-.634.2-1.225.433-1.775.7l-.675-1.65c.583-.317 1.275-.583 2.075-.8.8-.233 1.633-.35 2.5-.35Zm.65 7.15c-1.667.067-2.825.333-3.475.8-.634.467-.95 1.125-.95 1.975 0 .75.225 1.3.675 1.65.466.35 1.058.525 1.775.525 1.133 0 2.075-.308 2.825-.925.75-.633 1.125-1.6 1.125-2.9v-1.2l-1.975.075Zm19.138-12.475c-.066.833-.275 1.533-.625 2.1-.333.567-.833.992-1.5 1.275-.666.283-1.533.425-2.6.425-1.083 0-1.958-.142-2.625-.425-.65-.283-1.125-.7-1.425-1.25-.3-.567-.483-1.275-.55-2.125h2.05c.084.9.317 1.508.7 1.825.4.3 1.034.45 1.9.45.767 0 1.367-.158 1.8-.475.45-.333.717-.933.8-1.8h2.075Zm-8.775 13.725c0 .15-.008.367-.025.65 0 .267-.008.558-.025.875-.016.3-.033.592-.05.875-.016.267-.033.483-.05.65l7.175-11.225h2.7V222h-2.05V213.05l.05-1.275c.017-.433.034-.758.05-.975l-7.125 11.2h-2.725v-13.4h2.075v8.175Zm19.39 3.275 3.975-5.15-3.975-5.15h2.725l3.975 5.15-3.975 5.15h-2.725Zm-6.5 0 3.975-5.15-3.975-5.15h2.725l3.975 5.15-3.975 5.15h-2.725Zm16.4 4.625h-1.425l.9-2.675h-.875v-2.65h2.7v2.4l-1.3 2.925Zm12.486-4.625-3.975-5.15 3.975-5.15h2.725l-3.975 5.15 3.975 5.15h-2.725Zm6.5 0-3.975-5.15 3.975-5.15h2.725l-3.975 5.15 3.975 5.15h-2.725Zm10.876-15.9c2.333 0 4.033.458 5.1 1.375 1.066.917 1.6 2.208 1.6 3.875 0 .733-.125 1.442-.375 2.125a4.62 4.62 0 0 1-1.175 1.8c-.55.533-1.284.958-2.2 1.275-.917.3-2.042.45-3.375.45h-2.05V222h-2.25v-17.85h4.725Zm-.2 1.925h-2.275v7.05h1.8c1.133 0 2.075-.117 2.825-.35.75-.25 1.308-.642 1.675-1.175.366-.533.55-1.233.55-2.1 0-1.15-.367-2.008-1.1-2.575-.734-.567-1.892-.85-3.475-.85Zm15.386 2.3c1.634 0 2.842.358 3.625 1.075.784.717 1.175 1.858 1.175 3.425V222h-1.6l-.425-1.9h-.1a7.598 7.598 0 0 1-1.2 1.225c-.4.317-.866.55-1.4.7-.516.15-1.15.225-1.9.225-.8 0-1.525-.142-2.175-.425a3.351 3.351 0 0 1-1.5-1.3c-.366-.6-.55-1.35-.55-2.25 0-1.333.525-2.358 1.575-3.075 1.05-.733 2.667-1.133 4.85-1.2l2.275-.075v-.8c0-1.117-.241-1.892-.725-2.325-.483-.433-1.166-.65-2.05-.65-.7 0-1.366.108-2 .325-.633.2-1.225.433-1.775.7l-.675-1.65c.584-.317 1.275-.583 2.075-.8.8-.233 1.634-.35 2.5-.35Zm.65 7.15c-1.666.067-2.825.333-3.475.8-.633.467-.95 1.125-.95 1.975 0 .75.225 1.3.675 1.65.467.35 1.059.525 1.775.525 1.134 0 2.075-.308 2.825-.925.75-.633 1.125-1.6 1.125-2.9v-1.2l-1.975.075Zm13.664 6.725c-1.183 0-2.242-.242-3.175-.725-.917-.483-1.642-1.233-2.175-2.25-.517-1.017-.775-2.317-.775-3.9 0-1.65.275-2.992.825-4.025.55-1.033 1.292-1.792 2.225-2.275.95-.483 2.025-.725 3.225-.725.683 0 1.342.075 1.975.225.633.133 1.15.3 1.55.5l-.675 1.825c-.4-.15-.867-.292-1.4-.425a6.213 6.213 0 0 0-1.5-.2c-.9 0-1.642.192-2.225.575-.583.383-1.017.95-1.3 1.7-.283.75-.425 1.683-.425 2.8 0 1.067.142 1.975.425 2.725.283.75.708 1.317 1.275 1.7s1.275.575 2.125.575c.733 0 1.375-.075 1.925-.225a9.344 9.344 0 0 0 1.55-.55v1.95a5.93 5.93 0 0 1-1.5.525c-.533.133-1.183.2-1.95.2Zm12.012 0c-1.184 0-2.242-.242-3.175-.725-.917-.483-1.642-1.233-2.175-2.25-.517-1.017-.775-2.317-.775-3.9 0-1.65.275-2.992.825-4.025.55-1.033 1.291-1.792 2.225-2.275.95-.483 2.025-.725 3.225-.725.683 0 1.341.075 1.975.225.633.133 1.15.3 1.55.5l-.675 1.825c-.4-.15-.867-.292-1.4-.425a6.226 6.226 0 0 0-1.5-.2c-.9 0-1.642.192-2.225.575-.584.383-1.017.95-1.3 1.7-.284.75-.425 1.683-.425 2.8 0 1.067.141 1.975.425 2.725.283.75.708 1.317 1.275 1.7.566.383 1.275.575 2.125.575.733 0 1.375-.075 1.925-.225a9.376 9.376 0 0 0 1.55-.55v1.95a5.93 5.93 0 0 1-1.5.525c-.534.133-1.184.2-1.95.2Zm14.561-13.65h2.4l-5.725 6.45 6.2 6.95h-2.55l-6.05-6.8v6.8h-2.2v-13.4h2.2v6.5l5.725-6.5Zm10.383-.225c1.633 0 2.842.358 3.625 1.075.783.717 1.175 1.858 1.175 3.425V222h-1.6l-.425-1.9h-.1a7.598 7.598 0 0 1-1.2 1.225c-.4.317-.867.55-1.4.7-.517.15-1.15.225-1.9.225-.8 0-1.525-.142-2.175-.425a3.351 3.351 0 0 1-1.5-1.3c-.367-.6-.55-1.35-.55-2.25 0-1.333.525-2.358 1.575-3.075 1.05-.733 2.667-1.133 4.85-1.2l2.275-.075v-.8c0-1.117-.242-1.892-.725-2.325-.483-.433-1.167-.65-2.05-.65-.7 0-1.367.108-2 .325-.633.2-1.225.433-1.775.7l-.675-1.65c.583-.317 1.275-.583 2.075-.8.8-.233 1.633-.35 2.5-.35Zm.65 7.15c-1.667.067-2.825.333-3.475.8-.633.467-.95 1.125-.95 1.975 0 .75.225 1.3.675 1.65.467.35 1.058.525 1.775.525 1.133 0 2.075-.308 2.825-.925.75-.633 1.125-1.6 1.125-2.9v-1.2l-1.975.075Zm24.364-6.925-5.525 6.5 6 6.9h-2.5l-5.8-6.8v6.8h-2.05v-6.8l-5.8 6.8h-2.5l6-6.9-5.525-6.5h2.4l5.425 6.5v-6.5h2.05v6.5l5.45-6.5h2.375Zm4.75 8.175c0 .15-.009.367-.025.65 0 .267-.009.558-.025.875l-.05.875c-.017.267-.034.483-.05.65l7.175-11.225h2.7V222h-2.05V213.05l.05-1.275c.016-.433.033-.758.05-.975l-7.125 11.2h-2.725v-13.4h2.075v8.175Zm19.389 3.275 3.975-5.15-3.975-5.15h2.725l3.975 5.15-3.975 5.15H429.4Zm-6.5 0 3.975-5.15-3.975-5.15h2.725l3.975 5.15-3.975 5.15H422.9Zm16.4 4.625h-1.425l.9-2.675h-.875v-2.65h2.7v2.4l-1.3 2.925ZM4.325 250.05.35 244.9l3.975-5.15H7.05l-3.975 5.15 3.975 5.15H4.325Zm6.5 0L6.85 244.9l3.975-5.15h2.725l-3.975 5.15 3.975 5.15h-2.725Zm13.626-3.125c-.534 1.183-1.075 2.175-1.625 2.975-.534.783-1.167 1.375-1.9 1.775-.734.383-1.667.575-2.8.575-.467 0-.909-.033-1.325-.1a6.63 6.63 0 0 1-1.1-.275v-2.225c.333.15.691.275 1.075.375.383.083.783.125 1.2.125.616 0 1.141-.083 1.575-.25a2.98 2.98 0 0 0 1.175-.875c.35-.4.675-.933.975-1.6l-6.875-13.275H17.3l4.975 9.825c.066.117.133.258.2.425.066.15.133.308.2.475.083.167.15.325.2.475h.1c.05-.117.1-.25.15-.4.066-.167.125-.325.175-.475.066-.167.125-.308.175-.425l4.3-9.9h2.375l-5.7 12.775Zm9.262-3.45c0 .783.217 1.367.65 1.75.45.367 1.092.55 1.925.55s1.592-.125 2.275-.375a13.77 13.77 0 0 0 2.1-1.05v-5.75h2.2V252h-2.2v-5.975a12.32 12.32 0 0 1-2.225 1.15c-.717.267-1.583.4-2.6.4-1.367 0-2.433-.358-3.2-1.075-.75-.717-1.125-1.675-1.125-2.875V238.6h2.2v4.875Zm18.482-5.1c1.633 0 2.842.358 3.625 1.075.783.717 1.175 1.858 1.175 3.425V252h-1.6l-.425-1.9h-.1a7.623 7.623 0 0 1-1.2 1.225c-.4.317-.867.55-1.4.7-.517.15-1.15.225-1.9.225-.8 0-1.525-.142-2.175-.425a3.348 3.348 0 0 1-1.5-1.3c-.367-.6-.55-1.35-.55-2.25 0-1.333.525-2.358 1.575-3.075 1.05-.733 2.667-1.133 4.85-1.2l2.275-.075v-.8c0-1.117-.242-1.892-.725-2.325-.483-.433-1.166-.65-2.05-.65-.7 0-1.367.108-2 .325-.633.2-1.225.433-1.775.7l-.675-1.65c.584-.317 1.275-.583 2.075-.8.8-.233 1.633-.35 2.5-.35Zm.65 7.15c-1.666.067-2.825.333-3.475.8-.633.467-.95 1.125-.95 1.975 0 .75.225 1.3.675 1.65.467.35 1.059.525 1.775.525 1.134 0 2.075-.308 2.825-.925.75-.633 1.125-1.6 1.125-2.9v-1.2l-1.975.075Zm13.664 6.725c-1.183 0-2.242-.242-3.175-.725-.917-.483-1.642-1.233-2.175-2.25-.517-1.017-.775-2.317-.775-3.9 0-1.65.275-2.992.825-4.025.55-1.033 1.291-1.792 2.225-2.275.95-.483 2.025-.725 3.225-.725.683 0 1.341.075 1.975.225.633.133 1.15.3 1.55.5l-.675 1.825c-.4-.15-.867-.292-1.4-.425a6.217 6.217 0 0 0-1.5-.2c-.9 0-1.642.192-2.225.575-.584.383-1.017.95-1.3 1.7-.284.75-.425 1.683-.425 2.8 0 1.067.142 1.975.425 2.725.283.75.708 1.317 1.275 1.7s1.275.575 2.125.575c.733 0 1.375-.075 1.925-.225a9.344 9.344 0 0 0 1.55-.55v1.95a5.93 5.93 0 0 1-1.5.525c-.534.133-1.184.2-1.95.2Zm15.886-11.8h-4.374V252h-2.175v-11.55H71.52v-1.85h10.876v1.85Zm13.415 1.525c0 .833-.25 1.483-.75 1.95-.5.467-1.142.783-1.925.95v.1c.834.117 1.558.417 2.175.9.617.467.925 1.2.925 2.2 0 .567-.108 1.092-.325 1.575-.2.483-.516.9-.95 1.25-.433.35-.991.625-1.675.825-.683.183-1.508.275-2.475.275h-5.775v-13.4h5.75c.95 0 1.8.108 2.55.325.767.2 1.367.55 1.8 1.05.45.483.675 1.15.675 2Zm-1.85 6.1c0-.767-.291-1.317-.875-1.65-.583-.333-1.441-.5-2.575-.5h-3.275v4.3h3.325c1.1 0 1.942-.158 2.525-.475.584-.333.875-.892.875-1.675Zm-.375-5.825c0-.633-.233-1.092-.7-1.375-.45-.3-1.192-.45-2.225-.45h-3.425v3.675h3.025c1.084 0 1.908-.15 2.475-.45.567-.3.85-.767.85-1.4Zm3.755-3.65h2.35l2.899 7.625c.167.45.317.883.45 1.3.15.417.284.825.4 1.225.117.383.209.758.275 1.125h.1c.1-.417.259-.958.475-1.625.217-.683.442-1.367.675-2.05l2.725-7.6h2.375l-5.775 15.25a9.817 9.817 0 0 1-1.125 2.175 4.279 4.279 0 0 1-1.55 1.45c-.6.35-1.333.525-2.2.525-.4 0-.75-.025-1.05-.075a6.799 6.799 0 0 1-.775-.125v-1.75c.184.033.4.067.65.1.267.033.542.05.825.05.517 0 .959-.1 1.325-.3a2.55 2.55 0 0 0 .975-.825c.267-.35.492-.767.675-1.25l.7-1.775-5.4-13.45Zm25.694-5.55c-.067.833-.275 1.533-.625 2.1-.334.567-.834.992-1.5 1.275-.667.283-1.534.425-2.6.425-1.084 0-1.959-.142-2.625-.425-.65-.283-1.125-.7-1.425-1.25-.3-.567-.484-1.275-.55-2.125h2.05c.083.9.316 1.508.7 1.825.4.3 1.033.45 1.9.45.766 0 1.366-.158 1.8-.475.45-.333.716-.933.8-1.8h2.075Zm-8.775 13.725c0 .15-.009.367-.025.65 0 .267-.009.558-.025.875l-.05.875c-.017.267-.034.483-.05.65l7.175-11.225h2.7V252h-2.05V243.05l.05-1.275c.016-.433.033-.758.05-.975l-7.125 11.2h-2.725v-13.4h2.075v8.175Zm19.389 3.275 3.975-5.15-3.975-5.15h2.725l3.975 5.15-3.975 5.15h-2.725Zm-6.5 0 3.975-5.15-3.975-5.15h2.725l3.975 5.15-3.975 5.15h-2.725Zm22.015 4.625h-1.425l.9-2.675h-.875v-2.65h2.7v2.4l-1.3 2.925Zm12.361-7.9c0 .15-.008.367-.025.65 0 .267-.008.558-.025.875-.016.3-.033.592-.05.875-.016.267-.033.483-.05.65l7.175-11.225h2.7V252h-2.05V243.05l.05-1.275c.017-.433.034-.758.05-.975l-7.125 11.2h-2.725v-13.4h2.075v8.175Zm24.19 5.225h-2.225v-11.575h-3.95c-.167 2.117-.375 3.925-.625 5.425-.25 1.483-.567 2.692-.95 3.625-.384.933-.842 1.617-1.375 2.05a2.888 2.888 0 0 1-1.875.65c-.217 0-.434-.017-.65-.05a1.371 1.371 0 0 1-.5-.125v-1.65c.1.033.208.058.325.075.116.017.233.025.35.025.366 0 .7-.15 1-.45.3-.3.566-.758.8-1.375.25-.617.475-1.392.675-2.325.2-.95.375-2.067.525-3.35.15-1.283.283-2.733.4-4.35h8.075V252Zm6.328-5.225c0 .15-.009.367-.025.65 0 .267-.009.558-.025.875l-.05.875c-.017.267-.034.483-.05.65l7.175-11.225h2.7V252h-2.05V243.05l.05-1.275c.016-.433.033-.758.05-.975l-7.125 11.2h-2.725v-13.4h2.075v8.175Zm24.979 5.475c-1.183 0-2.241-.242-3.175-.725-.916-.483-1.641-1.233-2.175-2.25-.516-1.017-.775-2.317-.775-3.9 0-1.65.275-2.992.825-4.025.55-1.033 1.292-1.792 2.225-2.275.95-.483 2.025-.725 3.225-.725.684 0 1.342.075 1.975.225.634.133 1.15.3 1.55.5l-.675 1.825c-.4-.15-.866-.292-1.4-.425a6.213 6.213 0 0 0-1.5-.2c-.9 0-1.641.192-2.225.575-.583.383-1.016.95-1.3 1.7-.283.75-.425 1.683-.425 2.8 0 1.067.142 1.975.425 2.725.284.75.709 1.317 1.275 1.7.567.383 1.275.575 2.125.575.734 0 1.375-.075 1.925-.225a9.311 9.311 0 0 0 1.55-.55v1.95a5.93 5.93 0 0 1-1.5.525c-.533.133-1.183.2-1.95.2Zm11.712-13.875c1.634 0 2.842.358 3.625 1.075.784.717 1.175 1.858 1.175 3.425V252h-1.6l-.425-1.9h-.1a7.598 7.598 0 0 1-1.2 1.225c-.4.317-.866.55-1.4.7-.516.15-1.15.225-1.9.225-.8 0-1.525-.142-2.175-.425a3.351 3.351 0 0 1-1.5-1.3c-.366-.6-.55-1.35-.55-2.25 0-1.333.525-2.358 1.575-3.075 1.05-.733 2.667-1.133 4.85-1.2l2.275-.075v-.8c0-1.117-.241-1.892-.725-2.325-.483-.433-1.166-.65-2.05-.65-.7 0-1.366.108-2 .325-.633.2-1.225.433-1.775.7l-.675-1.65c.584-.317 1.275-.583 2.075-.8.8-.233 1.634-.35 2.5-.35Zm.65 7.15c-1.666.067-2.825.333-3.475.8-.633.467-.95 1.125-.95 1.975 0 .75.225 1.3.675 1.65.467.35 1.059.525 1.775.525 1.134 0 2.075-.308 2.825-.925.75-.633 1.125-1.6 1.125-2.9v-1.2l-1.975.075Zm22.664-6.925V252h-1.975v-8.55c0-.35.008-.717.025-1.1.033-.383.067-.758.1-1.125h-.075L245.747 252h-1.85l-4.25-10.775h-.075c.033.367.05.742.05 1.125.017.383.025.775.025 1.175V252h-1.975v-13.4h2.925l4.225 10.775 4.3-10.775h2.925Zm21.217 0V252h-2.2v-11.525h-6.925V252h-2.2v-13.4h11.325Zm10.651-.25c1.65 0 2.975.575 3.975 1.725 1.017 1.15 1.525 2.883 1.525 5.2 0 1.517-.233 2.8-.7 3.85-.45 1.033-1.092 1.817-1.925 2.35-.817.517-1.783.775-2.9.775-.683 0-1.292-.092-1.825-.275a5.07 5.07 0 0 1-1.375-.7 5.817 5.817 0 0 1-.95-.975h-.15c.033.283.067.642.1 1.075.033.433.05.808.05 1.125v5.5h-2.2v-19.4h1.8l.3 1.825h.1c.267-.383.583-.733.95-1.05a4.394 4.394 0 0 1 1.35-.75c.533-.183 1.158-.275 1.875-.275Zm-.4 1.85c-.9 0-1.625.175-2.175.525-.55.333-.95.842-1.2 1.525-.25.683-.383 1.55-.4 2.6v.425c0 1.1.117 2.033.35 2.8.233.767.625 1.35 1.175 1.75.567.4 1.333.6 2.3.6.817 0 1.483-.225 2-.675.533-.45.925-1.058 1.175-1.825.267-.783.4-1.675.4-2.675 0-1.533-.3-2.758-.9-3.675-.583-.917-1.492-1.375-2.725-1.375Zm11.481 6.575c0 .15-.008.367-.025.65 0 .267-.008.558-.025.875l-.05.875a18.23 18.23 0 0 1-.05.65l7.175-11.225h2.7V252h-2.05V243.05l.05-1.275c.017-.433.033-.758.05-.975l-7.125 11.2h-2.725v-13.4h2.075v8.175Zm16.189-8.175v5.575h7.275V238.6h2.2V252h-2.2v-5.975h-7.275V252h-2.2v-13.4h2.2Zm15.793 8.175c0 .15-.008.367-.025.65 0 .267-.008.558-.025.875-.016.3-.033.592-.05.875-.016.267-.033.483-.05.65l7.175-11.225h2.7V252h-2.05V243.05l.05-1.275c.017-.433.034-.758.05-.975l-7.125 11.2h-2.725v-13.4h2.075v8.175Zm28.365-8.175V252h-1.975v-8.55c0-.35.008-.717.025-1.1.033-.383.066-.758.1-1.125h-.075L349.043 252h-1.85l-4.25-10.775h-.075c.033.367.05.742.05 1.125.016.383.025.775.025 1.175V252h-1.975v-13.4h2.925l4.225 10.775 4.3-10.775h2.925Zm9.352-.225c1.633 0 2.842.358 3.625 1.075.783.717 1.175 1.858 1.175 3.425V252h-1.6l-.425-1.9h-.1a7.598 7.598 0 0 1-1.2 1.225c-.4.317-.867.55-1.4.7-.517.15-1.15.225-1.9.225-.8 0-1.525-.142-2.175-.425a3.351 3.351 0 0 1-1.5-1.3c-.367-.6-.55-1.35-.55-2.25 0-1.333.525-2.358 1.575-3.075 1.05-.733 2.667-1.133 4.85-1.2l2.275-.075v-.8c0-1.117-.242-1.892-.725-2.325-.483-.433-1.167-.65-2.05-.65-.7 0-1.367.108-2 .325-.633.2-1.225.433-1.775.7l-.675-1.65c.583-.317 1.275-.583 2.075-.8.8-.233 1.633-.35 2.5-.35Zm.65 7.15c-1.667.067-2.825.333-3.475.8-.633.467-.95 1.125-.95 1.975 0 .75.225 1.3.675 1.65.467.35 1.058.525 1.775.525 1.133 0 2.075-.308 2.825-.925.75-.633 1.125-1.6 1.125-2.9v-1.2l-1.975.075Zm19.139-12.475c-.067.833-.275 1.533-.625 2.1-.334.567-.834.992-1.5 1.275-.667.283-1.534.425-2.6.425-1.084 0-1.959-.142-2.625-.425-.65-.283-1.125-.7-1.425-1.25-.3-.567-.484-1.275-.55-2.125h2.05c.083.9.316 1.508.7 1.825.4.3 1.033.45 1.9.45.766 0 1.366-.158 1.8-.475.45-.333.716-.933.8-1.8h2.075Zm-8.775 13.725c0 .15-.009.367-.025.65 0 .267-.009.558-.025.875l-.05.875c-.017.267-.034.483-.05.65l7.175-11.225h2.7V252h-2.05V243.05l.05-1.275c.016-.433.033-.758.05-.975l-7.125 11.2h-2.725v-13.4h2.075v8.175Zm17.504-8.175h2.35l2.9 7.625c.167.45.317.883.45 1.3.15.417.284.825.4 1.225.117.383.209.758.275 1.125h.1c.1-.417.259-.958.475-1.625.217-.683.442-1.367.675-2.05l2.725-7.6h2.375l-5.775 15.25a9.817 9.817 0 0 1-1.125 2.175 4.279 4.279 0 0 1-1.55 1.45c-.6.35-1.333.525-2.2.525-.4 0-.75-.025-1.05-.075a6.814 6.814 0 0 1-.775-.125v-1.75c.184.033.4.067.65.1.267.033.542.05.825.05.517 0 .959-.1 1.325-.3a2.55 2.55 0 0 0 .975-.825c.267-.35.492-.767.675-1.25l.7-1.775-5.4-13.45Zm16.77 4.875c0 .783.216 1.367.65 1.75.45.367 1.091.55 1.925.55.833 0 1.591-.125 2.275-.375a13.797 13.797 0 0 0 2.1-1.05v-5.75h2.2V252h-2.2v-5.975a12.33 12.33 0 0 1-2.225 1.15c-.717.267-1.584.4-2.6.4-1.367 0-2.434-.358-3.2-1.075-.75-.717-1.125-1.675-1.125-2.875V238.6h2.2v4.875Zm18.482-5.1c1.633 0 2.841.358 3.625 1.075.783.717 1.175 1.858 1.175 3.425V252h-1.6l-.425-1.9h-.1a7.682 7.682 0 0 1-1.2 1.225c-.4.317-.867.55-1.4.7-.517.15-1.15.225-1.9.225-.8 0-1.525-.142-2.175-.425a3.34 3.34 0 0 1-1.5-1.3c-.367-.6-.55-1.35-.55-2.25 0-1.333.525-2.358 1.575-3.075 1.05-.733 2.666-1.133 4.85-1.2l2.275-.075v-.8c0-1.117-.242-1.892-.725-2.325-.484-.433-1.167-.65-2.05-.65-.7 0-1.367.108-2 .325-.634.2-1.225.433-1.775.7l-.675-1.65c.583-.317 1.275-.583 2.075-.8.8-.233 1.633-.35 2.5-.35Zm.65 7.15c-1.667.067-2.825.333-3.475.8-.634.467-.95 1.125-.95 1.975 0 .75.225 1.3.675 1.65.466.35 1.058.525 1.775.525 1.133 0 2.075-.308 2.825-.925.75-.633 1.125-1.6 1.125-2.9v-1.2l-1.975.075Zm13.663 6.725c-1.183 0-2.241-.242-3.175-.725-.916-.483-1.641-1.233-2.175-2.25-.516-1.017-.775-2.317-.775-3.9 0-1.65.275-2.992.825-4.025.55-1.033 1.292-1.792 2.225-2.275.95-.483 2.025-.725 3.225-.725.684 0 1.342.075 1.975.225.634.133 1.15.3 1.55.5l-.675 1.825c-.4-.15-.866-.292-1.4-.425a6.213 6.213 0 0 0-1.5-.2c-.9 0-1.641.192-2.225.575-.583.383-1.016.95-1.3 1.7-.283.75-.425 1.683-.425 2.8 0 1.067.142 1.975.425 2.725.284.75.709 1.317 1.275 1.7.567.383 1.275.575 2.125.575.734 0 1.375-.075 1.925-.225a9.311 9.311 0 0 0 1.55-.55v1.95a5.93 5.93 0 0 1-1.5.525c-.533.133-1.183.2-1.95.2Zm15.887-11.8h-4.375V252h-2.175v-11.55h-4.325v-1.85h10.875v1.85Zm4.715 6.325c0 .15-.009.367-.025.65 0 .267-.009.558-.025.875l-.05.875c-.017.267-.034.483-.05.65l7.175-11.225h2.7V252h-2.05V243.05l.05-1.275c.016-.433.033-.758.05-.975L464.03 252h-2.725v-13.4h2.075v8.175Zm19.164-8.425c1.15 0 2.133.25 2.95.75.833.5 1.467 1.208 1.9 2.125.45.9.675 1.958.675 3.175v1.325h-9.175c.033 1.517.417 2.675 1.15 3.475.75.783 1.792 1.175 3.125 1.175.85 0 1.6-.075 2.25-.225.667-.167 1.35-.4 2.05-.7v1.925c-.683.3-1.358.517-2.025.65-.667.15-1.458.225-2.375.225-1.267 0-2.392-.258-3.375-.775-.967-.517-1.725-1.283-2.275-2.3-.533-1.033-.8-2.292-.8-3.775 0-1.467.242-2.725.725-3.775.5-1.05 1.192-1.858 2.075-2.425.9-.567 1.942-.85 3.125-.85Zm-.025 1.8c-1.05 0-1.883.342-2.5 1.025-.6.667-.958 1.6-1.075 2.8h6.825c0-.767-.117-1.433-.35-2a2.825 2.825 0 0 0-1.075-1.325c-.467-.333-1.075-.5-1.825-.5ZM12.9 271.975c0 .833-.25 1.483-.75 1.95-.5.467-1.142.783-1.925.95v.1c.833.117 1.558.417 2.175.9.617.467.925 1.2.925 2.2 0 .567-.108 1.092-.325 1.575-.2.483-.517.9-.95 1.25-.433.35-.992.625-1.675.825-.683.183-1.508.275-2.475.275H2.125v-13.4h5.75c.95 0 1.8.108 2.55.325.767.2 1.367.55 1.8 1.05.45.483.675 1.15.675 2Zm-1.85 6.1c0-.767-.292-1.317-.875-1.65-.583-.333-1.442-.5-2.575-.5H4.325v4.3H7.65c1.1 0 1.942-.158 2.525-.475.583-.333.875-.892.875-1.675Zm-.375-5.825c0-.633-.233-1.092-.7-1.375-.45-.3-1.192-.45-2.225-.45H4.325v3.675H7.35c1.083 0 1.908-.15 2.475-.45.567-.3.85-.767.85-1.4Zm22.794-3.65V282h-2.2v-11.525h-6.924V282h-2.2v-13.4h11.324Zm10.651-.25c1.65 0 2.975.575 3.975 1.725 1.017 1.15 1.525 2.883 1.525 5.2 0 1.517-.233 2.8-.7 3.85-.45 1.033-1.092 1.817-1.925 2.35-.816.517-1.783.775-2.9.775-.683 0-1.291-.092-1.825-.275a5.07 5.07 0 0 1-1.375-.7 5.821 5.821 0 0 1-.95-.975h-.15c.033.283.067.642.1 1.075.033.433.05.808.05 1.125v5.5h-2.2v-19.4h1.8l.3 1.825h.1c.267-.383.584-.733.95-1.05a4.404 4.404 0 0 1 1.35-.75c.534-.183 1.159-.275 1.875-.275Zm-.4 1.85c-.9 0-1.625.175-2.175.525-.55.333-.95.842-1.2 1.525-.25.683-.383 1.55-.4 2.6v.425c0 1.1.117 2.033.35 2.8.233.767.625 1.35 1.175 1.75.567.4 1.334.6 2.3.6.817 0 1.483-.225 2-.675.533-.45.925-1.058 1.175-1.825.267-.783.4-1.675.4-2.675 0-1.533-.3-2.758-.9-3.675-.583-.917-1.492-1.375-2.725-1.375Zm21.056 5.075c0 1.117-.15 2.108-.45 2.975-.283.85-.7 1.575-1.25 2.175a5.217 5.217 0 0 1-1.975 1.375c-.767.3-1.625.45-2.575.45-.883 0-1.7-.15-2.45-.45a5.541 5.541 0 0 1-1.95-1.375c-.55-.6-.983-1.325-1.3-2.175-.3-.867-.45-1.858-.45-2.975 0-1.483.25-2.733.75-3.75.5-1.033 1.217-1.817 2.15-2.35.933-.55 2.042-.825 3.325-.825 1.217 0 2.283.275 3.2.825.933.533 1.658 1.317 2.175 2.35.533 1.017.8 2.267.8 3.75Zm-10.125 0c0 1.05.133 1.967.4 2.75.283.767.717 1.358 1.3 1.775.583.417 1.325.625 2.225.625.9 0 1.642-.208 2.225-.625.583-.417 1.008-1.008 1.275-1.775.283-.783.425-1.7.425-2.75 0-1.067-.142-1.975-.425-2.725-.283-.75-.717-1.325-1.3-1.725-.567-.417-1.308-.625-2.225-.625-1.367 0-2.358.45-2.975 1.35-.617.9-.925 2.142-.925 3.725Zm18.787-6.925c1.15 0 2.133.25 2.95.75.833.5 1.466 1.208 1.9 2.125.45.9.675 1.958.675 3.175v1.325h-9.175c.033 1.517.416 2.675 1.15 3.475.75.783 1.791 1.175 3.125 1.175.85 0 1.6-.075 2.25-.225.666-.167 1.35-.4 2.05-.7v1.925c-.684.3-1.359.517-2.025.65-.667.15-1.459.225-2.375.225-1.267 0-2.392-.258-3.375-.775-.967-.517-1.725-1.283-2.275-2.3-.534-1.033-.8-2.292-.8-3.775 0-1.467.241-2.725.725-3.775.5-1.05 1.191-1.858 2.075-2.425.9-.567 1.941-.85 3.125-.85Zm-.025 1.8c-1.05 0-1.884.342-2.5 1.025-.6.667-.959 1.6-1.075 2.8h6.825c0-.767-.117-1.433-.35-2a2.825 2.825 0 0 0-1.075-1.325c-.467-.333-1.075-.5-1.825-.5Zm16.886-1.55h2.4l-5.725 6.45 6.2 6.95h-2.55l-6.05-6.8v6.8h-2.2v-13.4h2.2v6.5l5.725-6.5Zm14.557 1.85h-4.375V282h-2.175v-11.55h-4.325v-1.85h10.875v1.85Zm7.715-2.075c1.633 0 2.842.358 3.625 1.075.783.717 1.175 1.858 1.175 3.425V282h-1.6l-.425-1.9h-.1a7.598 7.598 0 0 1-1.2 1.225c-.4.317-.867.55-1.4.7-.517.15-1.15.225-1.9.225-.8 0-1.525-.142-2.175-.425a3.351 3.351 0 0 1-1.5-1.3c-.367-.6-.55-1.35-.55-2.25 0-1.333.525-2.358 1.575-3.075 1.05-.733 2.667-1.133 4.85-1.2l2.275-.075v-.8c0-1.117-.242-1.892-.725-2.325-.483-.433-1.167-.65-2.05-.65-.7 0-1.367.108-2 .325-.633.2-1.225.433-1.775.7l-.675-1.65c.583-.317 1.275-.583 2.075-.8.8-.233 1.633-.35 2.5-.35Zm.65 7.15c-1.667.067-2.825.333-3.475.8-.633.467-.95 1.125-.95 1.975 0 .75.225 1.3.675 1.65.467.35 1.058.525 1.775.525 1.133 0 2.075-.308 2.825-.925.75-.633 1.125-1.6 1.125-2.9v-1.2l-1.975.075Zm11.464-.375-4.625-6.55h2.5l3.45 5.05 3.425-5.05h2.475l-4.625 6.55 4.875 6.85h-2.5l-3.65-5.35-3.7 5.35h-2.475l4.85-6.85Zm10.782 9.525h-1.425l.9-2.675h-.875v-2.65h2.7v2.4l-1.3 2.925Zm21.611-16.075V282h-2.2v-11.525h-6.925V282h-2.2v-13.4h11.325Zm10.651-.25c1.65 0 2.975.575 3.975 1.725 1.016 1.15 1.525 2.883 1.525 5.2 0 1.517-.234 2.8-.7 3.85-.45 1.033-1.092 1.817-1.925 2.35-.817.517-1.784.775-2.9.775-.684 0-1.292-.092-1.825-.275a5.055 5.055 0 0 1-1.375-.7 5.778 5.778 0 0 1-.95-.975h-.15c.033.283.066.642.1 1.075.033.433.05.808.05 1.125v5.5h-2.2v-19.4h1.8l.3 1.825h.1a5.63 5.63 0 0 1 .95-1.05 4.394 4.394 0 0 1 1.35-.75c.533-.183 1.158-.275 1.875-.275Zm-.4 1.85c-.9 0-1.625.175-2.175.525-.55.333-.95.842-1.2 1.525-.25.683-.384 1.55-.4 2.6v.425c0 1.1.116 2.033.35 2.8.233.767.625 1.35 1.175 1.75.566.4 1.333.6 2.3.6.816 0 1.483-.225 2-.675.533-.45.925-1.058 1.175-1.825.266-.783.4-1.675.4-2.675 0-1.533-.3-2.758-.9-3.675-.584-.917-1.492-1.375-2.725-1.375Zm11.48 6.575c0 .15-.008.367-.025.65 0 .267-.008.558-.025.875-.016.3-.033.592-.05.875-.016.267-.033.483-.05.65l7.175-11.225h2.7V282h-2.05V273.05l.05-1.275c.017-.433.034-.758.05-.975l-7.125 11.2h-2.725v-13.4h2.075v8.175Zm22.165-8.175v1.85h-5.975V282h-2.2v-13.4h8.175Zm12.083 13.4h-2.225v-11.575h-3.95c-.166 2.117-.375 3.925-.625 5.425-.25 1.483-.566 2.692-.95 3.625-.383.933-.841 1.617-1.375 2.05-.533.433-1.158.65-1.875.65-.216 0-.433-.017-.65-.05a1.377 1.377 0 0 1-.5-.125v-1.65c.1.033.209.058.325.075.117.017.234.025.35.025.367 0 .7-.15 1-.45.3-.3.567-.758.8-1.375.25-.617.475-1.392.675-2.325.2-.95.375-2.067.525-3.35.15-1.283.284-2.733.4-4.35h8.075V282Zm9.329-13.625c1.633 0 2.841.358 3.625 1.075.783.717 1.175 1.858 1.175 3.425V282h-1.6l-.425-1.9h-.1a7.682 7.682 0 0 1-1.2 1.225c-.4.317-.867.55-1.4.7-.517.15-1.15.225-1.9.225-.8 0-1.525-.142-2.175-.425a3.34 3.34 0 0 1-1.5-1.3c-.367-.6-.55-1.35-.55-2.25 0-1.333.525-2.358 1.575-3.075 1.05-.733 2.666-1.133 4.85-1.2l2.275-.075v-.8c0-1.117-.242-1.892-.725-2.325-.484-.433-1.167-.65-2.05-.65-.7 0-1.367.108-2 .325-.634.2-1.225.433-1.775.7l-.675-1.65c.583-.317 1.275-.583 2.075-.8.8-.233 1.633-.35 2.5-.35Zm.65 7.15c-1.667.067-2.825.333-3.475.8-.634.467-.95 1.125-.95 1.975 0 .75.225 1.3.675 1.65.466.35 1.058.525 1.775.525 1.133 0 2.075-.308 2.825-.925.75-.633 1.125-1.6 1.125-2.9v-1.2l-1.975.075Zm26.463-6.925V282h-18.175v-13.4h2.2v11.55h5.775V268.6h2.2v11.55h5.8V268.6h2.2Zm9.361-.225c1.633 0 2.842.358 3.625 1.075.783.717 1.175 1.858 1.175 3.425V282h-1.6l-.425-1.9h-.1a7.598 7.598 0 0 1-1.2 1.225c-.4.317-.867.55-1.4.7-.517.15-1.15.225-1.9.225-.8 0-1.525-.142-2.175-.425a3.351 3.351 0 0 1-1.5-1.3c-.367-.6-.55-1.35-.55-2.25 0-1.333.525-2.358 1.575-3.075 1.05-.733 2.667-1.133 4.85-1.2l2.275-.075v-.8c0-1.117-.242-1.892-.725-2.325-.483-.433-1.167-.65-2.05-.65-.7 0-1.367.108-2 .325-.633.2-1.225.433-1.775.7l-.675-1.65c.583-.317 1.275-.583 2.075-.8.8-.233 1.633-.35 2.5-.35Zm.65 7.15c-1.667.067-2.825.333-3.475.8-.633.467-.95 1.125-.95 1.975 0 .75.225 1.3.675 1.65.467.35 1.058.525 1.775.525 1.133 0 2.075-.308 2.825-.925.75-.633 1.125-1.6 1.125-2.9v-1.2l-1.975.075Zm19.139-12.475c-.067.833-.275 1.533-.625 2.1-.334.567-.834.992-1.5 1.275-.667.283-1.534.425-2.6.425-1.084 0-1.959-.142-2.625-.425-.65-.283-1.125-.7-1.425-1.25-.3-.567-.484-1.275-.55-2.125h2.05c.083.9.316 1.508.7 1.825.4.3 1.033.45 1.9.45.766 0 1.366-.158 1.8-.475.45-.333.716-.933.8-1.8h2.075Zm-8.775 13.725c0 .15-.009.367-.025.65 0 .267-.009.558-.025.875l-.05.875c-.017.267-.034.483-.05.65l7.175-11.225h2.7V282h-2.05V273.05l.05-1.275c.016-.433.033-.758.05-.975l-7.125 11.2h-2.725v-13.4h2.075v8.175Zm29.555-8.175v11.55h1.95v6.5h-2.125V282h-9.325v4.65h-2.1v-6.5h1.075a16.339 16.339 0 0 0 1.9-3.475c.516-1.267.9-2.583 1.15-3.95.266-1.383.408-2.758.425-4.125h7.05Zm-5.1 1.725a21.06 21.06 0 0 1-.525 3.525c-.284 1.2-.65 2.35-1.1 3.45-.434 1.1-.942 2.05-1.525 2.85h6.125v-9.825h-2.975Zm16.051-1.975c1.65 0 2.975.575 3.975 1.725 1.017 1.15 1.525 2.883 1.525 5.2 0 1.517-.233 2.8-.7 3.85-.45 1.033-1.092 1.817-1.925 2.35-.817.517-1.783.775-2.9.775-.683 0-1.292-.092-1.825-.275a5.07 5.07 0 0 1-1.375-.7 5.817 5.817 0 0 1-.95-.975h-.15c.033.283.067.642.1 1.075.033.433.05.808.05 1.125v5.5h-2.2v-19.4h1.8l.3 1.825h.1c.267-.383.583-.733.95-1.05a4.394 4.394 0 0 1 1.35-.75c.533-.183 1.158-.275 1.875-.275Zm-.4 1.85c-.9 0-1.625.175-2.175.525-.55.333-.95.842-1.2 1.525-.25.683-.383 1.55-.4 2.6v.425c0 1.1.117 2.033.35 2.8.233.767.625 1.35 1.175 1.75.567.4 1.333.6 2.3.6.817 0 1.483-.225 2-.675.533-.45.925-1.058 1.175-1.825.267-.783.4-1.675.4-2.675 0-1.533-.3-2.758-.9-3.675-.583-.917-1.492-1.375-2.725-1.375Zm7.062-1.6h2.35l2.9 7.625c.166.45.316.883.45 1.3.15.417.283.825.4 1.225.116.383.208.758.275 1.125h.1c.1-.417.258-.958.475-1.625a90.82 90.82 0 0 1 .675-2.05l2.725-7.6h2.375l-5.775 15.25a9.902 9.902 0 0 1-1.125 2.175 4.294 4.294 0 0 1-1.55 1.45c-.6.35-1.334.525-2.2.525-.4 0-.75-.025-1.05-.075a6.777 6.777 0 0 1-.775-.125v-1.75c.183.033.4.067.65.1.266.033.541.05.825.05.516 0 .958-.1 1.325-.3.383-.183.708-.458.975-.825.266-.35.491-.767.675-1.25l.7-1.775-5.4-13.45Zm18.369-.25c1.016 0 1.9.142 2.65.425.75.267 1.333.667 1.75 1.2.416.517.625 1.15.625 1.9 0 .817-.225 1.467-.675 1.95-.45.467-1.067.808-1.85 1.025v.1a6.13 6.13 0 0 1 1.475.625c.45.267.808.617 1.075 1.05.283.433.425.992.425 1.675 0 .733-.209 1.4-.625 2-.4.6-1.025 1.075-1.875 1.425-.834.35-1.909.525-3.225.525-.634 0-1.242-.033-1.825-.1a9.891 9.891 0 0 1-1.55-.3 6.669 6.669 0 0 1-1.2-.475V279.4c.566.267 1.233.508 2 .725a9.52 9.52 0 0 0 2.55.325c.666 0 1.266-.075 1.8-.225.55-.15.983-.383 1.3-.7.316-.333.475-.783.475-1.35 0-.517-.142-.933-.425-1.25-.284-.333-.709-.583-1.275-.75-.55-.167-1.259-.25-2.125-.25h-1.8v-1.8h1.45c1.15 0 2.066-.15 2.75-.45.7-.317 1.05-.85 1.05-1.6 0-.633-.267-1.108-.8-1.425-.517-.317-1.267-.475-2.25-.475-.734 0-1.384.075-1.95.225-.55.133-1.159.342-1.825.625l-.775-1.75c.716-.317 1.466-.55 2.25-.7a12.86 12.86 0 0 1 2.425-.225Zm13.906 0c1.15 0 2.133.25 2.95.75.833.5 1.466 1.208 1.9 2.125.45.9.675 1.958.675 3.175v1.325h-9.175c.033 1.517.416 2.675 1.15 3.475.75.783 1.791 1.175 3.125 1.175.85 0 1.6-.075 2.25-.225.666-.167 1.35-.4 2.05-.7v1.925c-.684.3-1.359.517-2.025.65-.667.15-1.459.225-2.375.225-1.267 0-2.392-.258-3.375-.775-.967-.517-1.725-1.283-2.275-2.3-.534-1.033-.8-2.292-.8-3.775 0-1.467.241-2.725.725-3.775.5-1.05 1.191-1.858 2.075-2.425.9-.567 1.941-.85 3.125-.85Zm-.025 1.8c-1.05 0-1.884.342-2.5 1.025-.6.667-.959 1.6-1.075 2.8h6.825c0-.767-.117-1.433-.35-2a2.83 2.83 0 0 0-1.075-1.325c-.467-.333-1.075-.5-1.825-.5Zm19.811-7.1c-.067.833-.275 1.533-.625 2.1-.333.567-.833.992-1.5 1.275-.667.283-1.533.425-2.6.425-1.083 0-1.958-.142-2.625-.425-.65-.283-1.125-.7-1.425-1.25-.3-.567-.483-1.275-.55-2.125h2.05c.083.9.317 1.508.7 1.825.4.3 1.033.45 1.9.45.767 0 1.367-.158 1.8-.475.45-.333.717-.933.8-1.8h2.075Zm-8.775 13.725c0 .15-.008.367-.025.65 0 .267-.008.558-.025.875l-.05.875a18.23 18.23 0 0 1-.05.65l7.175-11.225h2.7V282h-2.05V273.05l.05-1.275c.017-.433.033-.758.05-.975l-7.125 11.2h-2.725v-13.4h2.075v8.175Zm21.68 0c0 .15-.009.367-.025.65 0 .267-.009.558-.025.875l-.05.875c-.017.267-.034.483-.05.65l7.175-11.225h2.7V282h-2.05V273.05l.05-1.275c.016-.433.033-.758.05-.975l-7.125 11.2h-2.725v-13.4h2.075v8.175ZM5.65 298.35c1.017 0 1.9.142 2.65.425.75.267 1.333.667 1.75 1.2.417.517.625 1.15.625 1.9 0 .817-.225 1.467-.675 1.95-.45.467-1.067.808-1.85 1.025v.1c.533.15 1.025.358 1.475.625.45.267.808.617 1.075 1.05.283.433.425.992.425 1.675 0 .733-.208 1.4-.625 2-.4.6-1.025 1.075-1.875 1.425-.833.35-1.908.525-3.225.525-.633 0-1.242-.033-1.825-.1a9.914 9.914 0 0 1-1.55-.3 6.669 6.669 0 0 1-1.2-.475V309.4c.567.267 1.233.508 2 .725a9.524 9.524 0 0 0 2.55.325c.667 0 1.267-.075 1.8-.225.55-.15.983-.383 1.3-.7.317-.333.475-.783.475-1.35 0-.517-.142-.933-.425-1.25-.283-.333-.708-.583-1.275-.75-.55-.167-1.258-.25-2.125-.25h-1.8v-1.8h1.45c1.15 0 2.067-.15 2.75-.45.7-.317 1.05-.85 1.05-1.6 0-.633-.267-1.108-.8-1.425-.517-.317-1.267-.475-2.25-.475-.733 0-1.383.075-1.95.225-.55.133-1.158.342-1.825.625l-.775-1.75c.717-.317 1.467-.55 2.25-.7.783-.15 1.592-.225 2.425-.225Zm10.93.25v5.575h7.276V298.6h2.2V312h-2.2v-5.975H16.58V312h-2.2v-13.4h2.2Zm18.794-.225c1.633 0 2.841.358 3.625 1.075.783.717 1.175 1.858 1.175 3.425V312h-1.6l-.425-1.9h-.1a7.623 7.623 0 0 1-1.2 1.225c-.4.317-.867.55-1.4.7-.517.15-1.15.225-1.9.225-.8 0-1.525-.142-2.175-.425a3.348 3.348 0 0 1-1.5-1.3c-.367-.6-.55-1.35-.55-2.25 0-1.333.525-2.358 1.575-3.075 1.05-.733 2.666-1.133 4.85-1.2l2.275-.075v-.8c0-1.117-.242-1.892-.725-2.325-.483-.433-1.167-.65-2.05-.65-.7 0-1.367.108-2 .325-.634.2-1.225.433-1.775.7l-.675-1.65c.583-.317 1.275-.583 2.075-.8.8-.233 1.633-.35 2.5-.35Zm.65 7.15c-1.667.067-2.825.333-3.475.8-.633.467-.95 1.125-.95 1.975 0 .75.225 1.3.675 1.65.466.35 1.058.525 1.775.525 1.133 0 2.075-.308 2.825-.925.75-.633 1.125-1.6 1.125-2.9v-1.2l-1.975.075Zm16.213-6.925h2.4l-5.724 6.45 6.2 6.95h-2.55l-6.05-6.8v6.8h-2.2v-13.4h2.2v6.5l5.724-6.5Zm16.47 6.675c0 1.117-.15 2.108-.45 2.975-.284.85-.7 1.575-1.25 2.175a5.215 5.215 0 0 1-1.975 1.375c-.767.3-1.625.45-2.575.45-.884 0-1.7-.15-2.45-.45a5.541 5.541 0 0 1-1.95-1.375c-.55-.6-.984-1.325-1.3-2.175-.3-.867-.45-1.858-.45-2.975 0-1.483.25-2.733.75-3.75.5-1.033 1.216-1.817 2.15-2.35.933-.55 2.041-.825 3.325-.825 1.216 0 2.283.275 3.2.825.933.533 1.658 1.317 2.175 2.35.533 1.017.8 2.267.8 3.75Zm-10.125 0c0 1.05.133 1.967.4 2.75.283.767.716 1.358 1.3 1.775.583.417 1.325.625 2.225.625.9 0 1.641-.208 2.225-.625.583-.417 1.008-1.008 1.275-1.775.283-.783.425-1.7.425-2.75 0-1.067-.142-1.975-.425-2.725-.284-.75-.717-1.325-1.3-1.725-.567-.417-1.309-.625-2.225-.625-1.367 0-2.359.45-2.975 1.35-.617.9-.925 2.142-.925 3.725Zm27.986-6.675V312h-1.975v-8.55c0-.35.009-.717.025-1.1l.1-1.125h-.075L80.268 312h-1.85l-4.25-10.775h-.075c.034.367.05.742.05 1.125.017.383.025.775.025 1.175V312h-1.975v-13.4h2.925l4.225 10.775 4.3-10.775h2.925Zm4.278 13.4v-13.4h2.2v5.5h3.475c1.166 0 2.125.142 2.875.425.75.283 1.308.708 1.675 1.275.366.55.55 1.25.55 2.1 0 .833-.184 1.558-.55 2.175-.35.617-.909 1.092-1.675 1.425-.75.333-1.742.5-2.975.5h-5.575Zm5.375-1.775c.95 0 1.725-.158 2.325-.475.6-.333.9-.908.9-1.725 0-.817-.275-1.367-.825-1.65-.55-.3-1.342-.45-2.375-.45h-3.2v4.3h3.175Zm7.625 1.775v-13.4h2.2V312h-2.2Zm9.633-6.85-4.625-6.55h2.5l3.45 5.05 3.425-5.05h2.475l-4.625 6.55 4.875 6.85h-2.5l-3.65-5.35-3.7 5.35h-2.475l4.85-6.85Zm9.182 6.85v-2.65h2.7V312h-2.7Z" fill="#fff"/></svg>