<svg width="887" height="411" fill="none" xmlns="http://www.w3.org/2000/svg"><path d="m388.52 261.32-11.08-13.88h4l10.92 13.84v-13.84h3.44v13.84l10.92-13.84h4l-11.08 13.84L411.08 276h-4.12l-11.16-14.48V276h-3.44v-14.48L381.16 276h-4.12l11.48-14.68Zm41.98-6.76v18.48h3.12v10.4h-3.4V276H415.3v7.44h-3.36v-10.4h1.72a26.12 26.12 0 0 0 3.04-5.56 31.915 31.915 0 0 0 1.84-6.32c.426-2.213.653-4.413.68-6.6h11.28Zm-8.16 2.76a33.65 33.65 0 0 1-.84 5.64 37.1 37.1 0 0 1-1.76 5.52c-.694 1.76-1.507 3.28-2.44 4.56h9.8v-15.72h-4.76Zm23.762-3.16c1.84 0 3.413.4 4.72 1.2 1.333.8 2.347 1.933 3.04 3.4.72 1.44 1.08 3.133 1.08 5.08v2.12h-14.68c.053 2.427.667 4.28 1.84 5.56 1.2 1.253 2.867 1.88 5 1.88 1.36 0 2.56-.12 3.6-.36a21.73 21.73 0 0 0 3.28-1.12V275a15.71 15.71 0 0 1-3.24 1.04c-1.067.24-2.333.36-3.8.36-2.027 0-3.827-.413-5.4-1.24-1.547-.827-2.76-2.053-3.64-3.68-.853-1.653-1.28-3.667-1.28-6.04 0-2.347.387-4.36 1.16-6.04.8-1.68 1.907-2.973 3.32-3.88 1.44-.907 3.107-1.36 5-1.36Zm-.04 2.88c-1.68 0-3.013.547-4 1.64-.96 1.067-1.533 2.56-1.72 4.48h10.92c0-1.227-.187-2.293-.56-3.2-.373-.907-.947-1.613-1.72-2.12-.747-.533-1.72-.8-2.92-.8Zm37.338-2.48V276h-3.16v-13.68c0-.56.013-1.147.04-1.76.053-.613.107-1.213.16-1.8h-.12l-7 17.24h-2.96l-6.8-17.24h-.12c.053.587.08 1.187.08 1.8.027.613.04 1.24.04 1.88V276h-3.16v-21.44h4.68l6.76 17.24 6.88-17.24h4.68Zm30.628 2.96h-7V276h-3.48v-18.48h-6.92v-2.96h17.4v2.96Zm12.113-3.36c1.84 0 3.413.4 4.72 1.2 1.333.8 2.347 1.933 3.04 3.4.72 1.44 1.08 3.133 1.08 5.08v2.12h-14.68c.053 2.427.667 4.28 1.84 5.56 1.2 1.253 2.867 1.88 5 1.88 1.36 0 2.56-.12 3.6-.36a21.73 21.73 0 0 0 3.28-1.12V275a15.71 15.71 0 0 1-3.24 1.04c-1.067.24-2.333.36-3.8.36-2.027 0-3.827-.413-5.4-1.24-1.547-.827-2.76-2.053-3.64-3.68-.853-1.653-1.28-3.667-1.28-6.04 0-2.347.387-4.36 1.16-6.04.8-1.68 1.907-2.973 3.32-3.88 1.44-.907 3.107-1.36 5-1.36Zm-.04 2.88c-1.68 0-3.013.547-4 1.64-.96 1.067-1.533 2.56-1.72 4.48h10.92c0-1.227-.187-2.293-.56-3.2-.373-.907-.947-1.613-1.72-2.12-.747-.533-1.72-.8-2.92-.8Zm13.218 6.08c0-3.12.307-5.773.92-7.96.64-2.213 1.613-3.973 2.92-5.28 1.333-1.333 3.04-2.227 5.12-2.68 1.733-.373 3.427-.707 5.08-1 1.653-.293 3.2-.56 4.64-.8l.6 3.08c-.693.107-1.467.24-2.32.4-.853.133-1.72.28-2.6.44-.88.133-1.733.28-2.56.44-.8.133-1.507.267-2.12.4a6.885 6.885 0 0 0-2.36.96c-.693.427-1.293 1.013-1.8 1.76-.48.747-.867 1.667-1.16 2.76-.293 1.093-.467 2.387-.52 3.88h.24c.373-.507.88-1.027 1.52-1.56.667-.533 1.453-.987 2.36-1.36.933-.373 1.987-.56 3.16-.56 1.867 0 3.413.413 4.64 1.24 1.253.8 2.187 1.92 2.8 3.36.64 1.44.96 3.12.96 5.04 0 2.373-.413 4.36-1.24 5.96-.827 1.6-1.973 2.8-3.44 3.6-1.467.773-3.173 1.16-5.12 1.16-1.467 0-2.8-.28-4-.84-1.2-.587-2.227-1.44-3.08-2.56-.853-1.12-1.507-2.507-1.96-4.16-.453-1.653-.68-3.56-.68-5.72Zm10 10.36c1.173 0 2.187-.24 3.04-.72.88-.48 1.56-1.267 2.04-2.36s.72-2.547.72-4.36c0-2.187-.413-3.907-1.24-5.16-.8-1.28-2.133-1.92-4-1.92-1.173 0-2.24.267-3.2.8-.96.507-1.76 1.093-2.4 1.76-.64.667-1.093 1.227-1.36 1.68 0 1.307.093 2.573.28 3.8.187 1.227.507 2.333.96 3.32.48.96 1.133 1.733 1.96 2.32.853.56 1.92.84 3.2.84Zm16.385 2.52h-4.08l6.12-9a9.373 9.373 0 0 1-2.4-1 5.527 5.527 0 0 1-1.88-1.96c-.48-.853-.72-1.907-.72-3.16 0-2.053.694-3.613 2.08-4.68 1.387-1.093 3.227-1.64 5.52-1.64h9.6V276h-3.52v-8.52h-5.2l-5.52 8.52Zm.44-15.08c0 1.227.454 2.147 1.36 2.76.934.587 2.227.88 3.88.88h5.04v-7.08h-5.72c-1.626 0-2.8.32-3.52.96-.693.64-1.04 1.467-1.04 2.48Zm46.809-.96c0 1.333-.4 2.373-1.2 3.12-.8.747-1.827 1.253-3.08 1.52v.16c1.333.187 2.493.667 3.48 1.44.986.747 1.48 1.92 1.48 3.52 0 .907-.174 1.747-.52 2.52a5.018 5.018 0 0 1-1.52 2c-.694.56-1.587 1-2.68 1.32-1.094.293-2.414.44-3.96.44h-9.24v-21.44h9.2c1.52 0 2.88.173 4.08.52 1.226.32 2.186.88 2.88 1.68.72.773 1.08 1.84 1.08 3.2Zm-2.96 9.76c0-1.227-.467-2.107-1.4-2.64-.934-.533-2.307-.8-4.12-.8h-5.24v6.88h5.32c1.76 0 3.106-.253 4.04-.76.933-.533 1.4-1.427 1.4-2.68Zm-.6-9.32c0-1.013-.374-1.747-1.12-2.2-.72-.48-1.907-.72-3.56-.72h-5.48v5.88h4.839c1.734 0 3.054-.24 3.961-.72.906-.48 1.36-1.227 1.36-2.24Zm36.471-5.84V276h-3.52v-18.44h-11.08V276h-3.52v-21.44h18.12Zm17.041-.4c2.64 0 4.76.92 6.36 2.76 1.626 1.84 2.44 4.613 2.44 8.32 0 2.427-.374 4.48-1.12 6.16-.72 1.653-1.747 2.907-3.08 3.76-1.307.827-2.854 1.24-4.64 1.24-1.094 0-2.067-.147-2.92-.44-.854-.293-1.587-.667-2.2-1.12-.587-.48-1.094-1-1.52-1.56h-.24c.053.453.106 1.027.16 1.72.053.693.08 1.293.08 1.8v8.8h-3.52v-31.04h2.88l.48 2.92h.16a9.016 9.016 0 0 1 1.52-1.68 7.044 7.044 0 0 1 2.16-1.2c.853-.293 1.853-.44 3-.44Zm-.64 2.96c-1.44 0-2.6.28-3.48.84-.88.533-1.52 1.347-1.92 2.44-.4 1.093-.614 2.48-.64 4.16v.68c0 1.76.186 3.253.56 4.48.373 1.227 1 2.16 1.88 2.8.906.64 2.133.96 3.68.96 1.306 0 2.373-.36 3.2-1.08.853-.72 1.48-1.693 1.88-2.92.426-1.253.64-2.68.64-4.28 0-2.453-.48-4.413-1.44-5.88-.934-1.467-2.387-2.2-4.36-2.2Zm18.369 10.52c0 .24-.013.587-.04 1.04 0 .427-.013.893-.04 1.4-.027.48-.053.947-.08 1.4-.027.427-.053.773-.08 1.04l11.48-17.96h4.32V276h-3.28v-14.32l.08-2.04c.027-.693.053-1.213.08-1.56l-11.4 17.92h-4.36v-21.44h3.32v13.08Zm38.703 8.36h-3.56v-18.52h-6.32c-.266 3.387-.6 6.28-1 8.68-.4 2.373-.906 4.307-1.52 5.8-.613 1.493-1.346 2.587-2.2 3.28-.853.693-1.853 1.04-3 1.04-.346 0-.693-.027-1.04-.08a2.2 2.2 0 0 1-.8-.2v-2.64c.16.053.334.093.52.12.187.027.374.04.56.04.587 0 1.12-.24 1.6-.72s.907-1.213 1.28-2.2c.4-.987.76-2.227 1.08-3.72.32-1.52.6-3.307.84-5.36.24-2.053.454-4.373.64-6.96h12.92V276Zm25.445-10.76c0 1.787-.24 3.373-.72 4.76-.453 1.36-1.12 2.52-2 3.48-.853.96-1.906 1.693-3.16 2.2-1.226.48-2.6.72-4.12.72-1.413 0-2.72-.24-3.92-.72a8.863 8.863 0 0 1-3.12-2.2c-.88-.96-1.573-2.12-2.08-3.48-.48-1.387-.72-2.973-.72-4.76 0-2.373.4-4.373 1.2-6 .8-1.653 1.947-2.907 3.44-3.76 1.494-.88 3.267-1.32 5.32-1.32 1.947 0 3.654.44 5.12 1.32 1.494.853 2.654 2.107 3.48 3.76.854 1.627 1.28 3.627 1.28 6Zm-16.2 0c0 1.68.214 3.147.64 4.4.454 1.227 1.147 2.173 2.08 2.84.934.667 2.12 1 3.56 1s2.627-.333 3.56-1c.934-.667 1.614-1.613 2.04-2.84.454-1.253.68-2.72.68-4.4 0-1.707-.226-3.16-.68-4.36-.453-1.2-1.146-2.12-2.08-2.76-.906-.667-2.093-1-3.56-1-2.186 0-3.773.72-4.76 2.16-.986 1.44-1.48 3.427-1.48 5.96Zm46.718-10.68-8.84 10.4 9.6 11.04h-4l-9.28-10.88V276h-3.28v-10.88L750.22 276h-4l9.6-11.04-8.84-10.4h3.84l8.68 10.4v-10.4h3.28v10.4l8.72-10.4h3.8Zm11.778-.4c1.84 0 3.414.4 4.72 1.2 1.334.8 2.347 1.933 3.04 3.4.72 1.44 1.08 3.133 1.08 5.08v2.12h-14.68c.054 2.427.667 4.28 1.84 5.56 1.2 1.253 2.867 1.88 5 1.88 1.36 0 2.56-.12 3.6-.36a21.73 21.73 0 0 0 3.28-1.12V275a15.71 15.71 0 0 1-3.24 1.04c-1.066.24-2.333.36-3.8.36-2.026 0-3.826-.413-5.4-1.24-1.546-.827-2.76-2.053-3.64-3.68-.853-1.653-1.28-3.667-1.28-6.04 0-2.347.387-4.36 1.16-6.04.8-1.68 1.907-2.973 3.32-3.88 1.44-.907 3.107-1.36 5-1.36Zm-.04 2.88c-1.68 0-3.013.547-4 1.64-.96 1.067-1.533 2.56-1.72 4.48h10.92c0-1.227-.186-2.293-.56-3.2-.373-.907-.946-1.613-1.72-2.12-.746-.533-1.72-.8-2.92-.8Zm17.859-2.48v8.92h11.64v-8.92h3.52V276h-3.52v-9.56h-11.64V276h-3.52v-21.44h3.52Zm25.268 13.08c0 .24-.013.587-.04 1.04 0 .427-.013.893-.04 1.4-.026.48-.053.947-.08 1.4-.026.427-.053.773-.08 1.04l11.48-17.96h4.32V276h-3.28v-14.32l.08-2.04c.027-.693.054-1.213.08-1.56l-11.4 17.92h-4.36v-21.44h3.32v13.08Zm25.703 0c0 .24-.013.587-.04 1.04 0 .427-.013.893-.04 1.4-.026.48-.053.947-.08 1.4-.026.427-.053.773-.08 1.04l11.48-17.96h4.32V276h-3.28v-14.32l.08-2.04c.027-.693.054-1.213.08-1.56l-11.4 17.92h-4.36v-21.44h3.32v13.08Z" fill="#fff"/><path d="M158.499 102.75 267.187 0h49.823v192.098h-81.656v-49.141h31.833V71.478l-108.68 102.75L49.81 71.478v71.479h31.847v49.141H0V0h49.81l108.688 102.75ZM267.193 218.902h49.815V411h-49.815V218.902Z" fill="#F9FBFA"/><path fill-rule="evenodd" clip-rule="evenodd" d="M0 218.902h49.816v49.141h117.746c40.018 0 72.459 32.002 72.459 71.479 0 39.476-32.441 71.478-72.459 71.478H0V218.902Zm49.816 147.424h117.746c15.006 0 27.172-12.001 27.172-26.804 0-14.804-12.166-26.805-27.172-26.805H49.816v53.609Z" fill="#F9FBFA"/><path d="m414.077 52.903 4.256 3.897c-1.986 2.54-4.086 4.648-6.3 6.322-5.561 4.157-11.69 6.236-18.387 6.236-8.513 0-15.749-3.031-21.708-9.094C365.979 54.202 363 46.84 363 38.18c0-8.66 2.979-16.023 8.938-22.085C377.897 10.03 385.133 7 393.646 7c6.64 0 12.712 2.107 18.217 6.322 2.384 1.848 4.398 3.927 6.044 6.236l-4.256 3.898c-1.419-2.021-3.065-3.753-4.938-5.197-4.256-3.464-9.278-5.196-15.067-5.196-6.81 0-12.571 2.425-17.281 7.275-4.654 4.792-6.98 10.74-6.98 17.841 0 7.102 2.326 13.078 6.98 17.928 4.71 4.792 10.471 7.188 17.281 7.188 5.845 0 10.953-1.732 15.323-5.196a27.485 27.485 0 0 0 5.108-5.196ZM437.081 68.492V32.549h-14.472v-5.63h34.903v5.63H443.04v35.943h-5.959ZM489.897 68.492v-5.63c-.852 1.213-1.93 2.31-3.235 3.291-3.008 2.137-6.328 3.205-9.96 3.205-4.143 0-7.605-1.213-10.386-3.638-2.724-2.482-4.086-5.312-4.086-8.487 0-7.044 3.973-11.23 11.918-12.558l15.749-2.599c0-3.06-.965-5.543-2.895-7.448-1.873-1.963-4.313-2.945-7.321-2.945-2.951 0-5.76 1.01-8.427 3.032-1.249 1.097-2.27 2.107-3.065 3.031l-3.831-3.897c1.079-1.444 2.412-2.743 4.001-3.898 3.462-2.598 7.236-3.897 11.322-3.897 4.654 0 8.513 1.53 11.578 4.59 3.064 3.06 4.597 6.871 4.597 11.432v26.416h-5.959Zm0-18.62v-2.6l-14.046 2.6c-5.108.923-7.662 3.377-7.662 7.36 0 1.849.738 3.407 2.213 4.678 1.533 1.212 3.632 1.819 6.3 1.819 3.916 0 7.094-1.27 9.534-3.811 2.44-2.54 3.661-5.89 3.661-10.047ZM509.436 68.492V26.92h5.959v17.755h23.41V26.92h5.959v41.572h-5.959V50.304h-23.41v18.188h-5.959ZM558.401 68.492V26.92h5.959v13.857h10.641c4.654 0 8.286 1.27 10.896 3.811 2.668 2.483 4.001 5.832 4.001 10.047 0 4.215-1.333 7.592-4.001 10.133-2.61 2.483-6.214 3.724-10.811 3.724h-16.685Zm5.959-5.63h10.726c2.724 0 4.881-.75 6.47-2.251 1.589-1.56 2.383-3.551 2.383-5.976 0-2.483-.823-4.475-2.468-5.976-1.589-1.502-3.746-2.252-6.47-2.252H564.36v16.455ZM643.149 68.492V51.603a28.852 28.852 0 0 1-3.234 1.733c-2.497 1.154-5.25 1.732-8.258 1.732-4.653 0-8.456-1.473-11.407-4.417-2.894-3.003-4.341-6.871-4.341-11.606V26.92h5.959v12.125c0 3.06.936 5.572 2.809 7.535 1.929 1.905 4.398 2.858 7.406 2.858 2.781 0 5.476-.635 8.087-1.905 1.135-.635 2.128-1.3 2.979-1.992V26.92h5.959v41.572h-5.959ZM687.419 68.492v-5.63c-.851 1.213-1.929 2.31-3.235 3.291-3.008 2.137-6.328 3.205-9.96 3.205-4.143 0-7.604-1.213-10.385-3.638-2.724-2.482-4.086-5.312-4.086-8.487 0-7.044 3.972-11.23 11.918-12.558l15.748-2.599c0-3.06-.965-5.543-2.894-7.448-1.873-1.963-4.313-2.945-7.321-2.945-2.951 0-5.76 1.01-8.428 3.032-1.248 1.097-2.27 2.107-3.064 3.031l-3.831-3.897c1.078-1.444 2.412-2.743 4.001-3.898 3.462-2.598 7.236-3.897 11.322-3.897 4.653 0 8.513 1.53 11.577 4.59 3.065 3.06 4.597 6.871 4.597 11.432v26.416h-5.959Zm0-18.62v-2.6l-14.046 2.6c-5.108.923-7.661 3.377-7.661 7.36 0 1.849.737 3.407 2.213 4.678 1.532 1.212 3.632 1.819 6.299 1.819 3.916 0 7.094-1.27 9.535-3.811 2.44-2.54 3.66-5.89 3.66-10.047ZM737.179 56.8l4.256 3.897c-1.135 1.444-2.639 2.887-4.512 4.33-3.972 2.888-8.143 4.331-12.513 4.331-5.619 0-10.443-2.107-14.472-6.322-3.973-4.215-5.959-9.325-5.959-15.33 0-6.005 1.986-11.115 5.959-15.33 4.029-4.215 8.853-6.322 14.472-6.322 4.426 0 8.512 1.386 12.258 4.157a28.79 28.79 0 0 1 4.342 4.07l-4.257 4.331a20.062 20.062 0 0 0-3.15-3.464c-2.724-2.31-5.788-3.465-9.193-3.465-3.916 0-7.321 1.56-10.216 4.677-2.837 3.06-4.256 6.842-4.256 11.346 0 4.504 1.419 8.314 4.256 11.432 2.895 3.06 6.3 4.59 10.216 4.59 3.235 0 6.384-1.154 9.449-3.464 1.305-1.097 2.412-2.252 3.32-3.464ZM760.133 68.492V32.549h-14.471v-5.63h34.902v5.63h-14.472v35.943h-5.959ZM789.093 68.492V26.92h5.959v13.857h10.641c4.654 0 8.286 1.27 10.897 3.811 2.667 2.483 4.001 5.832 4.001 10.047 0 4.215-1.334 7.592-4.001 10.133-2.611 2.483-6.215 3.724-10.812 3.724h-16.685Zm5.959-5.63h10.726c2.724 0 4.881-.75 6.47-2.251 1.589-1.56 2.384-3.551 2.384-5.976 0-2.483-.823-4.475-2.469-5.976-1.589-1.502-3.746-2.252-6.47-2.252h-10.641v16.455ZM831.241 68.492V26.92h5.959v17.755h8.939c.681-5.14 2.951-9.527 6.81-13.165 3.859-3.637 8.399-5.456 13.62-5.456 5.619 0 10.414 2.107 14.387 6.322 4.029 4.215 6.044 9.325 6.044 15.33 0 6.005-2.015 11.115-6.044 15.33-3.973 4.215-8.768 6.322-14.387 6.322-5.221 0-9.761-1.848-13.62-5.543-3.859-3.695-6.129-8.199-6.81-13.51H837.2v18.187h-5.959Zm25.113-9.354c2.894 3.06 6.3 4.59 10.215 4.59 3.916 0 7.293-1.53 10.131-4.59 2.894-3.118 4.341-6.928 4.341-11.432 0-4.504-1.447-8.286-4.341-11.346-2.838-3.118-6.215-4.677-10.131-4.677-3.915 0-7.321 1.56-10.215 4.677-2.838 3.06-4.256 6.842-4.256 11.346 0 4.504 1.418 8.314 4.256 11.432ZM366.625 171.863v-62.972h17.053v25.703l22.105-25.703h20.211l-22.737 26.345 24 36.627h-19.579l-15.79-24.418-8.21 9.639v14.779h-17.053ZM451.419 152.329c3.031 3.17 6.779 4.755 11.242 4.755 4.463 0 8.211-1.585 11.242-4.755 3.032-3.17 4.548-7.154 4.548-11.952s-1.516-8.782-4.548-11.952c-3.031-3.17-6.779-4.755-11.242-4.755-4.463 0-8.211 1.585-11.242 4.755-3.032 3.17-4.548 7.154-4.548 11.952s1.516 8.782 4.548 11.952Zm-12 11.181c-6.401-6.426-9.601-14.137-9.601-23.133 0-8.996 3.2-16.707 9.601-23.133 6.4-6.426 14.147-9.639 23.242-9.639s16.843 3.213 23.243 9.639c6.4 6.426 9.6 14.137 9.6 23.133 0 8.996-3.2 16.707-9.6 23.133-6.4 6.426-14.148 9.638-23.243 9.638-9.095 0-16.842-3.212-23.242-9.638ZM508.116 171.863v-62.972h15.158l18.316 23.775 18.316-23.775h15.159v62.972h-17.053v-36.627l-16.422 21.205-16.421-21.205v36.627h-17.053ZM626.243 171.863v-7.711h-.631c-1.516 1.885-3.074 3.385-4.674 4.498-3.705 2.999-8.253 4.498-13.642 4.498-5.643 0-10.232-1.67-13.769-5.012-3.453-3.427-5.179-7.753-5.179-12.98 0-5.14 1.6-9.51 4.8-13.108 3.284-3.684 7.79-6.041 13.516-7.069l19.579-3.598c-.337-2.399-1.431-4.37-3.284-5.912-1.853-1.628-4.337-2.442-7.453-2.442-3.874 0-7.284 1.2-10.232 3.599-1.515 1.114-2.736 2.27-3.663 3.47l-10.105-10.282c1.852-2.313 4-4.326 6.442-6.04 5.895-4.112 12.169-6.169 18.821-6.169 7.748 0 14.106 2.399 19.074 7.197 4.969 4.798 7.453 10.753 7.453 17.864v39.197h-17.053Zm0-26.988v-1.285l-13.895 2.57c-4.631.943-6.947 3.085-6.947 6.426 0 4.284 2.526 6.426 7.579 6.426 3.789 0 6.947-1.328 9.474-3.984 2.526-2.656 3.789-6.041 3.789-10.153ZM659.723 171.863v-62.972h17.053v23.132h23.368v-23.132h17.053v62.972h-17.053v-23.775h-23.368v23.775h-17.053ZM725.403 186v-30.201h3.79c1.684-1.542 3.368-3.77 5.052-6.683 3.369-6.169 5.053-13.58 5.053-22.233v-17.992h47.37v46.908h8.21V186h-17.053v-14.137h-35.369V186h-17.053Zm22.106-30.201h22.106v-30.844h-13.264v1.928c0 8.482-1.474 15.893-4.421 22.233-1.6 3.084-3.074 5.312-4.421 6.683ZM865.024 171.863v-62.972h17.053v62.972h-17.053Zm-42.316-15.422h10.105c2.19 0 3.874-.557 5.053-1.67 1.263-1.2 1.895-2.785 1.895-4.755 0-1.971-.632-3.513-1.895-4.627-1.179-1.199-2.863-1.799-5.053-1.799h-10.105v12.851Zm-17.053 15.422v-62.972h17.053v19.277h11.368c6.822 0 12.422 2.099 16.801 6.297 4.379 4.113 6.568 9.296 6.568 15.551 0 6.254-2.189 11.48-6.568 15.679-4.379 4.112-9.979 6.168-16.801 6.168h-28.421Z" fill="#EEEFF7"/><g opacity=".5" fill-rule="evenodd" clip-rule="evenodd" fill="#EEEFF7"><path d="M597.967 354.288a1.91 1.91 0 0 1 .588-.306c.221-.071.457-.107.695-.107.238 0 .475.036.695.107.22.071.42.175.588.306L621 370.17l20.467-15.882c.34-.264.802-.412 1.283-.412.481 0 .943.148 1.283.412.341.264.532.622.532.996 0 .373-.191.731-.532.995l-21.75 16.875a1.91 1.91 0 0 1-.588.306 2.275 2.275 0 0 1-1.39 0 1.91 1.91 0 0 1-.588-.306l-21.75-16.875a1.426 1.426 0 0 1-.394-.456 1.133 1.133 0 0 1-.139-.539c0-.185.047-.368.139-.539a1.44 1.44 0 0 1 .394-.457Z"/><path d="M597.967 344.442a1.91 1.91 0 0 1 .588-.306c.221-.071.457-.107.695-.107.238 0 .475.036.695.107.22.071.42.175.588.306L621 360.324l20.467-15.882c.168-.131.368-.235.589-.306a2.299 2.299 0 0 1 1.389 0c.22.071.42.175.588.306.169.13.303.286.394.456.091.171.138.354.138.539 0 .185-.047.368-.138.539a1.44 1.44 0 0 1-.394.457l-21.75 16.875a1.91 1.91 0 0 1-.588.306c-.22.071-.457.107-.695.107-.238 0-.474-.036-.695-.107a1.91 1.91 0 0 1-.588-.306l-21.75-16.875a1.44 1.44 0 0 1-.394-.457 1.133 1.133 0 0 1-.139-.539c0-.185.047-.368.139-.539.091-.171.225-.326.394-.456Z"/></g><path fill-rule="evenodd" clip-rule="evenodd" d="M597.967 381.288a1.91 1.91 0 0 1 .588-.306c.221-.071.457-.107.695-.107.238 0 .475.036.695.107.22.071.42.175.588.306L621 397.17l20.467-15.882c.34-.264.802-.412 1.283-.412.481 0 .943.148 1.283.412.341.264.532.622.532.996 0 .373-.191.731-.532.995l-21.75 16.875a1.91 1.91 0 0 1-.588.306 2.275 2.275 0 0 1-1.39 0 1.91 1.91 0 0 1-.588-.306l-21.75-16.875a1.426 1.426 0 0 1-.394-.456 1.133 1.133 0 0 1-.139-.539c0-.185.047-.368.139-.539a1.44 1.44 0 0 1 .394-.457Z" fill="#EEEFF7"/><path fill-rule="evenodd" clip-rule="evenodd" d="M597.967 371.442a1.91 1.91 0 0 1 .588-.306c.221-.071.457-.107.695-.107.238 0 .475.036.695.107.22.071.42.175.588.306L621 387.324l20.467-15.882c.168-.131.368-.235.589-.306a2.299 2.299 0 0 1 1.389 0c.22.071.42.175.588.306.169.13.303.286.394.456.091.171.138.354.138.539 0 .185-.047.368-.138.539a1.44 1.44 0 0 1-.394.457l-21.75 16.875a1.91 1.91 0 0 1-.588.306c-.22.071-.457.107-.695.107-.238 0-.474-.036-.695-.107a1.91 1.91 0 0 1-.588-.306l-21.75-16.875a1.44 1.44 0 0 1-.394-.457 1.133 1.133 0 0 1-.139-.539c0-.185.047-.368.139-.539.091-.171.225-.326.394-.456Z" fill="#EEEFF7"/></svg>