<svg width="887" height="411" viewBox="0 0 887 411" fill="none" xmlns="http://www.w3.org/2000/svg">
<path d="M388.52 261.32L377.44 247.44H381.44L392.36 261.28V247.44H395.8V261.28L406.72 247.44H410.72L399.64 261.28L411.08 276H406.96L395.8 261.52V276H392.36V261.52L381.16 276H377.04L388.52 261.32ZM430.5 254.56V273.04H433.62V283.44H430.22V276H415.3V283.44H411.94V273.04H413.66C414.886 271.333 415.9 269.48 416.7 267.48C417.526 265.453 418.14 263.347 418.54 261.16C418.966 258.947 419.193 256.747 419.22 254.56H430.5ZM422.34 257.32C422.233 259.133 421.953 261.013 421.5 262.96C421.046 264.88 420.46 266.72 419.74 268.48C419.046 270.24 418.233 271.76 417.3 273.04H427.1V257.32H422.34ZM446.102 254.16C447.942 254.16 449.515 254.56 450.822 255.36C452.155 256.16 453.169 257.293 453.862 258.76C454.582 260.2 454.942 261.893 454.942 263.84V265.96H440.262C440.315 268.387 440.929 270.24 442.102 271.52C443.302 272.773 444.969 273.4 447.102 273.4C448.462 273.4 449.662 273.28 450.702 273.04C451.769 272.773 452.862 272.4 453.982 271.92V275C452.889 275.48 451.809 275.827 450.742 276.04C449.675 276.28 448.409 276.4 446.942 276.4C444.915 276.4 443.115 275.987 441.542 275.16C439.995 274.333 438.782 273.107 437.902 271.48C437.049 269.827 436.622 267.813 436.622 265.44C436.622 263.093 437.009 261.08 437.782 259.4C438.582 257.72 439.689 256.427 441.102 255.52C442.542 254.613 444.209 254.16 446.102 254.16ZM446.062 257.04C444.382 257.04 443.049 257.587 442.062 258.68C441.102 259.747 440.529 261.24 440.342 263.16H451.262C451.262 261.933 451.075 260.867 450.702 259.96C450.329 259.053 449.755 258.347 448.982 257.84C448.235 257.307 447.262 257.04 446.062 257.04ZM483.4 254.56V276H480.24V262.32C480.24 261.76 480.253 261.173 480.28 260.56C480.333 259.947 480.387 259.347 480.44 258.76H480.32L473.32 276H470.36L463.56 258.76H463.44C463.493 259.347 463.52 259.947 463.52 260.56C463.547 261.173 463.56 261.8 463.56 262.44V276H460.4V254.56H465.08L471.84 271.8L478.72 254.56H483.4ZM514.028 257.52H507.028V276H503.548V257.52H496.628V254.56H514.028V257.52ZM526.141 254.16C527.981 254.16 529.554 254.56 530.861 255.36C532.194 256.16 533.208 257.293 533.901 258.76C534.621 260.2 534.981 261.893 534.981 263.84V265.96H520.301C520.354 268.387 520.968 270.24 522.141 271.52C523.341 272.773 525.008 273.4 527.141 273.4C528.501 273.4 529.701 273.28 530.741 273.04C531.808 272.773 532.901 272.4 534.021 271.92V275C532.928 275.48 531.848 275.827 530.781 276.04C529.714 276.28 528.448 276.4 526.981 276.4C524.954 276.4 523.154 275.987 521.581 275.16C520.034 274.333 518.821 273.107 517.941 271.48C517.088 269.827 516.661 267.813 516.661 265.44C516.661 263.093 517.048 261.08 517.821 259.4C518.621 257.72 519.728 256.427 521.141 255.52C522.581 254.613 524.248 254.16 526.141 254.16ZM526.101 257.04C524.421 257.04 523.088 257.587 522.101 258.68C521.141 259.747 520.568 261.24 520.381 263.16H531.301C531.301 261.933 531.114 260.867 530.741 259.96C530.368 259.053 529.794 258.347 529.021 257.84C528.274 257.307 527.301 257.04 526.101 257.04ZM539.319 263.12C539.319 260 539.626 257.347 540.239 255.16C540.879 252.947 541.852 251.187 543.159 249.88C544.492 248.547 546.199 247.653 548.279 247.2C550.012 246.827 551.706 246.493 553.359 246.2C555.012 245.907 556.559 245.64 557.999 245.4L558.599 248.48C557.906 248.587 557.132 248.72 556.279 248.88C555.426 249.013 554.559 249.16 553.679 249.32C552.799 249.453 551.946 249.6 551.119 249.76C550.319 249.893 549.612 250.027 548.999 250.16C548.119 250.347 547.332 250.667 546.639 251.12C545.946 251.547 545.346 252.133 544.839 252.88C544.359 253.627 543.972 254.547 543.679 255.64C543.386 256.733 543.212 258.027 543.159 259.52H543.399C543.772 259.013 544.279 258.493 544.919 257.96C545.586 257.427 546.372 256.973 547.279 256.6C548.212 256.227 549.266 256.04 550.439 256.04C552.306 256.04 553.852 256.453 555.079 257.28C556.332 258.08 557.266 259.2 557.879 260.64C558.519 262.08 558.839 263.76 558.839 265.68C558.839 268.053 558.426 270.04 557.599 271.64C556.772 273.24 555.626 274.44 554.159 275.24C552.692 276.013 550.986 276.4 549.039 276.4C547.572 276.4 546.239 276.12 545.039 275.56C543.839 274.973 542.812 274.12 541.959 273C541.106 271.88 540.452 270.493 539.999 268.84C539.546 267.187 539.319 265.28 539.319 263.12ZM549.319 273.48C550.492 273.48 551.506 273.24 552.359 272.76C553.239 272.28 553.919 271.493 554.399 270.4C554.879 269.307 555.119 267.853 555.119 266.04C555.119 263.853 554.706 262.133 553.879 260.88C553.079 259.6 551.746 258.96 549.879 258.96C548.706 258.96 547.639 259.227 546.679 259.76C545.719 260.267 544.919 260.853 544.279 261.52C543.639 262.187 543.186 262.747 542.919 263.2C542.919 264.507 543.012 265.773 543.199 267C543.386 268.227 543.706 269.333 544.159 270.32C544.639 271.28 545.292 272.053 546.119 272.64C546.972 273.2 548.039 273.48 549.319 273.48ZM565.704 276H561.624L567.744 267C566.918 266.787 566.118 266.453 565.344 266C564.571 265.52 563.944 264.867 563.464 264.04C562.984 263.187 562.744 262.133 562.744 260.88C562.744 258.827 563.438 257.267 564.824 256.2C566.211 255.107 568.051 254.56 570.344 254.56H579.944V276H576.424V267.48H571.224L565.704 276ZM566.144 260.92C566.144 262.147 566.598 263.067 567.504 263.68C568.438 264.267 569.731 264.56 571.384 264.56H576.424V257.48H570.704C569.078 257.48 567.904 257.8 567.184 258.44C566.491 259.08 566.144 259.907 566.144 260.92ZM612.953 259.96C612.953 261.293 612.553 262.333 611.753 263.08C610.953 263.827 609.926 264.333 608.673 264.6V264.76C610.006 264.947 611.166 265.427 612.153 266.2C613.139 266.947 613.633 268.12 613.633 269.72C613.633 270.627 613.459 271.467 613.113 272.24C612.793 273.013 612.286 273.68 611.593 274.24C610.899 274.8 610.006 275.24 608.913 275.56C607.819 275.853 606.499 276 604.953 276H595.713V254.56H604.913C606.433 254.56 607.793 254.733 608.993 255.08C610.219 255.4 611.179 255.96 611.873 256.76C612.593 257.533 612.953 258.6 612.953 259.96ZM609.993 269.72C609.993 268.493 609.526 267.613 608.593 267.08C607.659 266.547 606.286 266.28 604.473 266.28H599.233V273.16H604.553C606.313 273.16 607.659 272.907 608.593 272.4C609.526 271.867 609.993 270.973 609.993 269.72ZM609.393 260.4C609.393 259.387 609.019 258.653 608.273 258.2C607.553 257.72 606.366 257.48 604.713 257.48H599.233V263.36H604.072C605.806 263.36 607.126 263.12 608.033 262.64C608.939 262.16 609.393 261.413 609.393 260.4ZM645.864 254.56V276H642.344V257.56H631.264V276H627.744V254.56H645.864ZM662.905 254.16C665.545 254.16 667.665 255.08 669.265 256.92C670.891 258.76 671.705 261.533 671.705 265.24C671.705 267.667 671.331 269.72 670.585 271.4C669.865 273.053 668.838 274.307 667.505 275.16C666.198 275.987 664.651 276.4 662.865 276.4C661.771 276.4 660.798 276.253 659.945 275.96C659.091 275.667 658.358 275.293 657.745 274.84C657.158 274.36 656.651 273.84 656.225 273.28H655.985C656.038 273.733 656.091 274.307 656.145 275C656.198 275.693 656.225 276.293 656.225 276.8V285.6H652.705V254.56H655.585L656.065 257.48H656.225C656.651 256.867 657.158 256.307 657.745 255.8C658.358 255.293 659.078 254.893 659.905 254.6C660.758 254.307 661.758 254.16 662.905 254.16ZM662.265 257.12C660.825 257.12 659.665 257.4 658.785 257.96C657.905 258.493 657.265 259.307 656.865 260.4C656.465 261.493 656.251 262.88 656.225 264.56V265.24C656.225 267 656.411 268.493 656.785 269.72C657.158 270.947 657.785 271.88 658.665 272.52C659.571 273.16 660.798 273.48 662.345 273.48C663.651 273.48 664.718 273.12 665.545 272.4C666.398 271.68 667.025 270.707 667.425 269.48C667.851 268.227 668.065 266.8 668.065 265.2C668.065 262.747 667.585 260.787 666.625 259.32C665.691 257.853 664.238 257.12 662.265 257.12ZM680.634 267.64C680.634 267.88 680.621 268.227 680.594 268.68C680.594 269.107 680.581 269.573 680.554 270.08C680.527 270.56 680.501 271.027 680.474 271.48C680.447 271.907 680.421 272.253 680.394 272.52L691.874 254.56H696.194V276H692.914V263.36C692.914 262.933 692.914 262.373 692.914 261.68C692.941 260.987 692.967 260.307 692.994 259.64C693.021 258.947 693.047 258.427 693.074 258.08L681.674 276H677.314V254.56H680.634V267.64ZM719.337 276H715.777V257.48H709.457C709.191 260.867 708.857 263.76 708.457 266.16C708.057 268.533 707.551 270.467 706.937 271.96C706.324 273.453 705.591 274.547 704.737 275.24C703.884 275.933 702.884 276.28 701.737 276.28C701.391 276.28 701.044 276.253 700.697 276.2C700.377 276.173 700.111 276.107 699.897 276V273.36C700.057 273.413 700.231 273.453 700.417 273.48C700.604 273.507 700.791 273.52 700.977 273.52C701.564 273.52 702.097 273.28 702.577 272.8C703.057 272.32 703.484 271.587 703.857 270.6C704.257 269.613 704.617 268.373 704.937 266.88C705.257 265.36 705.537 263.573 705.777 261.52C706.017 259.467 706.231 257.147 706.417 254.56H719.337V276ZM744.782 265.24C744.782 267.027 744.542 268.613 744.062 270C743.609 271.36 742.942 272.52 742.062 273.48C741.209 274.44 740.156 275.173 738.902 275.68C737.676 276.16 736.302 276.4 734.782 276.4C733.369 276.4 732.062 276.16 730.862 275.68C729.662 275.173 728.622 274.44 727.742 273.48C726.862 272.52 726.169 271.36 725.662 270C725.182 268.613 724.942 267.027 724.942 265.24C724.942 262.867 725.342 260.867 726.142 259.24C726.942 257.587 728.089 256.333 729.582 255.48C731.076 254.6 732.849 254.16 734.902 254.16C736.849 254.16 738.556 254.6 740.022 255.48C741.516 256.333 742.676 257.587 743.502 259.24C744.356 260.867 744.782 262.867 744.782 265.24ZM728.582 265.24C728.582 266.92 728.796 268.387 729.222 269.64C729.676 270.867 730.369 271.813 731.302 272.48C732.236 273.147 733.422 273.48 734.862 273.48C736.302 273.48 737.489 273.147 738.422 272.48C739.356 271.813 740.036 270.867 740.462 269.64C740.916 268.387 741.142 266.92 741.142 265.24C741.142 263.533 740.916 262.08 740.462 260.88C740.009 259.68 739.316 258.76 738.382 258.12C737.476 257.453 736.289 257.12 734.822 257.12C732.636 257.12 731.049 257.84 730.062 259.28C729.076 260.72 728.582 262.707 728.582 265.24ZM775.3 254.56L766.46 264.96L776.06 276H772.06L762.78 265.12V276H759.5V265.12L750.22 276H746.22L755.82 264.96L746.98 254.56H750.82L759.5 264.96V254.56H762.78V264.96L771.5 254.56H775.3ZM787.078 254.16C788.918 254.16 790.492 254.56 791.798 255.36C793.132 256.16 794.145 257.293 794.838 258.76C795.558 260.2 795.918 261.893 795.918 263.84V265.96H781.238C781.292 268.387 781.905 270.24 783.078 271.52C784.278 272.773 785.945 273.4 788.078 273.4C789.438 273.4 790.638 273.28 791.678 273.04C792.745 272.773 793.838 272.4 794.958 271.92V275C793.865 275.48 792.785 275.827 791.718 276.04C790.652 276.28 789.385 276.4 787.918 276.4C785.892 276.4 784.092 275.987 782.518 275.16C780.972 274.333 779.758 273.107 778.878 271.48C778.025 269.827 777.598 267.813 777.598 265.44C777.598 263.093 777.985 261.08 778.758 259.4C779.558 257.72 780.665 256.427 782.078 255.52C783.518 254.613 785.185 254.16 787.078 254.16ZM787.038 257.04C785.358 257.04 784.025 257.587 783.038 258.68C782.078 259.747 781.505 261.24 781.318 263.16H792.238C792.238 261.933 792.052 260.867 791.678 259.96C791.305 259.053 790.732 258.347 789.958 257.84C789.212 257.307 788.238 257.04 787.038 257.04ZM804.897 254.56V263.48H816.537V254.56H820.057V276H816.537V266.44H804.897V276H801.377V254.56H804.897ZM830.165 267.64C830.165 267.88 830.152 268.227 830.125 268.68C830.125 269.107 830.112 269.573 830.085 270.08C830.059 270.56 830.032 271.027 830.005 271.48C829.979 271.907 829.952 272.253 829.925 272.52L841.405 254.56H845.725V276H842.445V263.36C842.445 262.933 842.445 262.373 842.445 261.68C842.472 260.987 842.499 260.307 842.525 259.64C842.552 258.947 842.579 258.427 842.605 258.08L831.205 276H826.845V254.56H830.165V267.64ZM855.868 267.64C855.868 267.88 855.855 268.227 855.828 268.68C855.828 269.107 855.815 269.573 855.788 270.08C855.762 270.56 855.735 271.027 855.708 271.48C855.682 271.907 855.655 272.253 855.628 272.52L867.108 254.56H871.428V276H868.148V263.36C868.148 262.933 868.148 262.373 868.148 261.68C868.175 260.987 868.202 260.307 868.228 259.64C868.255 258.947 868.282 258.427 868.308 258.08L856.908 276H852.548V254.56H855.868V267.64Z" fill="white"/>
<path d="M158.499 102.75L267.187 -0.000136334L317.01 1.20503e-05V192.098H235.354L235.354 142.957H267.187V71.4781L158.507 174.228L49.8102 71.4781V142.957H81.6567L81.6567 192.098H0.0012207V0H49.8102L158.499 102.75Z" fill="#F9FBFA"/>
<path d="M267.193 218.902H317.008V411H267.193L267.193 218.902Z" fill="#F9FBFA"/>
<path fill-rule="evenodd" clip-rule="evenodd" d="M6.10784e-06 218.902L49.8156 218.902L49.8156 268.043L167.562 268.043C207.58 268.043 240.021 300.045 240.021 339.522C240.021 378.998 207.58 411 167.562 411H0L6.10784e-06 218.902ZM49.8156 366.326H167.562C182.568 366.326 194.734 354.325 194.734 339.522C194.734 324.718 182.568 312.717 167.562 312.717H49.8156L49.8156 366.326Z" fill="#F9FBFA"/>
<path d="M414.077 52.9025L418.333 56.7998C416.347 59.3403 414.247 61.4478 412.033 63.1222C406.472 67.2794 400.343 69.3581 393.646 69.3581C385.133 69.3581 377.897 66.3268 371.938 60.2642C365.979 54.2016 363 46.8399 363 38.179C363 29.5182 365.979 22.1565 371.938 16.0939C377.897 10.0313 385.133 7 393.646 7C400.286 7 406.358 9.10747 411.863 13.3224C414.247 15.1701 416.261 17.2487 417.907 19.5582L413.651 23.4556C412.232 21.4347 410.586 19.7026 408.713 18.2591C404.457 14.7948 399.435 13.0626 393.646 13.0626C386.836 13.0626 381.075 15.4876 376.365 20.3377C371.711 25.13 369.385 31.0771 369.385 38.179C369.385 45.2809 371.711 51.2569 376.365 56.107C381.075 60.8993 386.836 63.2955 393.646 63.2955C399.491 63.2955 404.599 61.5633 408.969 58.099C410.898 56.5977 412.601 54.8656 414.077 52.9025Z" fill="#EEEFF7"/>
<path d="M437.081 68.492V32.5495H422.609V26.9199H457.512V32.5495H443.04V68.492H437.081Z" fill="#EEEFF7"/>
<path d="M489.897 68.492V62.8624C489.045 64.0749 487.967 65.172 486.662 66.1535C483.654 68.2899 480.334 69.3581 476.702 69.3581C472.559 69.3581 469.097 68.1455 466.316 65.7205C463.592 63.2377 462.23 60.4085 462.23 57.2329C462.23 50.1887 466.203 46.0027 474.148 44.6747L489.897 42.0764C489.897 39.0162 488.932 36.5335 487.002 34.6281C485.129 32.665 482.689 31.6834 479.681 31.6834C476.73 31.6834 473.921 32.6938 471.254 34.7147C470.005 35.8117 468.984 36.8222 468.189 37.746L464.358 33.8486C465.437 32.4051 466.77 31.106 468.359 29.9512C471.821 27.353 475.595 26.0538 479.681 26.0538C484.335 26.0538 488.194 27.5839 491.259 30.6441C494.323 33.7043 495.856 37.515 495.856 42.0764V68.492H489.897ZM489.897 49.8712V47.2729L475.851 49.8712C470.743 50.795 468.189 53.2489 468.189 57.2329C468.189 59.0805 468.927 60.6395 470.402 61.9097C471.935 63.1222 474.034 63.7285 476.702 63.7285C480.618 63.7285 483.796 62.4582 486.236 59.9177C488.676 57.3772 489.897 54.0284 489.897 49.8712Z" fill="#EEEFF7"/>
<path d="M509.436 68.492V26.9199H515.395V44.6747H538.805V26.9199H544.764V68.492H538.805V50.3042H515.395V68.492H509.436Z" fill="#EEEFF7"/>
<path d="M558.401 68.492V26.9199H564.36V40.7773H575.001C579.655 40.7773 583.287 42.0475 585.897 44.588C588.565 47.0708 589.898 50.4197 589.898 54.6346C589.898 58.8496 588.565 62.2273 585.897 64.7678C583.287 67.2506 579.683 68.492 575.086 68.492H558.401ZM564.36 62.8624H575.086C577.81 62.8624 579.967 62.1118 581.556 60.6106C583.145 59.0517 583.939 57.0597 583.939 54.6346C583.939 52.1519 583.116 50.1599 581.471 48.6586C579.882 47.1574 577.725 46.4068 575.001 46.4068H564.36V62.8624Z" fill="#EEEFF7"/>
<path d="M643.149 68.492V51.6033C642.128 52.2385 641.05 52.8158 639.915 53.3355C637.418 54.4903 634.665 55.0677 631.657 55.0677C627.004 55.0677 623.201 53.5953 620.25 50.6506C617.356 47.6482 615.909 43.7797 615.909 39.0451V26.9199H621.868V39.0451C621.868 42.1053 622.804 44.6169 624.677 46.58C626.606 48.4854 629.075 49.4381 632.083 49.4381C634.864 49.4381 637.559 48.803 640.17 47.5327C641.305 46.8976 642.298 46.2336 643.149 45.5407V26.9199H649.108V68.492H643.149Z" fill="#EEEFF7"/>
<path d="M687.419 68.492V62.8624C686.568 64.0749 685.49 65.172 684.184 66.1535C681.176 68.2899 677.856 69.3581 674.224 69.3581C670.081 69.3581 666.62 68.1455 663.839 65.7205C661.115 63.2377 659.753 60.4085 659.753 57.2329C659.753 50.1887 663.725 46.0027 671.671 44.6747L687.419 42.0764C687.419 39.0162 686.454 36.5335 684.525 34.6281C682.652 32.665 680.212 31.6834 677.204 31.6834C674.253 31.6834 671.444 32.6938 668.776 34.7147C667.528 35.8117 666.506 36.8222 665.712 37.746L661.881 33.8486C662.959 32.4051 664.293 31.106 665.882 29.9512C669.344 27.353 673.118 26.0538 677.204 26.0538C681.857 26.0538 685.717 27.5839 688.781 30.6441C691.846 33.7043 693.378 37.515 693.378 42.0764V68.492H687.419ZM687.419 49.8712V47.2729L673.373 49.8712C668.265 50.795 665.712 53.2489 665.712 57.2329C665.712 59.0805 666.449 60.6395 667.925 61.9097C669.457 63.1222 671.557 63.7285 674.224 63.7285C678.14 63.7285 681.318 62.4582 683.759 59.9177C686.199 57.3772 687.419 54.0284 687.419 49.8712Z" fill="#EEEFF7"/>
<path d="M737.179 56.7998L741.435 60.6972C740.3 62.1407 738.796 63.5842 736.923 65.0276C732.951 67.9146 728.78 69.3581 724.41 69.3581C718.791 69.3581 713.967 67.2506 709.938 63.0356C705.965 58.8207 703.979 53.7108 703.979 47.7059C703.979 41.7011 705.965 36.5912 709.938 32.3763C713.967 28.1613 718.791 26.0538 724.41 26.0538C728.836 26.0538 732.922 27.4396 736.668 30.211C738.2 31.3658 739.648 32.7227 741.01 34.2816L736.753 38.6121C735.845 37.3418 734.795 36.187 733.603 35.1477C730.879 32.8382 727.815 31.6834 724.41 31.6834C720.494 31.6834 717.089 33.2423 714.194 36.3602C711.357 39.4204 709.938 43.2023 709.938 47.7059C709.938 52.2096 711.357 56.0204 714.194 59.1383C717.089 62.1984 720.494 63.7285 724.41 63.7285C727.645 63.7285 730.794 62.5737 733.859 60.2642C735.164 59.1671 736.271 58.0123 737.179 56.7998Z" fill="#EEEFF7"/>
<path d="M760.133 68.492V32.5495H745.662V26.9199H780.564V32.5495H766.092V68.492H760.133Z" fill="#EEEFF7"/>
<path d="M789.093 68.492V26.9199H795.052V40.7773H805.693C810.347 40.7773 813.979 42.0475 816.59 44.588C819.257 47.0708 820.591 50.4197 820.591 54.6346C820.591 58.8496 819.257 62.2273 816.59 64.7678C813.979 67.2506 810.375 68.492 805.778 68.492H789.093ZM795.052 62.8624H805.778C808.502 62.8624 810.659 62.1118 812.248 60.6106C813.837 59.0517 814.632 57.0597 814.632 54.6346C814.632 52.1519 813.809 50.1599 812.163 48.6586C810.574 47.1574 808.417 46.4068 805.693 46.4068H795.052V62.8624Z" fill="#EEEFF7"/>
<path d="M831.241 68.492V26.9199H837.2V44.6747H846.139C846.82 39.5359 849.09 35.1477 852.949 31.5102C856.808 27.8726 861.348 26.0538 866.569 26.0538C872.188 26.0538 876.983 28.1613 880.956 32.3763C884.985 36.5912 887 41.7011 887 47.7059C887 53.7108 884.985 58.8207 880.956 63.0356C876.983 67.2506 872.188 69.3581 866.569 69.3581C861.348 69.3581 856.808 67.5104 852.949 63.8151C849.09 60.1198 846.82 55.6162 846.139 50.3042H837.2V68.492H831.241ZM856.354 59.1383C859.248 62.1984 862.654 63.7285 866.569 63.7285C870.485 63.7285 873.862 62.1984 876.7 59.1383C879.594 56.0204 881.041 52.2096 881.041 47.7059C881.041 43.2023 879.594 39.4204 876.7 36.3602C873.862 33.2423 870.485 31.6834 866.569 31.6834C862.654 31.6834 859.248 33.2423 856.354 36.3602C853.516 39.4204 852.098 43.2023 852.098 47.7059C852.098 52.2096 853.516 56.0204 856.354 59.1383Z" fill="#EEEFF7"/>
<path d="M366.625 171.863V108.891H383.678V134.594L405.783 108.891H425.994L403.257 135.236L427.257 171.863H407.678L391.888 147.445L383.678 157.084V171.863H366.625Z" fill="#EEEFF7"/>
<path d="M451.419 152.329C454.45 155.499 458.198 157.084 462.661 157.084C467.124 157.084 470.872 155.499 473.903 152.329C476.935 149.159 478.451 145.175 478.451 140.377C478.451 135.579 476.935 131.595 473.903 128.425C470.872 125.255 467.124 123.67 462.661 123.67C458.198 123.67 454.45 125.255 451.419 128.425C448.387 131.595 446.871 135.579 446.871 140.377C446.871 145.175 448.387 149.159 451.419 152.329ZM439.419 163.51C433.018 157.084 429.818 149.373 429.818 140.377C429.818 131.381 433.018 123.67 439.419 117.244C445.819 110.818 453.566 107.605 462.661 107.605C471.756 107.605 479.504 110.818 485.904 117.244C492.304 123.67 495.504 131.381 495.504 140.377C495.504 149.373 492.304 157.084 485.904 163.51C479.504 169.936 471.756 173.148 462.661 173.148C453.566 173.148 445.819 169.936 439.419 163.51Z" fill="#EEEFF7"/>
<path d="M508.116 171.863V108.891H523.274L541.59 132.666L559.906 108.891H575.065V171.863H558.012V135.236L541.59 156.441L525.169 135.236V171.863H508.116Z" fill="#EEEFF7"/>
<path d="M626.243 171.863V164.152H625.612C624.096 166.037 622.538 167.537 620.938 168.65C617.233 171.649 612.685 173.148 607.296 173.148C601.653 173.148 597.064 171.478 593.527 168.136C590.074 164.709 588.348 160.383 588.348 155.156C588.348 150.016 589.948 145.646 593.148 142.048C596.432 138.364 600.938 136.007 606.664 134.979L626.243 131.381C625.906 128.982 624.812 127.011 622.959 125.469C621.106 123.841 618.622 123.027 615.506 123.027C611.632 123.027 608.222 124.227 605.274 126.626C603.759 127.74 602.538 128.896 601.611 130.096L591.506 119.814C593.358 117.501 595.506 115.488 597.948 113.774C603.843 109.662 610.117 107.605 616.769 107.605C624.517 107.605 630.875 110.004 635.843 114.802C640.812 119.6 643.296 125.555 643.296 132.666V171.863H626.243ZM626.243 144.875V143.59L612.348 146.16C607.717 147.103 605.401 149.245 605.401 152.586C605.401 156.87 607.927 159.012 612.98 159.012C616.769 159.012 619.927 157.684 622.454 155.028C624.98 152.372 626.243 148.987 626.243 144.875Z" fill="#EEEFF7"/>
<path d="M659.723 171.863V108.891H676.776V132.023H700.144V108.891H717.197V171.863H700.144V148.088H676.776V171.863H659.723Z" fill="#EEEFF7"/>
<path d="M725.403 186V155.799H729.193C730.877 154.257 732.561 152.029 734.245 149.116C737.614 142.947 739.298 135.536 739.298 126.883V108.891H786.668V155.799H794.878V186H777.825V171.863H742.456V186H725.403ZM747.509 155.799H769.615V124.955H756.351V126.883C756.351 135.365 754.877 142.776 751.93 149.116C750.33 152.2 748.856 154.428 747.509 155.799Z" fill="#EEEFF7"/>
<path d="M865.024 171.863V108.891H882.077V171.863H865.024ZM822.708 156.441H832.813C835.003 156.441 836.687 155.884 837.866 154.771C839.129 153.571 839.761 151.986 839.761 150.016C839.761 148.045 839.129 146.503 837.866 145.389C836.687 144.19 835.003 143.59 832.813 143.59H822.708V156.441ZM805.655 171.863V108.891H822.708V128.168H834.076C840.898 128.168 846.498 130.267 850.877 134.465C855.256 138.578 857.445 143.761 857.445 150.016C857.445 156.27 855.256 161.496 850.877 165.695C846.498 169.807 840.898 171.863 834.076 171.863H805.655Z" fill="#EEEFF7"/>
</svg>
