<svg width="647" height="256" viewBox="0 0 647 256" fill="none" xmlns="http://www.w3.org/2000/svg">
<path d="M50.8238 237.942H35.8037L13.1863 206.514V237.942H0V175.955H13.1863V205.994L35.5417 175.955H49.6013L26.8965 205.733L50.8238 237.942Z" fill="white"/>
<path d="M113.554 206.862C113.554 211.666 112.943 216.035 111.72 219.971C110.556 223.849 108.751 227.206 106.306 230.042C103.919 232.878 100.834 235.048 97.0494 236.553C93.3235 238.058 88.9281 238.81 83.8631 238.81C78.7982 238.81 74.3737 238.058 70.5896 236.553C66.8636 234.99 63.7781 232.82 61.333 230.042C58.9461 227.206 57.1413 223.82 55.9188 219.884C54.7544 215.949 54.1722 211.579 54.1722 206.775C54.1722 200.35 55.2201 194.765 57.316 190.019C59.47 185.273 62.7302 181.598 67.0965 178.994C71.521 176.331 77.139 175 83.9505 175C90.7037 175 96.2635 176.331 100.63 178.994C104.996 181.598 108.227 185.302 110.323 190.106C112.477 194.852 113.554 200.437 113.554 206.862ZM68.0571 206.862C68.0571 211.203 68.6102 214.936 69.7163 218.061C70.8224 221.186 72.5398 223.588 74.8685 225.267C77.1972 226.945 80.1954 227.785 83.8631 227.785C87.6473 227.785 90.6746 226.945 92.9451 225.267C95.2738 223.588 96.9621 221.186 98.01 218.061C99.1161 214.936 99.6692 211.203 99.6692 206.862C99.6692 200.322 98.4466 195.199 96.0015 191.495C93.5563 187.791 89.5393 185.939 83.9505 185.939C80.2245 185.939 77.1972 186.778 74.8685 188.457C72.5398 190.135 70.8224 192.537 69.7163 195.662C68.6102 198.788 68.0571 202.521 68.0571 206.862Z" fill="white"/>
<path d="M152.842 237.942L137.822 189.325H137.473C137.531 190.482 137.618 192.219 137.735 194.534C137.851 196.849 137.967 199.338 138.084 202C138.2 204.604 138.258 206.977 138.258 209.119V237.942H126.469V175.955H144.459L159.217 223.357H159.479L175.11 175.955H193.099V237.942H180.786V208.598C180.786 206.63 180.815 204.373 180.874 201.826C180.99 199.28 181.077 196.878 181.136 194.621C181.252 192.305 181.339 190.569 181.398 189.412H181.048L164.98 237.942H152.842Z" fill="white"/>
<path d="M247.011 237.942L242.47 223.183H219.765L215.224 237.942H200.99L222.996 175.695H239.152L261.245 237.942H247.011ZM234.785 197.746C234.494 196.762 234.116 195.518 233.65 194.013C233.184 192.508 232.719 190.974 232.253 189.412C231.787 187.849 231.409 186.489 231.118 185.331C230.826 186.489 230.419 187.936 229.895 189.672C229.429 191.35 228.964 192.971 228.498 194.534C228.09 196.039 227.77 197.109 227.537 197.746L223.084 212.158H239.326L234.785 197.746Z" fill="white"/>
<path d="M320.228 237.942H307.042V211.203H282.328V237.942H269.142V175.955H282.328V200.264H307.042V175.955H320.228V237.942Z" fill="white"/>
<path d="M384.731 175.955V227.003H393.027V256H380.277V237.942H341.243V256H328.493V227.003H333.296C334.926 223.762 336.498 220.347 338.012 216.759C339.525 213.17 340.922 209.322 342.203 205.212C343.542 201.103 344.736 196.646 345.784 191.842C346.832 186.981 347.705 181.685 348.403 175.955H384.731ZM358.883 186.894C358.475 189.904 357.893 193.116 357.136 196.531C356.379 199.887 355.477 203.331 354.429 206.862C353.439 210.392 352.333 213.865 351.111 217.28C349.888 220.695 348.578 223.936 347.181 227.003H371.545V186.894H358.883Z" fill="white"/>
<path d="M440.766 237.942L436.225 223.183H413.52L408.979 237.942H394.745L416.751 175.695H432.906L455 237.942H440.766ZM428.54 197.746C428.249 196.762 427.871 195.518 427.405 194.013C426.939 192.508 426.473 190.974 426.008 189.412C425.542 187.849 425.164 186.489 424.872 185.331C424.581 186.489 424.174 187.936 423.65 189.672C423.184 191.35 422.718 192.971 422.253 194.534C421.845 196.039 421.525 197.109 421.292 197.746L416.838 212.158H433.081L428.54 197.746Z" fill="white"/>
<path d="M105.496 68.3898L177.838 -9.07431e-05L211 8.02064e-06V127.859H156.65L156.65 95.1511H177.838V47.5754L105.501 115.965L33.1533 47.5754V95.1511H54.3502L54.3502 127.859H0.000732422V0H33.1533L105.496 68.3898Z" fill="#F9FBFA"/>
<path d="M421.842 2.00516e-06H454.999V127.859H421.842L421.842 2.00516e-06Z" fill="#F9FBFA"/>
<path fill-rule="evenodd" clip-rule="evenodd" d="M244 2.00516e-06L277.157 0L277.157 32.7082L355.528 32.7082C382.164 32.7082 403.756 54.0085 403.756 80.2837C403.756 106.559 382.164 127.859 355.528 127.859H244L244 2.00516e-06ZM277.157 98.1245H355.528C365.517 98.1245 373.614 90.1369 373.614 80.2837C373.614 70.4305 365.517 62.4429 355.528 62.4429H277.157L277.157 98.1245Z" fill="#F9FBFA"/>
<path fill-rule="evenodd" clip-rule="evenodd" d="M594.967 201.288C595.135 201.157 595.335 201.053 595.555 200.982C595.776 200.911 596.012 200.875 596.25 200.875C596.488 200.875 596.725 200.911 596.945 200.982C597.165 201.053 597.365 201.157 597.533 201.288L618 217.17L638.467 201.288C638.807 201.024 639.269 200.876 639.75 200.876C640.231 200.876 640.693 201.024 641.033 201.288C641.374 201.552 641.565 201.91 641.565 202.284C641.565 202.657 641.374 203.015 641.033 203.279L619.283 220.154C619.115 220.285 618.915 220.389 618.695 220.46C618.475 220.531 618.238 220.568 618 220.568C617.762 220.568 617.526 220.531 617.305 220.46C617.085 220.389 616.885 220.285 616.717 220.154L594.967 203.279C594.798 203.149 594.664 202.994 594.573 202.823C594.481 202.652 594.434 202.469 594.434 202.284C594.434 202.099 594.481 201.916 594.573 201.745C594.664 201.574 594.798 201.419 594.967 201.288V201.288Z" fill="white"/>
<path fill-rule="evenodd" clip-rule="evenodd" d="M594.967 191.442C595.135 191.311 595.335 191.207 595.555 191.136C595.776 191.065 596.012 191.029 596.25 191.029C596.488 191.029 596.725 191.065 596.945 191.136C597.165 191.207 597.365 191.311 597.533 191.442L618 207.324L638.467 191.442C638.635 191.311 638.835 191.207 639.056 191.136C639.276 191.066 639.512 191.029 639.75 191.029C639.988 191.029 640.224 191.066 640.445 191.136C640.665 191.207 640.865 191.311 641.033 191.442C641.202 191.572 641.336 191.728 641.427 191.898C641.518 192.069 641.565 192.252 641.565 192.437C641.565 192.622 641.518 192.805 641.427 192.976C641.336 193.147 641.202 193.302 641.033 193.433L619.283 210.308C619.115 210.439 618.915 210.543 618.695 210.614C618.475 210.685 618.238 210.721 618 210.721C617.762 210.721 617.526 210.685 617.305 210.614C617.085 210.543 616.885 210.439 616.717 210.308L594.967 193.433C594.798 193.302 594.664 193.147 594.573 192.976C594.481 192.805 594.434 192.622 594.434 192.437C594.434 192.252 594.481 192.069 594.573 191.898C594.664 191.727 594.798 191.572 594.967 191.442V191.442Z" fill="#9FD8DF"/>
<path fill-rule="evenodd" clip-rule="evenodd" d="M594.967 228.288C595.135 228.157 595.335 228.053 595.555 227.982C595.776 227.911 596.012 227.875 596.25 227.875C596.488 227.875 596.725 227.911 596.945 227.982C597.165 228.053 597.365 228.157 597.533 228.288L618 244.17L638.467 228.288C638.807 228.024 639.269 227.876 639.75 227.876C640.231 227.876 640.693 228.024 641.033 228.288C641.374 228.552 641.565 228.91 641.565 229.284C641.565 229.657 641.374 230.015 641.033 230.279L619.283 247.154C619.115 247.285 618.915 247.389 618.695 247.46C618.475 247.531 618.238 247.568 618 247.568C617.762 247.568 617.526 247.531 617.305 247.46C617.085 247.389 616.885 247.285 616.717 247.154L594.967 230.279C594.798 230.149 594.664 229.994 594.573 229.823C594.481 229.652 594.434 229.469 594.434 229.284C594.434 229.099 594.481 228.916 594.573 228.745C594.664 228.574 594.798 228.419 594.967 228.288V228.288Z" fill="white"/>
<path fill-rule="evenodd" clip-rule="evenodd" d="M594.967 218.442C595.135 218.311 595.335 218.207 595.555 218.136C595.776 218.065 596.012 218.029 596.25 218.029C596.488 218.029 596.725 218.065 596.945 218.136C597.165 218.207 597.365 218.311 597.533 218.442L618 234.324L638.467 218.442C638.635 218.311 638.835 218.207 639.056 218.136C639.276 218.066 639.512 218.029 639.75 218.029C639.988 218.029 640.224 218.066 640.445 218.136C640.665 218.207 640.865 218.311 641.033 218.442C641.202 218.572 641.336 218.728 641.427 218.898C641.518 219.069 641.565 219.252 641.565 219.437C641.565 219.622 641.518 219.805 641.427 219.976C641.336 220.147 641.202 220.302 641.033 220.433L619.283 237.308C619.115 237.439 618.915 237.543 618.695 237.614C618.475 237.685 618.238 237.721 618 237.721C617.762 237.721 617.526 237.685 617.305 237.614C617.085 237.543 616.885 237.439 616.717 237.308L594.967 220.433C594.798 220.302 594.664 220.147 594.573 219.976C594.481 219.805 594.434 219.622 594.434 219.437C594.434 219.252 594.481 219.069 594.573 218.898C594.664 218.727 594.798 218.572 594.967 218.442V218.442Z" fill="white"/>
</svg>
