<svg width="647" height="291" viewBox="0 0 647 291" fill="none" xmlns="http://www.w3.org/2000/svg">
<path fill-rule="evenodd" clip-rule="evenodd" d="M594.967 201.288C595.135 201.157 595.335 201.053 595.555 200.982C595.776 200.911 596.012 200.875 596.25 200.875C596.488 200.875 596.725 200.911 596.945 200.982C597.165 201.053 597.365 201.157 597.533 201.288L618 217.17L638.467 201.288C638.807 201.024 639.269 200.876 639.75 200.876C640.231 200.876 640.693 201.024 641.033 201.288C641.374 201.552 641.565 201.91 641.565 202.284C641.565 202.657 641.374 203.015 641.033 203.279L619.283 220.154C619.115 220.285 618.915 220.389 618.695 220.46C618.475 220.531 618.238 220.568 618 220.568C617.762 220.568 617.526 220.531 617.305 220.46C617.085 220.389 616.885 220.285 616.717 220.154L594.967 203.279C594.798 203.149 594.664 202.994 594.573 202.823C594.481 202.652 594.434 202.469 594.434 202.284C594.434 202.099 594.481 201.916 594.573 201.745C594.664 201.574 594.798 201.419 594.967 201.288V201.288Z" fill="white"/>
<path fill-rule="evenodd" clip-rule="evenodd" d="M594.967 191.442C595.135 191.311 595.335 191.207 595.555 191.136C595.776 191.065 596.012 191.029 596.25 191.029C596.488 191.029 596.725 191.065 596.945 191.136C597.165 191.207 597.365 191.311 597.533 191.442L618 207.324L638.467 191.442C638.635 191.311 638.835 191.207 639.056 191.136C639.276 191.066 639.512 191.029 639.75 191.029C639.988 191.029 640.224 191.066 640.445 191.136C640.665 191.207 640.865 191.311 641.033 191.442C641.202 191.572 641.336 191.728 641.427 191.898C641.518 192.069 641.565 192.252 641.565 192.437C641.565 192.622 641.518 192.805 641.427 192.976C641.336 193.147 641.202 193.302 641.033 193.433L619.283 210.308C619.115 210.439 618.915 210.543 618.695 210.614C618.475 210.685 618.238 210.721 618 210.721C617.762 210.721 617.526 210.685 617.305 210.614C617.085 210.543 616.885 210.439 616.717 210.308L594.967 193.433C594.798 193.302 594.664 193.147 594.573 192.976C594.481 192.805 594.434 192.622 594.434 192.437C594.434 192.252 594.481 192.069 594.573 191.898C594.664 191.727 594.798 191.572 594.967 191.442V191.442Z" fill="#9FD8DF"/>
<path fill-rule="evenodd" clip-rule="evenodd" d="M594.967 228.288C595.135 228.157 595.335 228.053 595.555 227.982C595.776 227.911 596.012 227.875 596.25 227.875C596.488 227.875 596.725 227.911 596.945 227.982C597.165 228.053 597.365 228.157 597.533 228.288L618 244.17L638.467 228.288C638.807 228.024 639.269 227.876 639.75 227.876C640.231 227.876 640.693 228.024 641.033 228.288C641.374 228.552 641.565 228.91 641.565 229.284C641.565 229.657 641.374 230.015 641.033 230.279L619.283 247.154C619.115 247.285 618.915 247.389 618.695 247.46C618.475 247.531 618.238 247.568 618 247.568C617.762 247.568 617.526 247.531 617.305 247.46C617.085 247.389 616.885 247.285 616.717 247.154L594.967 230.279C594.798 230.149 594.664 229.994 594.573 229.823C594.481 229.652 594.434 229.469 594.434 229.284C594.434 229.099 594.481 228.916 594.573 228.745C594.664 228.574 594.798 228.419 594.967 228.288V228.288Z" fill="white"/>
<path fill-rule="evenodd" clip-rule="evenodd" d="M594.967 218.442C595.135 218.311 595.335 218.207 595.555 218.136C595.776 218.065 596.012 218.029 596.25 218.029C596.488 218.029 596.725 218.065 596.945 218.136C597.165 218.207 597.365 218.311 597.533 218.442L618 234.324L638.467 218.442C638.635 218.311 638.835 218.207 639.056 218.136C639.276 218.066 639.512 218.029 639.75 218.029C639.988 218.029 640.224 218.066 640.445 218.136C640.665 218.207 640.865 218.311 641.033 218.442C641.202 218.572 641.336 218.728 641.427 218.898C641.518 219.069 641.565 219.252 641.565 219.437C641.565 219.622 641.518 219.805 641.427 219.976C641.336 220.147 641.202 220.302 641.033 220.433L619.283 237.308C619.115 237.439 618.915 237.543 618.695 237.614C618.475 237.685 618.238 237.721 618 237.721C617.762 237.721 617.526 237.685 617.305 237.614C617.085 237.543 616.885 237.439 616.717 237.308L594.967 220.433C594.798 220.302 594.664 220.147 594.573 219.976C594.481 219.805 594.434 219.622 594.434 219.437C594.434 219.252 594.481 219.069 594.573 218.898C594.664 218.727 594.798 218.572 594.967 218.442V218.442Z" fill="white"/>
<path d="M105.496 68.465L177.839 -9.0843e-05L211 8.02946e-06V128H156.651L156.651 95.2558H177.839V47.6278L105.501 116.093L33.1536 47.6278V95.2558H54.3504L54.3504 128H0.000976562V0H33.1536L105.496 68.465Z" fill="#F9FBFA"/>
<path d="M421.842 2.00737e-06H454.999V128H421.842L421.842 2.00737e-06Z" fill="#F9FBFA"/>
<path fill-rule="evenodd" clip-rule="evenodd" d="M244 2.00737e-06L277.157 0L277.157 32.7442L355.528 32.7442C382.164 32.7442 403.756 54.0679 403.756 80.3721C403.756 106.676 382.164 128 355.528 128H244L244 2.00737e-06ZM277.157 98.2326H355.528C365.517 98.2326 373.614 90.2362 373.614 80.3721C373.614 70.508 365.517 62.5116 355.528 62.5116H277.157L277.157 98.2326Z" fill="#F9FBFA"/>
<path d="M4 213.18V168.189H39.4791V213.18H29.9971V176.129H13.482V213.18H4Z" fill="white"/>
<path d="M65.1067 168.189C70.8839 168.189 75.0911 169.449 77.7285 171.97C80.4077 174.448 81.7474 177.872 81.7474 182.241C81.7474 184.215 81.4543 186.106 80.8682 187.912C80.2821 189.676 79.2984 191.273 77.9169 192.701C76.5773 194.087 74.7981 195.179 72.5793 195.977C70.3606 196.776 67.6185 197.175 64.3532 197.175H60.2715V213.18H50.7895V168.189H65.1067ZM64.6044 176.003H60.2715V189.361H63.4113C65.2114 189.361 66.7603 189.13 68.0581 188.668C69.3559 188.206 70.3606 187.471 71.0722 186.463C71.7839 185.454 72.1397 184.152 72.1397 182.556C72.1397 180.329 71.5327 178.691 70.3187 177.641C69.1047 176.549 67.1999 176.003 64.6044 176.003Z" fill="white"/>
<path d="M114.534 213.18L111.269 202.468H94.9421L91.6768 213.18H81.4412L97.2655 168H108.883L124.77 213.18H114.534ZM105.743 184.005C105.534 183.291 105.261 182.388 104.927 181.296C104.592 180.203 104.257 179.09 103.922 177.956C103.587 176.822 103.315 175.835 103.105 174.994C102.896 175.835 102.603 176.885 102.226 178.145C101.891 179.363 101.557 180.539 101.222 181.674C100.929 182.766 100.698 183.543 100.531 184.005L97.3283 194.465H109.008L105.743 184.005Z" fill="white"/>
<path d="M144.389 168.189C148.366 168.189 151.694 168.567 154.373 169.323C157.094 170.037 159.125 171.235 160.464 172.915C161.846 174.553 162.536 176.78 162.536 179.594C162.536 181.275 162.264 182.808 161.72 184.194C161.176 185.58 160.38 186.715 159.334 187.597C158.329 188.479 157.094 189.046 155.629 189.298V189.613C157.136 189.907 158.497 190.432 159.711 191.189C160.925 191.945 161.887 193.037 162.599 194.465C163.311 195.893 163.667 197.784 163.667 200.136C163.667 202.867 162.997 205.219 161.657 207.194C160.359 209.126 158.476 210.617 156.006 211.668C153.536 212.676 150.605 213.18 147.214 213.18H130.448V168.189H144.389ZM145.456 186.022C148.219 186.022 150.124 185.58 151.17 184.698C152.259 183.816 152.803 182.535 152.803 180.855C152.803 179.132 152.175 177.893 150.919 177.137C149.663 176.381 147.675 176.003 144.954 176.003H139.93V186.022H145.456ZM139.93 193.583V205.303H146.147C148.994 205.303 150.982 204.757 152.112 203.665C153.243 202.531 153.808 201.039 153.808 199.191C153.808 198.057 153.557 197.07 153.054 196.23C152.594 195.389 151.778 194.738 150.605 194.276C149.433 193.814 147.842 193.583 145.833 193.583H139.93Z" fill="white"/>
<path d="M172.638 168.189H181.179V189.928C181.179 190.978 181.158 192.155 181.116 193.457C181.074 194.759 181.032 196.04 180.99 197.301C180.948 198.519 180.906 199.59 180.865 200.514C180.823 201.397 180.781 202.006 180.739 202.342H180.927L201.65 168.189H213.016V213.18H204.538V191.567C204.538 190.432 204.559 189.193 204.601 187.849C204.643 186.463 204.685 185.139 204.727 183.879C204.81 182.619 204.873 181.527 204.915 180.602C204.999 179.636 205.062 179.006 205.103 178.712H204.852L184.067 213.18H172.638V168.189Z" fill="white"/>
<path d="M259.813 213.18H250.331V176.129H239.342C239.091 178.061 238.818 180.161 238.525 182.43C238.274 184.698 237.981 187.009 237.646 189.361C237.353 191.672 237.039 193.877 236.704 195.977C236.37 198.036 236.035 199.863 235.7 201.46C235.155 204.064 234.423 206.29 233.502 208.139C232.623 209.987 231.388 211.394 229.797 212.361C228.248 213.327 226.218 213.81 223.706 213.81C222.869 213.81 222.073 213.747 221.32 213.621C220.566 213.495 219.854 213.327 219.185 213.117V205.303C219.729 205.471 220.252 205.618 220.755 205.744C221.299 205.87 221.885 205.933 222.513 205.933C223.35 205.933 224.041 205.66 224.585 205.114C225.129 204.568 225.611 203.644 226.029 202.342C226.448 200.997 226.867 199.149 227.285 196.797C227.495 195.788 227.746 194.36 228.039 192.512C228.332 190.621 228.667 188.416 229.043 185.895C229.462 183.333 229.881 180.56 230.299 177.578C230.718 174.553 231.116 171.424 231.492 168.189H259.813V213.18Z" fill="white"/>
<path d="M298.565 213.18L295.299 202.468H278.973L275.707 213.18H265.472L281.296 168H292.913L308.8 213.18H298.565ZM289.773 184.005C289.564 183.291 289.292 182.388 288.957 181.296C288.622 180.203 288.287 179.09 287.952 177.956C287.617 176.822 287.345 175.835 287.136 174.994C286.927 175.835 286.634 176.885 286.257 178.145C285.922 179.363 285.587 180.539 285.252 181.674C284.959 182.766 284.729 183.543 284.561 184.005L281.359 194.465H293.039L289.773 184.005Z" fill="white"/>
<path d="M4 290.37V245.379H39.4791V290.37H29.9971V253.319H13.482V290.37H4Z" fill="white"/>
<path d="M65.1067 245.379C70.8839 245.379 75.0911 246.639 77.7285 249.16C80.4077 251.638 81.7474 255.062 81.7474 259.431C81.7474 261.405 81.4543 263.296 80.8682 265.102C80.2821 266.866 79.2984 268.463 77.9169 269.891C76.5773 271.277 74.7981 272.369 72.5793 273.168C70.3606 273.966 67.6185 274.365 64.3532 274.365H60.2715V290.37H50.7895V245.379H65.1067ZM64.6044 253.193H60.2715V266.551H63.4113C65.2114 266.551 66.7603 266.32 68.0581 265.858C69.3559 265.396 70.3606 264.661 71.0722 263.653C71.7839 262.644 72.1397 261.342 72.1397 259.746C72.1397 257.519 71.5327 255.881 70.3187 254.831C69.1047 253.739 67.1999 253.193 64.6044 253.193Z" fill="white"/>
<path d="M90.2203 245.379H98.7603V267.118C98.7603 268.169 98.7394 269.345 98.6976 270.647C98.6557 271.949 98.6138 273.231 98.572 274.491C98.5301 275.709 98.4882 276.78 98.4464 277.704C98.4045 278.587 98.3626 279.196 98.3208 279.532H98.5092L119.231 245.379H130.597V290.37H122.12V268.757C122.12 267.622 122.141 266.383 122.183 265.039C122.225 263.653 122.267 262.329 122.308 261.069C122.392 259.809 122.455 258.717 122.497 257.793C122.581 256.826 122.643 256.196 122.685 255.902H122.434L101.649 290.37H90.2203V245.379Z" fill="white"/>
<path d="M177.395 290.37H167.913V253.319H156.924C156.672 255.251 156.4 257.351 156.107 259.62C155.856 261.888 155.563 264.199 155.228 266.551C154.935 268.862 154.621 271.067 154.286 273.168C153.951 275.226 153.616 277.053 153.281 278.65C152.737 281.254 152.005 283.481 151.084 285.329C150.205 287.177 148.97 288.585 147.379 289.551C145.83 290.517 143.799 291 141.288 291C140.45 291 139.655 290.937 138.901 290.811C138.148 290.685 137.436 290.517 136.766 290.307V282.493C137.311 282.661 137.834 282.808 138.336 282.934C138.881 283.06 139.467 283.123 140.095 283.123C140.932 283.123 141.623 282.85 142.167 282.304C142.711 281.758 143.192 280.834 143.611 279.532C144.03 278.188 144.448 276.339 144.867 273.987C145.076 272.978 145.327 271.55 145.62 269.702C145.914 267.811 146.248 265.606 146.625 263.086C147.044 260.523 147.462 257.751 147.881 254.768C148.3 251.743 148.697 248.614 149.074 245.379H177.395V290.37Z" fill="white"/>
<path d="M229.396 267.811C229.396 271.298 228.957 274.47 228.077 277.326C227.24 280.141 225.942 282.577 224.184 284.636C222.468 286.694 220.249 288.269 217.528 289.362C214.849 290.454 211.688 291 208.046 291C204.404 291 201.222 290.454 198.501 289.362C195.822 288.227 193.603 286.652 191.845 284.636C190.128 282.577 188.831 280.12 187.952 277.263C187.114 274.407 186.696 271.235 186.696 267.748C186.696 263.086 187.449 259.032 188.956 255.587C190.505 252.142 192.85 249.475 195.989 247.585C199.171 245.652 203.211 244.686 208.109 244.686C212.965 244.686 216.963 245.652 220.103 247.585C223.242 249.475 225.566 252.163 227.073 255.65C228.622 259.095 229.396 263.149 229.396 267.811ZM196.68 267.811C196.68 270.962 197.078 273.672 197.873 275.94C198.669 278.208 199.904 279.952 201.578 281.17C203.253 282.388 205.409 282.997 208.046 282.997C210.767 282.997 212.944 282.388 214.577 281.17C216.251 279.952 217.465 278.208 218.219 275.94C219.014 273.672 219.412 270.962 219.412 267.811C219.412 263.065 218.533 259.347 216.774 256.658C215.016 253.97 212.128 252.626 208.109 252.626C205.429 252.626 203.253 253.235 201.578 254.453C199.904 255.671 198.669 257.414 197.873 259.683C197.078 261.951 196.68 264.661 196.68 267.811Z" fill="white"/>
<path d="M247.755 266.992L232.685 245.379H242.481L256.986 267.181V245.379H265.84V267.181L280.346 245.379H290.142L275.071 266.992L291.021 290.37H280.848L265.84 267.559V290.37H256.986V267.559L241.978 290.37H231.805L247.755 266.992Z" fill="white"/>
<path d="M322.504 290.37H296.695V245.379H322.504V253.193H306.177V263.086H321.373V270.899H306.177V282.493H322.504V290.37Z" fill="white"/>
<path d="M368.568 290.37H359.086V270.962H341.315V290.37H331.833V245.379H341.315V263.023H359.086V245.379H368.568V290.37Z" fill="white"/>
<path d="M379.849 245.379H388.389V267.118C388.389 268.169 388.368 269.345 388.326 270.647C388.285 271.949 388.243 273.231 388.201 274.491C388.159 275.709 388.117 276.78 388.075 277.704C388.033 278.587 387.992 279.196 387.95 279.532H388.138L408.86 245.379H420.226V290.37H411.749V268.757C411.749 267.622 411.77 266.383 411.812 265.039C411.854 263.653 411.895 262.329 411.937 261.069C412.021 259.809 412.084 258.717 412.126 257.793C412.209 256.826 412.272 256.196 412.314 255.902H412.063L391.278 290.37H379.849V245.379Z" fill="white"/>
<path d="M446.615 273.105L436.129 290.37H425.579L438.326 270.584C437.112 270.08 435.898 269.345 434.684 268.379C433.47 267.37 432.465 266.047 431.67 264.409C430.875 262.728 430.477 260.67 430.477 258.234C430.477 254.075 431.963 250.903 434.935 248.719C437.908 246.492 442.073 245.379 447.432 245.379H462V290.37H452.518V273.105H446.615ZM447.808 253.193C446.176 253.193 444.773 253.382 443.601 253.76C442.471 254.138 441.592 254.747 440.964 255.587C440.378 256.427 440.085 257.54 440.085 258.927C440.085 260.901 440.733 262.476 442.031 263.653C443.371 264.787 445.38 265.354 448.06 265.354H452.518V253.193H447.808Z" fill="white"/>
</svg>
