<svg width="455" height="128" viewBox="0 0 455 128" fill="none" xmlns="http://www.w3.org/2000/svg">
<path d="M105.496 68.3898L177.838 -9.07431e-05L211 8.02064e-06V127.859H156.65L156.65 95.1511H177.838V47.5754L105.501 115.965L33.1533 47.5754V95.1511H54.3502L54.3502 127.859H0.000732422V0H33.1533L105.496 68.3898Z" fill="#F9FBFA"/>
<path d="M421.842 2.00516e-06H454.999V127.859H421.842L421.842 2.00516e-06Z" fill="#F9FBFA"/>
<path fill-rule="evenodd" clip-rule="evenodd" d="M244 2.00516e-06L277.157 0L277.157 32.7082L355.528 32.7082C382.164 32.7082 403.756 54.0085 403.756 80.2837C403.756 106.559 382.164 127.859 355.528 127.859H244L244 2.00516e-06ZM277.157 98.1245H355.528C365.517 98.1245 373.614 90.1369 373.614 80.2837C373.614 70.4305 365.517 62.4429 355.528 62.4429H277.157L277.157 98.1245Z" fill="#F9FBFA"/>
</svg>
