<svg width="318" height="411" viewBox="0 0 318 411" fill="none" xmlns="http://www.w3.org/2000/svg">
<path d="M158.499 102.75L267.187 -0.000136334L317.01 1.20503e-05V192.098H235.354L235.354 142.957H267.187V71.4781L158.507 174.228L49.8102 71.4781V142.957H81.6567L81.6567 192.098H0.0012207V0H49.8102L158.499 102.75Z" fill="#F9FBFA"/>
<path d="M267.193 218.902H317.008V411H267.193L267.193 218.902Z" fill="#F9FBFA"/>
<path fill-rule="evenodd" clip-rule="evenodd" d="M6.10784e-06 218.902L49.8156 218.902L49.8156 268.043L167.562 268.043C207.58 268.043 240.021 300.045 240.021 339.522C240.021 378.998 207.58 411 167.562 411H0L6.10784e-06 218.902ZM49.8156 366.326H167.562C182.568 366.326 194.734 354.325 194.734 339.522C194.734 324.718 182.568 312.717 167.562 312.717H49.8156L49.8156 366.326Z" fill="#F9FBFA"/>
</svg>
