<svg width="462" height="291" fill="none" xmlns="http://www.w3.org/2000/svg"><path d="M105.496 68.465L177.839 0H211v128h-54.349V95.256h21.188V47.628l-72.338 68.465-72.347-68.465v47.628H54.35V128H.001V0h33.153l72.342 68.465zM421.842 0h33.157v128h-33.157V0z" fill="#F9FBFA"/><path fill-rule="evenodd" clip-rule="evenodd" d="M244 0h33.157v32.744h78.371c26.636 0 48.228 21.324 48.228 47.628S382.164 128 355.528 128H244V0zm33.157 98.233h78.371c9.989 0 18.086-7.997 18.086-17.86 0-9.865-8.097-17.861-18.086-17.861h-78.371v35.72z" fill="#F9FBFA"/><path d="M4 213.18v-44.991h35.48v44.991h-9.483v-37.051H13.482v37.051H4zM65.107 168.189c5.777 0 9.984 1.26 12.621 3.781 2.68 2.478 4.02 5.902 4.02 10.271a18.26 18.26 0 01-.88 5.671c-.586 1.764-1.57 3.361-2.951 4.789-1.34 1.386-3.119 2.478-5.338 3.276-2.218.799-4.96 1.198-8.226 1.198h-4.081v16.005h-9.483v-44.991h14.318zm-.503 7.814h-4.332v13.358h3.14c1.8 0 3.348-.231 4.646-.693 1.298-.462 2.303-1.197 3.014-2.205.712-1.009 1.068-2.311 1.068-3.907 0-2.227-.607-3.865-1.821-4.915-1.214-1.092-3.12-1.638-5.715-1.638zM114.534 213.18l-3.265-10.712H94.942l-3.265 10.712H81.44L97.266 168h11.617l15.887 45.18h-10.236zm-8.791-29.175c-.209-.714-.482-1.617-.816-2.709-.335-1.093-.67-2.206-1.005-3.34a73.456 73.456 0 01-.817-2.962 71.692 71.692 0 01-.879 3.151 197.523 197.523 0 01-1.004 3.529c-.293 1.092-.524 1.869-.691 2.331l-3.203 10.46h11.68l-3.265-10.46zM144.389 168.189c3.977 0 7.305.378 9.984 1.134 2.721.714 4.752 1.912 6.091 3.592 1.382 1.638 2.072 3.865 2.072 6.679 0 1.681-.272 3.214-.816 4.6-.544 1.386-1.34 2.521-2.386 3.403-1.005.882-2.24 1.449-3.705 1.701v.315c1.507.294 2.868.819 4.082 1.576 1.214.756 2.176 1.848 2.888 3.276.712 1.428 1.068 3.319 1.068 5.671 0 2.731-.67 5.083-2.01 7.058-1.298 1.932-3.181 3.423-5.651 4.474-2.47 1.008-5.401 1.512-8.792 1.512h-16.766v-44.991h13.941zm1.067 17.833c2.763 0 4.668-.442 5.714-1.324 1.089-.882 1.633-2.163 1.633-3.843 0-1.723-.628-2.962-1.884-3.718-1.256-.756-3.244-1.134-5.965-1.134h-5.024v10.019h5.526zm-5.526 7.561v11.72h6.217c2.847 0 4.835-.546 5.965-1.638 1.131-1.134 1.696-2.626 1.696-4.474 0-1.134-.251-2.121-.754-2.961-.46-.841-1.276-1.492-2.449-1.954-1.172-.462-2.763-.693-4.772-.693h-5.903zM172.638 168.189h8.541v21.739c0 1.05-.021 2.227-.063 3.529l-.126 3.844a328.874 328.874 0 01-.125 3.213c-.042.883-.084 1.492-.126 1.828h.188l20.723-34.153h11.366v44.991h-8.478v-21.613c0-1.135.021-2.374.063-3.718.042-1.386.084-2.71.126-3.97.083-1.26.146-2.352.188-3.277.084-.966.147-1.596.188-1.89h-.251l-20.785 34.468h-11.429v-44.991zM259.813 213.18h-9.482v-37.051h-10.989c-.251 1.932-.524 4.032-.817 6.301a223.596 223.596 0 01-.879 6.931 208.62 208.62 0 01-.942 6.616 122.566 122.566 0 01-1.004 5.483c-.545 2.604-1.277 4.83-2.198 6.679-.879 1.848-2.114 3.255-3.705 4.222-1.549.966-3.579 1.449-6.091 1.449-.837 0-1.633-.063-2.386-.189a15.85 15.85 0 01-2.135-.504v-7.814c.544.168 1.067.315 1.57.441a7.78 7.78 0 001.758.189c.837 0 1.528-.273 2.072-.819.544-.546 1.026-1.47 1.444-2.772.419-1.345.838-3.193 1.256-5.545.21-1.009.461-2.437.754-4.285.293-1.891.628-4.096 1.004-6.617.419-2.562.838-5.335 1.256-8.317a431.84 431.84 0 001.193-9.389h28.321v44.991zM298.565 213.18l-3.266-10.712h-16.326l-3.266 10.712h-10.235L281.296 168h11.617l15.887 45.18h-10.235zm-8.792-29.175a226.99 226.99 0 00-.816-2.709c-.335-1.093-.67-2.206-1.005-3.34a71.654 71.654 0 01-.816-2.962 71.692 71.692 0 01-.879 3.151 197.37 197.37 0 01-1.005 3.529c-.293 1.092-.523 1.869-.691 2.331l-3.202 10.46h11.68l-3.266-10.46zM4 290.37v-44.991h35.48v44.991h-9.483v-37.051H13.482v37.051H4zM65.107 245.379c5.777 0 9.984 1.26 12.621 3.781 2.68 2.478 4.02 5.902 4.02 10.271a18.26 18.26 0 01-.88 5.671c-.586 1.764-1.57 3.361-2.951 4.789-1.34 1.386-3.119 2.478-5.338 3.277-2.218.798-4.96 1.197-8.226 1.197h-4.081v16.005h-9.483v-44.991h14.318zm-.503 7.814h-4.332v13.358h3.14c1.8 0 3.348-.231 4.646-.693 1.298-.462 2.303-1.197 3.014-2.205.712-1.009 1.068-2.311 1.068-3.907 0-2.227-.607-3.865-1.821-4.915-1.214-1.092-3.12-1.638-5.715-1.638zM90.22 245.379h8.54v21.739c0 1.051-.02 2.227-.062 3.529l-.126 3.844a301.317 301.317 0 01-.126 3.213c-.041.883-.083 1.492-.125 1.828h.188l20.722-34.153h11.366v44.991h-8.477v-21.613c0-1.135.021-2.374.063-3.718.042-1.386.084-2.71.125-3.97.084-1.26.147-2.352.189-3.276.084-.967.146-1.597.188-1.891h-.251l-20.785 34.468H90.22v-44.991zM177.395 290.37h-9.482v-37.051h-10.989c-.252 1.932-.524 4.032-.817 6.301a223.596 223.596 0 01-.879 6.931 209.11 209.11 0 01-.942 6.617c-.335 2.058-.67 3.885-1.005 5.482-.544 2.604-1.276 4.831-2.197 6.679-.879 1.848-2.114 3.256-3.705 4.222-1.549.966-3.58 1.449-6.091 1.449a14.47 14.47 0 01-2.387-.189 15.922 15.922 0 01-2.135-.504v-7.814a30.76 30.76 0 001.57.441 7.796 7.796 0 001.759.189c.837 0 1.528-.273 2.072-.819.544-.546 1.025-1.47 1.444-2.772.419-1.344.837-3.193 1.256-5.545.209-1.009.46-2.437.753-4.285.294-1.891.628-4.096 1.005-6.616.419-2.563.837-5.335 1.256-8.318.419-3.025.816-6.154 1.193-9.389h28.321v44.991zM229.396 267.811c0 3.487-.439 6.659-1.319 9.515-.837 2.815-2.135 5.251-3.893 7.31-1.716 2.058-3.935 3.633-6.656 4.726-2.679 1.092-5.84 1.638-9.482 1.638-3.642 0-6.824-.546-9.545-1.638-2.679-1.135-4.898-2.71-6.656-4.726-1.717-2.059-3.014-4.516-3.893-7.373-.838-2.856-1.256-6.028-1.256-9.515 0-4.662.753-8.716 2.26-12.161 1.549-3.445 3.894-6.112 7.033-8.002 3.182-1.933 7.222-2.899 12.12-2.899 4.856 0 8.854.966 11.994 2.899 3.139 1.89 5.463 4.578 6.97 8.065 1.549 3.445 2.323 7.499 2.323 12.161zm-32.716 0c0 3.151.398 5.861 1.193 8.129.796 2.268 2.031 4.012 3.705 5.23 1.675 1.218 3.831 1.827 6.468 1.827 2.721 0 4.898-.609 6.531-1.827 1.674-1.218 2.888-2.962 3.642-5.23.795-2.268 1.193-4.978 1.193-8.129 0-4.746-.879-8.464-2.638-11.153-1.758-2.688-4.646-4.032-8.665-4.032-2.68 0-4.856.609-6.531 1.827-1.674 1.218-2.909 2.961-3.705 5.23-.795 2.268-1.193 4.978-1.193 8.128zM247.755 266.992l-15.07-21.613h9.796l14.505 21.802v-21.802h8.854v21.802l14.506-21.802h9.796l-15.071 21.613 15.95 23.378h-10.173l-15.008-22.811v22.811h-8.854v-22.811l-15.008 22.811h-10.173l15.95-23.378zM322.504 290.37h-25.809v-44.991h25.809v7.814h-16.327v9.893h15.196v7.813h-15.196v11.594h16.327v7.877zM368.568 290.37h-9.482v-19.408h-17.771v19.408h-9.482v-44.991h9.482v17.644h17.771v-17.644h9.482v44.991zM379.849 245.379h8.54v21.739c0 1.051-.021 2.227-.063 3.529-.041 1.302-.083 2.584-.125 3.844a297.751 297.751 0 01-.126 3.213c-.042.883-.083 1.492-.125 1.828h.188l20.722-34.153h11.366v44.991h-8.477v-21.613c0-1.135.021-2.374.063-3.718.042-1.386.083-2.71.125-3.97.084-1.26.147-2.352.189-3.276.083-.967.146-1.597.188-1.891h-.251l-20.785 34.468h-11.429v-44.991zM446.615 273.105l-10.486 17.265h-10.55l12.747-19.786c-1.214-.504-2.428-1.239-3.642-2.205-1.214-1.009-2.219-2.332-3.014-3.97-.795-1.681-1.193-3.739-1.193-6.175 0-4.159 1.486-7.331 4.458-9.515 2.973-2.227 7.138-3.34 12.497-3.34H462v44.991h-9.482v-17.265h-5.903zm1.193-19.912c-1.632 0-3.035.189-4.207.567-1.13.378-2.009.987-2.637 1.827-.586.84-.879 1.953-.879 3.34 0 1.974.648 3.549 1.946 4.726 1.34 1.134 3.349 1.701 6.029 1.701h4.458v-12.161h-4.71z" fill="#fff"/></svg>