<svg width="58" height="72" fill="none" xmlns="http://www.w3.org/2000/svg"><path fill-rule="evenodd" clip-rule="evenodd" d="M5.967 17.288c.168-.13.368-.235.588-.306a2.274 2.274 0 011.39 0c.22.071.42.175.588.306L29 33.17l20.467-15.882c.34-.264.802-.412 1.283-.412.481 0 .943.148 1.283.412.34.264.532.622.532.996 0 .373-.191.731-.532.995l-21.75 16.875a1.91 1.91 0 01-.588.306 2.274 2.274 0 01-1.39 0 1.91 1.91 0 01-.588-.306L5.967 19.28a1.443 1.443 0 01-.394-.456 1.139 1.139 0 01-.139-.54c0-.184.047-.367.139-.538.091-.171.225-.326.394-.457z" fill="#fff"/><path fill-rule="evenodd" clip-rule="evenodd" d="M5.967 7.442c.168-.131.368-.235.588-.306a2.275 2.275 0 011.39 0c.22.07.42.175.588.306L29 23.324 49.467 7.442c.168-.131.368-.235.589-.306a2.277 2.277 0 011.389 0c.22.071.42.175.588.306.169.13.303.286.394.456.09.171.138.354.138.54 0 .184-.047.367-.138.538-.091.17-.225.326-.394.457l-21.75 16.875a1.91 1.91 0 01-.588.306 2.274 2.274 0 01-1.39 0 1.91 1.91 0 01-.588-.306L5.967 9.433a1.444 1.444 0 01-.394-.457 1.139 1.139 0 01-.139-.539c0-.185.047-.368.139-.539.091-.17.225-.326.394-.456z" fill="#9FD8DF"/><path fill-rule="evenodd" clip-rule="evenodd" d="M5.967 44.288c.168-.13.368-.235.588-.306a2.274 2.274 0 011.39 0c.22.071.42.175.588.306L29 60.17l20.467-15.882c.34-.264.802-.412 1.283-.412.481 0 .943.148 1.283.412.34.264.532.622.532.996 0 .373-.191.731-.532.995l-21.75 16.875a1.91 1.91 0 01-.588.306 2.274 2.274 0 01-1.39 0 1.91 1.91 0 01-.588-.306L5.967 46.28a1.443 1.443 0 01-.394-.456 1.139 1.139 0 01-.139-.54c0-.184.047-.367.139-.538.091-.171.225-.326.394-.457z" fill="#fff"/><path fill-rule="evenodd" clip-rule="evenodd" d="M5.967 34.442c.168-.131.368-.235.588-.306a2.274 2.274 0 011.39 0c.22.07.42.175.588.306L29 50.324l20.467-15.882c.168-.131.368-.235.589-.306a2.28 2.28 0 011.389 0c.22.071.42.175.588.306.169.13.303.286.394.456.09.171.138.354.138.54 0 .184-.047.367-.138.538-.091.17-.225.326-.394.457l-21.75 16.875a1.91 1.91 0 01-.588.306 2.274 2.274 0 01-1.39 0 1.91 1.91 0 01-.588-.306L5.967 36.433a1.443 1.443 0 01-.394-.457 1.139 1.139 0 01-.139-.539c0-.185.047-.368.139-.539.091-.17.225-.326.394-.456z" fill="#fff"/></svg>