<svg width="48" height="21" fill="none" xmlns="http://www.w3.org/2000/svg"><path fill-rule="evenodd" clip-rule="evenodd" d="M.967 1.288c.168-.13.368-.235.588-.306a2.275 2.275 0 011.39 0c.22.071.42.175.588.306L24 17.17 44.467 1.288c.34-.264.802-.412 1.283-.412.481 0 .943.148 1.283.412.34.264.532.622.532.996 0 .373-.191.731-.532.995l-21.75 16.875a1.91 1.91 0 01-.588.306 2.275 2.275 0 01-1.39 0 1.91 1.91 0 01-.588-.306L.967 3.28a1.444 1.444 0 01-.394-.456 1.139 1.139 0 01-.139-.54c0-.184.047-.367.139-.538a1.44 1.44 0 01.394-.457z" fill="#fff"/></svg>