<svg width="145" height="130" fill="none" xmlns="http://www.w3.org/2000/svg"><path d="M67.131 0c4.138.407 5.36 1.415 7.107 3.216 11.287 11.79 22.349 23.72 33.496 35.597 3.548 3.773 7.042 7.6 10.719 11.212a5.07 5.07 0 003.644 1.147c2.744-.311 5.435-1.072 8.147-1.672 3.215-.665 3.891-.247 4.587 2.861 1.944 8.769 3.884 17.54 5.821 26.315 1.275 5.681 2.594 11.362 3.88 17.043.868 3.837.525 4.384-3.409 5.263-42.232 9.411-84.46 18.84-126.685 28.287-2.67.6-3.784-.311-4.288-2.669A11934.181 11934.181 0 01.267 82.363c-.697-3.14-.14-4.34 2.97-4.566 6.849-.493 10.868-4.094 14.48-9.818C30.58 47.613 43.957 27.665 57.163 7.557a22.112 22.112 0 013.076-4.127C61.965 1.8 62.897.31 67.131 0zm73.07 96.298c-.225-1.469-.289-2.144-.439-2.787-2.38-10.633-4.77-21.259-7.171-31.878-.568-2.497-.568-6.013-2.144-7.117-1.575-1.104-4.823.31-7.288.857C84.624 63.95 46.112 72.523 7.577 81.1c-2.583.568-3.054 1.532-2.518 3.858 2.497 10.912 4.898 21.835 7.331 32.746 1.672 7.504 1.662 7.504 9.175 5.778a53700.404 53700.404 0 0184.518-18.801c10.441-2.326 20.891-4.631 31.321-7.02a13.183 13.183 0 002.797-1.362zM19.014 73.348l.644.74 95.59-21.298L76.66 12.06c-2.144 3.73-4.587 6.184-8.693 6.495-4.105.311-6.892-2.143-9.582-5.295-13.313 20.312-26.347 40.164-39.37 60.09zm43.358-63.98a4.727 4.727 0 004.995 5.027 5.36 5.36 0 005.22-5.037 5.36 5.36 0 00-5.36-5.22 4.877 4.877 0 00-4.855 5.23z" fill="#50B5AC"/><path d="M99.116 82.16c-.665-2.862-1.275-5.724-2.004-8.575-.43-1.662-.493-3.216 1.49-3.677 1.982-.46 2.701.858 3.097 2.498 1.34 5.67 2.776 11.33 4.031 17.032.225 1.072-.526 2.347-.826 3.537-1.19-.332-2.69-.3-3.526-1.072-3.109-2.755-6.003-5.756-9.454-8.36.707 2.861 1.436 5.723 2.143 8.575.376 1.65.633 3.44-1.607 3.912-2.015.429-2.626-1.072-3.012-2.68-1.372-5.563-2.82-11.126-4.03-16.732-.237-1.072.492-2.412.771-3.623 1.276.375 2.851.386 3.762 1.18 3.002 2.604 5.767 5.498 8.576 8.274l.589-.29zM33.463 89.513c.268-2.369 1.34-3.934 3.484-4.62a67.524 67.524 0 017.793-1.876 4.288 4.288 0 015.262 3.345c1.297 4.898 2.573 9.807 3.591 14.759a4.288 4.288 0 01-3.087 5.178 33.76 33.76 0 01-8.35 1.908c-1.468.075-3.955-1.19-4.362-2.401-1.737-5.328-2.926-10.848-4.33-16.293zm15.532 12.294l-3.473-14.18-7.139 1.822 3.527 14.159 7.085-1.801zM60.153 96.598c.386 1.63 1.072 3.023.954 4.373-.064 1.072-1.007 2.144-1.565 3.216-.954-.568-2.55-.965-2.765-1.737-1.576-5.691-2.873-11.458-4.288-17.15a2.522 2.522 0 010-.568c.15-3.215 2.776-4.963 8.758-5.713a4.684 4.684 0 015.359 3.655 82.849 82.849 0 011.608 6.432c.772 3.73-.6 5.788-4.288 6.731-1.2.14-2.39.46-3.773.761zm-2.947-11.716l1.897 7.075 4.662-1.394-1.833-6.945-4.727 1.264zM76.22 90.478l.975 4.427a41.519 41.519 0 016.496-1.383c1.136-.065 2.326.932 3.495 1.447-.772 1.007-1.33 2.508-2.337 2.948a34.042 34.042 0 01-6.367 1.629 4.706 4.706 0 01-5.917-3.57 360.077 360.077 0 01-3.42-13.934 4.694 4.694 0 013.592-5.928 33.854 33.854 0 016.688-1.5c1.008-.086 2.144 1.007 3.216 1.575a13.936 13.936 0 01-2.144 2.809 7.665 7.665 0 01-2.733.74c-4.374 1.071-4.406 1.146-2.498 5.498 1.79.064 4.47-1.393 4.802 1.64.118 1.136-1.8 2.498-2.787 3.762l-1.06-.16zM127.778 61.172c-.096 2.284-1.125 3.645-3.312 3.677a3.407 3.407 0 01-3.676-3.27 3.417 3.417 0 01.955-2.497 3.41 3.41 0 012.464-1.04c2.197-.107 3.258 1.233 3.569 3.13zM12.765 89.106c-2.144-.118-3.473-1.222-3.473-3.377a3.215 3.215 0 013.409-3.451 3.42 3.42 0 01.064 6.828z" fill="#50B5AC"/></svg>