<svg width="131" height="133" fill="none" xmlns="http://www.w3.org/2000/svg"><g clip-path="url(#clip0_3_885)" fill="#50B5AC"><path d="M58.992 31.004c-6.853 6.923-13.066 13.171-19.418 19.42A8.788 8.788 0 0128.85 52.16a8.122 8.122 0 01-3.97-3.853 8.092 8.092 0 01-.577-5.495 10.55 10.55 0 012.656-5.199 1140.526 1140.526 0 0123.802-23.743c4.898-4.799 11.2-4.799 16.16 0 6.264 6.098 12.528 12.31 18.629 18.57 4.21 4.299 4.222 9.635.276 13.359-3.947 3.724-8.957 3.411-13.054-.65-4.522-4.486-8.857-9.085-13.78-14.146zM31.594 44.987l1.178.9a30.685 30.685 0 003.858-2.75c6.151-6.035 12.29-12.083 18.303-18.256 2.668-2.75 4.873-2.862 7.516 0a396.53 396.53 0 0014.47 14.295c.889.838 2.668.713 4.046 1.038-.476-1.25-.651-2.7-1.478-3.562-5.7-5.873-11.576-11.572-17.3-17.407-2.28-2.325-4.36-2.437-6.653-.15-7.429 7.36-14.945 14.72-22.249 22.206-.89.912-1.14 2.437-1.69 3.686zM70.655 95.41c-6.527-6.485-12.452-12.346-18.34-18.232-4.648-4.66-5.212-10.272-1.428-14.02 3.783-3.75 9.508-3.4 14.13 1.174 7.467 7.373 14.9 14.787 22.3 22.244 5.612 5.66 5.574 11.659-.063 17.345a2077.447 2077.447 0 01-17.4 17.37c-4.486 4.411-10.023 4.686-13.781.8-3.758-3.887-3.32-9.335 1.102-13.747 4.423-4.411 8.682-8.372 13.48-12.933zm-9.659 21.395l1.103.749a9.432 9.432 0 002.505-1.249c6.064-5.949 12.077-11.959 18.065-17.97 2.38-2.387 1.679-4.524-.514-6.686-7.278-7.173-14.431-14.483-21.785-21.581-.977-.938-2.806-1-4.234-1.475.538 1.35.751 3.012 1.678 3.974 6.014 6.248 12.19 12.247 18.29 18.357 3.671 3.674 3.684 4.999.113 8.523-4.372 4.386-8.769 8.685-13.091 13.171a16.244 16.244 0 00-2.167 4.149l.037.038z"/><path d="M9.671 133c-4.384-.762-7.153-2.499-8.769-5.973a8.404 8.404 0 011.716-9.997c4.573-4.787 9.32-9.385 14.006-14.059 8.135-8.123 16.277-16.241 24.429-24.356 3.533-3.499 4.635-3.436 8.068.238.488.525.914 1.112 1.44 1.6 8.481 7.872 6.44 7.76 0 14.258-11.275 11.247-22.55 22.606-33.95 33.74-1.966 1.95-4.622 3.074-6.94 4.549zm36.643-47.237l-1.528-.162c-10.46 8.36-36.33 35.465-36.931 39.389 1.691-.75 3.257-1.025 4.184-1.937A2828.46 2828.46 0 0045.6 89.487c.79-.75.514-2.462.714-3.724zM101.811 61.67c6.99 0 13.304-.125 19.618 0 4.397.113 7.729 2.075 9.107 6.548a8.003 8.003 0 01.109 5.3 8.027 8.027 0 01-3.228 4.21 13.129 13.129 0 01-6.815 2.087c-8.193.25-16.411.25-24.604 0-8.406-.2-11.488-4.324-12.314-12.721-.827-8.398 1.578-14.109 9.42-17.395.915-.388 1.666-1.15 2.506-1.612 3.532-1.825 5.963-.5 6.126 3.461.238 3.212.075 6.373.075 10.122zm-7.855-3.174c-3.996 2.024-4.798 11.247-1.253 13.471.734.44 1.574.674 2.43.675 8.469 0 16.95.1 25.419 0 1.027 0 2.029-1.325 3.044-2.037-1.027-.537-2.042-1.5-3.082-1.537-5.011-.162-10.022 0-15.033-.087-9.107-.175-11.111 2.261-11.049-9.785-.05-.2-.2-.313-.476-.712v.012zM123.546 18.082c0 4.78-1.903 9.363-5.291 12.742a18.086 18.086 0 01-12.773 5.278 18.088 18.088 0 01-12.774-5.278 17.997 17.997 0 01-5.291-12.742c0-4.779 1.903-9.362 5.291-12.742A18.088 18.088 0 01105.482.063c4.791 0 9.385 1.898 12.773 5.277a17.996 17.996 0 015.291 12.742zm-17.814 10.76a11.014 11.014 0 007.743-3.272 10.95 10.95 0 003.156-7.775 11.08 11.08 0 00-3.126-8.245 11.137 11.137 0 00-16.213.283 11.077 11.077 0 00-2.835 8.35 11.035 11.035 0 003.45 7.632 11.09 11.09 0 007.825 3.027z"/></g><defs><clipPath id="clip0_3_885"><path fill="#fff" d="M0 0h131v133H0z"/></clipPath></defs></svg>