<svg width="123" height="149" fill="none" xmlns="http://www.w3.org/2000/svg"><path d="M61.586 120.548H45.537c-2.708 0-3.92-.94-3.877-3.848a28.018 28.018 0 00-8.024-20.58c-11.06-11.944-13.554-26.225-7.04-41.248C33.009 40.079 45.024 32.54 61 31.84c14.994-.655 29.517 8.965 35.632 22.89 6.157 14.167 3.463 30.9-7.34 41.532a25.653 25.653 0 00-7.825 19.355c0 4.646-.3 4.917-5.074 4.931H61.586zm-.3-4.389c4.148 0 8.31-.1 12.457 0 2.295 0 3.293-.599 3.435-3.079a30.088 30.088 0 018.68-19.811c9.863-10.362 12.257-22.804 6.827-36.03-5.43-13.227-15.935-20.553-30.187-20.98-14.552-.485-25.37 6.47-31.812 19.511a32.182 32.182 0 005.872 37.057 31.77 31.77 0 019.293 20.624c.2 2.437 1.183 2.85 3.25 2.85 4.104-.228 8.138-.142 12.185-.142zM61.23 134.872H47.147c-4.276 0-6.842-2.28-6.799-5.829.043-3.549 2.523-5.63 6.613-5.701h28.82c4.275 0 6.47 1.967 6.541 5.601.071 3.635-2.252 5.772-6.357 5.858-4.917.142-9.82.071-14.737.071zM44.852 128.9c2.337 1.654 29.93 1.81 32.78.342-1.567-1.767-29.545-2.194-32.78-.342zM61.443 148.854H50.967c-3.492 0-5.943-2.266-6.043-5.516a5.574 5.574 0 016-5.872 962.653 962.653 0 0120.952 0c3.72 0 6.2 2.494 6.085 5.815a5.702 5.702 0 01-6.057 5.573H61.443zm-12.058-5.915c2.85 2.067 21.92 1.839 23.716-.1-2.237-1.667-21.093-1.71-23.716.029v.071zM63.567 9.891a51.881 51.881 0 01-.085 6.827c-.143 1.012-1.326 1.867-2.024 2.85-.642-.94-1.782-1.852-1.825-2.85-.199-4.56-.199-9.117 0-13.668 0-1.04 1.098-2.038 1.682-3.05.756 1.012 1.996 1.967 2.167 3.064.2 2.27.228 4.553.085 6.827zM24.956 10.604a11.64 11.64 0 012.024 1.881c2.594 3.891 5.16 7.796 7.526 11.83.441.727-.086 2.038-.172 3.078-.997-.27-2.465-.228-2.85-.883a189.039 189.039 0 01-8.053-12.628c-.427-.727.285-2.11.47-3.178l1.055-.1zM107.194 47.062c-.414-.328-1.326-.713-1.426-1.24-.099-.527.115-1.953.628-2.238a301.609 301.609 0 0114.053-7.568c.584-.285 1.681.428 2.551.67-.271.855-.285 2.138-.855 2.466-4.604 2.65-9.321 5.13-14.011 7.64a5.56 5.56 0 01-.94.27zM89.578 29.018c-.328-1.425-1.07-2.85-.684-3.477 2.75-4.447 5.7-8.78 8.694-13.027.399-.556 1.682-.47 2.551-.684.171.869.755 2.01.413 2.565-2.765 4.433-5.7 8.765-8.637 13.084-.313.47-1.012.684-2.337 1.54zM17.702 45.737c-1.255.384-2.495 1.225-3.15.898-4.575-2.28-9.05-4.76-13.469-7.326-.627-.37-.74-1.61-1.083-2.438.827-.327 1.91-1.154 2.437-.883 4.732 2.409 9.393 5.002 14.039 7.596.413.228.527.898 1.226 2.153z" fill="#50B5AC"/><path d="M91.246 71.135l-2.138 2.252c-.756-.941-2.067-1.825-2.18-2.85-1.426-11.888-7.341-20.04-19-23.575-1.952-.584-4.119-.513-6.085-1.069-.927-.256-1.64-1.282-2.452-1.952.855-.784 1.824-2.31 2.537-2.21a45.766 45.766 0 0111.402 2.523c11.217 4.832 16.875 13.882 17.916 26.88z" fill="#50B5AC"/></svg>