<svg width="135" height="115" fill="none" xmlns="http://www.w3.org/2000/svg"><path d="M88.112 37.916l29.221 30.22a34.776 34.776 0 0011.65-22.23 35.585 35.585 0 00-3.76-21.35 4.094 4.094 0 01-.63-2.57c.28-1 1.07-2.32 1.86-2.49a3.301 3.301 0 012.8 1.39c9.37 17.85 5.53 38.31-7.78 50.61a54.97 54.97 0 00-6 6.78c-2 2.6-4.35 4.42-7.69 4.29-2.85 8.18-3.85 9.17-10.75 10.65-.49 5.61-3.43 9-9.11 10.06a2.625 2.625 0 00-1.47 1.82c-.86 4.27-2.75 7.73-7.28 8.7-4.53.97-8.48-.41-11.14-4.59a44.655 44.655 0 00-3.82-4.35l-2.44 3.89c-2.39 3.8-6 4.61-10 3.84-4-.77-6.17-3.88-7.07-7.59-.52-2.16-1.28-2.95-3.53-3.46-4.77-1.1-6.94-4.76-7.32-9.63-6.17-.68-9.78-4-10.32-10.17-5.2-1.19-8.9-3.84-10.2-9.22a6 6 0 00-1.74-2.38c-12-12.16-14.78-30.8-7.89-46.49 10.5-23.82 41.63-31.07 61.73-14.88 1.51 1.22 2.34.85 3.71-.16 13.6-10 28.09-11.22 43.27-4a4.75 4.75 0 012.36 3.18c.18 1.86-2 2.43-4.23 1.64-4-1.39-7.9-3.11-12-3.72-11.35-1.71-21.23 1.88-29.38 9.86-6.16 6-12 12.33-18 18.55-2.56 2.67-2.65 6.21-.31 8.65 2.34 2.44 6.52 2.85 8.77-.09 5.34-7 11.91-9.92 20.67-8.64 3.49.52 6.5-1.56 9-4.09 1.41-1.44 2.86-2.85 4.28-4.29 1.42-1.44 2.74-1.64 4.09-.31 1.35 1.33.86 2.74-.32 3.88-3.01 2.83-6.01 5.63-9.23 8.69zm-29.73 49.89c6.64 1.23 10.25 4.59 9.8 10a7.631 7.631 0 003.15 7.25c.71.58 1.28 1.32 2 1.93 2.26 2 4.74 2 6.66.06s1.94-4.48-.05-6.67c-1.99-2.19-4-4.06-6-6.08-2.66-2.67-5.3-5.35-8-8-1.26-1.24-2-2.65-.58-4.07 1.42-1.42 3-.92 4.32.42.38.4.77.78 1.17 1.17 4.17 4.15 8.24 8.41 12.59 12.35a6.39 6.39 0 004.86 1.51 5.15 5.15 0 003.19-3.54 6.79 6.79 0 00-1.88-4.75c-6.52-7-13.23-13.74-19.88-20.59-1.28-1.32-2-2.75-.43-4.28 1.57-1.53 2.84-.7 4 .56 5.22 5.41 10.43 10.84 15.67 16.23 1.79 1.84 3.6 3.69 5.54 5.36a4.6 4.6 0 007.281-4.81 9.62 9.62 0 00-2.19-3.69c-6.24-6.38-12.57-12.65-18.86-19-.58-.58-1.44-1.14-1.59-1.84a3.791 3.791 0 01.35-2.95 3.56 3.56 0 012.89-.52c.79.18 1.45 1.06 2.1 1.7 6.5 6.5 13 13 19.49 19.5 2.24 2.23 4.88 2.35 6.85.46 1.97-1.89 2-4.69-.3-7.05a6303.664 6303.664 0 00-27.19-27.72 6.46 6.46 0 00-3.31-1.42c-6.67-1.18-11.78 1-16.25 6.36-4.6 5.57-11.75 5.57-16.45.8-4.7-4.77-4.32-11.51.72-16.68 4.86-5 9.67-10 14.48-15.07.26-.31.491-.646.69-1-14.54-13-37.54-11.13-50 4.38-13.08 16.27-8.89 38.02 1.36 47.14 2-1.9 4-3.81 6-5.69 2.91-2.72 6.28-3.74 10.13-2.49a9.5 9.5 0 016.75 7.94c.12.71.86 1.79 1.43 1.87 5.85.85 8.48 4.57 9.18 10.2 6.71.33 9.26 4.78 10.31 10.72zm-26-1.37c4.35 0 10.75-6.72 10.14-10a5.81 5.81 0 00-2.66-3.76 5.29 5.29 0 00-4.49.39 20.17 20.17 0 00-5.59 5.61 7.06 7.06 0 00-.28 5.34c.46 1.24 2.32 1.96 2.91 2.42h-.03zm.43-20.6c-1-1.16-1.88-3-3.23-3.49a6 6 0 00-4.77.55 27.259 27.259 0 00-5.26 5.15 4.45 4.45 0 00.34 6.21c1.83 1.7 4 2.06 6 .45a51.036 51.036 0 005.6-5.6c.57-.7.74-1.8 1.35-3.27h-.03zm30.88 31.66c-1-1.22-1.73-3-3-3.49a6.509 6.509 0 00-5 .39 23.932 23.932 0 00-5.26 5.14 4.63 4.63 0 006.48 6.54 51.395 51.395 0 005.21-5.23 14.688 14.688 0 001.6-3.35h-.03zm-10.26-10.38c-1.13-1.3-2-3.1-3.34-3.6a6.092 6.092 0 00-4.76.62 26.501 26.501 0 00-5.11 5 4.441 4.441 0 00.33 6.43 4.38 4.38 0 006.22 0 54.58 54.58 0 004.84-4.9 18.43 18.43 0 001.85-3.55h-.03z" fill="#50B5AC"/></svg>