<svg width="133" height="133" fill="none" xmlns="http://www.w3.org/2000/svg"><path d="M17.621 127.681l-.41 4.344H0V79.444h17.056l.63 1.966.822-.09a.668.668 0 00.244-.141c9.306-7.545 20.102-8.997 31.657-8.419 8.342.463 16.709.077 25.089.103 5.887 0 9.614 3.29 9.73 8.483.115 5.193-3.715 8.933-9.589 8.997-7.223.116-14.46 0-21.682.103a5.592 5.592 0 00-3.96 1.58 5.874 5.874 0 00-.68 4.397c.5 2.043 2.365 2.789 4.46 2.776H71.77c4.665 0 9.344.257 13.97-.116a11.452 11.452 0 006.312-2.57c7.776-6.838 15.282-13.984 22.929-20.976a10.281 10.281 0 0111.568-1.8c3.856 2.005 5.925 5.283 5.359 9.537a12.204 12.204 0 01-3.02 6.427c-8.907 9.24-17.994 18.238-27.145 27.299-5.398 5.385-12.34 6.902-19.55 8.29-19.06 3.663-38.276 1.722-57.426 2.237-2.327.154-4.679.154-7.147.154zm-.218-4.049h10.99c18.109-.218 36.283 1.028 54.277-2.57 5.77-1.17 11.388-2.391 15.706-6.658a3980.218 3980.218 0 0027.403-27.518 7.252 7.252 0 001.838-3.406 5.026 5.026 0 00-2.841-5.694c-2.57-1.44-4.948-.784-7.043 1.144-7.545 6.966-14.974 14.048-22.686 20.821-1.953 1.736-4.717 3.484-7.172 3.561-11.773.372-23.572.308-35.358.128a8.688 8.688 0 01.745-17.351h14.833c2.75 0 5.514.103 8.264 0a4.436 4.436 0 004.499-4.563c0-2.57-1.761-4.203-4.615-4.434h-2.287c-7.982 0-16.002.463-23.945-.116-11.362-.835-21.452 1.76-30.372 8.856a.799.799 0 01-.244.154c-1.645.566-1.992 1.85-1.992 3.534.09 7.417 0 14.833 0 22.262v11.85zM4.409 83.788v43.79h8.483V83.801l-8.483-.013zM44.728 22.133c2.854 0 5.707-.09 8.547 0a2.981 2.981 0 003.38-2.262c2.147-5.681 4.396-11.337 6.787-16.915C63.931 1.8 65.19.976 66.09 0c.94.82 1.75 1.778 2.403 2.84a466.854 466.854 0 016.774 16.915 3.2 3.2 0 003.573 2.39 424.181 424.181 0 0116.837 0 9.458 9.458 0 013.11 1.286 9.24 9.24 0 01-1.696 3.046c-4.164 3.303-8.38 6.58-12.776 9.575-2.288 1.569-2.699 3.085-1.89 5.669 1.787 5.706 3.227 11.567 4.808 17.274.222.525.34 1.088.347 1.658-.167.938-.296 2.3-.913 2.648a3.084 3.084 0 01-2.712-.617c-4.691-4.01-9.267-8.162-13.88-12.262-4.165-3.702-4.165-3.702-8.587-.18-4.91 3.856-9.755 7.905-14.742 11.71a13.6 13.6 0 01-3.856 1.361c0-1.478-.514-3.11-.064-4.434 2.082-6.195 4.357-12.339 6.696-18.444a2.725 2.725 0 00-1.118-3.791A372.124 372.124 0 0134.96 26.528c-.79-.87-1.425-1.87-1.877-2.956a11.565 11.565 0 013.368-1.426c2.802-.155 5.514-.013 8.277-.013zm-2.198 4.01l-.27.797 9.396 7.095c3.522 2.647 3.547 2.75 2.082 6.799l-4.82 13.2a5.643 5.643 0 002.905-1.376c3.856-3.071 7.712-6.105 11.568-9.28 1.876-1.58 3.367-1.632 5.14.078 3.535 3.316 7.211 6.426 10.836 9.678.514.45 1.118.797 2.133 1.53-.192-1.132-.244-1.684-.385-2.211-1.131-4.203-2.224-8.432-3.458-12.609-.68-2.275-.41-3.856 1.761-5.334 3.008-1.98 5.771-4.331 8.702-6.426a7.378 7.378 0 012.095-.746l-.951-1.285h-8.2c-7.712 0-7.712 0-10.617-7.12-1.388-3.445-2.802-6.877-4.203-10.283a102.13 102.13 0 00-6.324 14.228c-.874 2.43-2.108 3.432-4.768 3.278-4.164-.244-8.393-.013-12.622-.013z" fill="#50B5AC"/><path d="M67.954 59.56v3.985c0 1.516-.476 2.57-2.07 2.172a3.007 3.007 0 01-1.89-2.018 52.68 52.68 0 010-8.547c0-.694 1.286-1.285 1.993-1.967.656.694 1.684 1.286 1.864 2.108a18.88 18.88 0 01.103 4.267zM96.795 43.571a20.394 20.394 0 01-4.254-.09c-.707-.154-1.285-1.182-1.825-1.825.604-.54 1.182-1.516 1.812-1.542a82.892 82.892 0 019.113 0 2.358 2.358 0 011.568 1.684 2.338 2.338 0 01-1.581 1.683 30.263 30.263 0 01-4.833.09zM35.217 40.037a23.587 23.587 0 014.267.077 2.43 2.43 0 011.62 1.658 2.34 2.34 0 01-1.543 1.71c-2.936.173-5.88.173-8.817 0a2.352 2.352 0 01-1.606-1.659 2.327 2.327 0 011.542-1.71 26.678 26.678 0 014.537-.076zM41.232 7.506c1.016-1.85 2.327-2.044 4.229 0 1.902 2.044 4.151 3.779 6.825 6.157L49.2 15.86l-7.969-8.354zM80.884 14.203l8.033-8.355 2.005 1.89-8.085 8.328-1.953-1.863z" fill="#50B5AC"/></svg>