<svg width="213" height="213" fill="none" xmlns="http://www.w3.org/2000/svg"><circle cx="106.5" cy="106.5" r="105" fill="#fff" stroke="url(#paint0_linear_50_1568)" stroke-width="3"/><path d="M102.131 36c4.138.407 5.36 1.415 7.107 3.216 11.287 11.79 22.349 23.72 33.496 35.597 3.548 3.773 7.042 7.6 10.719 11.212a5.07 5.07 0 003.644 1.147c2.744-.311 5.435-1.072 8.147-1.672 3.215-.665 3.891-.247 4.587 2.862 1.944 8.767 3.884 17.539 5.821 26.314 1.275 5.681 2.594 11.362 3.88 17.043.868 3.837.525 4.384-3.409 5.263-42.232 9.411-84.46 18.84-126.685 28.287-2.67.6-3.784-.311-4.288-2.669a11896.536 11896.536 0 01-9.883-44.237c-.697-3.14-.14-4.341 2.97-4.566 6.849-.493 10.868-4.094 14.48-9.818 12.863-20.366 26.24-40.314 39.446-60.422a22.113 22.113 0 013.076-4.127c1.726-1.63 2.658-3.12 6.892-3.43zm73.07 96.298c-.225-1.469-.289-2.144-.439-2.787-2.38-10.633-4.77-21.259-7.171-31.878-.568-2.497-.568-6.013-2.144-7.117-1.575-1.104-4.823.31-7.288.857-38.535 8.575-77.047 17.151-115.582 25.726-2.583.568-3.054 1.532-2.518 3.858 2.497 10.912 4.898 21.835 7.331 32.746 1.672 7.504 1.662 7.504 9.175 5.778a53675.357 53675.357 0 0184.518-18.801c10.441-2.326 20.891-4.631 31.321-7.021a13.206 13.206 0 002.797-1.361zM54.014 109.349l.644.74 95.59-21.299L111.66 48.06c-2.144 3.73-4.587 6.184-8.693 6.495-4.105.311-6.892-2.144-9.582-5.295-13.313 20.312-26.347 40.164-39.37 60.09zm43.358-63.98a4.727 4.727 0 004.995 5.026 5.36 5.36 0 005.22-5.038 5.359 5.359 0 00-5.359-5.22 4.872 4.872 0 00-3.566 1.56 4.877 4.877 0 00-1.29 3.671z" fill="#50B5AC"/><path d="M134.116 118.16c-.665-2.862-1.276-5.724-2.004-8.575-.429-1.662-.493-3.216 1.489-3.677 1.983-.461 2.702.858 3.098 2.498 1.34 5.67 2.776 11.329 4.031 17.032.225 1.072-.526 2.347-.826 3.537-1.19-.332-2.69-.3-3.526-1.072-3.109-2.755-6.003-5.756-9.454-8.36.707 2.861 1.436 5.723 2.143 8.575.376 1.65.633 3.44-1.607 3.912-2.016.429-2.627-1.072-3.012-2.68-1.372-5.563-2.819-11.126-4.031-16.732-.235-1.072.493-2.412.772-3.623 1.276.375 2.851.386 3.762 1.179 3.002 2.605 5.767 5.499 8.575 8.275l.59-.289zM68.463 125.513c.268-2.369 1.34-3.934 3.484-4.62a67.649 67.649 0 017.793-1.876 4.302 4.302 0 013.352.538 4.281 4.281 0 011.91 2.807c1.297 4.898 2.573 9.807 3.591 14.759a4.288 4.288 0 01-3.087 5.178 33.76 33.76 0 01-8.35 1.908c-1.468.075-3.955-1.19-4.362-2.401-1.737-5.328-2.926-10.848-4.33-16.293zm15.532 12.294l-3.473-14.181-7.139 1.823 3.527 14.159 7.085-1.801zM95.153 132.598c.386 1.629 1.072 3.023.954 4.373-.064 1.072-1.007 2.144-1.565 3.216-.954-.568-2.55-.965-2.765-1.737-1.576-5.691-2.873-11.458-4.288-17.15a2.52 2.52 0 010-.568c.15-3.215 2.776-4.963 8.757-5.713a4.686 4.686 0 015.36 3.655 83.015 83.015 0 011.608 6.432c.771 3.73-.601 5.788-4.288 6.731-1.2.139-2.39.461-3.773.761zm-2.948-11.716l1.898 7.075 4.662-1.394-1.832-6.945-4.728 1.264zM111.22 126.478l.976 4.427a41.358 41.358 0 016.495-1.383c1.136-.065 2.326.932 3.494 1.447-.771 1.007-1.329 2.508-2.336 2.948a34.097 34.097 0 01-6.367 1.629 4.706 4.706 0 01-5.917-3.57 359.724 359.724 0 01-3.419-13.934 4.694 4.694 0 013.59-5.928 33.821 33.821 0 016.689-1.5c1.008-.086 2.144 1.007 3.216 1.575a13.949 13.949 0 01-2.144 2.809 7.651 7.651 0 01-2.733.739c-4.374 1.072-4.406 1.147-2.498 5.499 1.79.064 4.47-1.393 4.802 1.64.118 1.136-1.801 2.498-2.787 3.762l-1.061-.16zM162.778 97.172c-.096 2.284-1.125 3.645-3.312 3.677a3.407 3.407 0 01-1.595-6.538c.423-.179.878-.27 1.338-.269 2.197-.107 3.258 1.233 3.569 3.13zM47.765 125.106c-2.144-.118-3.473-1.222-3.473-3.377a3.214 3.214 0 013.409-3.451 3.42 3.42 0 01.064 6.828z" fill="#50B5AC"/><defs><linearGradient id="paint0_linear_50_1568" x1="99.4" y1="0" x2="104.133" y2="213" gradientUnits="userSpaceOnUse"><stop stop-color="#52B9B5"/><stop offset="1" stop-color="#fff"/></linearGradient></defs></svg>