<svg width="213" height="213" fill="none" xmlns="http://www.w3.org/2000/svg"><circle cx="106.5" cy="106.5" r="105" fill="#fff" stroke="url(#paint0_linear_50_1567)" stroke-width="3"/><path d="M58.621 168.681l-.41 4.344H41v-52.581h17.056l.63 1.966.822-.09a.664.664 0 00.244-.141c9.306-7.545 20.102-8.997 31.657-8.419 8.342.463 16.709.077 25.089.103 5.887 0 9.614 3.291 9.73 8.483.115 5.193-3.715 8.933-9.589 8.997-7.223.116-14.459 0-21.682.103a5.59 5.59 0 00-3.96 1.581 5.875 5.875 0 00-.68 4.396c.5 2.043 2.365 2.789 4.46 2.776h17.994c4.665 0 9.344.257 13.971-.116a11.456 11.456 0 006.311-2.57c7.776-6.838 15.282-13.984 22.929-20.976a10.278 10.278 0 0111.568-1.8c3.856 2.005 5.925 5.283 5.359 9.537a12.2 12.2 0 01-3.02 6.426c-8.907 9.242-17.994 18.239-27.145 27.3-5.399 5.385-12.339 6.902-19.55 8.29-19.06 3.663-38.276 1.722-57.426 2.237-2.327.154-4.679.154-7.147.154zm-.218-4.049h10.99c18.109-.218 36.283 1.028 54.277-2.57 5.771-1.17 11.388-2.391 15.706-6.658a3991.346 3991.346 0 0027.403-27.518 7.253 7.253 0 001.838-3.406 5.026 5.026 0 00-2.841-5.694c-2.57-1.44-4.948-.784-7.043 1.144-7.545 6.966-14.974 14.048-22.686 20.821-1.953 1.736-4.717 3.484-7.172 3.561-11.773.372-23.572.308-35.358.128a8.688 8.688 0 01.746-17.351h14.832c2.75 0 5.514.103 8.264 0a4.432 4.432 0 003.224-1.321 4.434 4.434 0 001.275-3.242c0-2.571-1.761-4.203-4.615-4.434h-2.287c-7.982 0-16.002.462-23.945-.116-11.362-.835-21.452 1.761-30.372 8.856a.793.793 0 01-.244.154c-1.645.566-1.992 1.851-1.992 3.535.09 7.416 0 14.832 0 22.261v11.85zm-12.994-39.844v43.79h8.483v-43.777l-8.483-.013zM85.728 63.133c2.854 0 5.707-.09 8.547 0a2.981 2.981 0 003.38-2.262c2.147-5.681 4.396-11.337 6.787-16.915.489-1.157 1.748-1.98 2.648-2.956.939.82 1.75 1.778 2.403 2.84a467.207 467.207 0 016.774 16.915 3.2 3.2 0 003.573 2.39 424.166 424.166 0 0116.837 0 9.467 9.467 0 013.111 1.286 9.235 9.235 0 01-1.697 3.046c-4.164 3.303-8.38 6.58-12.776 9.575-2.288 1.569-2.699 3.085-1.889 5.669 1.786 5.706 3.226 11.567 4.807 17.274.222.525.339 1.088.347 1.658-.167.938-.296 2.301-.913 2.648a3.094 3.094 0 01-2.712-.617c-4.691-4.01-9.267-8.162-13.881-12.262-4.164-3.702-4.164-3.702-8.586-.18-4.91 3.856-9.755 7.905-14.742 11.709a13.59 13.59 0 01-3.856 1.362c0-1.478-.514-3.11-.064-4.434 2.082-6.195 4.357-12.339 6.696-18.444a2.725 2.725 0 00-1.118-3.791A372.124 372.124 0 0175.96 67.528c-.79-.87-1.425-1.87-1.876-2.956a11.565 11.565 0 013.367-1.426c2.802-.155 5.514-.013 8.277-.013zm-2.198 4.01l-.27.797 9.396 7.094c3.522 2.648 3.547 2.751 2.082 6.8l-4.82 13.2a5.643 5.643 0 002.905-1.376c3.856-3.071 7.712-6.105 11.568-9.28 1.876-1.58 3.367-1.632 5.141.078 3.534 3.316 7.21 6.426 10.835 9.678.514.45 1.118.797 2.133 1.53-.192-1.132-.244-1.684-.385-2.211-1.131-4.203-2.224-8.432-3.458-12.609-.681-2.275-.411-3.856 1.761-5.334 3.008-1.98 5.771-4.331 8.702-6.426a7.37 7.37 0 012.095-.746l-.951-1.285h-8.201c-7.711 0-7.711 0-10.616-7.12-1.388-3.445-2.802-6.877-4.203-10.283a102.145 102.145 0 00-6.324 14.228c-.874 2.43-2.108 3.432-4.768 3.278-4.164-.245-8.393-.013-12.622-.013z" fill="#50B5AC"/><path d="M108.954 100.56v3.985c0 1.516-.476 2.57-2.07 2.172a3.015 3.015 0 01-1.889-2.018 52.568 52.568 0 010-8.547c0-.694 1.285-1.285 1.992-1.967.656.694 1.684 1.286 1.864 2.108.195 1.414.23 2.846.103 4.267zM137.795 84.571a20.391 20.391 0 01-4.254-.09c-.707-.154-1.285-1.182-1.825-1.825.604-.54 1.182-1.516 1.812-1.542a82.894 82.894 0 019.113 0 2.358 2.358 0 011.568 1.684 2.338 2.338 0 01-1.581 1.683 30.266 30.266 0 01-4.833.09zM76.217 81.037a23.587 23.587 0 014.267.077 2.43 2.43 0 011.62 1.658 2.34 2.34 0 01-1.543 1.71c-2.936.173-5.88.173-8.817 0a2.352 2.352 0 01-1.606-1.659 2.327 2.327 0 011.542-1.71 26.678 26.678 0 014.537-.076zM82.232 48.506c1.016-1.85 2.327-2.044 4.229 0 1.902 2.044 4.151 3.779 6.825 6.157L90.2 56.86l-7.969-8.355zM121.884 55.203l8.033-8.355 2.005 1.89-8.085 8.328-1.953-1.864z" fill="#50B5AC"/><defs><linearGradient id="paint0_linear_50_1567" x1="99.4" y1="0" x2="104.133" y2="213" gradientUnits="userSpaceOnUse"><stop stop-color="#52B9B5"/><stop offset="1" stop-color="#fff"/></linearGradient></defs></svg>