<svg width="213" height="213" fill="none" xmlns="http://www.w3.org/2000/svg"><circle cx="106.5" cy="106.5" r="105" fill="#fff" stroke="url(#paint0_linear_50_1566)" stroke-width="3"/><path d="M106.586 146.548H90.537c-2.708 0-3.92-.94-3.877-3.848a28.018 28.018 0 00-8.024-20.581c-11.06-11.943-13.554-26.224-7.04-41.246C78.009 66.078 90.024 58.538 106 57.84c14.994-.655 29.517 8.965 35.632 22.89 6.157 14.167 3.463 30.9-7.34 41.532a25.647 25.647 0 00-7.825 19.355c0 4.646-.299 4.917-5.074 4.931h-14.808zm-.3-4.389c4.148 0 8.31-.1 12.457 0 2.295 0 3.292-.599 3.435-3.079a30.089 30.089 0 018.68-19.811c9.863-10.362 12.257-22.804 6.827-36.03-5.43-13.227-15.935-20.553-30.187-20.98-14.552-.485-25.37 6.47-31.812 19.511a32.182 32.182 0 005.872 37.057 31.77 31.77 0 019.293 20.624c.2 2.437 1.183 2.85 3.25 2.85 4.104-.228 8.138-.142 12.185-.142zM106.229 160.872H92.148c-4.276 0-6.842-2.28-6.799-5.829.043-3.549 2.523-5.63 6.613-5.701h28.819c4.276 0 6.471 1.967 6.542 5.601.071 3.635-2.252 5.772-6.357 5.858-4.917.142-9.82.071-14.737.071zM89.853 154.9c2.337 1.654 29.93 1.81 32.781.342-1.568-1.767-29.546-2.194-32.781-.342zM106.443 174.854H95.967c-3.492 0-5.943-2.266-6.043-5.516a5.574 5.574 0 016-5.872 962.681 962.681 0 0120.952 0c3.72 0 6.2 2.494 6.086 5.815a5.694 5.694 0 01-1.84 4.079 5.703 5.703 0 01-4.218 1.494h-10.461zm-12.058-5.915c2.85 2.067 21.921 1.839 23.716-.1-2.237-1.667-21.093-1.71-23.716.029v.071zM108.567 35.891a51.847 51.847 0 01-.085 6.827c-.143 1.012-1.326 1.867-2.024 2.85-.641-.94-1.782-1.852-1.824-2.85-.2-4.56-.2-9.117 0-13.668 0-1.04 1.097-2.038 1.681-3.05.756 1.012 1.996 1.967 2.167 3.064.2 2.27.228 4.553.085 6.827zM69.956 36.604a11.64 11.64 0 012.024 1.881c2.594 3.891 5.16 7.796 7.526 11.83.441.727-.086 2.038-.171 3.079-.998-.271-2.466-.229-2.851-.884a189.039 189.039 0 01-8.053-12.628c-.427-.727.285-2.11.47-3.178l1.055-.1zM152.194 73.062c-.414-.328-1.326-.713-1.426-1.24-.099-.527.115-1.953.628-2.238a301.609 301.609 0 0114.053-7.568c.584-.285 1.681.428 2.551.67-.271.855-.285 2.138-.855 2.466-4.604 2.65-9.321 5.13-14.011 7.64a5.56 5.56 0 01-.94.27zM134.578 55.018c-.328-1.425-1.069-2.85-.684-3.477 2.751-4.447 5.701-8.78 8.694-13.027.399-.556 1.682-.47 2.551-.684.171.869.755 2.01.413 2.565-2.765 4.433-5.701 8.765-8.637 13.084-.313.47-1.012.684-2.337 1.54zM62.702 71.737c-1.255.384-2.494 1.225-3.15.898-4.575-2.28-9.05-4.76-13.469-7.326-.627-.37-.74-1.61-1.083-2.438.827-.327 1.91-1.154 2.437-.883 4.732 2.409 9.393 5.002 14.039 7.596.413.228.527.898 1.226 2.153z" fill="#50B5AC"/><path d="M136.246 97.135l-2.138 2.252c-.756-.941-2.067-1.825-2.181-2.85-1.425-11.888-7.34-20.04-18.999-23.575-1.952-.584-4.119-.513-6.085-1.069-.927-.256-1.639-1.282-2.452-1.952.855-.784 1.824-2.31 2.537-2.21a45.759 45.759 0 0111.402 2.523c11.217 4.832 16.875 13.882 17.916 26.88z" fill="#50B5AC"/><defs><linearGradient id="paint0_linear_50_1566" x1="99.4" y1="0" x2="104.133" y2="213" gradientUnits="userSpaceOnUse"><stop stop-color="#52B9B5"/><stop offset="1" stop-color="#fff"/></linearGradient></defs></svg>