<svg width="324" height="150" fill="none" xmlns="http://www.w3.org/2000/svg"><path d="M57.896 37.5L97.597 0h18.199v70.109H85.969V52.174h11.628V26.087L57.9 63.587l-39.705-37.5v26.087h11.633v17.935H0V0h18.195l39.7 37.5zM97.6 79.89h18.196V150H97.599V79.891z" fill="#F9FBFA"/><path fill-rule="evenodd" clip-rule="evenodd" d="M0 79.89h18.197v17.935h43.01c14.617 0 26.467 11.68 26.467 26.087 0 14.408-11.85 26.087-26.468 26.087H0V79.891zm18.197 53.805h43.01c5.48 0 9.925-4.38 9.925-9.783 0-5.402-4.444-9.782-9.926-9.782h-43.01v19.565z" fill="#F9FBFA"/><path d="M151.252 19.307l1.555 1.423c-.726.927-1.493 1.696-2.301 2.307-2.032 1.518-4.27 2.276-6.717 2.276-3.109 0-5.752-1.106-7.929-3.319-2.176-2.212-3.265-4.9-3.265-8.06 0-3.161 1.089-5.848 3.265-8.06 2.177-2.213 4.82-3.32 7.929-3.32 2.426 0 4.644.77 6.655 2.308.87.674 1.606 1.433 2.208 2.276l-1.555 1.422a8.65 8.65 0 00-1.804-1.896c-1.554-1.265-3.389-1.897-5.504-1.897-2.487 0-4.591.885-6.312 2.655-1.7 1.75-2.55 3.92-2.55 6.512 0 2.592.85 4.773 2.55 6.543 1.721 1.749 3.825 2.623 6.312 2.623 2.136 0 4.001-.632 5.598-1.896a10.04 10.04 0 001.865-1.897zM159.655 24.997V11.879h-5.286V9.825h12.749v2.054h-5.286v13.118h-2.177zM178.948 24.997v-2.055a5.365 5.365 0 01-1.182 1.202 6.146 6.146 0 01-3.638 1.17c-1.514 0-2.778-.443-3.794-1.329-.995-.906-1.492-1.938-1.492-3.097 0-2.571 1.451-4.099 4.353-4.583l5.753-.949c0-1.117-.353-2.023-1.058-2.718-.684-.716-1.575-1.075-2.674-1.075-1.078 0-2.104.369-3.078 1.106-.456.4-.83.77-1.12 1.107l-1.399-1.422a6.787 6.787 0 011.461-1.423c1.265-.948 2.644-1.422 4.136-1.422 1.7 0 3.11.558 4.229 1.675 1.119 1.117 1.679 2.508 1.679 4.172v9.641h-2.176zm0-6.796v-.948l-5.131.948c-1.866.337-2.799 1.233-2.799 2.687 0 .674.27 1.243.809 1.707.559.442 1.326.664 2.301.664 1.43 0 2.591-.464 3.482-1.391.892-.927 1.338-2.15 1.338-3.667zM186.085 24.997V9.825h2.176v6.48h8.552v-6.48h2.176v15.172h-2.176v-6.638h-8.552v6.638h-2.176zM203.971 24.997V9.825h2.176v5.057h3.887c1.7 0 3.027.464 3.98 1.391.975.906 1.462 2.128 1.462 3.667 0 1.538-.487 2.77-1.462 3.698-.953.906-2.27 1.359-3.949 1.359h-6.094zm2.176-2.055h3.918c.995 0 1.783-.273 2.363-.821.581-.57.871-1.296.871-2.181 0-.907-.301-1.634-.902-2.181-.58-.548-1.368-.822-2.363-.822h-3.887v6.005zM234.927 24.997v-6.164c-.373.232-.767.443-1.181.633-.913.42-1.918.632-3.017.632-1.7 0-3.088-.538-4.166-1.612-1.058-1.096-1.586-2.508-1.586-4.236V9.825h2.176v4.425c0 1.117.342 2.034 1.027 2.75.704.695 1.606 1.043 2.705 1.043 1.016 0 2-.232 2.954-.695a7.642 7.642 0 001.088-.727V9.825h2.177v15.172h-2.177zM251.098 24.997v-2.055a5.365 5.365 0 01-1.182 1.202 6.146 6.146 0 01-3.638 1.17c-1.513 0-2.778-.443-3.794-1.329-.995-.906-1.492-1.938-1.492-3.097 0-2.571 1.451-4.099 4.353-4.583l5.753-.949c0-1.117-.353-2.023-1.057-2.718-.685-.716-1.576-1.075-2.675-1.075-1.078 0-2.104.369-3.078 1.106-.456.4-.829.77-1.119 1.107l-1.4-1.422a6.77 6.77 0 011.462-1.423c1.264-.948 2.643-1.422 4.135-1.422 1.7 0 3.11.558 4.229 1.675 1.12 1.117 1.679 2.508 1.679 4.172v9.641h-2.176zm0-6.796v-.948l-5.131.948c-1.866.337-2.798 1.233-2.798 2.687 0 .674.269 1.243.808 1.707.56.442 1.327.664 2.301.664 1.43 0 2.591-.464 3.483-1.391.891-.927 1.337-2.15 1.337-3.667zM269.274 20.73l1.555 1.422c-.415.527-.964 1.054-1.648 1.58-1.452 1.054-2.975 1.581-4.571 1.581-2.053 0-3.815-.769-5.287-2.307-1.451-1.539-2.176-3.404-2.176-5.595 0-2.192.725-4.057 2.176-5.595 1.472-1.538 3.234-2.307 5.287-2.307 1.617 0 3.109.505 4.477 1.517.56.421 1.089.917 1.586 1.486l-1.555 1.58a7.31 7.31 0 00-1.15-1.264c-.995-.843-2.115-1.265-3.358-1.265-1.431 0-2.675.57-3.732 1.707-1.036 1.117-1.555 2.497-1.555 4.14 0 1.645.519 3.035 1.555 4.173 1.057 1.117 2.301 1.676 3.732 1.676 1.181 0 2.332-.422 3.451-1.265.477-.4.881-.822 1.213-1.264zM277.659 24.997V11.879h-5.287V9.825h12.749v2.054h-5.286v13.118h-2.176zM288.237 24.997V9.825h2.177v5.057h3.887c1.699 0 3.026.464 3.98 1.391.974.906 1.461 2.128 1.461 3.667 0 1.538-.487 2.77-1.461 3.698-.954.906-2.27 1.359-3.949 1.359h-6.095zm2.177-2.055h3.918c.995 0 1.782-.273 2.363-.821.58-.57.87-1.296.87-2.181 0-.907-.3-1.634-.901-2.181-.581-.548-1.368-.822-2.363-.822h-3.887v6.005zM303.633 24.997V9.825h2.176v6.48h3.265c.249-1.876 1.078-3.477 2.488-4.805 1.41-1.328 3.068-1.991 4.975-1.991 2.052 0 3.804.769 5.255 2.307 1.472 1.538 2.208 3.403 2.208 5.595 0 2.191-.736 4.056-2.208 5.595-1.451 1.538-3.203 2.307-5.255 2.307-1.907 0-3.565-.674-4.975-2.023-1.41-1.348-2.239-2.992-2.488-4.93h-3.265v6.637h-2.176zm9.173-3.414c1.057 1.117 2.301 1.676 3.731 1.676 1.43 0 2.664-.559 3.7-1.676 1.058-1.138 1.586-2.528 1.586-4.172 0-1.644-.528-3.024-1.586-4.14-1.036-1.139-2.27-1.708-3.7-1.708-1.43 0-2.674.57-3.731 1.707-1.037 1.117-1.555 2.497-1.555 4.14 0 1.645.518 3.035 1.555 4.173zM133.919 62.724V39.74h6.229v9.38l8.075-9.38h7.383l-8.306 9.615 8.767 13.368h-7.152l-5.768-8.912-2.999 3.518v5.394h-6.229zM164.892 55.594c1.108 1.157 2.477 1.736 4.107 1.736 1.63 0 2.999-.579 4.107-1.736 1.107-1.157 1.661-2.61 1.661-4.362 0-1.75-.554-3.205-1.661-4.362-1.108-1.157-2.477-1.735-4.107-1.735-1.63 0-2.999.578-4.107 1.735-1.107 1.157-1.661 2.611-1.661 4.362 0 1.752.554 3.206 1.661 4.362zm-4.383 4.081c-2.338-2.345-3.507-5.16-3.507-8.443 0-3.283 1.169-6.097 3.507-8.442 2.338-2.345 5.168-3.518 8.49-3.518s6.152 1.173 8.49 3.518c2.338 2.345 3.507 5.16 3.507 8.442 0 3.284-1.169 6.098-3.507 8.443-2.338 2.345-5.168 3.518-8.49 3.518s-6.152-1.173-8.49-3.518zM185.603 62.724V39.74h5.537l6.69 8.677 6.69-8.677h5.537v22.983h-6.229V49.356l-5.998 7.74-5.998-7.74v13.368h-6.229zM228.752 62.724V59.91h-.231c-.554.688-1.123 1.235-1.707 1.641-1.354 1.095-3.015 1.642-4.983 1.642-2.061 0-3.738-.61-5.03-1.83-1.261-1.25-1.892-2.83-1.892-4.737 0-1.876.585-3.47 1.754-4.784 1.199-1.344 2.845-2.204 4.937-2.58l7.152-1.313a3.313 3.313 0 00-1.2-2.157c-.677-.595-1.584-.892-2.722-.892-1.415 0-2.661.438-3.738 1.314-.553.406-.999.828-1.338 1.266l-3.691-3.752a11.357 11.357 0 012.353-2.205c2.153-1.5 4.445-2.251 6.875-2.251 2.83 0 5.153.876 6.967 2.627 1.815 1.75 2.723 3.924 2.723 6.52v14.305h-6.229zm0-9.85v-.469l-5.076.938c-1.692.344-2.538 1.126-2.538 2.345 0 1.564.923 2.345 2.769 2.345 1.384 0 2.538-.484 3.46-1.454.923-.969 1.385-2.204 1.385-3.705zM240.981 62.724V39.74h6.229v8.443h8.536V39.74h6.229v22.983h-6.229v-8.677h-8.536v8.677h-6.229zM264.972 67.883V56.861h1.385c.615-.563 1.23-1.376 1.845-2.44 1.231-2.25 1.846-4.955 1.846-8.114v-6.566h17.303v17.12h2.999v11.022h-6.229v-5.16h-12.919v5.16h-6.23zm8.075-11.022h8.075V45.604h-4.845v.703c0 3.096-.538 5.8-1.615 8.115-.584 1.126-1.123 1.939-1.615 2.439zM315.973 62.724V39.74h6.229v22.983h-6.229zm-15.457-5.629h3.691c.8 0 1.415-.203 1.845-.61.462-.437.693-1.016.693-1.735 0-.719-.231-1.282-.693-1.688-.43-.438-1.045-.657-1.845-.657h-3.691v4.69zm-6.23 5.629V39.74h6.23v7.036h4.152c2.492 0 4.537.766 6.137 2.298 1.6 1.5 2.399 3.392 2.399 5.675s-.799 4.19-2.399 5.722c-1.6 1.501-3.645 2.252-6.137 2.252h-10.382z" fill="#EEEFF7"/></svg>