<svg width="21" height="35" fill="none" xmlns="http://www.w3.org/2000/svg"><path d="M8.67 24.197c-.484-.075-.927-.135-1.37-.21a12.856 12.856 0 01-4.546-1.523 11.627 11.627 0 01-2.135-1.583 1.846 1.846 0 01-.42-2.213c.567-1.351 1.876-1.707 3.148-.965.454.267.859.612 1.316.878a10.098 10.098 0 003.598 1.22c.495.094.997.152 1.5.172.761.014 1.521-.032 2.274-.139.826-.136 1.64-.33 2.439-.581a7.699 7.699 0 002.423-1.317 2.686 2.686 0 011.68-.611 1.812 1.812 0 011.603.93c.172.317.299.657.375 1.009a1.502 1.502 0 01-.477 1.5c-.441.415-.909.8-1.399 1.156a10.426 10.426 0 01-3.856 1.748c-.833.192-1.681.312-2.518.466l-.33.063a.935.935 0 00.101.162c1.824 1.825 3.65 3.65 5.478 5.473.326.33.664.653.979.998a1.913 1.913 0 010 2.607 2.251 2.251 0 01-1.28.84 1.906 1.906 0 01-1.763-.495c-.637-.63-1.264-1.264-1.898-1.898-1.043-1.043-2.09-2.086-3.129-3.132-.123-.128-.21-.113-.33 0l-4.502 4.501c-.172.177-.345.376-.532.522a1.951 1.951 0 01-2.72 0c-.784-.698-1.032-1.527-.623-2.469.105-.224.252-.426.431-.596A1806.15 1806.15 0 017.98 24.92c.176-.176.352-.352.525-.532.06-.06.115-.124.165-.192z" fill="#000"/><path d="M10.31 17.325a8.663 8.663 0 11-.007-17.326 8.663 8.663 0 01.006 17.326zm4.306-8.663a4.314 4.314 0 10-4.28 4.34 4.302 4.302 0 004.28-4.34z" fill="#000"/></svg>