<svg width="94" height="88" fill="none" xmlns="http://www.w3.org/2000/svg"><path d="M20.247 14.784c0-7.189 5.828-13.017 13.017-13.017 7.19 0 13.018 5.828 13.018 13.018 0-7.19 5.828-13.018 13.018-13.018s13.017 5.828 13.017 13.018v.028c0 .364.001 1.407-.196 2.575h10.61a5.207 5.207 0 015.208 5.207V33.01a5.207 5.207 0 01-5.207 5.207V77.27a7.81 7.81 0 01-7.811 7.81H17.643a7.81 7.81 0 01-7.81-7.81V38.216a5.207 5.207 0 01-5.207-5.207V22.595a5.207 5.207 0 015.207-5.207h10.61a15.453 15.453 0 01-.196-2.575v-.029zm5.561 2.604h15.267v-2.604a7.81 7.81 0 10-15.621 0c0 .442.01 1.425.234 2.245.04.145.08.265.12.359zm25.681 0h15.267a3 3 0 00.12-.36c.224-.82.234-1.802.234-2.243a7.81 7.81 0 10-15.62 0v2.603zM9.833 22.595V33.01h31.242V22.595H9.833zm41.656 0V33.01h31.243V22.595H51.489zm26.036 15.621H51.489v41.657h23.432a2.603 2.603 0 002.603-2.604V38.216zm-36.45 41.657V38.216H15.04V77.27a2.604 2.604 0 002.603 2.604h23.432z" fill="#D6FFF7"/></svg>