<svg width="213" height="213" fill="none" xmlns="http://www.w3.org/2000/svg"><circle cx="106.5" cy="106.5" r="105" fill="#fff" stroke="url(#paint0_linear_168_9258)" stroke-width="3"/><g clip-path="url(#clip0_168_9258)" fill="#50B5AC"><path d="M99.992 71.004c-6.853 6.923-13.066 13.171-19.418 19.42A8.788 8.788 0 0169.85 92.16a8.121 8.121 0 01-3.97-3.853 8.092 8.092 0 01-.577-5.495 10.549 10.549 0 012.656-5.199 1140.77 1140.77 0 0123.802-23.743c4.899-4.799 11.2-4.799 16.161 0 6.264 6.098 12.527 12.31 18.628 18.57 4.21 4.299 4.222 9.635.276 13.359-3.946 3.724-8.957 3.411-13.054-.65-4.522-4.487-8.857-9.085-13.78-14.146zM72.594 84.987l1.178.9a30.677 30.677 0 003.858-2.75c6.151-6.035 12.29-12.083 18.303-18.257 2.668-2.749 4.873-2.861 7.517 0a395.562 395.562 0 0014.469 14.296c.889.838 2.668.713 4.046 1.038-.476-1.25-.651-2.7-1.478-3.562-5.7-5.873-11.575-11.572-17.3-17.407-2.28-2.325-4.36-2.437-6.653-.15-7.428 7.36-14.945 14.72-22.248 22.206-.89.912-1.14 2.437-1.692 3.686zM111.655 135.411c-6.527-6.486-12.452-12.347-18.34-18.233-4.648-4.661-5.212-10.272-1.428-14.021 3.783-3.749 9.508-3.399 14.131 1.175a3117.244 3117.244 0 0122.299 22.244c5.612 5.661 5.574 11.659-.063 17.345a2068.477 2068.477 0 01-17.401 17.37c-4.485 4.411-10.022 4.686-13.78.8-3.758-3.887-3.32-9.335 1.102-13.747 4.423-4.411 8.682-8.372 13.48-12.933zm-9.659 21.394l1.103.749a9.426 9.426 0 002.505-1.249c6.064-5.949 12.077-11.959 18.065-17.97 2.38-2.387 1.679-4.524-.514-6.686-7.278-7.173-14.431-14.483-21.785-21.581-.977-.937-2.806-1-4.234-1.475.538 1.35.751 3.012 1.678 3.974 6.014 6.248 12.19 12.247 18.29 18.357 3.671 3.674 3.684 4.999.113 8.523-4.372 4.386-8.769 8.685-13.091 13.171a16.252 16.252 0 00-2.167 4.149l.037.038z"/><path d="M50.671 173c-4.385-.762-7.153-2.499-8.77-5.973a8.407 8.407 0 011.717-9.998c4.573-4.786 9.32-9.384 14.006-14.058 8.134-8.123 16.277-16.241 24.428-24.356 3.533-3.499 4.636-3.436 8.068.238.489.525.915 1.112 1.44 1.599 8.482 7.873 6.44 7.761 0 14.259-11.274 11.247-22.549 22.606-33.949 33.74-1.966 1.95-4.622 3.074-6.94 4.549zm36.643-47.237l-1.528-.162c-10.46 8.36-36.33 35.465-36.931 39.389 1.69-.75 3.257-1.025 4.184-1.937A2826.234 2826.234 0 0086.6 129.487c.79-.75.514-2.462.714-3.724zM142.811 101.67c6.99 0 13.304-.125 19.618 0 4.397.113 7.729 2.075 9.107 6.548a8.004 8.004 0 01.109 5.3 8.029 8.029 0 01-3.228 4.21 13.124 13.124 0 01-6.815 2.087c-8.193.25-16.411.25-24.604 0-8.406-.2-11.488-4.324-12.314-12.721-.827-8.398 1.578-14.109 9.42-17.395.915-.388 1.666-1.15 2.506-1.613 3.533-1.824 5.963-.5 6.126 3.462.238 3.212.075 6.373.075 10.122zm-7.855-3.174c-3.996 2.024-4.798 11.247-1.253 13.471a4.75 4.75 0 002.431.675c8.468 0 16.949.1 25.418 0 1.027 0 2.029-1.325 3.044-2.037-1.027-.537-2.042-1.499-3.082-1.537-5.011-.162-10.022 0-15.033-.087-9.107-.175-11.111 2.261-11.049-9.785-.05-.2-.2-.313-.476-.712v.012zM164.546 58.082c0 4.78-1.903 9.363-5.291 12.742a18.089 18.089 0 01-12.774 5.278 18.086 18.086 0 01-12.773-5.278 17.996 17.996 0 01-5.291-12.742c0-4.779 1.903-9.362 5.291-12.742a18.086 18.086 0 0112.773-5.278c4.791 0 9.386 1.899 12.774 5.278a17.996 17.996 0 015.291 12.742zm-17.814 10.76a11.012 11.012 0 007.743-3.272 10.95 10.95 0 003.156-7.775 11.07 11.07 0 00-3.126-8.245 11.118 11.118 0 00-8.168-3.362 11.108 11.108 0 00-10.33 7.527 11.052 11.052 0 00-.55 4.467 11.039 11.039 0 003.45 7.633 11.088 11.088 0 007.825 3.027z"/></g><defs><linearGradient id="paint0_linear_168_9258" x1="99.4" y1="0" x2="104.133" y2="213" gradientUnits="userSpaceOnUse"><stop stop-color="#52B9B5"/><stop offset="1" stop-color="#fff"/></linearGradient><clipPath id="clip0_168_9258"><path fill="#fff" transform="translate(41 40)" d="M0 0h131v133H0z"/></clipPath></defs></svg>