<svg width="115" height="115" fill="none" xmlns="http://www.w3.org/2000/svg"><circle cx="57.5" cy="57.5" r="56" stroke="url(#paint0_linear_67_2063)" stroke-width="3"/><path d="M29.75 27.375a4.375 4.375 0 00-4.375 4.375v35a4.375 4.375 0 004.375 4.375h41.938a8.75 8.75 0 016.187 2.563l8.75 8.75V31.75a4.375 4.375 0 00-4.375-4.375h-52.5zM82.25 23A8.75 8.75 0 0191 31.75v55.969c0 1.949-2.356 2.925-3.734 1.547L74.78 76.78a4.375 4.375 0 00-3.093-1.281H29.75A8.75 8.75 0 0121 66.75v-35A8.75 8.75 0 0129.75 23h52.5z" fill="#55AE9E"/><path d="M34.125 38.313c0-1.209.98-2.188 2.188-2.188h39.374a2.188 2.188 0 010 4.375H36.313a2.188 2.188 0 01-2.188-2.188zm0 10.937c0-1.208.98-2.188 2.188-2.188h39.374a2.188 2.188 0 010 4.376H36.313a2.188 2.188 0 01-2.188-2.188zm0 10.938c0-1.209.98-2.188 2.188-2.188h21.874a2.188 2.188 0 010 4.375H36.314a2.188 2.188 0 01-2.188-2.188z" fill="#55AE9E"/><defs><linearGradient id="paint0_linear_67_2063" x1="53.667" y1="0" x2="56.222" y2="115" gradientUnits="userSpaceOnUse"><stop stop-color="#52B9B5"/><stop offset="1" stop-color="#fff"/></linearGradient></defs></svg>