<svg width="115" height="115" fill="none" xmlns="http://www.w3.org/2000/svg"><circle cx="57.5" cy="57.5" r="56" stroke="url(#paint0_linear_67_2058)" stroke-width="3"/><path d="M49.25 58c7.249 0 13.125-5.876 13.125-13.125S56.499 31.75 49.25 31.75s-13.125 5.876-13.125 13.125S42.001 58 49.25 58zM58 44.875a8.75 8.75 0 11-17.5 0 8.75 8.75 0 0117.5 0zM75.5 79.875c0 4.375-4.375 4.375-4.375 4.375h-43.75S23 84.25 23 79.875s4.375-17.5 26.25-17.5S75.5 75.5 75.5 79.875zm-4.375-.015c-.006-1.08-.673-4.314-3.64-7.282-2.854-2.854-8.22-5.828-18.235-5.828-10.015 0-15.381 2.974-18.235 5.828-2.967 2.968-3.634 6.202-3.64 7.282h43.75z" fill="#55AE9E"/><path fill-rule="evenodd" clip-rule="evenodd" d="M82.063 44.875c1.208 0 2.187.98 2.187 2.188v6.562h6.563a2.188 2.188 0 010 4.375H84.25v6.563a2.188 2.188 0 01-4.375 0V58h-6.563a2.188 2.188 0 010-4.375h6.563v-6.563c0-1.208.98-2.187 2.188-2.187z" fill="#55AE9E"/><defs><linearGradient id="paint0_linear_67_2058" x1="53.667" y1="0" x2="56.222" y2="115" gradientUnits="userSpaceOnUse"><stop stop-color="#52B9B5"/><stop offset="1" stop-color="#fff"/></linearGradient></defs></svg>