<svg width="102" height="102" fill="none" xmlns="http://www.w3.org/2000/svg"><path fill-rule="evenodd" clip-rule="evenodd" d="M51 95.106c24.281 0 43.965-19.684 43.965-43.965C94.965 26.86 75.28 7.176 51 7.176c-24.281 0-43.965 19.684-43.965 43.965C7.035 75.422 26.72 95.106 51 95.106zm0 6.28c27.75 0 50.245-22.495 50.245-50.245C101.245 23.391 78.75.896 51 .896 23.25.896.755 23.39.755 51.14c0 27.75 22.495 50.245 50.245 50.245z" fill="#D6FFF7"/><path fill-rule="evenodd" clip-rule="evenodd" d="M51 85.685c19.078 0 34.544-15.466 34.544-34.544 0-19.078-15.466-34.544-34.544-34.544-19.078 0-34.544 15.466-34.544 34.544 0 19.078 15.466 34.544 34.544 34.544zm0 3.14c20.812 0 37.684-16.872 37.684-37.684 0-20.812-16.872-37.684-37.684-37.684-20.812 0-37.684 16.872-37.684 37.684 0 20.812 16.872 37.684 37.684 37.684z" fill="#D6FFF7"/><path d="M37.13 54.97c-2.014 0-3.743-.52-5.188-1.556-1.425-1.057-2.518-2.492-3.278-4.307-.741-1.834-1.112-3.928-1.112-6.28 0-3.57.884-6.42 2.651-8.554 1.768-2.153 4.077-3.23 6.928-3.23 2.889 0 5.207 1.077 6.956 3.23 1.748 2.133 2.623 4.985 2.623 8.554 0 2.352-.38 4.446-1.14 6.28-.742 1.815-1.835 3.25-3.28 4.307-1.425 1.037-3.145 1.555-5.16 1.555zm0-4.696c1.426 0 2.52-.638 3.28-1.914.76-1.296 1.14-3.14 1.14-5.533 0-2.393-.4-4.167-1.198-5.324-.798-1.176-1.872-1.764-3.221-1.764-1.292 0-2.357.588-3.193 1.764-.817 1.157-1.226 2.931-1.226 5.324 0 2.392.37 4.237 1.112 5.533.76 1.276 1.863 1.914 3.307 1.914zm-.256 23.477l23.206-41.87h5.16L42.09 73.75h-5.217zm27.995.838c-2.014 0-3.744-.519-5.188-1.555-1.426-1.057-2.518-2.493-3.279-4.307-.74-1.834-1.111-3.928-1.111-6.28 0-3.57.883-6.421 2.65-8.554 1.768-2.154 4.077-3.23 6.928-3.23 2.89 0 5.208 1.076 6.956 3.23 1.749 2.133 2.623 4.984 2.623 8.553 0 2.353-.38 4.447-1.14 6.281-.742 1.814-1.834 3.25-3.279 4.307-1.425 1.036-3.145 1.555-5.16 1.555zm0-4.696c1.426 0 2.519-.638 3.279-1.914.76-1.296 1.14-3.14 1.14-5.533 0-2.392-.4-4.167-1.197-5.323-.799-1.177-1.872-1.765-3.222-1.765-1.292 0-2.356.588-3.193 1.765-.817 1.156-1.226 2.93-1.226 5.323 0 2.393.371 4.237 1.112 5.533.76 1.276 1.863 1.914 3.307 1.914z" fill="#D6FFF7"/></svg>