<svg width="115" height="115" fill="none" xmlns="http://www.w3.org/2000/svg"><circle cx="57.5" cy="57.5" r="56" stroke="url(#paint0_linear_67_2059)" stroke-width="3"/><path d="M49.25 57c7.249 0 13.125-5.876 13.125-13.125S56.499 30.75 49.25 30.75s-13.125 5.876-13.125 13.125S42.001 57 49.25 57zM58 43.875a8.75 8.75 0 11-17.5 0 8.75 8.75 0 0117.5 0zM75.5 78.875c0 4.375-4.375 4.375-4.375 4.375h-43.75S23 83.25 23 78.875s4.375-17.5 26.25-17.5S75.5 74.5 75.5 78.875zm-4.375-.015c-.006-1.08-.673-4.314-3.64-7.282-2.854-2.854-8.22-5.828-18.235-5.828-10.015 0-15.381 2.974-18.235 5.828-2.967 2.968-3.634 6.202-3.64 7.282h43.75z" fill="#55AE9E"/><path fill-rule="evenodd" clip-rule="evenodd" d="M92.36 44.516c.854.854.854 2.239 0 3.093L79.233 60.734a2.188 2.188 0 01-3.093 0l-6.563-6.562a2.187 2.187 0 113.094-3.094l5.016 5.016 11.578-11.578a2.187 2.187 0 013.093 0z" fill="#55AE9E"/><defs><linearGradient id="paint0_linear_67_2059" x1="53.667" y1="0" x2="56.222" y2="115" gradientUnits="userSpaceOnUse"><stop stop-color="#52B9B5"/><stop offset="1" stop-color="#fff"/></linearGradient></defs></svg>