<svg width="647" height="256" fill="none" xmlns="http://www.w3.org/2000/svg"><path d="M50.824 237.942h-15.02l-22.618-31.428v31.428H0v-61.987h13.186v30.039l22.356-30.039h14.06l-22.705 29.778 23.927 32.209zM113.554 206.862c0 4.804-.611 9.173-1.834 13.109-1.164 3.878-2.969 7.235-5.414 10.071-2.387 2.836-5.472 5.006-9.257 6.511-3.726 1.505-8.12 2.257-13.186 2.257-5.065 0-9.49-.752-13.273-2.257-3.726-1.563-6.812-3.733-9.257-6.511-2.387-2.836-4.192-6.222-5.414-10.158-1.165-3.935-1.747-8.305-1.747-13.109 0-6.425 1.048-12.01 3.144-16.756 2.154-4.746 5.414-8.421 9.78-11.025C71.522 176.331 77.14 175 83.952 175c6.753 0 12.313 1.331 16.679 3.994 4.366 2.604 7.597 6.308 9.693 11.112 2.154 4.746 3.231 10.331 3.231 16.756zm-45.497 0c0 4.341.553 8.074 1.66 11.199 1.105 3.125 2.823 5.527 5.151 7.206 2.33 1.678 5.327 2.518 8.995 2.518 3.784 0 6.812-.84 9.082-2.518 2.329-1.679 4.017-4.081 5.065-7.206 1.106-3.125 1.66-6.858 1.66-11.199 0-6.54-1.223-11.663-3.669-15.367-2.445-3.704-6.462-5.556-12.05-5.556-3.726 0-6.754.839-9.082 2.518-2.33 1.678-4.047 4.08-5.153 7.205-1.106 3.126-1.659 6.859-1.659 11.2zM152.842 237.942l-15.02-48.617h-.349l.262 5.209c.116 2.315.232 4.804.349 7.466.116 2.604.174 4.977.174 7.119v28.823h-11.789v-61.987h17.99l14.758 47.402h.262l15.631-47.402h17.989v61.987h-12.313v-29.344c0-1.968.029-4.225.088-6.772.116-2.546.203-4.948.262-7.205l.262-5.209h-.35l-16.068 48.53h-12.138zM247.011 237.942l-4.541-14.759h-22.705l-4.541 14.759H200.99l22.006-62.247h16.156l22.093 62.247h-14.234zm-12.226-40.196c-.291-.984-.669-2.228-1.135-3.733a465.354 465.354 0 01-1.397-4.601 98.962 98.962 0 01-1.135-4.081 100.784 100.784 0 01-1.223 4.341 268.534 268.534 0 01-1.397 4.862c-.408 1.505-.728 2.575-.961 3.212l-4.453 14.412h16.242l-4.541-14.412zM320.228 237.942h-13.186v-26.739h-24.714v26.739h-13.186v-61.987h13.186v24.309h24.714v-24.309h13.186v61.987zM384.731 175.955v51.048h8.296V256h-12.75v-18.058h-39.034V256h-12.75v-28.997h4.803a169.243 169.243 0 004.716-10.244c1.513-3.589 2.91-7.437 4.191-11.547 1.339-4.109 2.533-8.566 3.581-13.37 1.048-4.861 1.921-10.157 2.619-15.887h36.328zm-25.848 10.939c-.408 3.01-.99 6.222-1.747 9.637-.757 3.356-1.659 6.8-2.707 10.331-.99 3.53-2.096 7.003-3.318 10.418a125.678 125.678 0 01-3.93 9.723h24.364v-40.109h-12.662zM440.766 237.942l-4.541-14.759H413.52l-4.541 14.759h-14.234l22.006-62.247h16.155L455 237.942h-14.234zm-12.226-40.196c-.291-.984-.669-2.228-1.135-3.733a439.935 439.935 0 01-1.397-4.601 100.757 100.757 0 01-1.136-4.081 99.141 99.141 0 01-1.222 4.341 276.914 276.914 0 01-1.397 4.862c-.408 1.505-.728 2.575-.961 3.212l-4.454 14.412h16.243l-4.541-14.412z" fill="#fff"/><path d="M105.496 68.39L177.838 0H211v127.859h-54.35V95.151h21.188V47.575l-72.337 68.39-72.348-68.39v47.576H54.35v32.708H0V0h33.153l72.343 68.39zM421.842 0h33.157v127.859h-33.157V0z" fill="#F9FBFA"/><path fill-rule="evenodd" clip-rule="evenodd" d="M244 0h33.157v32.708h78.371c26.636 0 48.228 21.3 48.228 47.576 0 26.275-21.592 47.575-48.228 47.575H244V0zm33.157 98.124h78.371c9.989 0 18.086-7.987 18.086-17.84 0-9.854-8.097-17.841-18.086-17.841h-78.371v35.681z" fill="#F9FBFA"/><path fill-rule="evenodd" clip-rule="evenodd" d="M594.967 201.288a1.91 1.91 0 01.588-.306c.221-.071.457-.107.695-.107.238 0 .475.036.695.107.22.071.42.175.588.306L618 217.17l20.467-15.882c.34-.264.802-.412 1.283-.412.481 0 .943.148 1.283.412.341.264.532.622.532.996 0 .373-.191.731-.532.995l-21.75 16.875a1.91 1.91 0 01-.588.306 2.275 2.275 0 01-1.39 0 1.91 1.91 0 01-.588-.306l-21.75-16.875a1.426 1.426 0 01-.394-.456 1.133 1.133 0 01-.139-.539c0-.185.047-.368.139-.539a1.44 1.44 0 01.394-.457z" fill="#fff"/><path fill-rule="evenodd" clip-rule="evenodd" d="M594.967 191.442a1.91 1.91 0 01.588-.306c.221-.071.457-.107.695-.107.238 0 .475.036.695.107.22.071.42.175.588.306L618 207.324l20.467-15.882c.168-.131.368-.235.589-.306a2.299 2.299 0 011.389 0c.22.071.42.175.588.306.169.13.303.286.394.456.091.171.138.354.138.539 0 .185-.047.368-.138.539a1.44 1.44 0 01-.394.457l-21.75 16.875a1.91 1.91 0 01-.588.306c-.22.071-.457.107-.695.107-.238 0-.474-.036-.695-.107a1.91 1.91 0 01-.588-.306l-21.75-16.875a1.44 1.44 0 01-.394-.457 1.133 1.133 0 01-.139-.539c0-.185.047-.368.139-.539.091-.171.225-.326.394-.456z" fill="#9FD8DF"/><path fill-rule="evenodd" clip-rule="evenodd" d="M594.967 228.288a1.91 1.91 0 01.588-.306c.221-.071.457-.107.695-.107.238 0 .475.036.695.107.22.071.42.175.588.306L618 244.17l20.467-15.882c.34-.264.802-.412 1.283-.412.481 0 .943.148 1.283.412.341.264.532.622.532.996 0 .373-.191.731-.532.995l-21.75 16.875a1.91 1.91 0 01-.588.306 2.275 2.275 0 01-1.39 0 1.91 1.91 0 01-.588-.306l-21.75-16.875a1.426 1.426 0 01-.394-.456 1.133 1.133 0 01-.139-.539c0-.185.047-.368.139-.539a1.44 1.44 0 01.394-.457z" fill="#fff"/><path fill-rule="evenodd" clip-rule="evenodd" d="M594.967 218.442a1.91 1.91 0 01.588-.306c.221-.071.457-.107.695-.107.238 0 .475.036.695.107.22.071.42.175.588.306L618 234.324l20.467-15.882c.168-.131.368-.235.589-.306a2.299 2.299 0 011.389 0c.22.071.42.175.588.306.169.13.303.286.394.456.091.171.138.354.138.539 0 .185-.047.368-.138.539a1.44 1.44 0 01-.394.457l-21.75 16.875a1.91 1.91 0 01-.588.306c-.22.071-.457.107-.695.107-.238 0-.474-.036-.695-.107a1.91 1.91 0 01-.588-.306l-21.75-16.875a1.44 1.44 0 01-.394-.457 1.133 1.133 0 01-.139-.539c0-.185.047-.368.139-.539.091-.171.225-.326.394-.456z" fill="#fff"/></svg>