<svg width="363" height="331" fill="none" xmlns="http://www.w3.org/2000/svg"><path d="M40.711 189.61h-11.97L10.72 164.566v25.044H.21v-49.396h10.508v23.937l17.814-23.937h11.204l-18.093 23.73L40.71 189.61zM90.7 164.843c0 3.828-.488 7.31-1.462 10.446-.928 3.091-2.366 5.766-4.315 8.026-1.902 2.26-4.36 3.989-7.376 5.188-2.969 1.199-6.472 1.799-10.508 1.799-4.036 0-7.562-.6-10.577-1.799-2.97-1.245-5.428-2.975-7.376-5.188-1.902-2.26-3.34-4.958-4.315-8.095-.928-3.136-1.392-6.618-1.392-10.446 0-5.12.835-9.57 2.506-13.352 1.716-3.782 4.314-6.711 7.793-8.786 3.526-2.122 8.003-3.183 13.43-3.183 5.382 0 9.813 1.061 13.292 3.183 3.48 2.075 6.054 5.027 7.724 8.855 1.717 3.782 2.575 8.232 2.575 13.352zm-36.256 0c0 3.459.44 6.434 1.322 8.924.882 2.491 2.25 4.405 4.106 5.743 1.855 1.337 4.245 2.006 7.167 2.006 3.016 0 5.428-.669 7.237-2.006 1.856-1.338 3.202-3.252 4.037-5.743.881-2.49 1.322-5.465 1.322-8.924 0-5.212-.975-9.294-2.923-12.245-1.948-2.952-5.15-4.428-9.603-4.428-2.97 0-5.382.669-7.237 2.006-1.856 1.338-3.224 3.252-4.106 5.742-.881 2.491-1.322 5.466-1.322 8.925zM122.007 189.61l-11.969-38.742h-.279l.209 4.151c.093 1.845.186 3.828.278 5.95.093 2.075.14 3.966.14 5.673v22.968h-9.395v-49.396h14.335l11.761 37.774h.209l12.456-37.774h14.335v49.396h-9.812v-23.383c0-1.569.023-3.367.07-5.397.092-2.029.162-3.943.208-5.742l.209-4.151h-.278L131.68 189.61h-9.673zM197.048 189.61l-3.619-11.761h-18.093l-3.618 11.761h-11.343l17.536-49.603h12.874l17.606 49.603h-11.343zm-9.743-32.031c-.231-.784-.533-1.776-.904-2.975a385.334 385.334 0 01-1.114-3.667 79.624 79.624 0 01-.904-3.251 80.584 80.584 0 01-.974 3.459 221.343 221.343 0 01-1.114 3.874c-.325 1.199-.58 2.053-.765 2.56l-3.549 11.484h12.943l-3.619-11.484zM255.393 189.61h-10.508v-21.308h-19.694v21.308h-10.508v-49.396h10.508v19.371h19.694v-19.371h10.508v49.396zM306.794 140.214v40.679h6.611V204h-10.16v-14.39h-31.106V204h-10.16v-23.107h3.827a134.66 134.66 0 003.758-8.163c1.206-2.86 2.32-5.927 3.34-9.201 1.067-3.275 2.018-6.826 2.853-10.655.835-3.874 1.531-8.094 2.088-12.66h28.949zm-20.598 8.717a93.943 93.943 0 01-1.392 7.679 127.446 127.446 0 01-2.157 8.233 123.968 123.968 0 01-2.645 8.302 100.063 100.063 0 01-3.131 7.748h19.415v-31.962h-10.09zM351.446 189.61l-3.618-11.761h-18.093l-3.619 11.761h-11.343l17.537-49.603h12.873l17.606 49.603h-11.343zm-9.742-32.031c-.232-.784-.533-1.776-.905-2.975a358.588 358.588 0 01-1.113-3.667 79.804 79.804 0 01-.905-3.251 79.142 79.142 0 01-.974 3.459 213.125 213.125 0 01-1.113 3.874c-.325 1.199-.58 2.053-.766 2.56l-3.549 11.484h12.944l-3.619-11.484z" fill="#fff"/><path d="M84.278 54.498L141.926 0h26.426v101.888h-43.31V75.824h16.884V37.912L84.282 92.41 26.63 37.912v37.912h16.891v26.064H.211V0H26.63l57.648 54.498zM336.366 0h26.422v101.888h-26.422V0z" fill="#F9FBFA"/><path fill-rule="evenodd" clip-rule="evenodd" d="M194.648 0h26.422v26.064h62.452c21.226 0 38.432 16.974 38.432 37.912s-17.206 37.912-38.432 37.912h-88.874V0zm26.422 78.193h62.452c7.96 0 14.412-6.365 14.412-14.217s-6.452-14.217-14.412-14.217H221.07v28.434z" fill="#F9FBFA"/><path fill-rule="evenodd" clip-rule="evenodd" d="M157.967 276.288a1.91 1.91 0 01.588-.306c.221-.071.457-.107.695-.107.238 0 .475.036.695.107.22.071.42.175.588.306L181 292.17l20.467-15.882c.34-.264.802-.412 1.283-.412.481 0 .943.148 1.283.412.341.264.532.622.532.996 0 .373-.191.731-.532.995l-21.75 16.875a1.91 1.91 0 01-.588.306 2.275 2.275 0 01-1.39 0 1.91 1.91 0 01-.588-.306l-21.75-16.875a1.426 1.426 0 01-.394-.456 1.133 1.133 0 01-.139-.539c0-.185.047-.368.139-.539a1.44 1.44 0 01.394-.457z" fill="#fff"/><path fill-rule="evenodd" clip-rule="evenodd" d="M157.967 266.442c.168-.131.368-.234.588-.305a2.28 2.28 0 011.39 0c.22.071.42.174.588.305L181 282.325l20.467-15.883c.168-.13.368-.234.589-.305.22-.071.456-.107.694-.107.238 0 .474.036.695.107.22.071.42.175.588.305.169.131.303.286.394.457.091.171.138.354.138.539 0 .185-.047.368-.138.539a1.44 1.44 0 01-.394.457l-21.75 16.875a1.887 1.887 0 01-.588.305 2.275 2.275 0 01-1.39 0c-.22-.07-.42-.174-.588-.305l-21.75-16.875a1.44 1.44 0 01-.394-.457 1.133 1.133 0 01-.139-.539c0-.185.047-.368.139-.539a1.44 1.44 0 01.394-.457z" fill="#9FD8DF"/><path fill-rule="evenodd" clip-rule="evenodd" d="M157.967 303.288a1.91 1.91 0 01.588-.306c.221-.071.457-.107.695-.107.238 0 .475.036.695.107.22.071.42.175.588.306L181 319.17l20.467-15.882c.34-.264.802-.412 1.283-.412.481 0 .943.148 1.283.412.341.264.532.622.532.996 0 .373-.191.731-.532.995l-21.75 16.875a1.91 1.91 0 01-.588.306 2.275 2.275 0 01-1.39 0 1.91 1.91 0 01-.588-.306l-21.75-16.875a1.426 1.426 0 01-.394-.456 1.133 1.133 0 01-.139-.539c0-.185.047-.368.139-.539a1.44 1.44 0 01.394-.457z" fill="#fff"/><path fill-rule="evenodd" clip-rule="evenodd" d="M157.967 293.442c.168-.131.368-.234.588-.305a2.28 2.28 0 011.39 0c.22.071.42.174.588.305L181 309.325l20.467-15.883c.168-.13.368-.234.589-.305.22-.071.456-.107.694-.107.238 0 .474.036.695.107.22.071.42.175.588.305.169.131.303.286.394.457.091.171.138.354.138.539 0 .185-.047.368-.138.539a1.44 1.44 0 01-.394.457l-21.75 16.875a1.887 1.887 0 01-.588.305 2.275 2.275 0 01-1.39 0c-.22-.07-.42-.174-.588-.305l-21.75-16.875a1.44 1.44 0 01-.394-.457 1.133 1.133 0 01-.139-.539c0-.185.047-.368.139-.539a1.44 1.44 0 01.394-.457z" fill="#fff"/></svg>