<svg width="324" height="182" fill="none" xmlns="http://www.w3.org/2000/svg"><path d="M36.133 169.162H25.454l-16.08-22.343v22.343H0v-44.069h9.375v21.356l15.893-21.356h9.996l-16.142 21.171 17.01 22.898zM80.73 147.066c0 3.415-.434 6.522-1.303 9.32-.828 2.757-2.111 5.143-3.85 7.16-1.696 2.016-3.89 3.559-6.58 4.629-2.65 1.07-5.774 1.605-9.375 1.605-3.6 0-6.746-.535-9.437-1.605-2.649-1.111-4.842-2.654-6.58-4.629-1.698-2.017-2.98-4.424-3.85-7.222-.828-2.798-1.242-5.904-1.242-9.32 0-4.567.745-8.538 2.236-11.912 1.53-3.374 3.849-5.987 6.953-7.839 3.145-1.893 7.14-2.839 11.982-2.839 4.801 0 8.754.946 11.858 2.839 3.104 1.852 5.401 4.485 6.891 7.901 1.532 3.374 2.298 7.345 2.298 11.912zm-32.345 0c0 3.086.393 5.74 1.18 7.962.786 2.222 2.007 3.93 3.662 5.123 1.656 1.193 3.788 1.79 6.395 1.79 2.69 0 4.843-.597 6.457-1.79 1.655-1.193 2.856-2.901 3.6-5.123.787-2.222 1.18-4.876 1.18-7.962 0-4.65-.869-8.291-2.607-10.925-1.739-2.633-4.594-3.95-8.568-3.95-2.649 0-4.801.597-6.457 1.79-1.655 1.193-2.876 2.901-3.663 5.123-.786 2.222-1.18 4.876-1.18 7.962zM108.662 169.162l-10.678-34.564h-.249l.187 3.703c.082 1.646.165 3.416.248 5.309.083 1.851.124 3.538.124 5.061v20.491h-8.381v-44.069h12.789l10.492 33.7h.187l11.113-33.7h12.789v44.069h-8.754V148.3c0-1.399.021-3.003.062-4.814.083-1.81.145-3.518.186-5.123l.187-3.703h-.249l-11.423 34.502h-8.63zM175.611 169.162l-3.228-10.492h-16.142l-3.229 10.492h-10.119l15.645-44.254h11.486l15.707 44.254h-10.12zm-8.692-28.577c-.207-.699-.476-1.584-.807-2.654a327.03 327.03 0 01-.993-3.271 71.066 71.066 0 01-.807-2.901 71.494 71.494 0 01-.869 3.086 190.138 190.138 0 01-.994 3.456c-.289 1.07-.517 1.832-.683 2.284l-3.166 10.246h11.548l-3.229-10.246zM227.664 169.162h-9.374v-19.01h-17.57v19.01h-9.375v-44.069h9.375v17.282h17.57v-17.282h9.374v44.069zM273.523 125.093v36.292h5.898v20.616h-9.065v-12.839h-27.751v12.839h-9.065v-20.616h3.415a120.528 120.528 0 003.353-7.283 90.246 90.246 0 002.98-8.209c.952-2.921 1.8-6.09 2.545-9.505.745-3.456 1.366-7.221 1.863-11.295h25.827zm-18.377 7.777a83.813 83.813 0 01-1.242 6.851 113.68 113.68 0 01-1.925 7.345 110.07 110.07 0 01-2.359 7.407 88.888 88.888 0 01-2.794 6.912h17.322V132.87h-9.002zM313.36 169.162l-3.228-10.492H293.99l-3.228 10.492h-10.12l15.645-44.254h11.486l15.707 44.254h-10.12zm-8.692-28.577c-.207-.699-.476-1.584-.807-2.654a327.03 327.03 0 01-.993-3.271 71.066 71.066 0 01-.807-2.901 71.494 71.494 0 01-.869 3.086 190.138 190.138 0 01-.994 3.456c-.289 1.07-.517 1.832-.683 2.284l-3.166 10.246h11.548l-3.229-10.246z" fill="#fff"/><path d="M75.002 48.621L126.434 0h23.575v90.9H111.37V67.648h15.064V33.823L75.006 82.446 23.57 33.824v33.823h15.07v23.254H0V0h23.57l51.432 48.621zM299.906 0h23.573v90.9h-23.573V0z" fill="#F9FBFA"/><path fill-rule="evenodd" clip-rule="evenodd" d="M173.47 0h23.573v23.254h55.718c18.936 0 34.287 15.143 34.287 33.823s-15.351 33.824-34.287 33.824H173.47V0zm23.573 69.761h55.718c7.101 0 12.858-5.679 12.858-12.684 0-7.005-5.757-12.683-12.858-12.683h-55.718V69.76z" fill="#F9FBFA"/></svg>