<svg width="16" height="16" fill="none" xmlns="http://www.w3.org/2000/svg"><g clip-path="url(#clip0_63_2253)"><circle cx="8" cy="8" r="8" fill="#2ABB44"/><path d="M7.568 3.742a.5.5 0 01.864 0l1.074 1.843a.5.5 0 00.326.237l2.084.451a.5.5 0 01.267.822l-1.42 1.59a.5.5 0 00-.125.384l.214 2.122a.5.5 0 01-.699.508l-1.951-.86a.5.5 0 00-.404 0l-1.951.86a.5.5 0 01-.7-.508l.215-2.122a.5.5 0 00-.124-.384l-1.421-1.59a.5.5 0 01.267-.822l2.084-.451a.5.5 0 00.326-.237l1.074-1.843z" fill="#fff"/></g><defs><clipPath id="clip0_63_2253"><path fill="#fff" d="M0 0h16v16H0z"/></clipPath></defs></svg>