<svg width="50" height="50" fill="none" xmlns="http://www.w3.org/2000/svg"><g clip-path="url(#clip0_168_9340)"><path d="M0 24C0 12.686 0 7.03 3.515 3.515 7.029 0 12.686 0 24 0h2c11.314 0 16.97 0 20.485 3.515C50 7.029 50 12.686 50 24v2c0 11.314 0 16.97-3.515 20.485C42.971 50 37.314 50 26 50h-2c-11.314 0-16.97 0-20.485-3.515C0 42.971 0 37.314 0 26v-2z" fill="#4CAB98"/><path d="M26.518 36C14.902 36 8.276 28.117 8 15h5.819c.191 9.628 4.48 13.706 7.879 14.547V15h5.479v8.303c3.355-.357 6.88-4.14 8.07-8.303h5.479c-.914 5.13-4.736 8.913-7.454 10.468C35.99 26.73 40.344 30.03 42 36h-6.031c-1.296-3.994-4.524-7.084-8.792-7.505V36h-.659z" fill="#fff"/></g><defs><clipPath id="clip0_168_9340"><path fill="#fff" d="M0 0h50v50H0z"/></clipPath></defs></svg>