<svg width="455" height="128" fill="none" xmlns="http://www.w3.org/2000/svg"><path d="M105.496 68.39L177.838 0H211v127.859h-54.35V95.151h21.188V47.575l-72.337 68.39-72.348-68.39v47.576H54.35v32.708H0V0h33.153l72.343 68.39zM421.842 0h33.157v127.859h-33.157V0z" fill="#F9FBFA"/><path fill-rule="evenodd" clip-rule="evenodd" d="M244 0h33.157v32.708h78.371c26.636 0 48.228 21.3 48.228 47.576 0 26.275-21.592 47.575-48.228 47.575H244V0zm33.157 98.124h78.371c9.989 0 18.086-7.987 18.086-17.84 0-9.854-8.097-17.841-18.086-17.841h-78.371v35.681z" fill="#F9FBFA"/></svg>