<svg width="318" height="411" fill="none" xmlns="http://www.w3.org/2000/svg"><path d="M158.499 102.75L267.187 0h49.823v192.098h-81.656v-49.141h31.833V71.478l-108.68 102.75L49.81 71.478v71.479h31.847v49.141H0V0h49.81l108.688 102.75zM267.193 218.902h49.815V411h-49.815V218.902z" fill="#F9FBFA"/><path fill-rule="evenodd" clip-rule="evenodd" d="M0 218.902h49.816v49.141h117.746c40.018 0 72.459 32.002 72.459 71.479 0 39.476-32.441 71.478-72.459 71.478H0V218.902zm49.816 147.424h117.746c15.006 0 27.172-12.001 27.172-26.804 0-14.804-12.166-26.805-27.172-26.805H49.816v53.609z" fill="#F9FBFA"/></svg>